<?xml version="1.0" encoding="UTF-8"?>
<!DOCTYPE svg PUBLIC "-//W3C//DTD SVG 1.1//EN" "http://www.w3.org/Graphics/SVG/1.1/DTD/svg11.dtd">
<!-- Creator: CorelDRAW X7 -->
<svg xmlns="http://www.w3.org/2000/svg" xml:space="preserve" width="99.2821mm" height="100.555mm" version="1.1" style="shape-rendering:geometricPrecision; text-rendering:geometricPrecision; image-rendering:optimizeQuality; fill-rule:evenodd; clip-rule:evenodd"
viewBox="0 0 7594 7692"
 xmlns:xlink="http://www.w3.org/1999/xlink">
 <defs>
  <style type="text/css">
   <![CDATA[
    .fil0 {fill:#FFF;fill-rule:nonzero}
   ]]>
  </style>
 </defs>
 <g id="Capa_x0020_1">
  <metadata id="CorelCorpID_0Corel-Layer"/>
  <g id="_2986234881856">
   <path class="fil0" d="M2859 34c-112,48 -195,115 -249,202 -66,108 -80,169 -91,390l-10 202 -179 59c-99,32 -248,95 -332,139l-151 80 -146 -139c-159,-153 -214,-188 -346,-217 -100,-22 -244,-3 -341,46 -190,97 -307,338 -268,551 24,128 64,194 218,351l142 146 -67 126c-75,142 -162,356 -191,474l-19 76 -211 8c-260,8 -347,36 -460,146 -113,109 -158,216 -158,375 0,107 7,142 41,214 22,46 70,115 106,150 127,124 254,162 534,162 123,0 153,4 153,21 0,52 100,317 182,482l88 179 -140 143c-155,156 -194,220 -218,350 -43,230 76,453 298,559 80,37 116,45 209,46 164,0 269,-53 454,-229l143 -137 94 53c125,70 346,161 472,195l101 27 0 143c1,284 40,412 162,538 35,36 104,84 150,106 72,34 107,41 214,41 112,0 138,-5 218,-45 99,-50 94,-35 74,-226 -21,-211 52,-398 217,-551 94,-87 158,-122 307,-169 14,-4 36,-32 48,-60l22 -52 -44 -93c-127,-268 -76,-573 130,-778 137,-138 284,-199 476,-200 123,0 210,20 316,74l73 37 57 -19c50,-17 58,-26 73,-88 29,-111 90,-207 195,-305 164,-154 351,-211 577,-176l121 18 56 -63c89,-99 124,-187 131,-324 7,-149 -28,-256 -119,-359 -124,-141 -261,-190 -536,-190 -124,0 -171,-5 -175,-18 -55,-203 -226,-612 -267,-637 -8,-5 51,-76 132,-161 187,-193 224,-268 224,-446 0,-114 -5,-138 -49,-228 -57,-116 -136,-192 -259,-250 -67,-31 -105,-39 -203,-39 -175,0 -260,43 -446,227 -113,112 -150,141 -165,129 -75,-61 -415,-204 -639,-268 -11,-3 -18,-77 -22,-220 -6,-194 -10,-223 -46,-300 -52,-113 -142,-208 -246,-261 -122,-61 -293,-68 -415,-17zm447 2018c353,89 641,378 737,742 35,131 35,380 0,511 -78,291 -272,528 -542,662 -162,80 -271,105 -451,105 -299,0 -519,-91 -729,-302 -210,-210 -300,-426 -300,-721 0,-293 90,-510 299,-722 180,-183 361,-269 640,-306 71,-9 248,7 346,31z"/>
   <path class="fil0" d="M5577 3852c-127,46 -178,130 -190,317l-8 133 -75 17c-113,25 -274,91 -386,156l-99 59 -81 -83c-93,-96 -149,-125 -247,-125 -92,0 -165,37 -218,110 -91,126 -67,256 77,407l76 81 -74 142c-69,132 -100,210 -136,351l-16 62 -133 7c-144,8 -203,31 -262,101 -117,139 -77,343 82,420 51,25 95,32 188,32l122 0 18 78c26,107 112,319 166,406 24,39 44,77 44,82 0,5 -40,52 -89,103 -96,101 -129,180 -113,269 31,165 203,271 358,220 31,-11 98,-58 150,-107l95 -89 119 68c105,60 363,157 418,157 15,0 22,35 27,140 4,113 12,151 40,195 104,170 353,175 463,9 37,-54 43,-81 47,-199l6 -137 121 -34c129,-36 313,-117 388,-171l43 -31 94 86c51,48 115,96 142,107 137,57 285,-7 352,-153 55,-117 23,-221 -105,-345 -42,-40 -77,-79 -77,-85 0,-6 24,-52 53,-100 59,-99 129,-272 157,-388l19 -78 139 -5c123,-5 146,-10 203,-48 128,-85 159,-267 65,-382 -72,-89 -125,-112 -277,-121l-133 -7 -9 -39c-25,-112 -77,-248 -144,-374l-73 -140 90 -99c58,-63 96,-121 107,-160 55,-206 -128,-386 -338,-333 -57,14 -92,37 -162,108l-90 90 -100 -58c-111,-65 -273,-130 -386,-155l-75 -17 -8 -133c-9,-149 -31,-206 -105,-268 -43,-37 -132,-71 -180,-70 -12,1 -48,10 -80,21zm250 1383c231,70 388,281 388,523 0,314 -234,554 -543,557 -128,2 -214,-24 -315,-92 -101,-68 -168,-154 -211,-269 -47,-125 -39,-310 18,-426 67,-135 197,-249 334,-292 85,-27 242,-27 329,-1z"/>
  </g>
 </g>
</svg>
