<?xml version="1.0" encoding="UTF-8"?>
<!DOCTYPE svg PUBLIC "-//W3C//DTD SVG 1.1//EN" "http://www.w3.org/Graphics/SVG/1.1/DTD/svg11.dtd">
<!-- Creator: CorelDRAW X7 -->
<svg xmlns="http://www.w3.org/2000/svg" xml:space="preserve" width="43.1079mm" height="65.6111mm" version="1.1" style="shape-rendering:geometricPrecision; text-rendering:geometricPrecision; image-rendering:optimizeQuality; fill-rule:evenodd; clip-rule:evenodd"
viewBox="0 0 1277 1944"
 xmlns:xlink="http://www.w3.org/1999/xlink">
 <defs>
  <style type="text/css">
   <![CDATA[
    .fil0 {fill:#FFF}
   ]]>
  </style>
 </defs>
 <g id="Capa_x0020_1">
  <metadata id="CorelCorpID_0Corel-Layer"/>
  <path class="fil0" d="M53 858l980 -823c63,-53 157,-45 209,18l0 0c53,62 45,157 -18,209l-809 679c-4,4 -15,11 -15,31 0,19 10,27 15,31l809 679c63,52 71,146 18,209l0 0c-52,62 -146,71 -209,18l-980 -823c-34,-28 -52,-69 -53,-110l0 0 0 -2c-1,-43 17,-87 53,-116z"/>
 </g>
</svg>
