<?xml version="1.0" encoding="UTF-8"?>
<!DOCTYPE svg PUBLIC "-//W3C//DTD SVG 1.1//EN" "http://www.w3.org/Graphics/SVG/1.1/DTD/svg11.dtd">
<!-- Creator: CorelDRAW X7 -->
<svg xmlns="http://www.w3.org/2000/svg" xml:space="preserve" width="43.1079mm" height="65.6111mm" version="1.1" style="shape-rendering:geometricPrecision; text-rendering:geometricPrecision; image-rendering:optimizeQuality; fill-rule:evenodd; clip-rule:evenodd"
viewBox="0 0 31936 48607"
 xmlns:xlink="http://www.w3.org/1999/xlink">
 <defs>
  <style type="text/css">
   <![CDATA[
    .fil0 {fill:#FFFFFF}
   ]]>
  </style>
 </defs>
 <g id="Capa_x0020_1">
  <metadata id="CorelCorpID_0Corel-Layer"/>
  <path class="fil0" d="M30615 21445l-24519 -20580c-1564,-1313 -3918,-1108 -5231,457l0 0c-1313,1564 -1107,3917 457,5230l20226 16977c103,111 373,285 373,772 0,492 -251,679 -373,777l-20226 16977c-1564,1313 -1770,3667 -457,5231l0 0c1313,1564 3666,1769 5230,457l24519 -20580c845,-709 1293,-1721 1320,-2748l1 -11 0 -47c19,-1083 -431,-2166 -1320,-2912z"/>
 </g>
</svg>
