<?xml version="1.0" encoding="UTF-8" standalone="no"?>
<!-- Created with Inkscape (http://www.inkscape.org/) -->

<svg
   version="1.1"
   id="svg1"
   width="67.333199"
   height="48.666931"
   viewBox="0 0 67.333199 48.666931"
   sodipodi:docname="btn_prev.pdf"
   xmlns:inkscape="http://www.inkscape.org/namespaces/inkscape"
   xmlns:sodipodi="http://sodipodi.sourceforge.net/DTD/sodipodi-0.dtd"
   xmlns="http://www.w3.org/2000/svg"
   xmlns:svg="http://www.w3.org/2000/svg">
  <defs
     id="defs1" />
  <sodipodi:namedview
     id="namedview1"
     pagecolor="#ffffff"
     bordercolor="#666666"
     borderopacity="1.0"
     inkscape:showpageshadow="2"
     inkscape:pageopacity="0.0"
     inkscape:pagecheckerboard="0"
     inkscape:deskcolor="#d1d1d1">
    <inkscape:page
       x="0"
       y="0"
       inkscape:label="1"
       id="page1"
       width="67.333199"
       height="48.666931"
       margin="0"
       bleed="0" />
  </sodipodi:namedview>
  <g
     id="layer-Pr14"
     inkscape:groupmode="layer"
     inkscape:label="Capa 1">
    <path
       id="path1"
       d="m 33.7507,25.6535 c 0.5533,0.5534 1.4508,0.5534 2.0041,0 0.5533,-0.5533 0.5533,-1.4507 0,-2.0041 l -5.0009,-5.0008 5.0009,-5.0006 c 0.5533,-0.5534 0.5533,-1.4508 0,-2.0041 -0.5533,-0.5533 -1.4508,-0.5533 -2.0041,0 l -6.0029,6.0026 -1.0021,1.0021 1.0021,1.002 z"
       style="fill:#fefefe;fill-opacity:1;fill-rule:nonzero;stroke:none"
       transform="matrix(1.3333333,0,0,-1.3333333,1.3333333,47.3336)" />
    <path
       id="path2"
       d="m 23.9992,25.6535 c 0.5534,0.5534 1.4508,0.5534 2.0041,0 0.5534,-0.5533 0.5534,-1.4507 0,-2.0041 l -5.0008,-5.0008 5.0008,-5.0006 c 0.5534,-0.5534 0.5534,-1.4508 0,-2.0041 -0.5533,-0.5533 -1.4507,-0.5533 -2.0041,0 l -6.0029,6.0026 -1.002,1.0021 1.002,1.002 z"
       style="fill:#fefefe;fill-opacity:1;fill-rule:nonzero;stroke:none"
       transform="matrix(1.3333333,0,0,-1.3333333,1.3333333,47.3336)" />
  </g>
</svg>
