<?xml version="1.0" encoding="UTF-8" standalone="no"?>
<!-- Created with Inkscape (http://www.inkscape.org/) -->

<svg
   version="1.1"
   id="svg1"
   width="67.333199"
   height="48.666931"
   viewBox="0 0 67.333199 48.666931"
   sodipodi:docname="btn_delete.pdf"
   xmlns:inkscape="http://www.inkscape.org/namespaces/inkscape"
   xmlns:sodipodi="http://sodipodi.sourceforge.net/DTD/sodipodi-0.dtd"
   xmlns="http://www.w3.org/2000/svg"
   xmlns:svg="http://www.w3.org/2000/svg">
  <defs
     id="defs1" />
  <sodipodi:namedview
     id="namedview1"
     pagecolor="#ffffff"
     bordercolor="#666666"
     borderopacity="1.0"
     inkscape:showpageshadow="2"
     inkscape:pageopacity="0.0"
     inkscape:pagecheckerboard="0"
     inkscape:deskcolor="#d1d1d1">
    <inkscape:page
       x="0"
       y="0"
       inkscape:label="1"
       id="page1"
       width="67.333199"
       height="48.666931"
       margin="0"
       bleed="0" />
  </sodipodi:namedview>
  <g
     id="layer-Pr14"
     inkscape:groupmode="layer"
     inkscape:label="Capa 1">
    <path
       id="path1"
       d="M 18.0363,23.0491 H 31.0365 V 10.7989 H 18.0363 Z m -0.1979,0.9243 c -0.7826,0 -1.4173,0.6347 -1.4173,1.4174 0,0.7826 0.6347,1.4173 1.4173,1.4173 h 3.5345 c 0.0976,0.6874 0.6889,1.2163 1.4032,1.2163 h 2.9477 c 0.7144,0 1.3057,-0.5289 1.4032,-1.2163 h 3.5345 c 0.7827,0 1.4173,-0.6347 1.4173,-1.4173 0,-0.7827 -0.6346,-1.4174 -1.4173,-1.4174 z m 9.2007,-4.2726 c 0,0.7826 0.6347,1.4173 1.4173,1.4173 0.7827,0 1.4174,-0.6347 1.4174,-1.4173 v -4.9195 c 0,-0.7827 -0.6347,-1.4174 -1.4174,-1.4174 -0.7826,0 -1.4173,0.6347 -1.4173,1.4174 z m -7.67,0 c 0,0.7826 0.6347,1.4173 1.4174,1.4173 0.7826,0 1.4173,-0.6347 1.4173,-1.4173 v -4.9195 c 0,-0.7827 -0.6347,-1.4174 -1.4173,-1.4174 -0.7827,0 -1.4174,0.6347 -1.4174,1.4174 z m 3.835,0 c 0,0.7826 0.6347,1.4173 1.4173,1.4173 0.7827,0 1.4174,-0.6347 1.4174,-1.4173 v -4.9195 c 0,-0.7827 -0.6347,-1.4174 -1.4174,-1.4174 -0.7826,0 -1.4173,0.6347 -1.4173,1.4174 z"
       style="fill:#fefefe;fill-opacity:1;fill-rule:evenodd;stroke:none"
       transform="matrix(1.3333333,0,0,-1.3333333,1.3333333,47.3336)" />
  </g>
</svg>
