<?xml version="1.0" encoding="UTF-8"?>
<!DOCTYPE svg PUBLIC "-//W3C//DTD SVG 1.1//EN" "http://www.w3.org/Graphics/SVG/1.1/DTD/svg11.dtd">
<!-- Creator: CorelDRAW X7 -->
<svg xmlns="http://www.w3.org/2000/svg" xml:space="preserve" width="1015px" height="722px" version="1.1" shape-rendering="geometricPrecision" text-rendering="geometricPrecision" image-rendering="optimizeQuality" fill-rule="evenodd" clip-rule="evenodd"
viewBox="0 0 1044 743"
 xmlns:xlink="http://www.w3.org/1999/xlink">
 <g id="Capa_x0020_1">
  <metadata id="CorelCorpID_0Corel-Layer"/>
  <rect fill="none" width="1044" height="743"/>
  <path fill="#FEFEFE" d="M276 156l80 0 0 120 172 0 0 -120 54 0 47 46 0 306c0,12 -9,21 -20,21l-333 0c-11,0 -20,-9 -20,-21l0 -332c0,-11 9,-20 20,-20zm70 209l193 0c7,0 12,5 12,12l0 113c0,7 -5,13 -12,13l-193 0c-7,0 -13,-6 -13,-13l0 -113c0,-7 6,-12 13,-12zm119 -197l46 0 0 98 -46 0 0 -98z"/>
 </g>
</svg>
