<?xml version="1.0" encoding="UTF-8"?>
<!DOCTYPE svg PUBLIC "-//W3C//DTD SVG 1.1//EN" "http://www.w3.org/Graphics/SVG/1.1/DTD/svg11.dtd">
<!-- Creator: CorelDRAW X7 -->
<svg xmlns="http://www.w3.org/2000/svg" xml:space="preserve" width="8.0357mm" height="6.5067mm" version="1.1" style="shape-rendering:geometricPrecision; text-rendering:geometricPrecision; image-rendering:optimizeQuality; fill-rule:evenodd; clip-rule:evenodd"
viewBox="0 0 43 35"
 xmlns:xlink="http://www.w3.org/1999/xlink">
 <defs>
  <style type="text/css">
   <![CDATA[
    .fil0 {fill:#677379;fill-rule:nonzero}
   ]]>
  </style>
 </defs>
 <g id="Capa_x0020_1">
  <metadata id="CorelCorpID_0Corel-Layer"/>
  <g id="_2572261879392">
   <path class="fil0" d="M30 0c0,0 0,17 0,17 0,0 0,0 0,-1 0,-1 1,-1 3,-1l0 0 0 0c1,-1 1,-1 1,-1 1,0 1,0 2,1l0 0 0 0c1,0 2,0 2,1 0,1 1,1 1,1 0,0 0,-3 0,-8l0 -9 -5 0c-2,0 -4,0 -4,0z"/>
   <path class="fil0" d="M4 2c-2,0 -3,1 -4,3l0 0 0 11 0 11 0 1c1,2 2,3 4,3 1,0 25,0 26,0 0,0 0,-2 0,-2 0,0 -6,0 -13,0l-13 0 0 0c-1,-1 -2,-1 -2,-2 0,0 0,-5 0,-11l0 -10 0 0c1,-1 1,-2 2,-2l0 0 13 0 12 0 0 -1 1 -1 -13 0c-7,0 -13,0 -13,0z"/>
   <path class="fil0" d="M40 2c-1,0 -1,0 -1,1l0 1 1 0c0,1 1,1 1,1l0 1 0 10c0,7 0,11 0,11 0,1 -1,2 -2,2l0 0 0 0c0,1 0,1 0,1l0 1 1 0c1,0 2,-2 3,-3l0 -1 0 -11 0 -11 0 0c0,-1 -2,-2 -3,-3 0,0 0,0 0,0z"/>
   <path class="fil0" d="M10 10c-1,0 -2,1 -2,2 0,1 0,3 1,4 1,1 1,1 0,1 -1,0 -2,1 -3,2 -1,1 -1,2 -1,3 0,1 5,2 8,1 3,0 4,0 4,-1 1,0 1,0 1,0 0,-2 -2,-4 -4,-5l-1 0 1 -1c1,-1 1,-2 1,-3 0,-1 0,-1 0,-1 -1,-1 -1,-2 -2,-2 -1,-1 -2,-1 -3,0zm2 8l0 0 0 2 1 1 -1 1 -1 1 0 -1c-1,0 -1,0 -1,-1 0,0 0,0 0,-1 1,-2 1,-2 1,-3 0,0 0,0 0,0l1 0 0 1z"/>
   <path class="fil0" d="M18 12c0,0 0,1 0,1 0,0 2,0 6,0l5 0 0 0 1 -1 -6 0c-3,0 -6,0 -6,0z"/>
   <path class="fil0" d="M34 15c0,0 0,1 0,1 0,0 -1,0 -2,0 0,0 0,0 0,0 -1,0 -1,0 -1,1 0,0 0,1 -1,1 -1,0 -1,0 -1,1 1,1 1,1 0,1 0,0 0,1 -1,1 0,0 0,0 0,0 1,1 1,1 1,1 1,0 1,1 0,1 0,1 0,1 1,1 1,0 1,1 1,1 0,1 1,2 1,1 1,0 1,0 2,0 0,1 1,1 1,0 1,0 1,0 1,0 1,1 2,0 2,-1 0,0 0,-1 1,-1 1,0 1,0 1,-1 -1,0 -1,-1 0,-1 0,0 0,0 0,-1 1,0 1,0 0,-1 -1,0 -1,0 0,-1 0,-1 0,-1 -1,-1 -1,0 -1,-1 -1,-1 0,-1 -1,-2 -1,-1 -1,0 -1,0 -2,0 0,-1 0,-1 -1,-1z"/>
   <path class="fil0" d="M18 16c0,0 0,1 0,1 1,0 11,0 11,0l1 0 -1 -1 0 -1 -5 0c-3,0 -5,0 -6,1z"/>
   <path class="fil0" d="M32 27c0,0 0,0 0,0l-1 0 0 2c0,1 -1,2 -1,3 0,1 0,2 0,2 0,0 0,0 0,-1 1,0 1,0 1,0 0,0 1,0 1,1 0,0 0,1 0,0 0,0 1,-1 1,-2 0,-1 0,-2 1,-3 0,-1 0,-1 0,-2 -1,0 -1,0 -1,0 0,0 0,-1 -1,0z"/>
   <path class="fil0" d="M36 27c0,0 -1,0 -1,0 0,1 0,1 0,1 0,0 0,1 0,2 1,2 1,3 1,4 0,1 1,1 1,1 0,0 0,0 0,-1 0,0 0,-1 0,-1 1,0 1,0 1,1 1,0 1,1 1,1 0,0 0,-1 0,-2 0,-1 -1,-2 -1,-3 0,-2 -1,-3 -1,-3 0,0 0,0 0,0 -1,0 -1,0 -1,0z"/>
  </g>
 </g>
</svg>
