<?xml version="1.0" encoding="UTF-8"?>
<!DOCTYPE svg PUBLIC "-//W3C//DTD SVG 1.1//EN" "http://www.w3.org/Graphics/SVG/1.1/DTD/svg11.dtd">
<!-- Creator: CorelDRAW X7 -->
<svg xmlns="http://www.w3.org/2000/svg" xml:space="preserve" width="192.409mm" height="166.572mm" version="1.1" style="shape-rendering:geometricPrecision; text-rendering:geometricPrecision; image-rendering:optimizeQuality; fill-rule:evenodd; clip-rule:evenodd"
viewBox="0 0 19392 16788"
 xmlns:xlink="http://www.w3.org/1999/xlink">
 <defs>
  <style type="text/css">
   <![CDATA[
    .str6 {stroke:#CACACA;stroke-width:26.668;stroke-linejoin:round}
    .str0 {stroke:black;stroke-width:8.88932;stroke-linejoin:round}
    .str3 {stroke:#00B050;stroke-width:71.1145;stroke-linejoin:round}
    .str2 {stroke:#00B050;stroke-width:53.3359;stroke-linejoin:round}
    .str1 {stroke:#959596;stroke-width:35.5573;stroke-linejoin:round}
    .str4 {stroke:red;stroke-width:97.7724;stroke-linejoin:round}
    .str5 {stroke:#0070C0;stroke-width:80.0039;stroke-linecap:round;stroke-linejoin:round}
    .fil1 {fill:none}
    .fil4 {fill:#FEFEFE}
    .fil2 {fill:black}
    .fil0 {fill:white}
    .fil3 {fill:black;fill-rule:nonzero}
   ]]>
  </style>
 </defs>
 <g id="Capa_x0020_1">
  <metadata id="CorelCorpID_0Corel-Layer"/>
  <g id="_2519107335504">
   <polygon class="fil0" points="2142,15249 17661,15249 17661,2070 2142,2070 "/>
   <path class="fil1 str0" d="M2142 12608l15519 0m-15519 -2629l15519 0m-15519 -2630l15519 0m-15519 -2646l15519 0m-15519 -2633l15519 0"/>
   <path class="fil1 str0" d="M5247 2070l0 13179m3100 -13179l0 13179m3099 -13179l0 13179m3117 -13179l0 13179m3098 -13179l0 13179"/>
   <polygon class="fil1 str1" points="2142,15249 17661,15249 17661,2070 2142,2070 "/>
   <line class="fil1 str0" x1="2142" y1="15249" x2="2142" y2= "2070" />
   <path class="fil1 str0" d="M2029 15249l113 0m-113 -2641l113 0m-113 -2629l113 0m-113 -2630l113 0m-113 -2646l113 0m-113 -2633l113 0"/>
   <line class="fil1 str0" x1="2142" y1="15249" x2="17661" y2= "15249" />
   <path class="fil1 str0" d="M2142 15249l0 112m3105 -112l0 112m3100 -112l0 112m3099 -112l0 112m3117 -112l0 112m3098 -112l0 112"/>
   <path class="fil1 str2" d="M2436 5193c0,163 -133,295 -297,295 -163,0 -295,-132 -295,-295 0,-164 132,-297 295,-297 164,0 297,133 297,297z"/>
   <path class="fil1 str3" d="M17160 8397c0,158 -129,287 -288,287 -158,0 -287,-129 -287,-287 0,-159 129,-288 287,-288 159,0 288,129 288,288z"/>
   <path class="fil1 str4" d="M4882 4844c0,159 -128,287 -287,287 -159,0 -288,-128 -288,-287 0,-158 129,-287 288,-287 159,0 287,129 287,287z"/>
   <path class="fil1 str3" d="M12736 6819c0,158 -129,287 -287,287 -159,0 -287,-129 -287,-287 0,-159 128,-287 287,-287 158,0 287,128 287,287z"/>
   <polyline class="fil1 str5" points="2142,5225 2165,5225 2200,5207 2217,5207 2235,5207 2269,5190 2287,5190 2322,5173 2339,5173 2374,5155 2391,5155 2426,5155 2444,5138 2479,5138 2496,5138 2531,5120 2548,5120 2565,5103 2600,5103 2618,5103 2652,5086 2670,5086 2705,5086 2722,5068 2757,5068 2774,5068 2809,5051 2827,5051 2844,5051 2879,5051 2896,5033 2931,5033 2949,5033 2983,5016 3001,5016 3036,5016 3053,5016 3088,4998 3105,4998 3123,4998 3158,4998 3175,4981 3210,4981 3227,4981 3262,4981 3280,4981 3314,4964 3332,4964 3366,4964 3384,4964 3401,4964 3436,4946 3453,4946 3488,4946 3506,4946 3541,4946 3558,4946 3593,4929 3610,4929 3645,4929 3663,4929 3680,4929 3715,4929 3732,4929 3767,4911 3784,4911 3819,4911 3837,4911 3872,4911 3889,4911 3924,4911 3941,4911 3959,4911 3994,4911 4011,4894 4045,4894 4063,4894 4098,4894 4115,4894 4150,4894 4167,4894 4202,4894 4220,4894 4237,4894 4272,4894 4289,4894 4324,4894 4342,4894 4376,4894 4394,4894 4429,4894 4446,4894 4481,4894 4498,4888 4516,4894 4551,4894 4568,4894 4603,4894 4620,4894 4655,4894 4673,4894 4707,4894 4725,4894 4760,4894 4777,4894 4794,4894 4829,4894 4847,4894 4881,4894 4899,4894 4934,4894 4951,4894 4986,4894 5003,4894 5038,4894 5056,4911 5073,4911 5108,4911 5125,4911 5160,4911 5178,4911 5212,4911 5230,4911 5265,4911 5282,4911 5317,4911 5334,4929 5352,4929 5387,4929 5404,4929 5439,4929 5456,4929 5491,4929 5508,4929 5543,4946 5560,4946 5595,4946 5613,4946 5648,4946 5665,4946 5682,4946 5717,4964 5735,4964 5770,4964 5787,4964 5822,4964 5839,4964 5874,4981 5891,4981 5926,4981 5944,4981 5961,4981 5996,4998 6013,4998 6048,4998 6066,4998 6101,4998 6118,5016 6153,5016 6170,5016 6205,5016 6222,5016 6240,5033 6274,5033 6292,5033 6327,5033 6344,5051 6379,5051 6396,5051 6431,5051 6449,5051 6483,5068 6501,5068 6518,5068 6553,5068 6571,5086 6605,5086 6623,5086 6658,5086 6675,5103 6710,5103 6727,5103 6762,5120 6780,5120 6797,5120 6832,5120 6849,5138 6884,5138 6902,5138 6936,5138 6954,5155 6988,5155 7006,5155 7041,5173 7058,5173 7075,5173 7110,5173 7128,5190 7163,5190 7180,5190 7215,5207 7232,5207 7267,5207 7285,5225 7319,5225 7337,5225 7354,5242 7389,5242 7406,5242 7441,5260 7459,5260 7494,5260 7511,5260 7546,5277 7563,5277 7598,5277 7616,5295 7633,5295 7668,5295 7685,5312 7720,5312 7737,5329 7772,5329 7789,5329 7824,5347 7842,5347 7877,5347 7894,5364 7911,5364 7946,5364 7964,5382 7998,5382 8016,5382 8051,5399 8068,5399 8103,5417 8120,5417 8155,5417 8173,5434 8190,5434 8225,5434 8242,5451 8277,5451 8295,5468 8329,5468 8347,5468 8382,5486 8399,5486 8434,5486 8451,5503 8469,5503 8503,5521 8521,5521 8556,5521 8573,5538 8608,5538 8625,5556 8660,5556 8678,5556 8712,5573 8730,5573 8747,5590 8782,5590 8800,5590 8834,5608 8852,5608 8887,5625 8904,5625 8939,5625 8956,5643 8991,5643 9009,5660 9043,5660 9061,5678 9078,5678 9113,5678 9131,5695 9165,5695 9183,5712 9217,5712 9235,5730 9270,5730 9287,5730 9322,5747 9339,5747 9357,5765 9392,5765 9409,5782 9444,5782 9461,5782 9496,5799 9513,5799 9548,5817 9566,5817 9601,5834 9618,5834 9635,5834 9670,5852 9688,5852 9723,5869 9740,5869 9775,5887 9792,5887 9827,5904 9844,5904 9879,5921 9897,5921 9914,5921 9949,5939 9966,5939 10001,5956 10018,5956 10053,5974 10071,5974 10105,5991 10123,5991 10158,6009 10175,6009 10193,6009 10227,6026 10245,6026 10280,6043 10297,6043 10332,6061 10349,6061 10384,6078 10402,6078 10436,6096 10454,6096 10471,6113 10506,6113 10524,6130 10558,6130 10576,6130 10611,6148 10628,6148 10663,6165 10680,6165 10715,6183 10732,6183 10750,6200 10785,6200 10802,6217 10837,6217 10854,6235 10889,6235 10906,6252 10941,6252 10959,6270 10994,6270 11011,6287 11028,6287 11063,6304 11081,6304 11116,6322 11133,6322 11168,6322 11185,6339 11220,6339 11238,6357 11272,6357 11290,6374 11307,6374 11342,6391 11359,6391 11394,6409 11411,6409 11446,6426 11464,6426 11498,6444 11516,6444 11551,6461 11568,6461 11586,6479 11620,6479 11638,6496 11673,6496 11690,6513 11725,6513 11742,6531 11777,6531 11795,6548 11830,6548 11847,6566 11864,6566 11899,6583 11917,6583 11951,6601 11969,6601 12004,6618 12021,6618 12056,6635 12073,6635 12108,6653 12126,6653 12160,6670 12178,6670 12195,6688 12230,6688 12247,6705 12282,6705 12300,6722 12334,6722 12352,6740 12387,6740 12404,6757 12439,6757 12456,6775 12474,6775 12509,6792 12526,6792 12561,6810 12578,6810 12613,6827 12631,6827 12665,6844 12683,6844 12718,6862 12735,6862 12753,6879 12787,6879 12805,6897 12840,6897 12857,6914 12892,6932 12909,6932 12944,6949 12961,6949 12996,6966 13013,6966 13031,6983 13066,6983 13083,7001 13118,7001 13135,7018 13170,7018 13188,7036 13223,7036 13240,7053 13275,7053 13292,7071 13310,7071 13345,7088 13362,7088 13397,7105 13414,7105 13449,7123 13466,7123 13501,7140 13519,7140 13554,7158 13571,7158 13588,7175 13623,7175 13640,7193 13675,7210 13693,7210 13727,7227 13745,7227 13780,7245 13797,7245 13832,7262 13849,7262 13867,7280 13902,7280 13919,7297 13954,7297 13971,7314 14006,7314 14024,7332 14058,7332 14076,7349 14111,7349 14128,7367 14146,7367 14180,7384 14198,7402 14233,7402 14250,7419 14285,7419 14302,7436 14337,7436 14354,7454 14389,7454 14407,7471 14424,7471 14459,7489 14476,7489 14511,7506 14528,7506 14563,7524 14581,7541 14616,7541 14633,7558 14668,7558 14685,7576 14703,7576 14738,7593 14755,7593 14790,7611 14807,7611 14842,7628 14860,7628 14894,7645 14912,7645 14947,7663 14964,7680 14981,7680 15016,7697 15034,7697 15069,7715 15086,7715 15120,7732 15138,7732 15173,7750 15190,7750 15225,7767 15242,7767 15277,7785 15295,7802 15312,7802 15347,7819 15364,7819 15399,7837 15417,7837 15452,7854 15469,7854 15504,7872 15521,7872 15556,7889 15573,7906 15591,7906 15626,7924 15643,7924 15678,7941 15695,7941 15730,7959 15748,7959 15783,7976 15800,7994 15834,7994 15852,8011 15869,8011 15904,8028 15922,8028 15956,8046 15974,8046 16009,8063 16026,8081 16061,8081 16078,8098 16113,8098 16131,8116 16148,8116 16183,8133 16200,8133 16235,8150 16253,8168 16287,8168 16305,8185 16340,8185 16357,8203 16392,8203 16409,8220 16427,8237 16462,8237 16479,8255 16514,8255 16531,8272 16566,8272 16583,8290 16618,8307 16635,8307 16670,8325 16688,8325 16705,8342 16740,8342 16757,8359 16792,8377 16810,8377 16845,8394 16865,8399 "/>
   <path class="fil2" d="M1632 15237c0,-31 4,-56 10,-75 6,-19 16,-34 28,-44 13,-10 29,-15 48,-15 14,0 26,3 37,8 10,6 19,14 26,25 7,11 12,24 16,39 4,15 6,36 6,62 0,30 -3,55 -10,74 -6,19 -15,34 -28,44 -12,10 -28,15 -47,15 -26,0 -45,-9 -60,-27 -17,-22 -26,-57 -26,-106zm33 0c0,43 5,72 15,86 10,14 23,21 38,21 14,0 27,-7 37,-21 10,-15 15,-43 15,-86 0,-43 -5,-72 -15,-86 -10,-14 -23,-21 -38,-21 -14,0 -26,6 -35,18 -11,16 -17,46 -17,89z"/>
   <path class="fil2" d="M1546 12729l-32 0 0 -205c-8,8 -18,15 -31,22 -12,8 -24,13 -34,17l0 -31c18,-8 34,-19 47,-31 14,-12 23,-23 29,-35l21 0 0 263zm88 -129c0,-31 3,-56 10,-75 6,-19 16,-33 28,-44 13,-10 28,-15 47,-15 14,0 27,3 37,9 11,5 20,14 27,24 6,11 12,24 16,39 4,15 6,36 6,62 0,31 -4,56 -10,74 -6,19 -16,34 -28,44 -13,10 -28,16 -48,16 -25,0 -45,-9 -59,-27 -17,-22 -26,-58 -26,-107zm33 0c0,43 5,72 15,86 10,14 23,21 37,21 15,0 28,-7 38,-21 10,-14 15,-43 15,-86 0,-43 -5,-72 -15,-86 -10,-14 -23,-21 -38,-21 -15,0 -27,6 -35,19 -11,16 -17,45 -17,88z"/>
   <path class="fil2" d="M1594 10062l0 31 -174 0c0,-8 1,-15 4,-23 5,-11 12,-23 22,-34 9,-12 23,-25 42,-40 28,-23 47,-42 57,-55 10,-14 15,-27 15,-39 0,-13 -4,-24 -13,-32 -9,-9 -21,-13 -36,-13 -16,0 -28,4 -37,13 -10,10 -14,22 -14,39l-33 -3c2,-25 10,-44 25,-57 15,-13 35,-19 60,-19 25,0 45,7 59,21 15,14 22,31 22,52 0,10 -2,20 -6,30 -4,11 -12,21 -21,33 -10,11 -27,26 -50,46 -19,16 -32,27 -37,33 -6,5 -10,11 -14,17l129 0zm40 -98c0,-31 3,-56 10,-75 6,-19 16,-34 28,-44 13,-10 28,-15 47,-15 14,0 27,3 37,8 11,6 20,14 27,25 6,10 12,23 16,39 4,15 6,36 6,62 0,30 -4,55 -10,74 -6,19 -16,34 -28,44 -13,10 -28,15 -48,15 -25,0 -45,-9 -59,-27 -17,-22 -26,-57 -26,-106zm33 0c0,43 5,71 15,86 10,14 23,21 37,21 15,0 28,-7 38,-22 10,-14 15,-42 15,-85 0,-43 -5,-72 -15,-86 -10,-14 -23,-21 -38,-21 -15,0 -27,6 -35,18 -11,16 -17,46 -17,89z"/>
   <path class="fil2" d="M1425 7386l32 -4c4,18 10,32 19,40 9,8 20,12 33,12 15,0 28,-6 38,-16 10,-11 16,-24 16,-39 0,-15 -5,-27 -15,-37 -10,-9 -22,-14 -37,-14 -6,0 -13,1 -22,4l3 -29c2,1 4,1 5,1 14,0 26,-4 37,-11 11,-7 17,-18 17,-33 0,-12 -4,-21 -12,-29 -8,-8 -18,-12 -31,-12 -13,0 -23,4 -31,12 -9,8 -14,20 -16,36l-33 -6c4,-22 13,-38 27,-50 14,-12 32,-18 52,-18 14,0 28,3 40,9 12,6 21,15 27,25 7,11 10,22 10,34 0,11 -3,21 -9,31 -6,9 -15,16 -27,22 15,3 27,11 36,22 8,11 13,25 13,42 0,23 -9,43 -25,59 -17,15 -38,23 -64,23 -23,0 -42,-7 -57,-20 -15,-14 -24,-32 -26,-54zm209 -59c0,-31 3,-56 10,-75 6,-19 16,-34 28,-44 13,-10 28,-15 47,-15 14,0 27,3 37,9 11,5 20,13 27,24 6,11 12,24 16,39 4,15 6,36 6,62 0,30 -4,55 -10,74 -6,19 -16,34 -28,44 -13,10 -28,15 -48,15 -25,0 -45,-9 -59,-27 -17,-22 -26,-57 -26,-106zm33 0c0,43 5,72 15,86 10,14 23,21 37,21 15,0 28,-7 38,-21 10,-15 15,-43 15,-86 0,-43 -5,-72 -15,-86 -10,-14 -23,-21 -38,-21 -15,0 -27,6 -35,19 -11,15 -17,45 -17,88z"/>
   <path class="fil2" d="M1528 4820l0 -63 -114 0 0 -30 120 -169 26 0 0 169 36 0 0 30 -36 0 0 63 -32 0zm0 -93l0 -117 -82 117 82 0zm106 -37c0,-31 3,-56 10,-74 6,-19 16,-34 28,-44 13,-10 28,-15 47,-15 14,0 27,2 37,8 11,6 20,14 27,25 6,10 12,23 16,38 4,16 6,36 6,62 0,31 -4,56 -10,75 -6,19 -16,33 -28,44 -13,10 -28,15 -48,15 -25,0 -45,-9 -59,-27 -17,-22 -26,-57 -26,-107zm33 0c0,44 5,72 15,86 10,15 23,22 37,22 15,0 28,-7 38,-22 10,-14 15,-43 15,-86 0,-43 -5,-71 -15,-85 -10,-15 -23,-22 -38,-22 -15,0 -27,7 -35,19 -11,16 -17,46 -17,88z"/>
   <path class="fil2" d="M1425 2114l34 -2c2,16 8,28 17,37 9,8 20,12 33,12 16,0 29,-6 40,-18 10,-11 15,-27 15,-46 0,-18 -5,-33 -15,-43 -10,-11 -23,-16 -40,-16 -11,0 -20,2 -28,7 -8,5 -15,11 -20,18l-30 -4 25 -135 130 0 0 31 -104 0 -14 71c16,-11 32,-17 49,-17 23,0 42,8 58,24 16,16 23,36 23,61 0,24 -6,44 -20,61 -17,22 -40,32 -69,32 -24,0 -43,-6 -58,-20 -15,-13 -24,-31 -26,-53zm209 -60c0,-31 3,-56 10,-75 6,-19 16,-34 28,-44 13,-10 28,-15 47,-15 14,0 27,3 37,8 11,6 20,14 27,25 6,10 12,23 16,39 4,15 6,36 6,62 0,30 -4,55 -10,74 -6,19 -16,34 -28,44 -13,10 -28,15 -48,15 -25,0 -45,-9 -59,-27 -17,-22 -26,-57 -26,-106zm33 0c0,43 5,71 15,86 10,14 23,21 37,21 15,0 28,-7 38,-21 10,-15 15,-43 15,-86 0,-43 -5,-72 -15,-86 -10,-14 -23,-21 -38,-21 -15,0 -27,6 -35,18 -11,16 -17,46 -17,89z"/>
   <path class="fil2" d="M2057 15681c0,-30 3,-55 10,-74 6,-19 16,-34 28,-44 13,-10 28,-15 48,-15 14,0 26,3 37,8 10,6 19,14 26,25 7,10 12,23 16,39 4,15 6,36 6,61 0,31 -3,56 -10,75 -6,19 -15,33 -28,44 -13,10 -28,15 -47,15 -26,0 -45,-9 -60,-27 -17,-22 -26,-57 -26,-107zm33 1c0,43 5,71 15,85 10,15 23,22 38,22 14,0 27,-7 37,-22 10,-14 15,-42 15,-85 0,-43 -5,-72 -15,-86 -10,-14 -23,-22 -38,-22 -15,0 -26,7 -35,19 -11,16 -17,46 -17,89z"/>
   <path class="fil2" d="M5180 15811l-33 0 0 -205c-7,7 -18,15 -30,22 -13,7 -24,13 -34,17l0 -32c18,-8 34,-18 47,-30 14,-12 23,-24 29,-35l21 0 0 263zm88 -130c0,-30 3,-55 9,-74 7,-19 16,-34 29,-44 12,-10 28,-15 47,-15 14,0 26,3 37,8 11,6 20,14 26,25 7,10 13,23 16,39 4,15 6,36 6,61 0,31 -3,56 -9,75 -6,19 -16,33 -28,44 -13,10 -29,15 -48,15 -25,0 -45,-9 -59,-27 -17,-22 -26,-57 -26,-107zm33 1c0,43 5,71 15,85 10,15 22,22 37,22 15,0 27,-7 37,-22 10,-14 15,-42 15,-85 0,-43 -5,-72 -15,-86 -10,-14 -22,-22 -37,-22 -15,0 -27,7 -36,19 -11,16 -16,46 -16,89z"/>
   <path class="fil2" d="M8333 15780l0 31 -173 0c0,-8 1,-15 4,-23 4,-11 11,-23 21,-34 10,-12 24,-25 42,-40 28,-23 48,-42 58,-55 10,-14 15,-27 15,-39 0,-13 -5,-24 -14,-32 -9,-9 -21,-14 -36,-14 -15,0 -28,5 -37,14 -9,10 -14,22 -14,39l-33 -4c2,-24 11,-43 26,-56 14,-13 34,-19 59,-19 25,0 45,7 60,21 14,14 22,31 22,52 0,10 -2,20 -7,30 -4,11 -11,21 -21,32 -10,12 -27,27 -50,47 -19,16 -31,27 -37,33 -5,5 -10,11 -13,17l128 0zm41 -99c0,-30 3,-55 9,-74 7,-19 16,-34 29,-44 12,-10 28,-15 47,-15 14,0 26,3 37,8 10,6 19,14 26,25 7,10 12,23 16,39 4,15 6,36 6,61 0,31 -3,56 -9,75 -7,19 -16,33 -29,44 -12,10 -28,15 -47,15 -25,0 -45,-9 -60,-27 -17,-22 -25,-57 -25,-107zm33 1c0,43 5,71 15,85 10,15 22,22 37,22 15,0 27,-7 37,-22 10,-14 15,-42 15,-85 0,-43 -5,-72 -15,-86 -10,-14 -22,-22 -38,-22 -14,0 -26,7 -35,19 -11,16 -16,46 -16,89z"/>
   <path class="fil2" d="M11270 15741l32 -4c3,18 10,31 19,39 8,8 19,12 32,12 15,0 28,-5 39,-15 10,-11 15,-24 15,-39 0,-15 -5,-27 -14,-37 -10,-9 -22,-14 -37,-14 -6,0 -14,1 -23,3l4 -28c2,0 4,1 5,1 14,0 26,-4 37,-11 11,-7 16,-18 16,-33 0,-12 -4,-22 -12,-29 -8,-8 -18,-12 -31,-12 -12,0 -22,4 -31,12 -8,8 -14,20 -16,36l-32 -6c4,-22 13,-39 27,-50 14,-12 31,-18 52,-18 14,0 27,3 39,9 12,6 21,14 28,25 6,11 9,22 9,34 0,11 -3,21 -9,30 -6,10 -15,17 -27,23 16,3 28,11 36,22 9,11 13,25 13,42 0,23 -8,42 -25,58 -17,16 -38,24 -63,24 -23,0 -42,-7 -57,-21 -16,-13 -24,-31 -26,-53zm209 -60c0,-30 3,-55 9,-74 7,-19 16,-34 29,-44 12,-10 28,-15 47,-15 14,0 26,3 37,8 10,6 19,14 26,25 7,10 12,23 16,39 4,15 6,36 6,61 0,31 -3,56 -9,75 -7,19 -16,33 -29,44 -12,10 -28,15 -47,15 -25,0 -45,-9 -60,-27 -17,-22 -25,-57 -25,-107zm33 1c0,43 5,71 15,85 10,15 22,22 37,22 15,0 27,-7 37,-22 10,-14 15,-42 15,-85 0,-43 -5,-72 -15,-86 -10,-14 -22,-22 -37,-22 -15,0 -27,7 -36,19 -11,16 -16,46 -16,89z"/>
   <path class="fil2" d="M14477 15811l0 -63 -113 0 0 -29 119 -170 27 0 0 170 35 0 0 29 -35 0 0 63 -33 0zm0 -92l0 -118 -82 118 82 0zm107 -38c0,-30 3,-55 9,-74 7,-19 16,-34 29,-44 12,-10 28,-15 47,-15 14,0 26,3 37,8 10,6 19,14 26,25 7,10 12,23 16,39 4,15 6,36 6,61 0,31 -3,56 -9,75 -7,19 -16,33 -29,44 -12,10 -28,15 -47,15 -25,0 -45,-9 -59,-27 -18,-22 -26,-57 -26,-107zm33 1c0,43 5,71 15,85 10,15 22,22 37,22 15,0 27,-7 37,-22 10,-14 15,-42 15,-85 0,-43 -5,-72 -15,-86 -10,-14 -22,-22 -37,-22 -15,0 -27,7 -36,19 -11,16 -16,46 -16,89z"/>
   <path class="fil2" d="M17480 15742l33 -3c3,17 9,29 18,37 9,9 20,13 33,13 15,0 28,-6 39,-18 11,-11 16,-27 16,-46 0,-19 -5,-33 -15,-44 -10,-10 -24,-15 -41,-15 -10,0 -19,2 -28,7 -8,4 -14,11 -19,18l-31 -4 26 -135 130 0 0 31 -105 0 -14 71c16,-12 33,-17 50,-17 23,0 42,8 57,24 16,16 24,36 24,61 0,24 -7,44 -21,61 -16,21 -39,32 -68,32 -24,0 -44,-7 -59,-20 -15,-13 -23,-31 -25,-53zm209 -61c0,-30 3,-55 9,-74 7,-19 16,-34 29,-44 12,-10 28,-15 47,-15 14,0 26,3 37,8 11,6 19,14 26,25 7,10 12,23 16,39 4,15 6,36 6,61 0,31 -3,56 -9,75 -7,19 -16,33 -29,44 -12,10 -28,15 -47,15 -25,0 -45,-9 -59,-27 -18,-22 -26,-57 -26,-107zm33 1c0,43 5,71 15,85 10,15 22,22 37,22 15,0 27,-7 37,-22 10,-14 15,-42 15,-85 0,-43 -5,-72 -15,-86 -10,-14 -22,-22 -37,-22 -15,0 -27,7 -36,19 -11,16 -16,46 -16,89z"/>
   <path class="fil2" d="M413 3115l-90 0 -36 -94 -165 0 -34 94 -88 0 160 -412 88 0 165 412zm-153 -163l-57 -153 -55 153 112 0zm182 163l0 -412 79 0 0 412 -79 0zm296 -299l0 63 -54 0 0 121c0,24 0,39 1,43 1,4 4,7 7,10 4,2 9,4 14,4 7,0 18,-3 32,-8l6 61c-18,8 -39,12 -62,12 -14,0 -27,-2 -38,-7 -12,-5 -20,-11 -25,-19 -6,-7 -9,-17 -11,-31 -2,-9 -3,-27 -3,-55l0 -131 -36 0 0 -63 36 0 0 -59 79 -46 0 105 54 0zm252 299l0 -45c-11,16 -25,29 -43,38 -17,10 -36,14 -56,14 -20,0 -38,-4 -54,-13 -16,-9 -27,-21 -34,-37 -8,-16 -11,-38 -11,-66l0 -190 79 0 0 138c0,42 1,68 4,77 3,9 8,17 16,23 8,5 17,8 29,8 14,0 26,-4 37,-11 10,-8 18,-17 21,-28 4,-11 6,-38 6,-80l0 -127 79 0 0 299 -73 0zm226 0l-78 0 0 -299 73 0 0 43c12,-20 24,-33 34,-40 10,-6 21,-9 34,-9 18,0 35,5 52,15l-25 69c-13,-9 -25,-13 -37,-13 -11,0 -20,3 -28,9 -7,6 -13,17 -18,33 -4,16 -7,49 -7,100l0 92zm210 -207l-71 -12c8,-29 21,-51 41,-65 20,-14 49,-21 88,-21 35,0 61,4 78,13 17,8 30,18 37,31 7,13 10,37 10,71l-1 92c0,26 1,45 4,58 2,12 7,26 14,40l-78 0c-2,-5 -5,-13 -8,-23 -1,-5 -2,-8 -3,-9 -13,13 -28,23 -43,29 -15,7 -31,10 -49,10 -30,0 -54,-8 -72,-25 -18,-16 -27,-37 -27,-63 0,-17 4,-32 13,-45 8,-13 19,-23 33,-30 15,-7 36,-13 63,-19 37,-6 62,-13 77,-19l0 -8c0,-15 -4,-26 -12,-33 -7,-6 -21,-10 -42,-10 -14,0 -25,3 -33,9 -8,5 -14,15 -19,29zm106 64c-11,4 -27,8 -48,12 -22,5 -37,10 -43,14 -11,7 -16,17 -16,28 0,11 4,20 13,28 8,8 18,12 31,12 14,0 28,-4 41,-14 9,-7 15,-15 18,-26 2,-6 4,-19 4,-38l0 -16z"/>
   <polygon class="fil2" points="651,3759 651,3347 735,3347 735,3509 897,3509 897,3347 981,3347 981,3759 897,3759 897,3579 735,3579 735,3759 "/>
   <path class="fil2" d="M9238 16594l80 25c-12,45 -32,79 -61,101 -29,22 -65,33 -110,33 -54,0 -99,-19 -134,-56 -36,-37 -53,-88 -53,-153 0,-69 18,-122 53,-160 35,-38 82,-57 139,-57 51,0 92,15 123,45 19,18 33,43 42,76l-82 19c-5,-21 -15,-38 -30,-50 -16,-12 -35,-19 -57,-19 -30,0 -55,11 -74,33 -19,22 -29,58 -29,107 0,52 10,89 29,111 18,22 43,33 73,33 22,0 41,-7 57,-21 16,-14 27,-36 34,-67zm210 -54l-71 -13c8,-29 22,-50 41,-64 20,-14 49,-21 88,-21 35,0 61,4 78,12 17,8 30,19 37,32 7,13 10,36 10,70l-1 92c0,26 1,46 4,58 2,13 7,26 14,40l-78 0c-2,-5 -5,-13 -8,-23 -1,-5 -2,-8 -3,-9 -13,13 -27,23 -43,30 -15,6 -31,10 -49,10 -30,0 -54,-9 -72,-25 -18,-17 -26,-38 -26,-63 0,-17 4,-32 12,-46 8,-13 19,-23 33,-30 15,-7 36,-13 63,-18 37,-7 62,-14 77,-20l0 -7c0,-16 -4,-27 -12,-33 -7,-7 -21,-10 -42,-10 -14,0 -25,3 -33,8 -8,6 -14,16 -19,30zm106 64c-10,3 -26,7 -48,12 -22,4 -37,9 -43,13 -11,8 -16,17 -16,28 0,11 4,21 13,29 8,8 18,12 31,12 14,0 28,-5 41,-14 9,-7 16,-16 19,-26 2,-7 3,-20 3,-39l0 -15zm346 142l0 -44c-11,15 -26,28 -43,38 -18,9 -37,14 -56,14 -20,0 -38,-5 -54,-14 -16,-8 -28,-21 -35,-37 -7,-16 -11,-38 -11,-66l0 -189 79 0 0 137c0,42 2,68 5,77 2,10 8,17 15,23 8,6 18,8 30,8 13,0 25,-3 36,-11 11,-7 18,-16 22,-27 4,-11 6,-38 6,-81l0 -126 79 0 0 298 -73 0zm427 0l-73 0 0 -44c-12,17 -27,30 -43,39 -17,8 -33,13 -50,13 -35,0 -64,-14 -89,-42 -24,-28 -36,-66 -36,-116 0,-50 12,-89 35,-115 24,-26 54,-39 91,-39 33,0 62,13 86,41l0 -148 79 0 0 411zm-210 -155c0,32 4,55 13,70 13,20 30,31 53,31 18,0 34,-8 46,-24 13,-15 19,-38 19,-69 0,-35 -6,-59 -18,-74 -12,-16 -28,-23 -47,-23 -19,0 -35,7 -47,22 -13,15 -19,38 -19,67zm343 -51l-71 -13c8,-29 22,-50 42,-64 19,-14 48,-21 87,-21 35,0 62,4 79,12 17,8 29,19 36,32 7,13 11,36 11,70l-2 92c0,26 2,46 4,58 3,13 7,26 14,40l-78 0c-2,-5 -4,-13 -7,-23 -2,-5 -3,-8 -3,-9 -14,13 -28,23 -43,30 -16,6 -32,10 -49,10 -31,0 -55,-9 -73,-25 -17,-17 -26,-38 -26,-63 0,-17 4,-32 12,-46 8,-13 19,-23 34,-30 14,-7 35,-13 63,-18 36,-7 62,-14 76,-20l0 -7c0,-16 -4,-27 -11,-33 -8,-7 -22,-10 -43,-10 -14,0 -25,3 -33,8 -7,6 -14,16 -19,30zm106 64c-10,3 -26,7 -48,12 -22,4 -36,9 -43,13 -10,8 -15,17 -15,28 0,11 4,21 12,29 8,8 19,12 32,12 14,0 27,-5 40,-14 10,-7 16,-16 19,-26 2,-7 3,-20 3,-39l0 -15zm149 142l0 -411 79 0 0 411 -79 0z"/>
   <polygon class="fil2" points="11021,16636 11021,16558 11176,16558 11176,16636 "/>
   <path class="fil2" d="M11867 16694c20,15 42,26 66,35l-31 59c-12,-4 -24,-9 -36,-15 -3,-2 -21,-14 -55,-37 -27,12 -57,18 -90,18 -63,0 -113,-19 -149,-56 -36,-38 -53,-90 -53,-158 0,-67 18,-119 54,-157 35,-37 84,-56 146,-56 61,0 109,19 145,56 35,38 53,90 53,157 0,36 -5,67 -15,94 -7,21 -19,41 -35,60zm-67 -47c11,-12 18,-27 24,-45 5,-18 8,-38 8,-62 0,-47 -11,-83 -32,-106 -21,-24 -48,-36 -82,-36 -34,0 -61,12 -82,36 -21,24 -32,59 -32,107 0,48 11,84 32,108 21,24 48,36 80,36 12,0 23,-2 34,-6 -17,-11 -34,-20 -52,-26l24 -48c27,9 53,23 78,42z"/>
   <path class="fil2" d="M6346 267l80 25c-12,45 -33,79 -62,101 -28,22 -65,33 -109,33 -55,0 -100,-19 -135,-56 -35,-38 -53,-89 -53,-153 0,-69 18,-122 54,-160 35,-38 81,-57 139,-57 50,0 91,15 123,45 19,17 33,43 42,76l-82 19c-5,-21 -15,-38 -31,-50 -15,-13 -34,-19 -56,-19 -31,0 -55,11 -74,33 -19,22 -29,57 -29,106 0,52 9,89 28,111 19,23 43,34 73,34 22,0 41,-7 57,-21 16,-15 28,-37 35,-67zm348 152l0 -45c-11,16 -25,29 -43,38 -18,10 -36,14 -56,14 -20,0 -38,-4 -54,-13 -16,-9 -27,-21 -35,-37 -7,-16 -10,-38 -10,-66l0 -189 78 0 0 137c0,42 2,68 5,77 3,10 8,17 16,23 7,5 17,8 29,8 14,0 26,-4 36,-11 11,-7 18,-17 22,-28 4,-11 6,-37 6,-80l0 -126 79 0 0 298 -73 0zm229 0l-79 0 0 -298 73 0 0 42c13,-20 24,-33 34,-39 10,-7 22,-10 34,-10 19,0 36,5 53,15l-25 69c-13,-9 -26,-13 -37,-13 -11,0 -20,3 -28,9 -8,6 -14,17 -18,33 -5,16 -7,49 -7,100l0 92zm230 0l-120 -298 83 0 56 152 16 51c5,-13 8,-22 9,-26 2,-8 5,-17 8,-25l57 -152 81 0 -118 298 -72 0zm308 -206l-72 -13c8,-29 22,-51 42,-65 20,-14 49,-21 87,-21 36,0 62,4 79,13 17,8 29,19 36,32 7,12 11,36 11,70l-1 92c0,26 1,46 4,58 2,12 7,26 14,40l-79 0c-2,-5 -4,-13 -7,-23 -1,-5 -2,-8 -3,-9 -13,13 -28,23 -43,29 -15,7 -32,10 -49,10 -30,0 -55,-8 -72,-25 -18,-16 -27,-37 -27,-63 0,-16 4,-32 12,-45 8,-13 20,-23 34,-30 15,-7 36,-13 63,-18 37,-7 62,-14 76,-20l0 -8c0,-15 -3,-26 -11,-33 -7,-6 -22,-9 -42,-9 -14,0 -25,2 -33,8 -8,6 -14,16 -19,30zm105 63c-10,4 -26,8 -48,12 -21,5 -36,10 -43,14 -10,8 -15,17 -15,28 0,11 4,21 12,29 9,8 19,12 32,12 14,0 28,-5 41,-14 9,-8 15,-16 18,-26 2,-7 3,-20 3,-39l0 -16zm562 143l-73 0 0 -44c-12,17 -27,30 -43,39 -17,8 -34,12 -51,12 -34,0 -63,-13 -88,-41 -24,-28 -37,-66 -37,-116 0,-50 12,-89 36,-115 24,-27 54,-40 91,-40 33,0 62,14 86,42l0 -149 79 0 0 412zm-210 -155c0,32 4,55 13,69 12,21 30,31 53,31 18,0 33,-7 46,-23 13,-15 19,-39 19,-69 0,-35 -6,-59 -18,-75 -13,-15 -28,-22 -48,-22 -18,0 -34,7 -47,22 -12,15 -18,37 -18,67zm457 61l79 13c-10,29 -26,51 -48,66 -22,15 -49,22 -82,22 -52,0 -90,-17 -115,-50 -20,-28 -30,-62 -30,-103 0,-50 13,-89 39,-117 26,-28 59,-42 98,-42 44,0 79,15 105,44 25,30 38,75 37,135l-198 0c1,23 7,42 20,55 12,13 27,19 45,19 12,0 22,-3 31,-10 8,-7 15,-17 19,-32zm4 -80c0,-23 -6,-41 -17,-52 -11,-12 -25,-18 -41,-18 -17,0 -31,6 -43,19 -11,12 -16,29 -16,51l117 0zm294 174l0 -412 78 0 0 412 -78 0zm218 -206l-71 -13c8,-29 21,-51 41,-65 20,-14 49,-21 88,-21 35,0 61,4 78,13 17,8 30,19 37,32 7,12 10,36 10,70l-1 92c0,26 1,46 4,58 2,12 7,26 14,40l-78 0c-2,-5 -5,-13 -8,-23 -1,-5 -2,-8 -3,-9 -13,13 -27,23 -43,29 -15,7 -31,10 -49,10 -30,0 -54,-8 -72,-25 -18,-16 -26,-37 -26,-63 0,-16 4,-32 12,-45 8,-13 19,-23 33,-30 15,-7 36,-13 63,-18 37,-7 62,-14 77,-20l0 -8c0,-15 -4,-26 -12,-33 -7,-6 -21,-9 -42,-9 -14,0 -25,2 -33,8 -8,6 -14,16 -19,30zm106 63c-10,4 -26,8 -48,12 -22,5 -37,10 -43,14 -11,8 -16,17 -16,28 0,11 4,21 13,29 8,8 18,12 31,12 14,0 28,-5 41,-14 9,-8 16,-16 19,-26 2,-7 3,-20 3,-39l0 -16zm306 -269l164 0c33,0 57,2 73,4 16,3 31,9 43,17 13,9 23,20 32,35 8,14 13,30 13,48 0,19 -6,37 -16,53 -10,16 -24,28 -42,36 25,7 44,20 58,37 13,18 20,39 20,62 0,19 -5,37 -13,55 -9,18 -21,32 -36,43 -15,10 -34,17 -56,19 -14,2 -47,3 -100,3l-140 0 0 -412zm83 69l0 95 55 0c32,0 52,-1 60,-2 14,-1 25,-6 33,-14 9,-9 13,-19 13,-32 0,-13 -4,-23 -11,-31 -7,-8 -17,-13 -31,-15 -8,-1 -32,-1 -71,-1l-48 0zm0 163l0 110 77 0c30,0 49,0 57,-2 13,-2 23,-8 30,-17 8,-8 12,-20 12,-35 0,-12 -3,-23 -9,-31 -6,-9 -15,-15 -26,-19 -11,-4 -36,-6 -74,-6l-67 0zm299 27c0,-26 6,-51 19,-76 13,-25 31,-43 55,-56 23,-13 50,-20 79,-20 45,0 82,15 111,44 29,30 43,67 43,112 0,45 -15,82 -44,112 -29,30 -65,44 -109,44 -28,0 -54,-6 -79,-18 -24,-13 -43,-31 -56,-55 -13,-23 -19,-53 -19,-87zm81 4c0,30 7,53 21,68 14,16 31,24 51,24 21,0 38,-8 52,-24 14,-15 21,-38 21,-68 0,-29 -7,-52 -21,-68 -14,-15 -31,-23 -52,-23 -20,0 -37,8 -51,23 -14,16 -21,39 -21,68zm279 -149l73 0 0 40c26,-31 57,-47 93,-47 19,0 35,4 49,12 14,8 26,20 35,36 13,-16 27,-28 42,-36 15,-8 31,-12 49,-12 21,0 40,5 55,14 15,9 27,22 34,39 6,12 8,33 8,62l0 190 -78 0 0 -170c0,-30 -3,-49 -9,-57 -7,-12 -18,-17 -33,-17 -11,0 -22,3 -32,10 -9,7 -16,16 -21,29 -4,13 -6,34 -6,62l0 143 -79 0 0 -163c0,-29 -1,-48 -4,-56 -3,-9 -7,-15 -13,-19 -6,-4 -14,-6 -24,-6 -12,0 -23,3 -33,9 -9,7 -16,16 -21,29 -4,12 -6,33 -6,61l0 145 -79 0 0 -298zm508 298l0 -412 79 0 0 149c24,-28 53,-42 86,-42 36,0 66,13 90,40 24,26 36,64 36,113 0,51 -12,91 -37,118 -24,28 -53,41 -88,41 -17,0 -34,-4 -50,-13 -17,-9 -31,-21 -43,-38l0 44 -73 0zm77 -155c0,31 5,54 15,69 14,21 32,31 55,31 17,0 32,-7 44,-22 12,-15 19,-39 19,-71 0,-34 -7,-58 -19,-74 -12,-15 -28,-22 -47,-22 -19,0 -35,7 -48,22 -12,15 -19,37 -19,67zm336 -51l-71 -13c8,-29 22,-51 41,-65 20,-14 49,-21 88,-21 35,0 61,4 78,13 18,8 30,19 37,32 7,12 10,36 10,70l-1 92c0,26 1,46 4,58 2,12 7,26 14,40l-78 0c-2,-5 -5,-13 -8,-23 -1,-5 -2,-8 -3,-9 -13,13 -27,23 -43,29 -15,7 -31,10 -49,10 -30,0 -54,-8 -72,-25 -18,-16 -26,-37 -26,-63 0,-16 4,-32 12,-45 8,-13 19,-23 34,-30 14,-7 35,-13 62,-18 37,-7 63,-14 77,-20l0 -8c0,-15 -4,-26 -12,-33 -7,-6 -21,-9 -42,-9 -14,0 -25,2 -33,8 -8,6 -14,16 -19,30zm106 63c-10,4 -26,8 -48,12 -22,5 -36,10 -43,14 -10,8 -16,17 -16,28 0,11 4,21 13,29 8,8 18,12 31,12 14,0 28,-5 41,-14 9,-8 16,-16 19,-26 2,-7 3,-20 3,-39l0 -16zm653 91c21,14 43,26 67,35l-31 59c-12,-4 -25,-9 -36,-16 -3,-1 -21,-13 -56,-36 -27,11 -56,17 -89,17 -63,0 -113,-18 -149,-56 -36,-37 -54,-89 -54,-157 0,-67 18,-120 54,-157 36,-37 85,-56 147,-56 61,0 109,19 145,56 35,37 53,90 53,157 0,36 -5,67 -15,94 -7,21 -19,41 -36,60zm-66 -47c10,-13 18,-28 24,-45 5,-18 8,-39 8,-62 0,-47 -11,-83 -32,-106 -21,-24 -48,-36 -82,-36 -34,0 -61,12 -82,36 -21,23 -32,59 -32,106 0,49 11,85 32,109 21,23 47,35 80,35 12,0 23,-2 34,-5 -17,-12 -34,-20 -52,-26l24 -48c27,9 53,23 78,42z"/>
   <polygon class="fil2" points="11979,309 11979,230 12134,230 12134,309 "/>
   <polygon class="fil2" points="12337,419 12337,7 12420,7 12420,170 12582,170 12582,7 12666,7 12666,419 12582,419 12582,239 12420,239 12420,419 "/>
   <path class="fil2" d="M5890 919l55 13c-11,45 -32,79 -61,103 -30,23 -66,35 -109,35 -45,0 -81,-9 -108,-27 -28,-18 -49,-44 -64,-79 -14,-34 -22,-71 -22,-110 0,-43 9,-80 25,-112 16,-32 40,-56 70,-73 30,-17 63,-25 100,-25 41,0 76,11 104,32 28,21 47,50 58,88l-53 13c-10,-30 -24,-52 -42,-66 -18,-13 -41,-20 -68,-20 -32,0 -58,7 -80,23 -21,15 -36,35 -44,61 -9,25 -13,52 -13,79 0,35 5,65 15,91 10,27 26,46 48,59 21,13 44,19 69,19 31,0 57,-8 78,-26 21,-18 35,-44 42,-78zm311 107c-18,16 -37,27 -54,34 -17,6 -36,10 -56,10 -33,0 -58,-8 -76,-24 -17,-16 -26,-37 -26,-62 0,-14 3,-28 10,-40 7,-12 15,-21 26,-29 11,-7 23,-12 37,-16 10,-3 25,-5 45,-8 41,-5 71,-10 90,-17 0,-7 0,-11 0,-13 0,-21 -4,-35 -14,-44 -13,-11 -32,-17 -58,-17 -24,0 -41,4 -53,13 -11,8 -19,23 -25,44l-49 -7c4,-21 12,-38 22,-51 10,-13 25,-23 45,-30 19,-7 42,-11 68,-11 25,0 46,3 62,9 16,6 28,14 35,23 8,9 13,20 16,34 2,9 3,25 3,47l0 67c0,47 1,77 3,89 2,13 6,25 12,36l-53 0c-5,-10 -8,-23 -10,-37zm-4 -112c-18,7 -46,13 -83,19 -20,3 -35,6 -44,10 -8,3 -15,9 -20,16 -4,7 -7,15 -7,24 0,13 5,24 15,33 11,9 26,14 45,14 20,0 37,-4 52,-13 16,-8 27,-20 34,-35 5,-11 8,-28 8,-50l0 -18zm300 149l0 -44c-23,34 -54,51 -94,51 -18,0 -34,-4 -49,-11 -16,-6 -27,-15 -34,-25 -8,-10 -13,-23 -16,-37 -2,-10 -3,-26 -3,-48l0 -185 51 0 0 166c0,26 1,44 3,53 3,13 10,24 20,31 10,8 23,12 38,12 15,0 29,-4 43,-12 13,-8 22,-18 28,-32 5,-13 8,-32 8,-58l0 -160 51 0 0 299 -46 0zm312 0l0 -38c-19,30 -47,45 -84,45 -23,0 -45,-7 -65,-20 -20,-13 -36,-31 -47,-55 -11,-23 -16,-50 -16,-81 0,-30 5,-57 15,-81 10,-24 25,-43 45,-55 19,-13 42,-20 66,-20 18,0 34,4 48,12 14,7 26,17 34,29l0 -148 51 0 0 412 -47 0zm-160 -149c0,38 8,67 24,86 16,19 35,28 57,28 22,0 41,-9 57,-27 15,-18 23,-46 23,-83 0,-40 -8,-70 -24,-89 -15,-19 -35,-29 -58,-29 -23,0 -41,9 -57,28 -15,18 -22,47 -22,86zm476 112c-19,16 -37,27 -54,34 -18,6 -36,10 -56,10 -33,0 -58,-8 -76,-24 -18,-16 -26,-37 -26,-62 0,-14 3,-28 9,-40 7,-12 16,-21 27,-29 11,-7 23,-12 36,-16 10,-3 25,-5 45,-8 41,-5 71,-10 91,-17 0,-7 0,-11 0,-13 0,-21 -5,-35 -15,-44 -12,-11 -32,-17 -57,-17 -24,0 -42,4 -53,13 -12,8 -20,23 -25,44l-50 -7c5,-21 12,-38 22,-51 11,-13 26,-23 45,-30 20,-7 43,-11 68,-11 26,0 47,3 63,9 15,6 27,14 35,23 7,9 13,20 16,34 1,9 2,25 2,47l0 67c0,47 1,77 3,89 2,13 6,25 13,36l-53 0c-5,-10 -9,-23 -10,-37zm-4 -112c-19,7 -46,13 -83,19 -21,3 -36,6 -44,10 -9,3 -16,9 -20,16 -5,7 -7,15 -7,24 0,13 5,24 15,33 10,9 25,14 45,14 19,0 37,-4 52,-13 15,-8 26,-20 33,-35 6,-11 9,-28 9,-50l0 -18zm104 149l0 -412 50 0 0 412 -50 0z"/>
   <polygon class="fil2" points="7539,939 7539,889 7696,889 7696,939 "/>
   <path class="fil2" d="M7834 1063l158 -412 60 0 168 412 -62 0 -48 -125 -173 0 -45 125 -58 0zm119 -169l140 0 -43 -114c-13,-35 -23,-64 -29,-86 -6,27 -14,53 -23,79l-45 121zm303 169l0 -412 50 0 0 412 -50 0zm232 -45l7 45c-15,3 -27,4 -38,4 -19,0 -33,-3 -43,-9 -10,-5 -17,-13 -21,-22 -5,-10 -7,-30 -7,-60l0 -172 -37 0 0 -40 37 0 0 -73 51 -31 0 104 51 0 0 40 -51 0 0 175c0,14 1,23 3,28 1,4 4,7 8,9 4,3 10,4 18,4 5,0 13,-1 22,-2zm241 45l0 -44c-23,34 -54,51 -94,51 -18,0 -34,-4 -49,-11 -16,-6 -27,-15 -34,-25 -8,-10 -13,-23 -16,-37 -2,-10 -3,-26 -3,-48l0 -185 51 0 0 166c0,26 1,44 3,53 3,13 10,24 20,31 10,8 23,12 38,12 15,0 29,-4 43,-12 13,-8 22,-18 28,-32 5,-13 8,-32 8,-58l0 -160 51 0 0 299 -46 0zm118 0l0 -299 46 0 0 46c12,-21 22,-35 32,-42 10,-6 21,-10 33,-10 17,0 34,6 52,16l-18 47c-13,-7 -25,-10 -37,-10 -11,0 -21,3 -30,9 -8,7 -15,16 -18,28 -6,18 -9,38 -9,59l0 156 -51 0zm388 -37c-19,16 -37,27 -54,34 -18,6 -36,10 -56,10 -33,0 -58,-8 -76,-24 -18,-16 -27,-37 -27,-62 0,-14 4,-28 10,-40 7,-12 16,-21 27,-29 10,-7 23,-12 36,-16 10,-3 25,-5 45,-8 41,-5 71,-10 90,-17 1,-7 1,-11 1,-13 0,-21 -5,-35 -15,-44 -13,-11 -32,-17 -57,-17 -24,0 -42,4 -53,13 -12,8 -20,23 -25,44l-50 -7c5,-21 12,-38 22,-51 11,-13 26,-23 45,-30 20,-7 42,-11 68,-11 26,0 46,3 62,9 16,6 28,14 36,23 7,9 12,20 16,34 1,9 2,25 2,47l0 67c0,47 1,77 3,89 2,13 6,25 13,36l-53 0c-6,-10 -9,-23 -10,-37zm-4 -112c-19,7 -46,13 -83,19 -21,3 -36,6 -44,10 -9,3 -16,9 -20,16 -5,7 -7,15 -7,24 0,13 5,24 15,33 10,9 25,14 45,14 19,0 37,-4 52,-13 15,-8 26,-20 33,-35 6,-11 8,-28 8,-50l1 -18zm285 149l0 -412 142 0c32,0 56,2 73,6 24,5 44,15 60,29 22,19 38,42 49,71 11,28 16,61 16,98 0,31 -3,59 -11,83 -7,24 -16,44 -28,60 -11,16 -24,28 -37,37 -14,10 -30,16 -49,21 -20,5 -42,7 -67,7l-148 0zm54 -48l88 0c27,0 49,-3 64,-8 16,-5 28,-12 37,-21 13,-13 23,-31 30,-52 7,-22 11,-49 11,-80 0,-43 -7,-76 -21,-99 -14,-24 -31,-39 -52,-47 -14,-6 -38,-9 -70,-9l-87 0 0 316zm357 -306l0 -58 50 0 0 58 -50 0zm0 354l0 -299 50 0 0 299 -50 0zm122 0l0 -299 45 0 0 43c22,-33 54,-49 95,-49 18,0 35,3 50,10 15,6 26,15 34,25 7,11 12,23 15,38 2,9 3,25 3,49l0 183 -50 0 0 -181c0,-21 -2,-36 -6,-47 -4,-10 -11,-18 -21,-24 -10,-6 -22,-9 -35,-9 -22,0 -40,7 -56,20 -16,14 -24,40 -24,78l0 163 -50 0zm509 -37c-19,16 -37,27 -55,34 -17,6 -36,10 -55,10 -33,0 -59,-8 -76,-24 -18,-16 -27,-37 -27,-62 0,-14 4,-28 10,-40 7,-12 16,-21 27,-29 10,-7 22,-12 36,-16 10,-3 25,-5 45,-8 41,-5 71,-10 90,-17 1,-7 1,-11 1,-13 0,-21 -5,-35 -15,-44 -13,-11 -32,-17 -57,-17 -24,0 -42,4 -53,13 -12,8 -20,23 -26,44l-49 -7c4,-21 12,-38 22,-51 11,-13 26,-23 45,-30 20,-7 42,-11 68,-11 26,0 46,3 62,9 16,6 28,14 36,23 7,9 12,20 15,34 2,9 3,25 3,47l0 67c0,47 1,77 3,89 2,13 6,25 12,36l-52 0c-6,-10 -9,-23 -10,-37zm-4 -112c-19,7 -46,13 -83,19 -21,3 -36,6 -44,10 -9,3 -16,9 -20,16 -5,7 -8,15 -8,24 0,13 6,24 16,33 10,9 25,14 45,14 19,0 37,-4 52,-13 15,-8 26,-20 33,-35 6,-11 8,-28 8,-50l1 -18zm-107 -186l37 -79 67 0 -62 79 -42 0zm212 335l0 -299 45 0 0 43c9,-15 22,-27 37,-36 16,-8 34,-13 53,-13 22,0 41,5 55,14 14,9 24,22 30,38 23,-34 54,-52 92,-52 30,0 53,8 69,25 16,16 24,41 24,75l0 205 -51 0 0 -188c0,-20 -2,-35 -5,-43 -3,-9 -9,-16 -18,-22 -8,-5 -19,-8 -30,-8 -21,0 -39,7 -53,21 -14,14 -21,36 -21,67l0 173 -50 0 0 -194c0,-22 -4,-39 -13,-50 -8,-11 -21,-17 -40,-17 -14,0 -27,4 -39,11 -13,8 -21,19 -27,33 -5,14 -8,35 -8,62l0 155 -50 0zm470 -354l0 -58 50 0 0 58 -50 0zm0 354l0 -299 50 0 0 299 -50 0zm317 -109l50 7c-6,34 -20,60 -42,80 -22,19 -50,29 -83,29 -40,0 -73,-14 -98,-40 -25,-27 -37,-65 -37,-115 0,-32 5,-60 16,-85 11,-24 27,-42 49,-54 21,-12 45,-18 71,-18 32,0 59,8 79,25 21,16 34,39 40,70l-49 7c-5,-20 -13,-35 -25,-45 -12,-10 -26,-15 -43,-15 -26,0 -46,9 -62,27 -16,18 -24,47 -24,87 0,40 7,69 23,87 15,18 35,27 60,27 20,0 36,-6 50,-18 13,-12 21,-31 25,-56zm295 72c-19,16 -37,27 -54,34 -17,6 -36,10 -56,10 -33,0 -58,-8 -76,-24 -17,-16 -26,-37 -26,-62 0,-14 3,-28 10,-40 7,-12 15,-21 26,-29 11,-7 23,-12 37,-16 9,-3 25,-5 45,-8 40,-5 71,-10 90,-17 0,-7 0,-11 0,-13 0,-21 -5,-35 -14,-44 -13,-11 -32,-17 -58,-17 -24,0 -41,4 -53,13 -11,8 -20,23 -25,44l-49 -7c4,-21 11,-38 22,-51 10,-13 25,-23 45,-30 19,-7 42,-11 68,-11 25,0 46,3 62,9 16,6 28,14 35,23 8,9 13,20 16,34 2,9 2,25 2,47l0 67c0,47 2,77 4,89 2,13 6,25 12,36l-53 0c-5,-10 -8,-23 -10,-37zm-4 -112c-18,7 -46,13 -83,19 -21,3 -35,6 -44,10 -9,3 -15,9 -20,16 -5,7 -7,15 -7,24 0,13 5,24 15,33 11,9 26,14 45,14 20,0 37,-4 52,-13 15,-8 27,-20 34,-35 5,-11 8,-28 8,-50l0 -18zm407 149l0 -364 -136 0 0 -48 327 0 0 48 -136 0 0 364 -55 0zm166 -149c0,-55 15,-96 46,-123 26,-22 57,-33 94,-33 41,0 74,14 101,40 26,27 39,64 39,112 0,38 -6,68 -18,90 -11,22 -28,39 -50,51 -22,12 -46,19 -72,19 -42,0 -76,-14 -101,-41 -26,-26 -39,-65 -39,-115zm52 0c0,38 8,67 25,86 16,19 37,28 63,28 25,0 46,-9 63,-28 16,-20 25,-49 25,-88 0,-37 -9,-64 -25,-83 -17,-19 -38,-29 -63,-29 -26,0 -47,10 -63,28 -17,19 -25,48 -25,86zm373 104l7 45c-15,3 -27,4 -38,4 -19,0 -33,-3 -43,-9 -10,-5 -17,-13 -21,-22 -5,-10 -7,-30 -7,-60l0 -172 -37 0 0 -40 37 0 0 -73 51 -31 0 104 51 0 0 40 -51 0 0 175c0,14 1,23 3,28 1,4 4,7 8,9 4,3 10,4 18,4 5,0 13,-1 22,-2zm245 8c-19,16 -37,27 -54,34 -18,6 -36,10 -56,10 -33,0 -58,-8 -76,-24 -18,-16 -27,-37 -27,-62 0,-14 4,-28 10,-40 7,-12 16,-21 27,-29 10,-7 23,-12 36,-16 10,-3 25,-5 45,-8 41,-5 71,-10 91,-17 0,-7 0,-11 0,-13 0,-21 -5,-35 -15,-44 -13,-11 -32,-17 -57,-17 -24,0 -42,4 -53,13 -12,8 -20,23 -25,44l-50 -7c5,-21 12,-38 22,-51 11,-13 26,-23 45,-30 20,-7 42,-11 68,-11 26,0 46,3 62,9 16,6 28,14 36,23 7,9 12,20 16,34 1,9 2,25 2,47l0 67c0,47 1,77 3,89 2,13 6,25 13,36l-53 0c-5,-10 -9,-23 -10,-37zm-4 -112c-19,7 -46,13 -83,19 -21,3 -36,6 -44,10 -9,3 -16,9 -20,16 -5,7 -7,15 -7,24 0,13 5,24 15,33 10,9 25,14 45,14 19,0 37,-4 52,-13 15,-8 26,-20 33,-35 6,-11 9,-28 9,-50l0 -18zm103 149l0 -412 51 0 0 412 -51 0z"/>
   <polygon class="fil0" points="17994,3264 19392,3264 19392,1370 17994,1370 "/>
   <polygon class="fil0" points="17994,3264 19392,3264 19392,1370 17994,1370 "/>
   <polygon class="fil0" points="17994,3264 19392,3264 19392,1370 17994,1370 "/>
   <polygon class="fil0" points="17994,3264 19392,3264 19392,1370 17994,1370 "/>
   <polygon class="fil0" points="2702,7529 4854,7529 4854,6150 2702,6150 "/>
   <polygon class="fil1 str6" points="2702,7529 4854,7529 4854,6150 2702,6150 "/>
   <path class="fil2" d="M2990 6646l0 -275 89 0c34,0 56,2 66,5 16,4 29,13 40,26 10,14 16,32 16,54 0,17 -4,31 -10,43 -6,11 -13,20 -23,27 -9,6 -19,11 -29,13 -13,2 -32,4 -57,4l-36 0 0 103 -56 0zm56 -228l0 78 30 0c22,0 36,-1 44,-4 7,-3 13,-7 17,-14 4,-6 6,-13 6,-21 0,-10 -3,-18 -8,-25 -6,-6 -14,-11 -23,-12 -6,-1 -20,-2 -40,-2l-26 0zm336 228l0 -29c-7,10 -17,19 -29,25 -12,6 -24,9 -37,9 -14,0 -26,-3 -36,-8 -11,-6 -19,-15 -24,-25 -4,-11 -7,-26 -7,-45l0 -126 53 0 0 92c0,28 1,45 3,51 2,7 5,12 11,15 5,4 11,6 19,6 9,0 17,-2 24,-7 8,-5 12,-11 15,-19 3,-7 4,-25 4,-54l0 -84 53 0 0 199 -49 0zm286 0l-52 0 0 -101c0,-22 -2,-36 -4,-42 -2,-6 -6,-11 -11,-15 -5,-3 -11,-5 -18,-5 -10,0 -18,3 -25,8 -7,5 -12,11 -15,20 -3,8 -4,23 -4,45l0 90 -53 0 0 -199 49 0 0 29c17,-22 39,-33 66,-33 12,0 22,2 32,6 10,4 17,10 22,16 5,7 8,14 10,22 2,9 3,20 3,36l0 123zm145 -199l0 42 -37 0 0 81c0,16 1,26 1,28 1,3 3,5 5,7 3,2 6,3 9,3 5,0 12,-2 21,-5l5 41c-12,5 -26,7 -42,7 -9,0 -18,-1 -25,-4 -8,-4 -14,-8 -17,-13 -4,-5 -6,-12 -8,-20 -1,-7 -1,-19 -1,-38l0 -87 -24 0 0 -42 24 0 0 -39 52 -32 0 71 37 0zm30 97c0,-17 4,-34 13,-51 8,-16 21,-28 36,-37 16,-9 34,-13 53,-13 31,0 55,10 74,29 20,20 29,45 29,75 0,30 -9,55 -29,75 -19,19 -44,29 -73,29 -18,0 -36,-4 -52,-12 -17,-8 -30,-20 -38,-36 -9,-16 -13,-36 -13,-59zm54 3c0,20 5,35 14,46 9,10 21,15 35,15 13,0 25,-5 34,-15 9,-11 14,-26 14,-46 0,-20 -5,-35 -14,-45 -9,-11 -21,-16 -34,-16 -14,0 -26,5 -35,16 -9,10 -14,25 -14,45zm339 -38l-48 -9c5,-19 15,-34 28,-43 13,-9 32,-14 58,-14 24,0 41,3 53,8 11,6 19,13 24,21 5,9 7,25 7,48l-1 61c0,17 1,30 3,39 1,8 5,17 9,26l-52 0c-1,-3 -3,-8 -5,-15 -1,-3 -2,-5 -2,-6 -9,9 -19,15 -29,20 -10,4 -21,6 -32,6 -21,0 -37,-5 -49,-16 -12,-11 -17,-25 -17,-42 0,-12 2,-22 8,-31 5,-8 12,-15 22,-20 10,-4 24,-9 42,-12 25,-5 42,-9 51,-13l0 -5c0,-11 -2,-18 -7,-22 -5,-5 -15,-7 -29,-7 -9,0 -16,2 -22,6 -5,4 -9,10 -12,20zm70 42c-7,2 -17,5 -32,8 -14,3 -24,6 -29,9 -6,5 -10,11 -10,19 0,7 3,14 8,19 6,5 13,8 21,8 10,0 19,-3 28,-9 6,-5 10,-11 12,-18 2,-4 2,-13 2,-25l0 -11z"/>
   <path class="fil2" d="M3163 6995l-52 9c-2,-10 -6,-18 -12,-23 -6,-5 -14,-8 -24,-8 -13,0 -23,5 -31,14 -8,9 -12,24 -12,45 0,24 4,41 12,50 8,10 19,15 32,15 10,0 18,-3 24,-9 7,-5 11,-15 14,-29l52 9c-6,24 -16,42 -31,54 -15,12 -36,18 -61,18 -29,0 -53,-9 -70,-28 -17,-18 -26,-43 -26,-76 0,-33 9,-58 26,-77 17,-18 41,-27 70,-27 25,0 44,5 58,16 14,10 25,26 31,47zm75 2l-47 -8c5,-19 15,-34 28,-43 13,-9 32,-14 58,-14 23,0 41,3 52,8 12,6 20,13 25,21 4,9 7,25 7,47l-1 62c0,17 1,30 2,38 2,9 5,17 10,27l-52 0c-2,-4 -3,-9 -5,-15 -1,-4 -2,-6 -2,-7 -9,9 -19,16 -29,20 -10,5 -21,7 -33,7 -20,0 -36,-6 -48,-17 -12,-11 -17,-25 -17,-42 0,-11 2,-21 8,-30 5,-9 12,-15 22,-20 10,-5 24,-9 42,-12 24,-5 41,-9 51,-13l0 -5c0,-11 -3,-18 -8,-22 -5,-5 -14,-7 -28,-7 -9,0 -17,2 -22,6 -5,3 -9,10 -13,19zm71 43c-7,2 -17,5 -32,8 -15,3 -24,6 -29,9 -7,5 -10,11 -10,19 0,7 3,13 8,19 6,5 13,8 21,8 10,0 19,-3 27,-10 7,-4 11,-10 13,-17 1,-4 2,-13 2,-26l0 -10zm237 95l0 -30c-8,11 -17,19 -29,26 -12,6 -24,9 -37,9 -14,0 -26,-3 -36,-9 -11,-6 -19,-14 -23,-25 -5,-10 -7,-25 -7,-44l0 -126 52 0 0 92c0,28 1,45 3,51 2,6 5,11 11,15 5,4 11,6 19,6 9,0 17,-3 24,-8 7,-5 12,-11 15,-18 3,-7 4,-25 4,-54l0 -84 52 0 0 199 -48 0zm285 0l-49 0 0 -29c-8,11 -18,20 -29,25 -11,6 -22,9 -33,9 -23,0 -43,-9 -59,-28 -16,-18 -25,-44 -25,-77 0,-34 8,-59 24,-77 16,-17 36,-26 61,-26 22,0 41,9 57,28l0 -99 53 0 0 274zm-140 -103c0,21 2,36 8,46 9,14 21,21 36,21 12,0 22,-6 31,-16 8,-10 12,-26 12,-46 0,-23 -4,-40 -12,-50 -8,-10 -19,-15 -32,-15 -12,0 -22,5 -31,15 -8,10 -12,25 -12,45zm233 -35l-47 -8c5,-19 14,-34 27,-43 13,-9 33,-14 59,-14 23,0 41,3 52,8 12,6 20,13 24,21 5,9 7,25 7,47l0 62c0,17 0,30 2,38 2,9 5,17 10,27l-53 0c-1,-4 -3,-9 -5,-15 0,-4 -1,-6 -1,-7 -9,9 -19,16 -29,20 -10,5 -21,7 -33,7 -20,0 -36,-6 -48,-17 -12,-11 -18,-25 -18,-42 0,-11 3,-21 8,-30 6,-9 13,-15 23,-20 10,-5 23,-9 42,-12 24,-5 41,-9 51,-13l0 -5c0,-11 -3,-18 -8,-22 -5,-5 -14,-7 -28,-7 -10,0 -17,2 -22,6 -5,3 -10,10 -13,19zm71 43c-7,2 -18,5 -32,8 -15,3 -24,6 -29,9 -7,5 -10,11 -10,19 0,7 3,13 8,19 6,5 12,8 21,8 9,0 18,-3 27,-10 6,-4 11,-10 13,-17 1,-4 2,-13 2,-26l0 -10zm103 95l0 -274 53 0 0 274 -53 0zm212 -152l0 -49 192 0 0 49 -192 0zm0 83l0 -49 192 0 0 49 -192 0zm438 -207c26,0 47,10 62,29 18,22 27,59 27,112 0,52 -9,89 -27,112 -15,19 -36,28 -62,28 -27,0 -49,-10 -65,-31 -16,-20 -24,-57 -24,-110 0,-52 9,-89 26,-112 15,-19 36,-28 63,-28zm0 44c-7,0 -12,2 -17,6 -5,4 -9,11 -12,22 -3,13 -5,36 -5,69 0,32 2,54 5,66 3,12 7,20 12,24 5,4 10,6 17,6 6,0 11,-2 16,-6 5,-4 9,-11 12,-22 3,-13 5,-36 5,-68 0,-33 -1,-55 -5,-67 -3,-12 -7,-20 -12,-24 -5,-4 -10,-6 -16,-6z"/>
   <path class="fil3" d="M2694 6130l-290 -508 15 -9 291 508 -16 9zm-358 -429l-13 -238 199 132 -186 106z"/>
   <polygon class="fil0" points="14866,11483 16765,11483 16765,9601 14866,9601 "/>
   <polygon class="fil1 str6" points="14866,11483 16765,11483 16765,9601 14866,9601 "/>
   <path class="fil2" d="M15159 10099l0 -275 89 0c34,0 56,2 66,5 16,4 29,13 40,26 10,14 15,32 15,54 0,17 -3,31 -9,42 -6,12 -14,21 -23,27 -9,7 -19,11 -29,13 -13,3 -32,4 -57,4l-36 0 0 104 -56 0zm56 -228l0 78 30 0c22,0 37,-1 44,-4 7,-3 13,-8 17,-14 4,-6 6,-13 6,-21 0,-10 -3,-19 -8,-25 -6,-7 -14,-11 -23,-12 -6,-2 -19,-2 -39,-2l-27 0zm336 228l0 -30c-8,11 -17,19 -29,25 -12,7 -24,10 -37,10 -14,0 -26,-3 -36,-9 -11,-6 -19,-14 -23,-25 -5,-10 -8,-25 -8,-44l0 -126 53 0 0 92c0,28 1,45 3,51 2,6 5,11 10,15 6,4 12,6 20,6 9,0 17,-3 24,-8 7,-5 12,-11 15,-18 2,-8 4,-25 4,-54l0 -84 52 0 0 199 -48 0zm286 0l-53 0 0 -102c0,-21 -1,-35 -3,-41 -2,-6 -6,-11 -11,-15 -5,-3 -11,-5 -19,-5 -9,0 -17,2 -24,7 -8,5 -13,12 -15,20 -3,8 -4,24 -4,46l0 90 -53 0 0 -199 49 0 0 29c17,-22 39,-33 66,-33 11,0 22,2 32,6 9,4 17,10 22,16 5,6 8,14 10,22 2,8 3,20 3,35l0 124zm146 -199l0 42 -36 0 0 80c0,17 1,26 1,29 1,2 3,5 5,6 3,2 6,3 9,3 5,0 12,-2 21,-5l5 41c-13,5 -26,8 -42,8 -9,0 -18,-2 -25,-5 -8,-3 -13,-7 -17,-12 -4,-6 -6,-12 -7,-21 -1,-6 -2,-19 -2,-37l0 -87 -24 0 0 -42 24 0 0 -40 52 -31 0 71 36 0zm31 97c0,-18 4,-34 13,-51 9,-16 21,-29 37,-37 15,-9 33,-13 52,-13 30,0 55,10 74,29 20,20 29,44 29,74 0,30 -10,55 -29,75 -19,20 -44,30 -73,30 -18,0 -36,-4 -52,-13 -17,-8 -29,-20 -38,-36 -9,-16 -13,-35 -13,-58zm54 3c0,19 5,35 14,45 10,11 21,16 35,16 13,0 25,-5 34,-16 9,-10 14,-26 14,-46 0,-19 -5,-34 -14,-45 -9,-10 -21,-15 -34,-15 -14,0 -25,5 -35,15 -9,11 -14,26 -14,46zm340 -39l-47 -8c5,-20 14,-34 27,-43 14,-10 33,-14 59,-14 23,0 41,2 52,8 12,6 20,13 24,21 5,9 7,24 7,47l0 62c0,17 1,30 2,38 2,8 5,17 10,27l-53 0c-1,-4 -3,-9 -5,-16 0,-3 -1,-5 -1,-6 -9,9 -19,16 -29,20 -10,5 -21,7 -33,7 -20,0 -36,-6 -48,-17 -12,-11 -18,-25 -18,-42 0,-11 3,-21 8,-30 6,-9 13,-15 23,-20 10,-5 24,-9 42,-12 24,-5 41,-9 51,-13l0 -6c0,-10 -3,-17 -8,-22 -5,-4 -14,-6 -28,-6 -9,0 -17,2 -22,6 -5,3 -9,10 -13,19zm71 43c-7,2 -18,5 -32,8 -15,3 -24,6 -29,9 -7,5 -10,11 -10,18 0,8 3,14 8,20 6,5 13,8 21,8 9,0 19,-4 27,-10 7,-4 11,-10 13,-17 1,-5 2,-13 2,-26l0 -10z"/>
   <path class="fil2" d="M15332 10446l-51 10c-2,-11 -6,-18 -12,-24 -7,-5 -15,-7 -24,-7 -13,0 -24,4 -32,13 -7,9 -11,24 -11,46 0,23 4,40 11,50 8,9 19,14 32,14 10,0 18,-3 25,-8 6,-6 11,-16 13,-30l52 9c-5,24 -16,42 -31,54 -15,12 -35,18 -61,18 -29,0 -52,-9 -69,-27 -18,-19 -26,-44 -26,-77 0,-32 8,-58 26,-76 17,-19 40,-28 70,-28 24,0 43,5 58,16 14,10 24,26 30,47zm76 3l-48 -9c6,-19 15,-34 28,-43 13,-9 33,-14 58,-14 24,0 41,3 53,8 11,6 19,13 24,22 5,8 7,24 7,47l-1 61c0,17 1,30 3,39 1,8 5,17 9,26l-52 0c-1,-3 -3,-8 -5,-15 -1,-3 -1,-5 -2,-6 -9,9 -18,15 -29,20 -10,4 -21,6 -32,6 -21,0 -37,-5 -48,-16 -12,-11 -18,-26 -18,-43 0,-11 3,-21 8,-30 5,-8 13,-15 23,-20 9,-4 23,-8 41,-12 25,-5 42,-9 51,-13l0 -5c0,-10 -2,-18 -7,-22 -5,-4 -15,-7 -29,-7 -9,0 -16,2 -21,6 -6,4 -10,10 -13,20zm70 42c-6,2 -17,5 -32,8 -14,3 -24,6 -28,9 -7,5 -11,11 -11,19 0,7 3,14 9,19 5,5 12,8 21,8 9,0 18,-3 27,-9 6,-5 10,-11 12,-18 2,-4 2,-13 2,-25l0 -11zm237 95l0 -30c-7,11 -17,20 -28,26 -12,6 -25,9 -38,9 -13,0 -25,-3 -36,-9 -10,-5 -18,-14 -23,-24 -5,-11 -7,-26 -7,-44l0 -127 52 0 0 92c0,28 1,45 3,51 2,7 6,12 11,15 5,4 12,6 20,6 9,0 17,-2 24,-7 7,-5 12,-11 14,-19 3,-7 4,-25 4,-54l0 -84 53 0 0 199 -49 0zm285 0l-49 0 0 -29c-8,11 -17,20 -28,26 -11,5 -23,8 -34,8 -23,0 -42,-9 -59,-27 -16,-19 -24,-45 -24,-78 0,-33 8,-59 24,-77 16,-17 36,-26 60,-26 22,0 41,9 58,28l0 -99 52 0 0 274zm-140 -103c0,21 3,37 9,46 8,14 20,21 35,21 12,0 23,-5 31,-16 8,-10 13,-25 13,-46 0,-23 -4,-39 -13,-49 -8,-11 -18,-16 -31,-16 -13,0 -23,5 -31,15 -9,10 -13,25 -13,45zm234 -34l-48 -9c5,-19 15,-34 28,-43 13,-9 32,-14 58,-14 24,0 41,3 53,8 11,6 19,13 24,22 4,8 7,24 7,47l-1 61c0,17 1,30 3,39 1,8 4,17 9,26l-52 0c-2,-3 -3,-8 -5,-15 -1,-3 -2,-5 -2,-6 -9,9 -19,15 -29,20 -10,4 -21,6 -32,6 -21,0 -37,-5 -49,-16 -11,-11 -17,-26 -17,-43 0,-11 2,-21 8,-30 5,-8 13,-15 22,-20 10,-4 24,-8 42,-12 25,-5 42,-9 51,-13l0 -5c0,-10 -2,-18 -7,-22 -5,-4 -15,-7 -29,-7 -9,0 -16,2 -22,6 -5,4 -9,10 -12,20zm70 42c-7,2 -17,5 -32,8 -14,3 -24,6 -29,9 -6,5 -10,11 -10,19 0,7 3,14 8,19 6,5 13,8 21,8 10,0 19,-3 28,-9 6,-5 10,-11 12,-18 1,-4 2,-13 2,-25l0 -11zm104 95l0 -274 52 0 0 274 -52 0z"/>
   <path class="fil2" d="M15155 10858l49 0 0 27c17,-21 37,-31 61,-31 13,0 24,2 33,7 10,6 18,14 23,24 9,-10 19,-18 29,-24 10,-5 21,-7 32,-7 15,0 27,3 37,8 10,6 18,15 23,27 3,8 5,22 5,41l0 127 -52 0 0 -114c0,-20 -2,-32 -6,-38 -5,-7 -12,-11 -22,-11 -8,0 -14,2 -21,7 -6,4 -11,11 -14,19 -3,9 -4,23 -4,41l0 96 -53 0 0 -109c0,-19 -1,-32 -3,-38 -1,-5 -4,-9 -8,-12 -4,-3 -10,-4 -16,-4 -8,0 -16,2 -22,6 -7,5 -11,11 -14,19 -3,8 -4,22 -4,41l0 97 -53 0 0 -199zm384 61l-48 -8c6,-20 15,-34 28,-43 13,-10 33,-14 58,-14 24,0 41,2 53,8 11,5 19,12 24,21 5,9 7,24 7,47l-1 61c0,18 1,31 3,39 1,8 5,17 9,27l-52 0c-1,-4 -3,-9 -5,-16 -1,-3 -1,-5 -2,-6 -9,9 -18,16 -29,20 -10,4 -21,7 -32,7 -21,0 -37,-6 -48,-17 -12,-11 -18,-25 -18,-42 0,-11 3,-21 8,-30 5,-9 13,-16 23,-20 9,-5 23,-9 41,-13 25,-4 42,-9 51,-12l0 -6c0,-10 -2,-17 -7,-22 -5,-4 -15,-6 -28,-6 -10,0 -17,2 -22,5 -6,4 -10,11 -13,20zm70 43c-6,2 -17,5 -32,8 -14,3 -24,6 -28,9 -7,5 -11,11 -11,18 0,8 3,14 9,19 5,6 12,8 21,8 9,0 18,-3 27,-9 6,-5 10,-10 12,-17 2,-5 2,-13 2,-26l0 -10zm-64 -130l26 -56 58 0 -51 56 -33 0zm144 225l72 -103 -69 -96 64 0 36 54 37 -54 61 0 -67 94 74 105 -64 0 -41 -62 -41 62 -62 0zm237 -226l0 -49 53 0 0 49 -53 0zm0 226l0 -199 53 0 0 199 -53 0zm96 -199l48 0 0 27c17,-21 38,-31 62,-31 13,0 24,2 33,7 9,6 17,14 23,24 9,-10 18,-18 28,-24 10,-5 21,-7 33,-7 14,0 26,3 37,8 10,6 17,15 22,27 4,8 6,22 6,41l0 127 -53 0 0 -114c0,-20 -2,-32 -5,-38 -5,-7 -13,-11 -23,-11 -7,0 -14,2 -21,7 -6,4 -11,11 -14,19 -3,9 -4,23 -4,41l0 96 -52 0 0 -109c0,-19 -1,-32 -3,-38 -2,-5 -5,-9 -9,-12 -4,-3 -9,-4 -16,-4 -8,0 -15,2 -22,6 -6,5 -11,11 -14,19 -2,8 -4,22 -4,41l0 97 -52 0 0 -199zm332 97c0,-18 4,-35 13,-51 8,-16 21,-29 36,-37 16,-9 34,-13 53,-13 30,0 55,9 74,29 19,19 29,44 29,74 0,30 -10,55 -29,75 -20,20 -44,30 -73,30 -19,0 -36,-5 -52,-13 -17,-8 -30,-20 -38,-36 -9,-16 -13,-35 -13,-58zm54 3c0,19 5,34 14,45 9,10 21,16 35,16 13,0 25,-6 34,-16 9,-11 14,-26 14,-46 0,-19 -5,-34 -14,-45 -9,-10 -21,-15 -34,-15 -14,0 -26,5 -35,15 -9,11 -14,26 -14,46z"/>
   <path class="fil3" d="M15766 9607l846 -836 -12 -13 -847 836 13 13zm890 -742l77 -226 -227 75 150 151z"/>
   <polygon class="fil0" points="6950,11385 12138,11385 12138,8024 6950,8024 "/>
   <polygon class="fil4 str6" points="6950,11385 12484,11385 12484,8024 6950,8024 "/>
   <path class="fil2" d="M7240 8521l0 -275 89 0c34,0 56,1 66,4 16,4 29,13 40,27 10,14 16,32 16,54 0,16 -3,31 -9,42 -6,12 -14,21 -24,27 -9,7 -19,11 -28,13 -14,3 -33,4 -58,4l-36 0 0 104 -56 0zm56 -229l0 79 30 0c22,0 37,-2 44,-5 7,-3 13,-7 17,-13 4,-6 7,-13 7,-22 0,-10 -3,-18 -9,-24 -6,-7 -13,-11 -22,-13 -7,-1 -20,-2 -40,-2l-27 0zm336 229l0 -30c-7,11 -17,19 -29,25 -11,7 -24,10 -37,10 -14,0 -26,-3 -36,-9 -11,-6 -19,-14 -23,-25 -5,-10 -7,-25 -7,-44l0 -126 52 0 0 91c0,28 1,46 3,52 2,6 6,11 11,15 5,4 11,6 19,6 9,0 17,-3 25,-8 7,-5 12,-11 14,-18 3,-8 4,-26 4,-54l0 -84 53 0 0 199 -49 0zm286 0l-52 0 0 -102c0,-21 -1,-35 -4,-41 -2,-7 -5,-12 -11,-15 -5,-4 -11,-5 -18,-5 -9,0 -18,2 -25,7 -7,5 -12,12 -15,20 -3,8 -4,23 -4,46l0 90 -53 0 0 -199 49 0 0 29c18,-23 40,-34 66,-34 12,0 23,2 32,7 10,4 17,9 22,16 5,6 9,14 11,22 1,8 2,20 2,35l0 124zm145 -199l0 41 -36 0 0 81c0,17 0,26 1,29 0,2 2,5 4,6 3,2 6,3 9,3 5,0 12,-2 22,-5l4 41c-12,5 -26,8 -42,8 -9,0 -18,-2 -25,-5 -8,-3 -13,-7 -17,-12 -3,-5 -6,-12 -7,-21 -1,-6 -2,-19 -2,-37l0 -88 -24 0 0 -41 24 0 0 -40 53 -31 0 71 36 0zm30 97c0,-18 4,-35 13,-51 9,-17 21,-29 37,-38 16,-8 33,-13 53,-13 30,0 54,10 74,30 19,19 29,44 29,74 0,30 -10,55 -30,75 -19,20 -43,30 -73,30 -18,0 -36,-4 -52,-13 -17,-8 -29,-20 -38,-36 -9,-16 -13,-35 -13,-58zm54 3c0,19 5,35 14,45 10,11 21,16 35,16 14,0 25,-5 34,-16 10,-10 14,-26 14,-46 0,-19 -4,-34 -14,-45 -9,-10 -20,-16 -34,-16 -14,0 -25,6 -35,16 -9,11 -14,26 -14,46zm339 -39l-48 -8c6,-20 15,-34 28,-44 13,-9 33,-14 58,-14 24,0 41,3 53,9 11,5 20,12 24,21 5,8 7,24 7,47l0 61c0,18 0,31 2,39 2,9 5,17 9,27l-52 0c-1,-4 -3,-9 -5,-15 -1,-4 -1,-6 -2,-7 -9,9 -18,16 -29,20 -10,5 -21,7 -32,7 -21,0 -37,-6 -49,-17 -11,-11 -17,-25 -17,-42 0,-11 2,-21 8,-30 5,-9 13,-16 22,-20 10,-5 24,-9 42,-13 25,-4 42,-9 51,-13l0 -5c0,-10 -2,-17 -7,-22 -5,-4 -15,-6 -28,-6 -10,0 -17,2 -22,5 -6,4 -10,11 -13,20zm70 43c-6,2 -17,5 -32,8 -14,3 -24,6 -28,9 -7,5 -11,11 -11,18 0,8 3,14 9,20 5,5 12,8 21,8 9,0 18,-4 27,-10 6,-5 10,-10 12,-17 2,-5 2,-13 2,-26l0 -10zm386 -45l-51 9c-2,-10 -6,-18 -12,-23 -7,-6 -15,-8 -24,-8 -14,0 -24,4 -32,13 -8,10 -12,25 -12,46 0,24 4,40 12,50 8,10 19,15 32,15 10,0 18,-3 25,-9 6,-5 11,-15 13,-29l52 9c-5,23 -16,41 -31,54 -15,12 -35,18 -61,18 -29,0 -52,-9 -70,-28 -17,-18 -26,-44 -26,-76 0,-33 9,-59 26,-77 18,-19 41,-28 71,-28 24,0 43,6 58,16 14,10 24,26 30,48zm76 2l-48 -8c6,-20 15,-34 28,-44 13,-9 33,-14 59,-14 23,0 41,3 52,9 12,5 20,12 25,21 4,8 7,24 7,47l-1 61c0,18 1,31 2,39 2,9 5,17 10,27l-53 0c-1,-4 -3,-9 -5,-15 0,-4 -1,-6 -1,-7 -9,9 -19,16 -29,20 -10,5 -21,7 -33,7 -20,0 -36,-6 -48,-17 -12,-11 -18,-25 -18,-42 0,-11 3,-21 8,-30 6,-9 13,-16 23,-20 9,-5 23,-9 42,-13 24,-4 41,-9 51,-13l0 -5c0,-10 -3,-17 -8,-22 -5,-4 -14,-6 -28,-6 -10,0 -17,2 -22,5 -5,4 -10,11 -13,20zm71 43c-7,2 -18,5 -32,8 -15,3 -25,6 -29,9 -7,5 -10,11 -10,18 0,8 2,14 8,20 5,5 12,8 21,8 9,0 19,-4 27,-10 6,-5 11,-10 13,-17 1,-5 2,-13 2,-26l0 -10zm235 95l0 -30c-7,11 -17,19 -28,25 -12,7 -25,10 -38,10 -13,0 -25,-3 -36,-9 -11,-6 -18,-14 -23,-25 -5,-10 -7,-25 -7,-44l0 -126 52 0 0 91c0,28 1,46 3,52 2,6 6,11 11,15 5,4 12,6 19,6 9,0 18,-3 25,-8 7,-5 12,-11 14,-18 3,-8 4,-26 4,-54l0 -84 53 0 0 199 -49 0zm288 0l-49 0 0 -29c-8,11 -17,20 -29,25 -11,6 -22,9 -33,9 -23,0 -43,-9 -59,-28 -16,-18 -25,-44 -25,-77 0,-34 8,-60 24,-77 16,-18 36,-27 61,-27 22,0 41,10 58,28l0 -99 52 0 0 275zm-140 -104c0,22 3,37 8,47 9,13 21,20 36,20 12,0 22,-5 31,-15 8,-11 13,-26 13,-47 0,-23 -5,-39 -13,-49 -8,-10 -19,-15 -31,-15 -13,0 -23,5 -32,15 -8,10 -12,25 -12,44zm231 -34l-48 -8c6,-20 15,-34 28,-44 13,-9 33,-14 59,-14 23,0 41,3 52,9 12,5 20,12 25,21 4,8 7,24 7,47l-1 61c0,18 1,31 2,39 2,9 5,17 10,27l-53 0c-1,-4 -3,-9 -5,-15 0,-4 -1,-6 -1,-7 -9,9 -19,16 -29,20 -10,5 -21,7 -33,7 -20,0 -36,-6 -48,-17 -12,-11 -18,-25 -18,-42 0,-11 3,-21 8,-30 6,-9 13,-16 23,-20 9,-5 23,-9 42,-13 24,-4 41,-9 51,-13l0 -5c0,-10 -3,-17 -8,-22 -5,-4 -14,-6 -28,-6 -10,0 -17,2 -22,5 -5,4 -10,11 -13,20zm71 43c-7,2 -18,5 -32,8 -15,3 -25,6 -29,9 -7,5 -10,11 -10,18 0,8 2,14 8,20 5,5 12,8 21,8 9,0 19,-4 27,-10 6,-5 11,-10 13,-17 1,-5 2,-13 2,-26l0 -10zm105 95l0 -275 53 0 0 275 -53 0zm223 -226l0 -49 53 0 0 49 -53 0zm0 226l0 -199 53 0 0 199 -53 0zm281 0l-53 0 0 -102c0,-21 -1,-35 -3,-41 -2,-7 -6,-12 -11,-15 -5,-4 -11,-5 -19,-5 -9,0 -17,2 -24,7 -8,5 -13,12 -15,20 -3,8 -4,23 -4,46l0 90 -53 0 0 -199 49 0 0 29c17,-23 39,-34 66,-34 11,0 22,2 32,7 9,4 17,9 22,16 5,6 8,14 10,22 2,8 3,20 3,35l0 124zm144 -199l0 41 -36 0 0 81c0,17 1,26 1,29 1,2 2,5 5,6 2,2 5,3 9,3 5,0 12,-2 21,-5l5 41c-13,5 -27,8 -42,8 -9,0 -18,-2 -26,-5 -7,-3 -13,-7 -16,-12 -4,-5 -6,-12 -8,-21 -1,-6 -1,-19 -1,-37l0 -88 -25 0 0 -41 25 0 0 -40 52 -31 0 71 36 0zm158 136l53 9c-7,19 -18,34 -32,44 -15,10 -33,15 -55,15 -34,0 -60,-11 -77,-34 -13,-18 -19,-41 -19,-69 0,-33 8,-59 25,-78 18,-18 39,-28 66,-28 29,0 53,10 70,30 17,19 25,49 24,90l-131 0c0,15 4,28 12,36 9,9 19,13 31,13 8,0 15,-2 20,-6 6,-5 10,-12 13,-22zm3 -53c0,-16 -4,-27 -12,-35 -7,-8 -16,-12 -27,-12 -11,0 -21,4 -28,12 -8,9 -11,20 -11,35l78 0zm144 116l-52 0 0 -199 48 0 0 28c9,-14 16,-22 23,-26 7,-5 14,-7 23,-7 12,0 24,4 35,10l-17 46c-9,-6 -17,-8 -24,-8 -8,0 -14,2 -19,6 -5,4 -9,11 -12,22 -3,10 -5,33 -5,66l0 62zm98 -199l49 0 0 27c17,-21 38,-32 62,-32 12,0 23,3 33,8 9,5 17,13 23,24 9,-11 18,-19 28,-24 10,-5 21,-8 33,-8 14,0 27,3 37,9 10,6 17,15 22,26 4,9 6,23 6,42l0 127 -53 0 0 -114c0,-20 -2,-32 -5,-38 -5,-8 -13,-11 -23,-11 -7,0 -14,2 -21,6 -6,5 -11,12 -14,20 -3,9 -4,23 -4,41l0 96 -53 0 0 -109c0,-20 -1,-32 -2,-38 -2,-5 -5,-9 -9,-12 -4,-3 -9,-4 -16,-4 -8,0 -16,2 -22,6 -6,5 -11,11 -14,19 -3,8 -4,22 -4,41l0 97 -53 0 0 -199zm461 136l52 9c-6,19 -17,34 -32,44 -14,10 -32,15 -54,15 -35,0 -61,-11 -77,-34 -13,-18 -20,-41 -20,-69 0,-33 9,-59 26,-78 17,-18 39,-28 65,-28 30,0 53,10 71,30 17,19 25,49 24,90l-132 0c1,15 5,28 13,36 8,9 18,13 30,13 8,0 15,-2 21,-6 6,-5 10,-12 13,-22zm3 -53c-1,-16 -4,-27 -12,-35 -7,-8 -17,-12 -27,-12 -12,0 -21,4 -29,12 -7,9 -11,20 -11,35l79 0zm278 116l-49 0 0 -29c-8,11 -18,20 -29,25 -11,6 -22,9 -33,9 -23,0 -43,-9 -59,-28 -17,-18 -25,-44 -25,-77 0,-34 8,-60 24,-77 16,-18 36,-27 60,-27 23,0 42,10 58,28l0 -99 53 0 0 275zm-141 -104c0,22 3,37 9,47 9,13 20,20 36,20 12,0 22,-5 31,-15 8,-11 12,-26 12,-47 0,-23 -4,-39 -12,-49 -8,-10 -19,-15 -32,-15 -12,0 -23,5 -31,15 -8,10 -13,25 -13,44zm193 -122l0 -49 52 0 0 49 -52 0zm0 226l0 -199 52 0 0 199 -52 0zm87 -102c0,-18 4,-35 13,-51 8,-17 21,-29 36,-38 16,-8 34,-13 53,-13 30,0 55,10 74,30 20,19 29,44 29,74 0,30 -10,55 -29,75 -19,20 -44,30 -73,30 -19,0 -36,-4 -53,-13 -16,-8 -29,-20 -37,-36 -9,-16 -13,-35 -13,-58zm54 3c0,19 5,35 14,45 9,11 21,16 35,16 13,0 25,-5 34,-16 9,-10 14,-26 14,-46 0,-19 -5,-34 -14,-45 -9,-10 -21,-16 -34,-16 -14,0 -26,6 -35,16 -9,11 -14,26 -14,46zm193 46l53 0 0 38c0,15 -2,27 -4,36 -3,9 -8,17 -15,24 -8,7 -17,12 -28,16l-10 -22c10,-3 18,-8 22,-14 5,-6 7,-15 7,-25l-25 0 0 -53z"/>
   <path class="fil2" d="M7238 8811l49 0 0 29c7,-10 15,-18 26,-24 11,-7 23,-10 36,-10 23,0 43,9 59,28 16,18 24,43 24,75 0,33 -8,59 -24,78 -16,18 -36,27 -59,27 -11,0 -21,-2 -30,-6 -9,-5 -18,-12 -28,-23l0 100 -53 0 0 -274zm52 96c0,22 5,39 13,50 9,10 20,16 33,16 12,0 22,-5 30,-15 8,-10 12,-26 12,-48 0,-21 -4,-37 -12,-47 -9,-10 -19,-15 -31,-15 -13,0 -24,5 -32,15 -9,10 -13,24 -13,44z"/>
   <path class="fil2" d="M7580 9009l0 -29c-7,10 -16,19 -28,25 -12,6 -24,9 -38,9 -13,0 -25,-3 -36,-8 -10,-6 -18,-15 -23,-25 -4,-11 -7,-26 -7,-44l0 -126 53 0 0 91c0,28 1,45 3,52 2,6 5,11 10,15 5,3 12,5 20,5 9,0 17,-2 24,-7 7,-5 12,-11 15,-19 2,-7 4,-25 4,-53l0 -84 52 0 0 198 -49 0zm221 -62l52 8c-7,20 -17,34 -32,44 -14,10 -32,15 -54,15 -35,0 -60,-11 -77,-34 -13,-18 -20,-41 -20,-68 0,-33 9,-59 26,-78 17,-18 39,-28 65,-28 30,0 53,10 70,30 17,19 26,49 25,89l-132 0c1,16 5,28 13,37 8,9 18,13 30,13 8,0 15,-2 21,-7 6,-4 10,-11 13,-21zm3 -54c-1,-15 -5,-27 -12,-35 -7,-7 -17,-11 -27,-11 -12,0 -21,4 -29,12 -7,9 -11,20 -11,34l79 0zm276 116l-49 0 0 -29c-8,12 -17,20 -28,26 -11,6 -23,8 -34,8 -23,0 -42,-9 -59,-27 -16,-19 -24,-44 -24,-77 0,-34 8,-60 24,-77 16,-18 36,-27 60,-27 22,0 41,10 58,28l0 -99 52 0 0 274zm-140 -103c0,21 3,37 9,46 8,14 20,21 35,21 12,0 22,-5 31,-16 8,-10 13,-25 13,-46 0,-23 -5,-39 -13,-49 -8,-10 -18,-15 -31,-15 -13,0 -23,5 -32,15 -8,9 -12,24 -12,44zm309 41l53 8c-7,20 -18,34 -32,44 -15,10 -33,15 -55,15 -34,0 -60,-11 -76,-34 -13,-18 -20,-41 -20,-68 0,-33 9,-59 26,-78 17,-18 39,-28 65,-28 30,0 53,10 70,30 17,19 25,49 24,89l-131 0c0,16 5,28 13,37 8,9 18,13 30,13 8,0 15,-2 21,-7 5,-4 9,-11 12,-21zm3 -54c0,-15 -4,-27 -11,-35 -8,-7 -17,-11 -28,-11 -11,0 -21,4 -28,12 -7,9 -11,20 -11,34l78 0zm201 60l53 -8c2,11 6,18 13,24 7,5 17,7 29,7 14,0 24,-2 31,-7 4,-4 7,-8 7,-14 0,-4 -2,-7 -4,-10 -3,-3 -9,-5 -18,-7 -42,-9 -69,-18 -80,-26 -16,-10 -24,-25 -24,-44 0,-18 7,-32 20,-44 14,-12 35,-18 64,-18 27,0 47,5 60,14 14,9 23,22 28,39l-50 9c-2,-7 -6,-13 -12,-18 -6,-4 -14,-6 -25,-6 -14,0 -24,2 -30,6 -4,3 -6,6 -6,11 0,4 1,7 5,9 5,4 21,9 49,15 28,7 48,14 59,24 11,9 17,22 17,39 0,18 -8,34 -23,47 -15,13 -38,19 -68,19 -27,0 -48,-5 -64,-16 -16,-11 -26,-26 -31,-45zm350 -6l53 8c-7,20 -18,34 -32,44 -15,10 -33,15 -55,15 -34,0 -60,-11 -77,-34 -13,-18 -19,-41 -19,-68 0,-33 8,-59 26,-78 17,-18 39,-28 65,-28 29,0 53,10 70,30 17,19 25,49 24,89l-131 0c0,16 4,28 12,37 9,9 19,13 31,13 8,0 15,-2 20,-7 6,-4 10,-11 13,-21zm3 -54c0,-15 -4,-27 -12,-35 -7,-7 -16,-11 -27,-11 -11,0 -21,4 -28,12 -8,9 -11,20 -11,34l78 0zm145 116l-52 0 0 -198 49 0 0 28c8,-14 15,-22 22,-26 7,-5 14,-7 23,-7 12,0 24,4 35,10l-17 46c-9,-6 -17,-9 -24,-9 -8,0 -14,3 -19,7 -5,4 -9,11 -12,21 -3,11 -5,33 -5,67l0 61zm324 -62l52 8c-6,20 -17,34 -32,44 -14,10 -32,15 -54,15 -35,0 -60,-11 -77,-34 -13,-18 -20,-41 -20,-68 0,-33 9,-59 26,-78 17,-18 39,-28 66,-28 29,0 52,10 69,30 17,19 26,49 25,89l-132 0c1,16 5,28 13,37 8,9 18,13 30,13 9,0 15,-2 21,-7 6,-4 10,-11 13,-21zm3 -54c-1,-15 -4,-27 -12,-35 -7,-7 -16,-11 -27,-11 -12,0 -21,4 -29,12 -7,9 -11,20 -11,34l79 0zm95 116l0 -274 52 0 0 274 -52 0zm109 -146l0 -52 52 0 0 52 -52 0zm0 146l0 -52 52 0 0 52 -52 0z"/>
   <polygon class="fil2" points="7234,9407 7234,9354 7337,9354 7337,9407 "/>
   <path class="fil2" d="M7449 9480l0 -275 89 0c34,0 56,2 66,5 16,4 29,13 39,26 11,14 16,32 16,54 0,17 -3,31 -9,42 -6,12 -14,21 -23,27 -9,7 -19,11 -29,13 -13,3 -32,4 -57,4l-36 0 0 104 -56 0zm56 -228l0 78 30 0c22,0 36,-1 44,-4 7,-3 13,-8 17,-14 4,-6 6,-13 6,-21 0,-10 -3,-19 -8,-25 -6,-7 -14,-11 -23,-12 -6,-2 -20,-2 -39,-2l-27 0zm336 228l0 -30c-8,11 -17,19 -29,25 -12,7 -24,10 -37,10 -14,0 -26,-3 -36,-9 -11,-6 -19,-14 -23,-25 -5,-10 -8,-25 -8,-44l0 -126 53 0 0 92c0,28 1,45 3,51 2,6 5,11 10,15 6,4 12,6 20,6 9,0 17,-3 24,-8 7,-5 12,-11 15,-18 2,-8 4,-25 4,-54l0 -84 52 0 0 199 -48 0zm286 0l-53 0 0 -102c0,-21 -1,-35 -3,-41 -2,-6 -6,-11 -11,-15 -5,-3 -11,-5 -19,-5 -9,0 -17,2 -24,7 -8,5 -13,12 -15,20 -3,8 -4,24 -4,46l0 90 -53 0 0 -199 49 0 0 29c17,-22 39,-33 66,-33 11,0 22,2 32,6 9,4 16,9 21,16 5,6 9,14 11,22 2,8 3,20 3,35l0 124zm146 -199l0 42 -36 0 0 80c0,17 1,26 1,29 1,2 3,5 5,6 3,2 5,3 9,3 5,0 12,-2 21,-5l5 41c-13,5 -26,8 -42,8 -9,0 -18,-2 -25,-5 -8,-3 -14,-7 -17,-12 -4,-6 -6,-12 -7,-21 -2,-6 -2,-19 -2,-37l0 -87 -24 0 0 -42 24 0 0 -40 52 -31 0 71 36 0zm31 97c0,-18 4,-34 13,-51 9,-16 21,-29 37,-37 15,-9 33,-13 52,-13 30,0 55,9 74,29 19,20 29,44 29,74 0,30 -10,55 -29,75 -19,20 -44,30 -73,30 -18,0 -36,-4 -52,-13 -17,-8 -29,-20 -38,-36 -9,-16 -13,-35 -13,-58zm54 3c0,19 5,35 14,45 9,11 21,16 35,16 13,0 25,-5 34,-16 9,-10 14,-26 14,-46 0,-19 -5,-34 -14,-45 -9,-10 -21,-15 -34,-15 -14,0 -26,5 -35,15 -9,11 -14,26 -14,46zm289 -3c0,-18 4,-34 13,-51 8,-16 21,-29 36,-37 16,-9 34,-13 53,-13 30,0 55,9 74,29 19,20 29,44 29,74 0,30 -10,55 -29,75 -20,20 -44,30 -74,30 -18,0 -35,-4 -52,-13 -16,-8 -29,-20 -37,-36 -9,-16 -13,-35 -13,-58zm54 3c0,19 4,35 14,45 9,11 21,16 34,16 14,0 26,-5 35,-16 9,-10 14,-26 14,-46 0,-19 -5,-34 -14,-45 -9,-10 -21,-15 -35,-15 -13,0 -25,5 -34,15 -10,11 -14,26 -14,46zm172 -100l29 0 0 -15c0,-17 2,-29 6,-38 3,-8 10,-15 19,-20 10,-5 22,-8 37,-8 15,0 30,3 44,7l-7 37c-8,-2 -16,-3 -24,-3 -8,0 -14,1 -17,5 -3,4 -5,11 -5,21l0 14 39 0 0 41 -39 0 0 158 -53 0 0 -158 -29 0 0 -41zm266 136l52 9c-7,19 -17,34 -32,44 -14,10 -32,15 -54,15 -35,0 -60,-12 -77,-34 -13,-18 -20,-41 -20,-69 0,-33 9,-59 26,-77 17,-19 39,-28 65,-28 30,0 53,9 70,29 17,20 26,50 25,90l-132 0c1,15 5,28 13,36 8,9 18,13 30,13 9,0 15,-2 21,-6 6,-5 10,-12 13,-22zm3 -53c-1,-16 -5,-27 -12,-35 -7,-8 -17,-12 -27,-12 -12,0 -21,4 -29,13 -7,8 -11,19 -11,34l79 0zm145 116l-52 0 0 -199 48 0 0 28c9,-13 16,-22 23,-26 7,-4 14,-6 23,-6 12,0 23,3 34,10l-16 45c-9,-5 -17,-8 -25,-8 -7,0 -13,2 -18,6 -6,4 -10,11 -13,22 -2,10 -4,33 -4,66l0 62zm190 -199l0 42 -36 0 0 80c0,17 0,26 1,29 0,2 2,5 4,6 3,2 6,3 9,3 5,0 12,-2 22,-5l4 41c-12,5 -26,8 -41,8 -10,0 -18,-2 -26,-5 -8,-3 -13,-7 -17,-12 -3,-6 -6,-12 -7,-21 -1,-6 -2,-19 -2,-37l0 -87 -24 0 0 -42 24 0 0 -40 53 -31 0 71 36 0zm82 61l-48 -8c6,-20 15,-34 28,-43 13,-10 33,-14 58,-14 24,0 41,2 53,8 11,6 19,13 24,21 5,9 7,24 7,47l-1 62c0,17 1,30 3,38 1,8 4,17 9,27l-52 0c-1,-4 -3,-9 -5,-16 -1,-3 -2,-5 -2,-6 -9,9 -18,16 -29,20 -10,5 -21,7 -32,7 -21,0 -37,-6 -49,-17 -11,-11 -17,-25 -17,-42 0,-11 3,-21 8,-30 5,-9 13,-16 22,-20 10,-5 24,-9 42,-12 25,-5 42,-9 51,-13l0 -6c0,-10 -2,-17 -7,-22 -5,-4 -15,-6 -29,-6 -9,0 -16,2 -21,6 -6,3 -10,10 -13,19zm70 43c-6,2 -17,5 -32,8 -14,3 -24,6 -28,9 -7,5 -11,11 -11,18 0,8 3,14 9,20 5,5 12,8 21,8 9,0 18,-4 27,-10 6,-5 10,-10 12,-17 2,-5 2,-13 2,-26l0 -10zm286 95l-49 0 0 -29c-8,11 -17,19 -28,25 -11,6 -23,9 -34,9 -23,0 -42,-9 -59,-28 -16,-18 -24,-44 -24,-77 0,-34 8,-59 24,-77 16,-18 36,-26 60,-26 22,0 41,9 58,27l0 -99 52 0 0 275zm-140 -103c0,21 3,36 9,46 8,13 20,20 35,20 12,0 23,-5 31,-15 8,-10 13,-26 13,-46 0,-23 -4,-40 -13,-50 -8,-10 -18,-15 -31,-15 -13,0 -23,5 -32,15 -8,10 -12,25 -12,45zm182 1c0,-18 4,-34 13,-51 9,-16 21,-29 37,-37 15,-9 33,-13 53,-13 30,0 54,9 73,29 20,20 29,44 29,74 0,30 -10,55 -29,75 -19,20 -44,30 -73,30 -18,0 -36,-4 -52,-13 -17,-8 -29,-20 -38,-36 -9,-16 -13,-35 -13,-58zm54 3c0,19 5,35 14,45 10,11 21,16 35,16 13,0 25,-5 34,-16 10,-10 14,-26 14,-46 0,-19 -4,-34 -14,-45 -9,-10 -21,-15 -34,-15 -14,0 -25,5 -35,15 -9,11 -14,26 -14,46zm194 99l0 -53 53 0 0 53 -53 0z"/>
   <polygon class="fil2" points="7234,9894 7234,9842 7337,9842 7337,9894 "/>
   <path class="fil2" d="M7449 9967l0 -274 89 0c34,0 56,1 66,4 16,4 29,13 39,27 11,14 16,31 16,53 0,17 -3,31 -9,43 -6,11 -14,20 -23,27 -9,6 -19,11 -29,13 -13,2 -32,4 -57,4l-36 0 0 103 -56 0zm56 -228l0 78 30 0c22,0 36,-1 44,-4 7,-3 13,-7 17,-13 4,-7 6,-14 6,-22 0,-10 -3,-18 -8,-25 -6,-6 -14,-10 -23,-12 -6,-1 -20,-2 -39,-2l-27 0z"/>
   <path class="fil2" d="M7790 9967l0 -30c-7,11 -17,20 -28,26 -12,6 -25,9 -38,9 -13,0 -25,-3 -36,-9 -10,-5 -18,-14 -23,-24 -5,-11 -7,-26 -7,-44l0 -127 52 0 0 92c0,28 1,45 3,51 2,7 6,12 11,15 5,4 12,6 20,6 9,0 17,-2 24,-7 7,-5 12,-11 14,-19 3,-7 4,-25 4,-54l0 -84 53 0 0 199 -49 0zm286 0l-52 0 0 -101c0,-22 -1,-35 -4,-42 -2,-6 -5,-11 -11,-14 -5,-4 -11,-6 -18,-6 -9,0 -17,3 -25,8 -7,5 -12,12 -15,20 -2,8 -4,23 -4,45l0 90 -52 0 0 -199 48 0 0 30c18,-23 40,-34 66,-34 12,0 22,2 32,6 10,5 17,10 22,16 5,7 8,14 10,22 2,9 3,20 3,36l0 123zm144 -199l0 42 -36 0 0 81c0,16 1,26 1,28 1,3 3,5 5,7 2,2 5,3 9,3 5,0 12,-2 21,-5l5 40c-13,6 -26,8 -42,8 -9,0 -18,-1 -25,-5 -8,-3 -14,-7 -17,-12 -4,-5 -6,-12 -8,-21 -1,-6 -1,-18 -1,-37l0 -87 -24 0 0 -42 24 0 0 -39 52 -31 0 70 36 0zm31 97c0,-17 4,-34 13,-50 8,-17 21,-29 36,-38 16,-8 34,-13 53,-13 30,0 55,10 74,29 19,20 29,45 29,75 0,30 -10,55 -29,75 -20,19 -44,29 -73,29 -19,0 -36,-4 -52,-12 -17,-8 -30,-20 -38,-36 -9,-16 -13,-36 -13,-59zm54 3c0,20 5,35 14,46 9,10 21,15 35,15 13,0 25,-5 34,-15 9,-11 14,-26 14,-46 0,-20 -5,-35 -14,-45 -9,-11 -21,-16 -34,-16 -14,0 -26,5 -35,16 -9,10 -14,25 -14,45zm483 99l-48 0 0 -29c-8,11 -18,20 -29,26 -11,5 -22,8 -34,8 -22,0 -42,-9 -58,-27 -17,-19 -25,-45 -25,-78 0,-33 8,-59 24,-77 16,-17 36,-26 60,-26 22,0 42,9 58,28l0 -99 52 0 0 274zm-140 -103c0,21 3,37 9,46 8,14 20,21 35,21 12,0 23,-5 31,-16 9,-10 13,-25 13,-46 0,-23 -4,-39 -12,-49 -9,-11 -19,-16 -32,-16 -12,0 -23,5 -31,15 -9,10 -13,25 -13,45zm310 40l53 9c-7,19 -17,34 -32,44 -15,10 -33,15 -54,15 -35,0 -61,-11 -77,-34 -13,-18 -20,-41 -20,-68 0,-33 9,-59 26,-78 17,-18 39,-28 65,-28 30,0 53,10 70,29 17,20 25,50 25,90l-132 0c1,16 5,28 13,37 8,8 18,13 30,13 8,0 15,-2 21,-7 5,-4 10,-12 12,-22zm4 -53c-1,-15 -5,-27 -12,-35 -8,-8 -17,-12 -28,-12 -11,0 -20,5 -28,13 -7,8 -11,20 -11,34l79 0zm382 116l-48 0 0 -29c-9,11 -18,20 -29,26 -11,5 -22,8 -34,8 -23,0 -42,-9 -59,-27 -16,-19 -24,-45 -24,-78 0,-33 8,-59 24,-77 16,-17 36,-26 60,-26 22,0 42,9 58,28l0 -99 52 0 0 274zm-140 -103c0,21 3,37 9,46 8,14 20,21 35,21 12,0 23,-5 31,-16 9,-10 13,-25 13,-46 0,-23 -4,-39 -13,-49 -8,-11 -18,-16 -31,-16 -13,0 -23,5 -31,15 -9,10 -13,25 -13,45zm195 -122l0 -49 53 0 0 49 -53 0zm0 225l0 -199 53 0 0 199 -53 0zm81 -56l53 -8c2,10 6,18 13,23 7,6 17,8 29,8 14,0 24,-2 31,-7 4,-4 7,-8 7,-14 0,-4 -2,-8 -4,-10 -3,-3 -9,-5 -18,-7 -42,-10 -69,-18 -80,-26 -16,-11 -24,-26 -24,-45 0,-17 7,-31 20,-43 14,-12 35,-18 64,-18 27,0 47,5 60,14 14,8 23,22 28,39l-50 9c-2,-8 -6,-14 -12,-18 -6,-4 -14,-6 -25,-6 -14,0 -24,2 -30,6 -4,3 -6,6 -6,11 0,3 1,7 5,9 5,4 21,9 49,15 28,6 48,14 59,23 11,10 17,23 17,40 0,18 -8,33 -23,47 -15,13 -38,19 -68,19 -27,0 -48,-5 -64,-16 -16,-11 -26,-26 -31,-45zm350 -7l53 9c-7,19 -18,34 -32,44 -15,10 -33,15 -55,15 -34,0 -60,-11 -77,-34 -13,-18 -19,-41 -19,-68 0,-33 8,-59 26,-78 17,-18 39,-28 65,-28 29,0 53,10 70,29 17,20 25,50 24,90l-131 0c0,16 4,28 12,37 9,8 19,13 31,13 8,0 15,-2 20,-7 6,-4 10,-12 13,-22zm3 -53c0,-15 -4,-27 -12,-35 -7,-8 -16,-12 -27,-12 -11,0 -21,5 -28,13 -8,8 -11,20 -11,34l78 0zm276 116l-52 0 0 -101c0,-22 -2,-35 -4,-42 -2,-6 -6,-11 -11,-14 -5,-4 -11,-6 -18,-6 -9,0 -18,3 -25,8 -7,5 -12,12 -15,20 -3,8 -4,23 -4,45l0 90 -53 0 0 -199 49 0 0 30c17,-23 39,-34 66,-34 12,0 22,2 32,6 10,5 17,10 22,16 5,7 8,14 10,22 2,9 3,20 3,36l0 123zm-126 -224l-24 0c0,-3 0,-5 0,-7 0,-13 3,-23 10,-30 6,-7 14,-10 24,-10 5,0 9,0 12,1 4,1 11,4 21,8 10,4 17,7 23,7 4,0 7,-2 10,-4 3,-3 5,-7 5,-13l24 0c0,17 -3,29 -9,37 -6,7 -14,11 -24,11 -4,0 -8,-1 -12,-2 -3,0 -10,-3 -22,-8 -11,-4 -20,-6 -25,-6 -4,0 -7,1 -9,3 -2,3 -4,7 -4,13zm170 122c0,-17 4,-34 13,-50 8,-17 20,-29 36,-38 16,-8 33,-13 53,-13 30,0 55,10 74,29 19,20 29,45 29,75 0,30 -10,55 -29,75 -20,19 -44,29 -74,29 -18,0 -35,-4 -52,-12 -16,-8 -29,-20 -37,-36 -9,-16 -13,-36 -13,-59zm54 3c0,20 4,35 14,46 9,10 21,15 34,15 14,0 25,-5 35,-15 9,-11 14,-26 14,-46 0,-20 -5,-35 -14,-45 -10,-11 -21,-16 -35,-16 -13,0 -25,5 -34,16 -10,10 -14,25 -14,45zm192 99l0 -52 52 0 0 52 -52 0z"/>
   <polygon class="fil2" points="7234,10364 7234,10312 7337,10312 7337,10364 "/>
   <path class="fil2" d="M7449 10438l0 -275 89 0c34,0 56,2 66,4 16,5 29,13 39,27 11,14 16,32 16,54 0,17 -3,31 -9,42 -6,12 -14,21 -23,27 -9,7 -19,11 -29,13 -13,3 -32,4 -57,4l-36 0 0 104 -56 0zm56 -228l0 78 30 0c22,0 36,-2 44,-5 7,-2 13,-7 17,-13 4,-6 6,-13 6,-21 0,-10 -3,-19 -8,-25 -6,-7 -14,-11 -23,-12 -6,-2 -20,-2 -39,-2l-27 0zm336 228l0 -30c-8,10 -17,19 -29,25 -12,6 -24,10 -37,10 -14,0 -26,-3 -36,-9 -11,-6 -19,-14 -23,-25 -5,-11 -8,-25 -8,-44l0 -126 53 0 0 91c0,28 1,45 3,52 2,6 5,11 10,15 6,4 12,5 20,5 9,0 17,-2 24,-7 7,-5 12,-11 15,-18 2,-8 4,-26 4,-54l0 -84 52 0 0 199 -48 0zm286 0l-53 0 0 -102c0,-21 -1,-35 -3,-41 -2,-7 -6,-11 -11,-15 -5,-3 -11,-5 -19,-5 -9,0 -17,2 -24,7 -8,5 -13,12 -15,20 -3,8 -4,23 -4,46l0 90 -53 0 0 -199 49 0 0 29c17,-22 39,-33 66,-33 11,0 22,2 32,6 9,4 16,9 21,16 5,6 9,14 11,22 2,8 3,20 3,35l0 124zm146 -199l0 42 -36 0 0 80c0,16 1,26 1,29 1,2 3,5 5,6 3,2 5,3 9,3 5,0 12,-2 21,-5l5 41c-13,5 -26,8 -42,8 -9,0 -18,-2 -25,-5 -8,-3 -14,-8 -17,-13 -4,-5 -6,-12 -7,-20 -2,-6 -2,-19 -2,-37l0 -87 -24 0 0 -42 24 0 0 -40 52 -31 0 71 36 0zm31 97c0,-18 4,-35 13,-51 9,-16 21,-29 37,-37 15,-9 33,-13 52,-13 30,0 55,9 74,29 19,19 29,44 29,74 0,30 -10,55 -29,75 -19,20 -44,30 -73,30 -18,0 -36,-5 -52,-13 -17,-8 -29,-20 -38,-36 -9,-16 -13,-35 -13,-58zm54 3c0,19 5,34 14,45 9,10 21,16 35,16 13,0 25,-6 34,-16 9,-11 14,-26 14,-46 0,-19 -5,-34 -14,-45 -9,-10 -21,-16 -34,-16 -14,0 -26,6 -35,16 -9,11 -14,26 -14,46zm483 99l-48 0 0 -30c-8,12 -18,20 -29,26 -11,6 -22,9 -33,9 -23,0 -43,-10 -59,-28 -17,-18 -25,-44 -25,-77 0,-34 8,-60 24,-77 16,-18 36,-26 60,-26 22,0 42,9 58,27l0 -99 52 0 0 275zm-140 -104c0,22 3,37 9,47 8,13 20,20 35,20 13,0 23,-5 31,-15 9,-11 13,-26 13,-47 0,-23 -4,-39 -12,-49 -9,-10 -19,-15 -32,-15 -12,0 -23,5 -31,15 -9,10 -13,25 -13,44zm311 41l52 9c-7,19 -17,33 -32,44 -14,10 -33,15 -54,15 -35,0 -61,-12 -77,-34 -13,-18 -20,-41 -20,-69 0,-33 9,-59 26,-77 17,-19 39,-28 65,-28 30,0 53,9 70,29 17,19 25,49 25,90l-132 0c1,15 5,27 13,36 8,9 18,13 30,13 8,0 15,-2 21,-7 5,-4 10,-11 13,-21zm3 -53c-1,-16 -5,-27 -12,-35 -8,-8 -17,-12 -27,-12 -12,0 -21,4 -29,12 -7,9 -11,20 -11,35l79 0z"/>
   <path class="fil2" d="M8996 10239l48 0 0 27c17,-21 38,-31 62,-31 13,0 24,2 33,7 9,6 17,14 23,24 9,-10 18,-18 28,-24 10,-5 21,-7 33,-7 14,0 26,3 37,8 10,6 17,15 22,27 4,8 6,22 6,41l0 127 -53 0 0 -114c0,-20 -2,-32 -5,-38 -5,-7 -13,-11 -23,-11 -7,0 -14,2 -21,7 -6,4 -11,11 -14,19 -2,9 -4,23 -4,41l0 96 -52 0 0 -109c0,-19 -1,-32 -3,-38 -2,-5 -5,-9 -9,-12 -4,-3 -9,-4 -16,-4 -8,0 -15,2 -22,6 -6,5 -11,11 -14,19 -2,8 -4,22 -4,41l0 97 -52 0 0 -199zm459 136l53 9c-7,19 -18,33 -32,44 -15,10 -33,15 -55,15 -34,0 -60,-12 -76,-34 -14,-18 -20,-41 -20,-69 0,-33 9,-59 26,-77 17,-19 39,-28 65,-28 29,0 53,9 70,29 17,19 25,49 24,90l-131 0c0,15 5,27 13,36 8,9 18,13 30,13 8,0 15,-2 20,-7 6,-4 10,-11 13,-21zm3 -53c0,-16 -4,-27 -12,-35 -7,-8 -16,-12 -27,-12 -11,0 -21,4 -28,12 -8,9 -11,20 -11,35l78 0zm94 -110l0 -49 53 0 0 49 -53 0zm53 27l0 192c0,26 -2,43 -5,54 -4,10 -10,18 -19,24 -10,6 -22,9 -36,9 -6,0 -11,0 -17,-1 -6,-1 -13,-3 -20,-5l9 -44c3,0 5,1 7,1 2,0 4,0 6,0 6,0 10,-1 14,-3 3,-2 5,-5 6,-8 2,-4 2,-13 2,-30l0 -189 53 0zm49 97c0,-18 4,-35 13,-51 9,-16 21,-29 37,-37 15,-9 33,-13 52,-13 30,0 55,9 74,29 19,19 29,44 29,74 0,30 -10,55 -29,75 -19,20 -44,30 -73,30 -18,0 -36,-5 -52,-13 -17,-8 -29,-20 -38,-36 -9,-16 -13,-35 -13,-58zm54 3c0,19 5,34 14,45 9,10 21,16 35,16 13,0 25,-6 34,-16 9,-11 14,-26 14,-46 0,-19 -5,-34 -14,-45 -9,-10 -21,-16 -34,-16 -14,0 -26,6 -35,16 -9,11 -14,26 -14,46zm243 99l-53 0 0 -199 49 0 0 28c8,-13 16,-22 22,-26 7,-4 15,-6 23,-6 12,0 24,3 35,9l-17 46c-8,-5 -17,-8 -24,-8 -8,0 -14,2 -19,6 -5,4 -9,11 -12,22 -3,10 -4,33 -4,66l0 62zm341 -63l52 9c-7,19 -17,33 -32,44 -14,10 -33,15 -54,15 -35,0 -61,-12 -77,-34 -13,-18 -20,-41 -20,-69 0,-33 9,-59 26,-77 17,-19 39,-28 65,-28 30,0 53,9 70,29 17,19 25,49 25,90l-132 0c1,15 5,27 13,36 8,9 18,13 30,13 8,0 15,-2 21,-7 5,-4 10,-11 13,-21zm3 -53c-1,-16 -5,-27 -12,-35 -8,-8 -17,-12 -27,-12 -12,0 -21,4 -29,12 -7,9 -11,20 -11,35l79 0zm72 -83l29 0 0 -15c0,-17 2,-29 5,-38 4,-8 10,-15 20,-20 10,-5 22,-8 36,-8 15,0 30,3 45,7l-7 37c-9,-2 -17,-3 -25,-3 -8,0 -13,1 -17,5 -3,3 -5,10 -5,21l0 14 40 0 0 41 -40 0 0 158 -52 0 0 -158 -29 0 0 -41zm150 -27l0 -49 53 0 0 49 -53 0zm0 226l0 -199 53 0 0 199 -53 0zm273 -140l-51 9c-2,-10 -6,-18 -12,-23 -6,-5 -14,-8 -24,-8 -13,0 -24,4 -32,14 -7,9 -11,24 -11,45 0,24 4,40 12,50 7,10 18,15 31,15 10,0 19,-3 25,-9 6,-6 11,-15 13,-29l52 9c-5,23 -16,41 -31,53 -15,13 -35,19 -61,19 -29,0 -52,-10 -69,-28 -18,-18 -26,-44 -26,-76 0,-33 8,-59 26,-77 17,-18 40,-27 70,-27 24,0 43,5 58,15 14,11 24,26 30,48zm37 -86l0 -49 52 0 0 49 -52 0zm0 226l0 -199 52 0 0 199 -52 0zm214 -63l52 9c-6,19 -17,33 -31,44 -15,10 -33,15 -55,15 -35,0 -60,-12 -77,-34 -13,-18 -19,-41 -19,-69 0,-33 8,-59 25,-77 18,-19 39,-28 66,-28 29,0 53,9 70,29 17,19 25,49 24,90l-131 0c0,15 4,27 12,36 8,9 19,13 31,13 8,0 15,-2 20,-7 6,-4 10,-11 13,-21zm3 -53c0,-16 -4,-27 -12,-35 -7,-8 -16,-12 -27,-12 -11,0 -21,4 -28,12 -8,9 -11,20 -11,35l78 0zm276 116l-53 0 0 -102c0,-21 -1,-35 -3,-41 -2,-7 -6,-11 -11,-15 -5,-3 -11,-5 -18,-5 -10,0 -18,2 -25,7 -7,5 -12,12 -15,20 -3,8 -4,23 -4,46l0 90 -53 0 0 -199 49 0 0 29c17,-22 39,-33 66,-33 11,0 22,2 32,6 9,4 17,9 22,16 5,6 8,14 10,22 2,8 3,20 3,35l0 124zm226 -140l-51 9c-2,-10 -6,-18 -12,-23 -7,-5 -14,-8 -24,-8 -13,0 -24,4 -32,14 -7,9 -11,24 -11,45 0,24 4,40 12,50 7,10 18,15 31,15 10,0 18,-3 25,-9 6,-6 11,-15 13,-29l52 9c-5,23 -16,41 -31,53 -15,13 -35,19 -61,19 -29,0 -52,-10 -69,-28 -18,-18 -26,-44 -26,-76 0,-33 8,-59 26,-77 17,-18 40,-27 70,-27 24,0 43,5 58,15 14,11 24,26 30,48zm40 -86l0 -49 53 0 0 49 -53 0zm0 226l0 -199 53 0 0 199 -53 0zm138 -138l-47 -8c5,-20 15,-34 28,-43 13,-10 32,-14 58,-14 23,0 41,2 52,8 12,5 20,12 25,21 4,9 7,24 7,47l-1 61c0,18 1,31 2,39 2,8 5,17 10,27l-52 0c-2,-4 -3,-9 -5,-16 -1,-3 -2,-5 -2,-6 -9,9 -19,16 -29,20 -10,4 -21,7 -33,7 -20,0 -36,-6 -48,-17 -12,-11 -17,-25 -17,-42 0,-11 2,-21 8,-30 5,-9 12,-16 22,-20 10,-5 24,-9 42,-13 24,-4 42,-9 51,-12l0 -6c0,-10 -3,-17 -8,-22 -5,-4 -14,-6 -28,-6 -9,0 -17,2 -22,5 -5,4 -9,11 -13,20zm71 43c-7,2 -17,5 -32,8 -15,3 -24,6 -29,9 -6,5 -10,11 -10,18 0,8 3,14 8,19 6,6 13,8 21,8 10,0 19,-3 27,-9 7,-5 11,-10 13,-17 1,-5 2,-13 2,-26l0 -10zm103 95l0 -53 53 0 0 53 -53 0z"/>
   <polygon class="fil2" points="7234,10834 7234,10782 7337,10782 7337,10834 "/>
   <path class="fil2" d="M7438 10772c0,-28 4,-51 12,-70 7,-14 15,-27 26,-38 11,-11 23,-19 35,-25 18,-7 37,-11 60,-11 40,0 72,13 97,38 24,25 36,60 36,105 0,44 -12,79 -36,104 -24,25 -56,38 -97,38 -40,0 -73,-13 -97,-38 -24,-25 -36,-59 -36,-103zm57 -2c0,31 7,55 22,71 14,16 32,24 54,24 22,0 41,-8 55,-24 14,-16 21,-40 21,-71 0,-32 -7,-55 -21,-71 -13,-15 -32,-23 -55,-23 -23,0 -41,8 -55,23 -14,16 -21,40 -21,71zm345 -61l0 42 -36 0 0 80c0,16 1,26 2,29 0,2 2,5 4,6 3,2 6,3 9,3 5,0 12,-2 21,-5l5 41c-12,5 -26,8 -42,8 -9,0 -18,-2 -25,-5 -8,-3 -13,-7 -17,-13 -4,-5 -6,-11 -7,-20 -1,-6 -2,-19 -2,-37l0 -87 -24 0 0 -42 24 0 0 -40 52 -31 0 71 36 0zm94 199l-53 0 0 -199 49 0 0 28c8,-13 16,-22 22,-26 7,-4 15,-6 23,-6 12,0 24,3 35,10l-16 45c-9,-5 -18,-8 -25,-8 -8,0 -14,2 -19,6 -5,4 -9,11 -12,22 -3,10 -4,33 -4,66l0 62zm89 -102c0,-18 5,-35 13,-51 9,-16 21,-29 37,-37 16,-9 33,-13 53,-13 30,0 54,9 73,29 20,20 29,44 29,74 0,30 -9,55 -29,75 -19,20 -44,30 -73,30 -18,0 -36,-4 -52,-13 -17,-8 -29,-20 -38,-36 -8,-16 -13,-35 -13,-58zm54 3c0,19 5,34 14,45 10,11 21,16 35,16 14,0 25,-5 34,-16 10,-11 14,-26 14,-46 0,-19 -4,-34 -14,-45 -9,-10 -20,-15 -34,-15 -14,0 -25,5 -35,15 -9,11 -14,26 -14,46zm300 -100l49 0 0 29c6,-10 15,-18 26,-24 11,-6 23,-9 36,-9 23,0 42,9 59,27 16,18 24,43 24,75 0,34 -8,60 -25,78 -16,18 -36,28 -59,28 -11,0 -21,-3 -30,-7 -8,-4 -18,-12 -28,-22l0 99 -52 0 0 -274zm52 96c0,23 4,39 13,50 9,11 19,16 32,16 12,0 22,-5 31,-15 8,-10 12,-26 12,-48 0,-21 -4,-37 -13,-47 -8,-10 -18,-15 -31,-15 -13,0 -23,5 -32,15 -8,10 -12,25 -12,44zm318 103l0 -30c-7,11 -17,19 -28,25 -12,7 -25,10 -38,10 -13,0 -25,-3 -36,-9 -10,-6 -18,-14 -23,-25 -5,-11 -7,-25 -7,-44l0 -126 53 0 0 91c0,28 1,46 3,52 1,6 5,11 10,15 5,4 12,5 20,5 9,0 17,-2 24,-7 7,-5 12,-11 14,-18 3,-8 4,-26 4,-54l0 -84 53 0 0 199 -49 0zm284 0l-53 0 0 -102c0,-21 -1,-35 -3,-41 -2,-7 -6,-11 -11,-15 -5,-3 -11,-5 -19,-5 -9,0 -17,2 -24,7 -8,5 -13,12 -15,20 -3,8 -4,24 -4,46l0 90 -53 0 0 -199 49 0 0 29c17,-22 39,-33 66,-33 11,0 22,2 32,6 9,4 17,9 21,16 5,6 9,14 11,22 2,8 3,20 3,35l0 124zm146 -199l0 42 -36 0 0 80c0,16 1,26 1,29 1,2 3,5 5,6 3,2 5,3 9,3 5,0 12,-2 21,-5l5 41c-13,5 -26,8 -42,8 -9,0 -18,-2 -25,-5 -8,-3 -14,-7 -17,-13 -4,-5 -6,-11 -7,-20 -2,-6 -2,-19 -2,-37l0 -87 -24 0 0 -42 24 0 0 -40 52 -31 0 71 36 0zm31 97c0,-18 4,-35 13,-51 9,-16 21,-29 37,-37 15,-9 33,-13 52,-13 30,0 55,9 74,29 19,20 29,44 29,74 0,30 -10,55 -29,75 -19,20 -44,30 -73,30 -18,0 -36,-4 -52,-13 -17,-8 -29,-20 -38,-36 -9,-16 -13,-35 -13,-58zm54 3c0,19 5,34 14,45 9,11 21,16 35,16 13,0 25,-5 34,-16 9,-11 14,-26 14,-46 0,-19 -5,-34 -14,-45 -9,-10 -21,-15 -34,-15 -14,0 -26,5 -35,15 -9,11 -14,26 -14,46zm481 99l-49 0 0 -29c-8,11 -17,19 -28,25 -11,6 -23,9 -34,9 -23,0 -42,-10 -59,-28 -16,-18 -24,-44 -24,-77 0,-34 8,-60 24,-77 16,-18 36,-26 60,-26 22,0 41,9 58,27l0 -99 52 0 0 275zm-140 -104c0,22 3,37 9,47 8,13 20,20 35,20 12,0 23,-5 31,-15 8,-11 13,-26 13,-47 0,-22 -4,-39 -13,-49 -8,-10 -18,-15 -31,-15 -13,0 -23,5 -31,15 -9,10 -13,25 -13,44zm310 41l53 9c-7,19 -18,34 -32,44 -15,10 -33,15 -55,15 -34,0 -60,-12 -76,-34 -13,-18 -20,-41 -20,-69 0,-33 9,-59 26,-77 17,-19 39,-28 65,-28 30,0 53,9 70,29 17,19 25,49 24,90l-131 0c0,15 5,27 13,36 8,9 18,13 30,13 8,0 15,-2 21,-7 5,-4 9,-11 12,-21zm3 -53c0,-16 -4,-27 -11,-35 -8,-8 -17,-12 -28,-12 -11,0 -21,4 -28,12 -8,9 -11,20 -11,35l78 0zm219 -110l0 -49 53 0 0 49 -53 0zm0 226l0 -199 53 0 0 199 -53 0zm280 0l-52 0 0 -102c0,-21 -1,-35 -3,-41 -3,-7 -6,-11 -11,-15 -6,-3 -12,-5 -19,-5 -9,0 -17,2 -25,7 -7,5 -12,12 -15,20 -2,8 -4,24 -4,46l0 90 -52 0 0 -199 49 0 0 29c17,-22 39,-33 65,-33 12,0 23,2 32,6 10,4 17,9 22,16 5,6 9,14 11,22 1,8 2,20 2,35l0 124zm147 -199l0 42 -36 0 0 80c0,16 0,26 1,29 1,2 2,5 5,6 2,2 5,3 9,3 5,0 12,-2 21,-5l4 41c-12,5 -26,8 -41,8 -10,0 -18,-2 -26,-5 -7,-3 -13,-7 -16,-13 -4,-5 -6,-11 -8,-20 -1,-6 -1,-19 -1,-37l0 -87 -25 0 0 -42 25 0 0 -40 52 -31 0 71 36 0zm158 136l52 9c-6,19 -17,34 -31,44 -15,10 -33,15 -55,15 -34,0 -60,-12 -77,-34 -13,-18 -19,-41 -19,-69 0,-33 8,-59 25,-77 18,-19 39,-28 66,-28 29,0 53,9 70,29 17,19 25,49 24,90l-131 0c0,15 4,27 12,36 8,9 19,13 31,13 8,0 15,-2 20,-7 6,-4 10,-11 13,-21zm3 -53c0,-16 -4,-27 -12,-35 -7,-8 -16,-12 -27,-12 -11,0 -21,4 -28,12 -8,9 -11,20 -11,35l78 0zm144 116l-52 0 0 -199 48 0 0 28c9,-13 16,-22 23,-26 7,-4 14,-6 23,-6 12,0 23,3 34,10l-16 45c-9,-5 -17,-8 -25,-8 -7,0 -13,2 -18,6 -5,4 -9,11 -12,22 -3,10 -5,33 -5,66l0 62zm217 -63l53 9c-7,19 -18,34 -32,44 -15,10 -33,15 -55,15 -34,0 -60,-12 -77,-34 -13,-18 -19,-41 -19,-69 0,-33 8,-59 26,-77 17,-19 39,-28 65,-28 29,0 53,9 70,29 17,19 25,49 24,90l-131 0c0,15 4,27 13,36 8,9 18,13 30,13 8,0 15,-2 20,-7 6,-4 10,-11 13,-21zm3 -53c0,-16 -4,-27 -12,-35 -7,-8 -16,-12 -27,-12 -11,0 -21,4 -28,12 -8,9 -11,20 -11,35l78 0zm-68 -109l26 -56 59 0 -52 56 -33 0zm144 169l53 -8c3,10 7,18 14,23 7,5 16,8 29,8 13,0 24,-3 31,-8 4,-3 6,-8 6,-14 0,-4 -1,-7 -3,-10 -3,-2 -9,-5 -18,-7 -42,-9 -69,-18 -81,-25 -15,-11 -23,-26 -23,-45 0,-18 7,-32 20,-44 14,-12 35,-17 63,-17 28,0 48,4 61,13 13,9 22,22 27,39l-49 10c-2,-8 -6,-14 -12,-18 -6,-4 -15,-6 -26,-6 -14,0 -24,1 -30,5 -4,3 -6,7 -6,11 0,4 2,7 6,10 4,3 21,8 49,14 28,7 48,15 59,24 11,9 16,22 16,39 0,18 -7,34 -23,47 -15,13 -37,20 -67,20 -27,0 -49,-6 -65,-17 -15,-11 -26,-25 -31,-44z"/>
   <path class="fil3" d="M11219 7953l854 -834 -12 -13 -854 834 12 13zm897 -739l79 -226 -228 73 149 153z"/>
   <polygon class="fil0" points="11784,5406 13978,5406 13978,3994 11784,3994 "/>
   <polygon class="fil1 str6" points="11784,5406 13978,5406 13978,3994 11784,3994 "/>
   <path class="fil2" d="M12251 4389l54 17c-9,30 -22,52 -42,67 -19,15 -43,22 -72,22 -37,0 -67,-13 -90,-37 -24,-25 -36,-59 -36,-103 0,-45 12,-81 36,-106 23,-25 54,-38 93,-38 33,0 61,10 82,30 12,12 22,28 28,50l-55 14c-3,-15 -10,-26 -20,-34 -11,-8 -23,-12 -38,-12 -20,0 -37,7 -49,21 -13,15 -19,39 -19,71 0,35 6,60 18,74 13,15 29,22 49,22 15,0 27,-4 38,-14 11,-9 18,-24 23,-44zm239 101l0 -29c-7,10 -17,19 -29,25 -11,6 -24,9 -37,9 -13,0 -25,-3 -36,-8 -11,-6 -18,-15 -23,-25 -5,-11 -7,-26 -7,-44l0 -127 52 0 0 92c0,28 1,45 3,52 2,6 6,11 11,15 5,3 12,5 19,5 9,0 17,-2 25,-7 7,-5 12,-11 14,-19 3,-7 4,-25 4,-53l0 -85 53 0 0 199 -49 0zm157 0l-53 0 0 -199 49 0 0 29c8,-14 16,-22 22,-27 7,-4 15,-6 23,-6 12,0 24,4 35,10l-16 46c-9,-6 -17,-9 -25,-9 -7,0 -14,2 -19,6 -5,5 -9,12 -12,22 -3,11 -4,33 -4,67l0 61zm157 0l-80 -199 55 0 38 102 10 34c3,-9 5,-14 6,-17 2,-6 3,-11 6,-17l37 -102 54 0 -79 199 -47 0zm191 -137l-47 -9c5,-19 15,-33 28,-43 13,-9 32,-14 58,-14 23,0 41,3 52,9 12,5 20,12 25,21 4,8 7,24 7,47l-1 61c0,18 1,30 2,39 2,8 5,17 10,26l-52 0c-2,-3 -3,-8 -5,-15 -1,-3 -2,-5 -2,-6 -9,9 -19,15 -29,20 -10,4 -21,6 -33,6 -20,0 -36,-5 -48,-16 -12,-11 -17,-25 -17,-42 0,-12 2,-22 8,-30 5,-9 12,-16 22,-21 10,-4 24,-8 42,-12 24,-4 42,-9 51,-13l0 -5c0,-10 -3,-18 -8,-22 -5,-4 -14,-6 -28,-6 -9,0 -17,1 -22,5 -5,4 -9,10 -13,20zm71 42c-7,3 -17,5 -32,8 -15,4 -24,7 -29,10 -6,4 -10,11 -10,18 0,7 3,14 8,19 6,5 13,8 21,8 10,0 19,-3 27,-9 7,-5 11,-11 13,-18 1,-4 2,-13 2,-25l0 -11zm413 95l-49 0 0 -29c-8,12 -18,20 -29,26 -11,5 -22,8 -33,8 -23,0 -43,-9 -59,-27 -16,-19 -25,-44 -25,-77 0,-34 8,-60 24,-77 16,-18 36,-27 60,-27 23,0 42,10 58,28l0 -99 53 0 0 274zm-141 -103c0,21 3,37 9,46 9,14 20,21 36,21 12,0 22,-5 30,-16 9,-10 13,-25 13,-46 0,-23 -4,-39 -12,-49 -8,-10 -19,-15 -32,-15 -12,0 -23,4 -31,14 -8,10 -13,25 -13,45zm311 41l53 8c-7,20 -18,34 -32,44 -15,10 -33,15 -55,15 -34,0 -60,-11 -77,-34 -13,-18 -19,-41 -19,-68 0,-33 8,-59 26,-78 17,-18 39,-28 65,-28 29,0 53,10 70,30 17,19 25,49 24,89l-131 0c0,16 4,28 13,37 8,9 18,13 30,13 8,0 15,-2 20,-7 6,-4 10,-12 13,-21zm3 -54c0,-15 -4,-27 -12,-35 -7,-8 -16,-11 -27,-11 -11,0 -21,4 -28,12 -8,8 -11,20 -11,34l78 0z"/>
   <path class="fil2" d="M12075 4978l0 -274 53 0 0 274 -53 0zm138 -137l-47 -9c5,-19 14,-34 28,-43 13,-9 32,-14 58,-14 23,0 41,3 52,8 12,6 20,13 24,22 5,8 8,24 8,47l-1 61c0,17 1,30 2,39 2,8 5,17 10,26l-52 0c-2,-3 -4,-8 -6,-15 0,-3 -1,-5 -1,-6 -9,9 -19,15 -29,19 -10,5 -21,7 -33,7 -20,0 -36,-5 -48,-17 -12,-11 -18,-25 -18,-42 0,-11 3,-21 8,-30 6,-8 13,-15 23,-20 10,-4 24,-9 42,-12 24,-5 41,-9 51,-13l0 -5c0,-10 -3,-18 -8,-22 -5,-5 -14,-7 -28,-7 -9,0 -17,2 -22,6 -5,4 -9,10 -13,20zm71 42c-7,2 -18,5 -32,8 -15,3 -24,6 -29,9 -7,5 -10,11 -10,19 0,7 3,14 8,19 6,5 13,8 21,8 10,0 19,-3 27,-9 7,-5 11,-11 13,-18 1,-4 2,-13 2,-25l0 -11zm228 95l0 -274 52 0 0 99c16,-19 36,-28 58,-28 24,0 44,9 60,26 16,18 24,43 24,76 0,34 -8,60 -25,79 -16,18 -35,27 -58,27 -12,0 -23,-3 -34,-9 -11,-5 -21,-14 -29,-25l0 29 -48 0zm51 -103c0,21 4,36 10,46 9,14 21,21 37,21 11,0 21,-5 29,-15 9,-10 13,-26 13,-47 0,-23 -5,-39 -13,-50 -8,-10 -19,-15 -31,-15 -13,0 -24,5 -32,15 -8,10 -13,25 -13,45zm177 1c0,-17 4,-34 13,-50 8,-17 20,-29 36,-38 16,-9 33,-13 53,-13 30,0 55,10 74,29 19,20 29,45 29,75 0,30 -10,55 -29,74 -20,20 -44,30 -74,30 -18,0 -35,-4 -52,-12 -16,-8 -29,-21 -37,-37 -9,-15 -13,-35 -13,-58zm54 3c0,20 4,35 14,45 9,11 21,16 34,16 14,0 25,-5 35,-16 9,-10 14,-25 14,-45 0,-20 -5,-35 -14,-45 -10,-11 -21,-16 -35,-16 -13,0 -25,5 -34,16 -10,10 -14,25 -14,45zm192 -100l48 0 0 27c17,-20 38,-31 62,-31 12,0 23,3 33,8 9,5 17,13 23,24 9,-11 18,-19 28,-24 10,-5 21,-8 32,-8 15,0 27,3 38,9 10,6 17,15 22,26 4,9 6,22 6,41l0 127 -53 0 0 -113c0,-20 -2,-33 -5,-38 -5,-8 -13,-12 -23,-12 -7,0 -14,3 -21,7 -6,5 -11,11 -14,20 -3,8 -4,22 -4,41l0 95 -52 0 0 -109c0,-19 -1,-31 -3,-37 -2,-6 -5,-10 -9,-13 -4,-2 -9,-4 -16,-4 -8,0 -15,2 -22,7 -6,4 -11,11 -14,19 -3,8 -4,22 -4,41l0 96 -52 0 0 -199zm344 199l0 -274 53 0 0 99c16,-19 35,-28 57,-28 24,0 44,9 60,26 16,18 24,43 24,76 0,34 -8,60 -24,79 -16,18 -36,27 -59,27 -11,0 -23,-3 -34,-9 -11,-5 -20,-14 -28,-25l0 29 -49 0zm52 -103c0,21 3,36 10,46 9,14 21,21 36,21 12,0 21,-5 30,-15 8,-10 12,-26 12,-47 0,-23 -4,-39 -12,-50 -9,-10 -19,-15 -32,-15 -13,0 -23,5 -32,15 -8,10 -12,25 -12,45zm227 -34l-47 -9c5,-19 14,-34 28,-43 13,-9 32,-14 58,-14 23,0 41,3 52,8 12,6 20,13 25,22 4,8 7,24 7,47l-1 61c0,17 1,30 2,39 2,8 5,17 10,26l-52 0c-2,-3 -3,-8 -5,-15 -1,-3 -2,-5 -2,-6 -9,9 -19,15 -29,19 -10,5 -21,7 -33,7 -20,0 -36,-5 -48,-17 -12,-11 -18,-25 -18,-42 0,-11 3,-21 9,-30 5,-8 12,-15 22,-20 10,-4 24,-9 42,-12 24,-5 41,-9 51,-13l0 -5c0,-10 -3,-18 -8,-22 -5,-5 -14,-7 -28,-7 -9,0 -17,2 -22,6 -5,4 -9,10 -13,20zm71 42c-7,2 -18,5 -32,8 -15,3 -24,6 -29,9 -7,5 -10,11 -10,19 0,7 3,14 8,19 6,5 13,8 21,8 10,0 19,-3 27,-9 7,-5 11,-11 13,-18 1,-4 2,-13 2,-25l0 -11z"/>
   <path class="fil3" d="M11779 5357l-936 533 9 15 936 -533 -9 -15zm-953 430l-133 198 238 -12 -105 -186z"/>
  </g>
 </g>
</svg>
