<?xml version="1.0" encoding="UTF-8"?>
<!DOCTYPE svg PUBLIC "-//W3C//DTD SVG 1.1//EN" "http://www.w3.org/Graphics/SVG/1.1/DTD/svg11.dtd">
<!-- Creator: CorelDRAW X7 -->
<svg xmlns="http://www.w3.org/2000/svg" xml:space="preserve" width="66.3381mm" height="52.3309mm" version="1.1" style="shape-rendering:geometricPrecision; text-rendering:geometricPrecision; image-rendering:optimizeQuality; fill-rule:evenodd; clip-rule:evenodd"
viewBox="0 0 2275 1794"
 xmlns:xlink="http://www.w3.org/1999/xlink">
 <defs>
  <style type="text/css">
   <![CDATA[
    .fil1 {fill:#FEFEFE}
    .fil0 {fill:#C00000;fill-rule:nonzero}
   ]]>
  </style>
 </defs>
 <g id="Capa_x0020_1">
  <metadata id="CorelCorpID_0Corel-Layer"/>
  <g id="_2956126026992">
   <path class="fil0" d="M176 166l4 419 -33 0 -5 -419 34 0zm6 731l5 610 -33 1 -5 -611 33 0zm-95 -649l71 -113 74 113c5,7 3,16 -5,20 -8,5 -18,3 -24,-5l-58 -90 28 -1 -57 92c-4,7 -16,9 -23,5 -9,-4 -10,-13 -6,-21z"/>
   <path class="fil0" d="M73 643c4,11 9,22 13,33l-27 0c4,-11 9,-22 14,-33l0 0zm23 56l7 0 -27 -64 -6 0 -28 64 7 0 7 -17 33 0 7 17z"/>
   <polygon id="1" class="fil0" points="113,699 119,699 119,631 113,631 "/>
   <path id="2" class="fil0" d="M149 700c3,0 7,-1 10,-2l-1 -5c-3,0 -6,1 -9,1 -4,0 -5,-3 -5,-7l0 -28 14 0 0 -6 -14 0 0 -16 -6 0 0 16 -8 0 0 6 8 0 0 29c0,8 3,12 11,12z"/>
   <path id="3" class="fil0" d="M204 653l0 24c0,9 -5,17 -15,17 -8,0 -13,-5 -13,-16l0 -25 -6 0 0 27c0,14 8,20 17,20 8,0 14,-3 18,-9l0 0 0 8 5 0 0 -46 -6 0z"/>
   <path id="4" class="fil0" d="M244 652c-5,0 -10,2 -12,7l-1 0 0 -6 -5 0 0 46 6 0 0 -23c0,-11 3,-18 11,-18 2,0 4,0 7,1l1 -6c-2,-1 -4,-1 -7,-1z"/>
   <path id="5" class="fil0" d="M276 694c-6,0 -12,-3 -12,-9 0,-8 7,-10 14,-10 4,0 8,0 13,1l0 4c0,9 -7,14 -15,14zm2 -42c-7,0 -13,2 -19,5l3 5c5,-3 10,-5 16,-5 8,0 13,4 13,12l0 2c-5,-1 -9,-2 -14,-2 -10,0 -19,4 -19,16 0,9 7,15 17,15 6,0 13,-3 16,-8l0 0 1 7 5 0 0 -29c0,-12 -7,-18 -19,-18z"/>
   <path id="6" class="fil0" d="M27 738c9,0 14,7 15,15l-31 0c1,-9 7,-15 16,-15zm21 17c0,-13 -8,-23 -21,-23 -14,0 -22,11 -22,24 0,14 9,25 23,25 7,0 13,-3 18,-9l-4 -4c-3,4 -9,7 -14,7 -9,0 -16,-7 -17,-16l37 0c0,-2 0,-3 0,-4z"/>
   <path id="7" class="fil0" d="M75 775c-5,0 -10,-2 -14,-5l-3 5c4,3 12,6 17,6 9,0 18,-4 18,-14 0,-9 -9,-12 -17,-14 -4,-1 -11,-3 -11,-8 0,-5 6,-7 10,-7 5,0 10,2 14,4l3 -5c-4,-3 -11,-5 -17,-5 -7,0 -16,4 -16,13 0,8 8,11 15,13 5,2 13,3 13,10 0,6 -7,7 -12,7z"/>
   <path id="8" class="fil0" d="M119 781c4,0 8,-1 11,-2l-1 -6c-3,1 -6,2 -9,2 -4,0 -5,-3 -5,-7l0 -29 14 0 0 -5 -14 0 0 -16 -6 0 0 16 -8 0 0 5 8 0 0 30c0,7 3,12 10,12z"/>
   <path id="9" class="fil0" d="M157 775c-6,0 -12,-3 -12,-10 0,-8 7,-10 13,-10 5,0 9,1 13,2l0 4c0,8 -6,14 -14,14zm1 -43c-6,0 -12,2 -18,5l3 6c5,-3 10,-5 15,-5 8,0 13,3 13,12l0 1c-4,-1 -9,-1 -13,-1 -10,0 -19,4 -19,15 0,10 7,16 16,16 7,0 13,-3 17,-9l0 0 1 7 5 0 0 -28c0,-13 -7,-19 -20,-19zm0 -5l13 -12 -5 -4 -11 13 3 3z"/>
   <path id="10" class="fil0" d="M206 781c3,0 8,-1 11,-2l-1 -6c-3,1 -6,2 -9,2 -4,0 -5,-3 -5,-7l0 -29 14 0 0 -5 -14 0 0 -16 -7 0 0 16 -7 0 0 5 7 0 0 30c0,7 4,12 11,12z"/>
   <path id="11" class="fil0" d="M228 779l6 0 0 -45 -6 0 0 45zm7 -59c0,2 -1,4 -4,4 -2,0 -3,-2 -3,-4 0,-2 1,-4 3,-4 3,0 4,2 4,4z"/>
   <path id="12" class="fil0" d="M271 775c-10,0 -18,-8 -18,-19 0,-10 8,-18 18,-18 5,0 10,3 13,6l4 -4c-4,-4 -10,-8 -17,-8 -13,0 -24,10 -24,24 0,14 10,24 24,24 7,0 13,-2 17,-8l-4 -4c-3,4 -8,7 -13,7z"/>
   <path id="13" class="fil0" d="M316 775c-6,0 -12,-3 -12,-10 0,-8 7,-10 14,-10 4,0 8,1 13,2l0 4c0,8 -7,14 -15,14zm1 -43c-6,0 -12,2 -18,5l3 6c5,-3 10,-5 16,-5 7,0 13,3 13,12l0 1c-5,-1 -10,-1 -14,-1 -10,0 -19,4 -19,15 0,10 7,16 17,16 6,0 12,-3 16,-9l0 0 1 7 5 0 0 -28c0,-13 -7,-19 -20,-19z"/>
   <path id="14" class="fil0" d="M150 813c-7,0 -13,2 -17,8l0 0 0 -28 -6 0 0 67 6 0 0 -24c0,-9 6,-17 15,-17 10,0 13,7 13,16l0 25 6 0 0 -27c0,-11 -6,-20 -17,-20z"/>
   <polygon id="15" class="fil0" points="188,845 196,838 215,860 223,860 200,834 222,814 214,814 188,838 188,838 188,793 182,793 182,860 188,860 "/>
  </g>
  <g id="_2956126030160">
   <rect class="fil1" width="20.9424" height="20.9424"/>
   <rect class="fil1" x="2232" y="1752" width="42.5225" height="42.5225"/>
  </g>
 </g>
</svg>
