<?xml version="1.0" encoding="UTF-8"?>
<!DOCTYPE svg PUBLIC "-//W3C//DTD SVG 1.1//EN" "http://www.w3.org/Graphics/SVG/1.1/DTD/svg11.dtd">
<!-- Creator: CorelDRAW X7 -->
<svg xmlns="http://www.w3.org/2000/svg" xml:space="preserve" width="66.3381mm" height="52.3309mm" version="1.1" style="shape-rendering:geometricPrecision; text-rendering:geometricPrecision; image-rendering:optimizeQuality; fill-rule:evenodd; clip-rule:evenodd"
viewBox="0 0 2275 1794"
 xmlns:xlink="http://www.w3.org/1999/xlink">
 <defs>
  <style type="text/css">
   <![CDATA[
    .fil1 {fill:#FEFEFE}
    .fil0 {fill:#C00000;fill-rule:nonzero}
   ]]>
  </style>
 </defs>
 <g id="Capa_x0020_1">
  <metadata id="CorelCorpID_0Corel-Layer"/>
  <g id="_2956126028400">
   <path class="fil0" d="M1610 1440l89 0 0 -8 -37 -98 -15 0 -37 98 0 8zm14 -11l22 -61c3,-7 6,-16 8,-21l0 0c2,7 5,16 8,23l21 59 -59 0z"/>
   <path class="fil0" d="M1490 1505l34 0 0 -206 -34 0 0 206zm89 -113l-73 -125 -72 125c-5,7 -2,17 6,22 8,5 18,2 23,-6l58 -100 -29 0 59 100c5,8 15,11 22,6 9,-5 12,-15 6,-22z"/>
   <path class="fil0" d="M1784 1327l-8 20c-3,6 -12,27 -13,31l-1 0c-1,-4 -10,-24 -13,-31l-8 -20 -7 0 26 58 5 0 26 -58 -7 0z"/>
   <path id="1" class="fil0" d="M1814 1381c-6,0 -11,-3 -11,-9 0,-7 6,-9 12,-9 4,0 8,1 12,2l0 3c0,8 -6,13 -13,13zm1 -39c-6,0 -11,2 -16,5l2 5c5,-3 9,-4 14,-4 7,0 12,3 12,10l0 2c-4,-1 -8,-2 -12,-2 -10,0 -18,4 -18,14 0,9 7,14 16,14 6,0 11,-2 15,-7l0 0 0 6 5 0 0 -26c0,-11 -7,-17 -18,-17z"/>
   <path id="2" class="fil0" d="M1863 1343c-5,0 -9,2 -12,6l0 0 0 -5 -5 0 0 41 6 0 0 -21c0,-9 3,-16 9,-16 2,0 4,1 6,1l2 -6c-2,0 -4,0 -6,0z"/>
   <path id="3" class="fil0" d="M1878 1385l5 0 0 -41 -5 0 0 41zm6 -54c0,2 -1,4 -3,4 -3,0 -4,-2 -4,-4 0,-2 1,-3 4,-3 2,0 3,1 3,3z"/>
   <path id="4" class="fil0" d="M1911 1381c-5,0 -10,-3 -10,-9 0,-7 6,-9 12,-9 4,0 8,1 12,2l0 3c0,8 -6,13 -14,13zm2 -39c-6,0 -11,2 -17,5l3 5c4,-3 9,-4 14,-4 7,0 12,3 12,10l0 2c-4,-1 -8,-2 -13,-2 -9,0 -17,4 -17,14 0,9 7,14 15,14 6,0 12,-2 15,-7l1 0 0 6 4 0 0 -26c0,-11 -6,-17 -17,-17z"/>
   <path id="5" class="fil0" d="M1962 1381c-8,0 -15,-7 -15,-17 0,-9 7,-16 15,-16 6,0 10,2 13,5l4 -3c-4,-5 -10,-7 -17,-7 -11,0 -21,9 -21,21 0,13 10,22 21,22 7,0 13,-2 17,-7l-4 -4c-3,4 -7,6 -13,6z"/>
   <path id="6" class="fil0" d="M1990 1385l5 0 0 -41 -5 0 0 41zm6 -54c0,2 -1,4 -3,4 -2,0 -4,-2 -4,-4 0,-2 2,-3 4,-3 2,0 3,1 3,3z"/>
   <path id="7" class="fil0" d="M2028 1381c-9,0 -15,-7 -15,-17 0,-9 6,-16 15,-16 10,0 16,7 16,16 0,10 -6,17 -16,17zm0 -38c-12,0 -21,9 -21,21 0,13 9,22 21,22 13,0 22,-9 22,-22 0,-12 -9,-21 -22,-21zm-3 -8l10 -12 4 3 -11 11 -3 -2z"/>
   <path id="8" class="fil0" d="M2082 1343c-6,0 -12,2 -16,7l0 0 0 -6 -5 0 0 41 6 0 0 -22c0,-8 5,-15 14,-15 7,0 12,4 12,14l0 23 5 0 0 -24c0,-13 -7,-18 -16,-18z"/>
   <path id="9" class="fil0" d="M1785 1416c-6,0 -11,3 -15,8l0 0c-2,-5 -7,-8 -12,-8 -6,0 -10,2 -14,6l0 0 0 -5 -5 0 0 42 6 0 0 -23 0 0c0,-8 4,-15 11,-15 7,0 11,4 11,14l0 24 5 0 0 -23c0,-8 4,-15 12,-15 6,0 10,4 10,14l0 24 5 0 0 -25c0,-12 -6,-18 -14,-18z"/>
   <path id="10" class="fil0" d="M1826 1454c-5,0 -10,-2 -10,-8 0,-7 6,-9 12,-9 4,0 8,0 12,1l0 4c0,7 -6,12 -14,12zm2 -38c-6,0 -11,2 -17,4l3 5c4,-2 9,-4 14,-4 7,0 12,3 12,11l0 1c-4,-1 -8,-1 -13,-1 -9,0 -17,4 -17,14 0,9 7,14 15,14 6,0 12,-3 15,-8l1 0 0 7 5 0 0 -27c0,-11 -7,-16 -18,-16zm0 -5l11 -11 -4 -3 -10 12 3 2z"/>
   <polygon id="11" class="fil0" points="1898,1459 1880,1438 1897,1417 1890,1417 1876,1434 1863,1417 1856,1417 1873,1438 1855,1459 1863,1459 1876,1441 1890,1459 "/>
   <path id="12" class="fil0" d="M1908 1459l6 0 0 -42 -6 0 0 42zm6 -55c0,2 -1,4 -3,4 -2,0 -4,-2 -4,-4 0,-1 2,-3 4,-3 2,0 3,2 3,3z"/>
   <path id="13" class="fil0" d="M1973 1416c-5,0 -11,3 -14,8l0 0c-3,-5 -7,-8 -13,-8 -5,0 -10,2 -13,6l0 0 0 -5 -5 0 0 42 6 0 0 -23 0 0c0,-8 3,-15 11,-15 6,0 10,4 10,14l0 24 6 0 0 -23c0,-8 3,-15 11,-15 6,0 10,4 10,14l0 24 6 0 0 -25c0,-12 -7,-18 -15,-18z"/>
   <path id="14" class="fil0" d="M2015 1454c-5,0 -11,-2 -11,-8 0,-7 7,-9 13,-9 4,0 7,0 11,1l0 4c0,7 -5,12 -13,12zm1 -38c-5,0 -11,2 -16,4l3 5c4,-2 9,-4 14,-4 7,0 11,3 11,11l0 1c-4,-1 -8,-1 -12,-1 -9,0 -17,4 -17,14 0,9 6,14 15,14 6,0 12,-3 15,-8l0 0 0 7 5 0 0 -27c0,-11 -6,-16 -18,-16z"/>
  </g>
  <g id="_2956126031248">
   <rect class="fil1" width="20.9424" height="20.9424"/>
   <rect class="fil1" x="2232" y="1752" width="42.5225" height="42.5225"/>
  </g>
 </g>
</svg>
