<?xml version="1.0" encoding="UTF-8"?>
<!DOCTYPE svg PUBLIC "-//W3C//DTD SVG 1.1//EN" "http://www.w3.org/Graphics/SVG/1.1/DTD/svg11.dtd">
<!-- Creator: CorelDRAW X7 -->
<svg xmlns="http://www.w3.org/2000/svg" xml:space="preserve" width="66.3381mm" height="52.3309mm" version="1.1" style="shape-rendering:geometricPrecision; text-rendering:geometricPrecision; image-rendering:optimizeQuality; fill-rule:evenodd; clip-rule:evenodd"
viewBox="0 0 2275 1794"
 xmlns:xlink="http://www.w3.org/1999/xlink">
 <defs>
  <style type="text/css">
   <![CDATA[
    .str2 {stroke:black;stroke-width:7.25852}
    .str4 {stroke:#767171;stroke-width:7.25852}
    .str5 {stroke:#B4C7E7;stroke-width:7.25852}
    .str3 {stroke:#0070C0;stroke-width:5.80476}
    .str1 {stroke:black;stroke-width:7.25852;stroke-linejoin:round}
    .str0 {stroke:#21C5FF;stroke-width:46.4484;stroke-linejoin:round}
    .fil7 {fill:none}
    .fil2 {fill:none;fill-rule:nonzero}
    .fil9 {fill:#FEFEFE}
    .fil6 {fill:#21C5FF}
    .fil10 {fill:black;fill-rule:nonzero}
    .fil8 {fill:#0072C2;fill-rule:nonzero}
    .fil5 {fill:#2F5597;fill-rule:nonzero}
    .fil4 {fill:#7F7F7F;fill-rule:nonzero}
    .fil1 {fill:#7F7F7F;fill-rule:nonzero}
    .fil3 {fill:#B4C7E7;fill-rule:nonzero}
    .fil0 {fill:#BDD7EE;fill-rule:nonzero}
   ]]>
  </style>
 </defs>
 <g id="Capa_x0020_1">
  <metadata id="CorelCorpID_0Corel-Layer"/>
  <polygon class="fil0" points="342,1506 1088,1506 1088,1668 342,1668 "/>
  <path class="fil1" d="M1610 1440l89 0 0 -8 -37 -98 -15 0 -37 98 0 8zm14 -11l22 -61c3,-7 6,-16 8,-21l0 0c2,7 5,16 8,23l21 59 -59 0z"/>
  <line class="fil2 str0" x1="1227" y1="591" x2="1227" y2= "404" />
  <line class="fil2 str0" x1="2055" y1="448" x2="2058" y2= "321" />
  <line class="fil2 str0" x1="1238" y1="428" x2="2076" y2= "432" />
  <line class="fil2 str1" x1="1835" y1="0" x2="1835" y2= "314" />
  <line class="fil2 str1" x1="2270" y1="321" x2="2270" y2= "7" />
  <polygon class="fil0 str2" points="1835,119 2270,119 2270,321 1835,321 "/>
  <line class="fil2 str0" x1="677" y1="858" x2="1137" y2= "858" />
  <path class="fil3" d="M1069 1251l13 0 0 -10 -13 0 0 10zm-60 0l35 0 0 -10 -35 0 0 10zm-62 0l36 0 0 -10 -36 0 0 10zm-60 0l35 0 0 -10 -35 0 0 10zm-62 0l35 0 0 -10 -35 0 0 10zm-60 0l35 0 0 -10 -35 0 0 10zm-62 0l35 0 0 -10 -35 0 0 10zm-61 0l36 0 0 -10 -36 0 0 10zm-61 0l35 0 0 -10 -35 0 0 10zm-61 0l36 0 0 -10 -36 0 0 10zm-61 0l35 0 0 -10 -35 0 0 10zm-61 0l34 0 0 -10 -34 0 0 10zm-62 0l36 0 0 -10 -36 0 0 10z"/>
  <path class="fil1" d="M230 105l-3 2 3 3 15 0 3 -3 -3 -2 -15 0zm-37 0l-1 2 1 3 16 0 3 -3 -3 -2 -16 0zm-35 0l-3 2 3 3 15 0 3 -3 -2 -1 -1 -1 -15 0zm-36 0l-3 2 3 3 15 0 3 -3 -3 -2 -15 0zm-36 0l-3 2 3 3 16 0 1 -3 -1 -2 -16 0z"/>
  <path class="fil4" d="M263 107l3 3 16 0 1 -3 -1 -1 -16 -1 -3 2zm183 -1l-3 3 3 1 16 2 1 -3 -1 -3 -16 0zm-37 0l-2 3 2 1 16 0 3 -1 -3 -3 -16 0zm-20 0l-16 0 -1 0 0 3 1 1 16 0 3 -1 -1 -3 -2 0zm-51 0l-3 1 3 3 15 0 3 -3 -3 -1 -15 0zm-36 0l-3 1 3 3 15 0 3 -3 -3 -1 -15 0z"/>
  <path class="fil4" d="M626 106l-3 3 3 3 16 0 1 -3 -1 -3 -16 0zm-37 0l-2 3 2 3 16 0 2 -3 -2 -3 -16 0zm-36 0l-1 3 1 3 16 0 3 -3 -3 -3 -16 0zm-35 0l-3 3 3 3 15 0 3 -3 -3 -3 -15 0zm-36 0l-3 3 3 3 15 0 2 -3 -2 -3 -15 0zm180 1l-3 2 3 3 15 0 2 -3 -2 -2 -15 0z"/>
  <path class="fil4" d="M877 107l-2 3 2 3 16 0 3 -3 -3 -3 -16 0zm-35 0l-3 3 3 3 15 0 2 -3 -2 -3 -15 0zm-36 0l-3 3 3 2 14 0 3 -2 -3 -3 -14 0zm-37 0l-2 3 2 2 16 0 2 -2 -2 -3 -16 0zm-36 0l-3 2 3 3 16 0 3 -2 -3 -3 -16 0zm-36 0l-2 2 2 3 16 0 3 -3 -3 -2 -16 0z"/>
  <path class="fil4" d="M1019 110l3 3 15 0 2 -3 -2 -1 -15 -2 -3 3zm-33 -3l-3 3 3 3 14 0 3 -3 -3 -3 -14 0zm-37 0l-2 3 2 3 16 0 2 -3 -2 -3 -16 0zm-36 0l-3 3 3 3 16 0 3 -3 -3 -3 -16 0zm180 2l-3 1 3 3 16 0 3 -3 -3 -1 -16 0zm-36 0l-2 1 2 3 16 0 3 -3 -3 -1 -16 0z"/>
  <path class="fil4" d="M1309 109l-2 3 2 3 16 0 2 -3 -2 -3 -16 0zm-36 0l-3 3 3 3 16 0 3 -3 -3 -3 -16 0zm-36 0l-2 3 2 3 16 0 3 -3 -3 -3 -16 0zm-35 0l-3 3 3 1 15 2 2 -3 -2 -3 -15 0zm-36 0l-3 3 3 1 14 0 3 -1 -3 -3 -14 0zm-37 0l-2 3 2 1 16 0 2 -1 -2 -3 -16 0z"/>
  <path class="fil4" d="M1382 109l-3 3 3 3 15 0 2 -3 -2 -3 -15 0zm-36 0l-3 3 3 3 14 0 3 -3 -3 -3 -14 0zm180 1l-3 3 3 2 14 0 3 -2 -3 -3 -14 0zm-37 0l-3 2 3 3 16 0 2 -2 -2 -3 -16 0zm-36 0l-3 2 3 3 16 0 2 -3 -2 -2 -16 0zm-36 0l-2 2 2 3 16 0 3 -3 -3 -2 -16 0z"/>
  <path class="fil4" d="M1774 113l3 3 16 0 3 -3 -3 -1 -16 -2 -3 3zm-33 -3l-2 3 2 3 15 0 3 -3 -3 -3 -15 0zm-35 0l-3 3 3 3 14 0 3 -3 -3 -3 -14 0zm-37 0l-3 3 3 3 15 0 3 -3 -3 -3 -15 0zm-36 0l-3 3 3 3 16 0 2 -3 -2 -3 -16 0zm-36 0l-3 3 3 3 16 0 3 -3 -3 -3 -16 0zm-36 0l-2 3 2 2 15 0 2 0 1 -2 -3 -3 -15 0zm252 2l-3 1 3 3 16 0 1 -3 -1 -1 -16 0z"/>
  <path class="fil4" d="M403 1507l-3 1 3 3 20 0 3 -3 -3 -1 -20 0zm-43 0l-2 1 2 3 19 0 3 -3 -3 -1 -19 0zm-43 0l-3 1 3 3 18 0 3 -3 -3 -1 -18 0zm-44 0l-3 1 3 3 20 0 2 -3 -2 -1 -20 0zm-44 0l-3 1 3 3 20 0 2 -3 -2 -1 -20 0zm-43 0l-2 1 2 3 19 0 3 -3 -3 -1 -19 0zm-43 0l-3 1 3 3 18 0 3 -3 -3 -1 -18 0zm-43 0l-4 1 4 3 17 0 4 -3 -4 -1 -17 0z"/>
  <path class="fil1" d="M176 166l4 419 -33 0 -5 -419 34 0zm6 731l5 610 -33 1 -5 -611 33 0zm-95 -649l71 -113 74 113c5,7 3,16 -5,20 -8,5 -18,3 -24,-5l-58 -90 28 -1 -57 92c-4,7 -16,9 -23,5 -9,-4 -10,-13 -6,-21z"/>
  <path class="fil4" d="M1140 1508l15 0 3 3 -3 1 -15 0 -3 -3 3 -1zm37 0l14 0 3 3 -3 1 -14 0 -3 -1 3 -3zm34 0l16 0 3 3 -3 3 -16 0 -1 -3 1 -3zm37 0l16 0 3 3 -3 3 -16 0 -3 -3 3 -3zm36 0l16 0 1 3 -1 3 -16 0 -3 -3 3 -3zm36 0l15 0 3 3 -3 3 -15 0 -3 -3 3 -3zm37 0l14 0 3 3 -1 1 -2 2 -14 0 -3 -3 3 -3zm34 1l16 0 3 2 -3 3 -16 0 -1 -3 1 -2zm37 0l16 0 1 2 -1 3 -16 0 -3 -3 3 -2zm36 0l16 0 1 3 -1 2 -16 0 -3 -2 3 -3zm36 0l15 0 3 3 -3 2 -15 0 -3 -2 3 -3zm35 0l16 0 3 3 -3 3 -16 0 -1 -3 1 -3zm36 0l16 0 3 3 -3 3 -16 0 -3 -3 3 -3zm37 0l16 0 1 3 -1 3 -16 0 -3 -3 3 -3zm36 0l14 0 3 3 -3 3 -14 0 -3 -3 3 -3zm36 0l15 0 3 3 -3 3 -15 0 -3 -3 3 -3zm35 2l16 0 3 1 -3 3 -16 0 -1 -3 1 -1zm36 0l16 0 3 1 -3 3 -16 0 -3 -3 3 -1zm37 0l16 0 1 3 -1 1 -16 0 -3 -1 3 -3zm36 0l14 0 3 3 -3 1 -14 0 -3 -1 3 -3zm-674 30l-62 -32 62 -30 0 62z"/>
  <path class="fil4" d="M1139 1252l16 0 1 -2 -1 -3 -16 0 -3 3 3 2zm36 0l15 0 3 -2 -3 -3 -15 0 -3 3 3 2zm36 0l15 -1 3 -1 -3 -3 -15 0 -3 3 3 2zm35 -1l16 0 3 -1 -3 -3 -16 0 -1 3 1 1zm37 0l15 0 3 -3 -3 -1 -15 0 -3 3 3 1zm36 0l16 0 1 -3 -1 -1 -16 0 -3 1 3 3zm36 0l15 0 3 -3 -3 -3 -15 2 -1 0 -2 1 3 3zm36 0l15 0 3 -3 -3 -3 -15 0 -3 3 3 3zm35 0l16 0 3 -3 -3 -3 -16 0 -1 3 1 3zm36 0l16 0 3 -3 -3 -3 -16 0 -2 3 2 3zm37 0l16 0 1 -3 -1 -3 -16 0 -3 3 3 3zm36 -1l15 0 2 -2 -2 -3 -15 0 -3 3 3 2zm36 0l15 0 3 -2 -3 -3 -15 0 -3 0 0 3 3 2zm35 0l16 0 3 -3 -3 -2 -16 0 -1 3 1 2zm36 0l16 0 3 -3 -3 -2 -16 0 -2 2 2 3zm37 0l16 0 1 -3 -1 -3 -16 1 -3 2 3 3zm36 0l15 0 2 -3 -2 -3 -15 0 -3 3 3 3zm35 0l16 0 3 -3 -3 -3 -16 0 -2 3 2 3zm36 0l16 0 3 -3 -3 -3 -16 0 -1 1 0 2 1 3zm36 0l16 0 2 -3 -2 -3 -16 0 -2 3 2 3zm-673 -31l-61 31 61 30 0 -61z"/>
  <path class="fil2 str3" d="M397 1250c39,2 79,4 80,8 3,3 -62,10 -65,16 -5,6 42,13 43,18 2,4 -30,3 -35,5 -4,3 9,9 11,14 1,2 0,7 0,11 0,5 0,9 -2,13"/>
  <path class="fil2 str3" d="M393 1513c39,2 78,4 81,7 2,4 -62,11 -67,17 -4,5 42,13 44,18 3,4 -31,3 -35,5 -3,3 9,8 12,12 1,4 0,7 0,12 -2,4 -2,8 -2,13"/>
  <path class="fil2 str3" d="M1880 118c39,1 78,2 81,7 2,3 -62,10 -67,14 -3,6 44,13 45,18 2,4 -32,3 -34,6 -5,2 8,7 10,11 1,3 0,7 0,12 0,3 -2,7 -2,11"/>
  <path class="fil1" d="M1490 1505l34 0 0 -206 -34 0 0 206zm89 -113l-73 -125 -72 125c-5,7 -2,17 6,22 8,5 18,2 23,-6l58 -100 -29 0 59 100c5,8 15,11 22,6 9,-5 12,-15 6,-22z"/>
  <path class="fil5" d="M1231 493l-10 0 0 85 10 0 0 -85zm-4 0l30 20 -30 -61 -32 61 32 -20z"/>
  <path class="fil5" d="M1478 434l184 0 0 -11 -184 0 0 11zm184 -6l-20 30 61 -30 -63 -31 22 31z"/>
  <path class="fil5" d="M881 855l112 0 0 11 -112 0 0 -11zm112 5l-20 -31 61 31 -61 32 20 -32z"/>
  <line class="fil2 str0" x1="672" y1="1575" x2="677" y2= "835" />
  <polygon class="fil6" points="630,1558 650,1651 689,1651 709,1558 "/>
  <polygon class="fil7 str4" points="630,1558 650,1651 689,1651 709,1558 "/>
  <path class="fil5" d="M680 1411l5 -107 -10 -2 -5 109 10 0zm-1 -107l30 22 -27 -64 -35 61 32 -19z"/>
  <line class="fil2 str5" x1="1842" y1="115" x2="2266" y2= "115" />
  <path class="fil8" d="M1195 610l0 0 -2 1 0 1 0 2 0 1 0 3 0 1 0 1 0 3 0 2 0 2 0 3 0 1 0 3 -1 23 -14 0 -1 0 -1 0 -2 2 -1 0 -2 0 -1 0 -1 0 -2 1 -1 0 -1 0 -2 1 -1 0 0 2 -2 0 -1 1 0 2 -1 0 0 1 0 1 -2 0 0 2 0 1 0 1 0 2 0 7 69 0 67 0 0 -4 0 -2 0 -1 0 -2 -2 0 0 -1 0 -1 -1 -2 0 -1 -1 -1 0 -2 -2 0 0 -1 -1 0 0 -2 -1 0 0 -1 -2 0 -1 0 0 -1 -2 0 -1 0 -1 0 -2 0 -1 0 0 -2 -1 0 -2 0 -1 0 -2 0 -1 0 -1 0 -11 0 0 -23 0 -3 0 -2 0 -3 0 -1 0 -3 0 -2 0 -2 0 -2 0 -1 -2 -1 0 -2 0 -1 0 -1 -1 0 0 -2 -1 0 -2 0 -1 0 -1 -1 -3 0 -1 0 -3 0 -3 0 -1 0 -3 0 -3 0 -3 0 -2 0 -3 0 -3 0 -1 0 -3 0 -3 0 -2 0 -3 0 -1 0 -3 0 -2 0 -1 0 -1 1 -2 0 -1 0 -1 0 0 2zm127 454l0 0 0 1 -2 1 0 2 0 1 0 1 0 2 0 2 0 3 0 2 0 2 2 2 0 1 0 1 401 0 1 -8 0 -15 -386 0 -7 2 -5 0 -1 0 -2 0 -1 0zm14 -24l-16 14 201 0 21 0 21 0 19 0 19 0 16 0 18 0 15 0 14 0 13 0 13 0 9 0 8 0 7 -1 6 0 1 0 2 0 1 0 -1 -2 -2 -1 -1 -2 -3 -2 -1 -3 -3 -1 -3 -3 -15 -14 -172 0 -172 0 -15 15zm-62 -184l0 30 11 -2 12 0 0 -28 0 -29 -12 0 -11 0 0 29zm-122 0l0 30 25 0 0 -59 -12 0 -13 0 0 29zm77 7l0 101 5 -2 2 0 1 0 1 -1 2 0 1 0 2 -1 1 0 1 0 2 -2 1 0 1 -1 2 0 0 -2 1 0 1 -1 2 0 0 -1 1 0 0 -2 2 -1 1 -1 1 -2 0 -1 2 0 0 -1 0 -2 1 -1 0 -2 0 -1 1 -1 0 -3 0 -4 0 -3 0 -4 0 -5 0 -6 0 -5 0 -6 2 -5 0 -7 0 -14 0 -13 0 -14 0 -14 0 -5 -2 -7 0 -6 0 -5 0 -6 0 -4 0 -5 0 -3 0 -4 0 -3 -1 -1 0 -1 0 -2 -1 -1 0 -2 -2 -1 -1 -1 0 -2 -1 -1 -2 0 0 -1 -1 -2 -2 0 0 -1 -1 -1 -1 0 -2 -2 -1 0 -1 -1 -2 0 0 -2 -1 0 -1 -1 -2 0 -1 0 -2 -1 -1 0 -1 0 -2 0 -1 0 -1 0 -2 0 0 1 0 1 0 2 0 1 -1 2 0 1 0 3 0 4 0 5 0 6 0 6 0 9 0 9 0 11 0 11 0 14 0 14zm-23 -99l0 0 -2 1 -1 0 -2 2 -1 0 0 1 -1 0 -2 0 0 2 -1 0 0 1 -1 0 0 1 -2 0 0 2 -1 1 -1 1 -2 2 0 1 -1 1 -2 2 0 1 0 2 -1 1 0 1 0 3 0 1 -1 4 0 3 0 6 0 4 0 5 0 6 0 5 0 6 0 7 0 12 0 14 0 13 0 12 0 7 0 6 0 7 0 5 0 4 0 6 0 4 0 4 1 3 0 2 0 2 0 1 0 1 1 0 0 2 0 1 2 0 0 2 0 1 1 0 0 1 2 2 1 1 0 1 1 0 0 2 2 0 0 1 1 0 1 1 2 2 1 0 1 1 2 0 1 2 2 0 1 1 1 0 2 0 1 1 1 0 2 0 1 0 2 0 1 0 0 -1 1 0 0 -1 0 -3 0 -4 0 -4 0 -4 0 -7 0 -6 0 -8 0 -7 0 -8 0 -10 0 -8 0 -9 0 -10 0 -11 0 -18 0 -17 0 -14 0 -12 0 -5 0 -5 0 -4 0 -4 -1 -3 0 -3 0 -2 0 -3 0 -1 -1 -3 0 -2 -2 -1 0 -1 -1 0 -2 0 -1 0 -3 1 -2 0zm154 -31l0 0 0 1 -1 0 0 1 0 2 0 1 0 1 0 3 -2 2 0 1 0 3 0 1 0 3 0 2 0 21 -17 0 -20 0 -6 7 -7 7 0 74 0 75 7 5 6 7 20 0 17 0 0 21 0 20 25 0 25 0 1 15 0 14 27 0 28 0 0 -14 1 -14 63 0 63 -1 0 15 1 14 28 0 27 0 0 -14 0 -14 25 -1 26 0 0 -20 0 -21 19 0 19 0 7 -7 1 -1 0 -159 -1 -1 -7 -7 -19 0 -19 0 0 -21 0 -2 0 -3 0 -3 0 -1 0 -3 0 -1 0 -2 0 -1 0 -1 -2 -2 0 -1 -1 -1 -2 0 -2 0 -6 0 -5 0 -8 0 -9 0 -11 0 -11 0 -24 0 -29 -2 -30 0 -30 0 -30 0 -30 2 -29 0 -25 0 -10 0 -11 0 -9 0 -8 0 -5 0 -6 0 -3 0 -1 0zm279 46l0 4 -226 0 0 -8 114 0 112 0 0 4zm0 34l0 3 -112 0 -18 0 -15 0 -15 0 -11 0 -11 -1 -9 0 -9 0 -5 0 -3 0 -3 0 -2 0 -3 0 -1 0 -2 0 -1 0 -1 -2 -2 0 -1 0 -2 0 0 -1 2 0 0 -1 1 0 2 0 1 0 1 0 3 0 1 0 3 0 3 0 3 0 5 0 8 -2 10 0 11 0 12 0 14 0 15 0 18 0 113 0 0 4zm0 33l0 3 -226 0 0 -7 114 0 112 0 0 4zm0 34l0 3 -226 0 0 -7 114 0 112 0 0 4zm0 32l0 4 -226 0 0 -8 114 0 112 0 0 4zm0 34l0 4 -226 0 0 -8 114 0 112 0 0 4zm-483 -249l0 0 0 1 0 2 0 1 0 2 2 1 0 1 0 2 1 1 0 1 1 0 2 2 1 1 2 0 1 0 0 1 1 0 2 0 1 0 1 0 2 0 1 2 2 0 1 0 1 0 14 1 1 22 0 23 7 -2 1 0 2 -2 1 0 2 0 1 -1 3 0 1 0 1 0 2 0 1 0 2 -2 2 0 2 0 1 0 1 0 3 0 1 0 2 0 3 2 1 0 1 0 3 0 1 0 2 0 1 1 3 0 1 0 2 2 1 0 3 0 1 1 1 0 0 -1 2 0 0 -2 0 -1 0 -3 0 -1 0 -2 0 -2 0 -3 0 -4 0 -3 0 -23 12 0 1 0 2 0 1 0 2 0 1 0 1 -2 2 0 1 0 1 0 2 0 1 -1 2 0 1 -1 1 0 0 -2 2 -1 1 -1 0 -2 0 -1 1 0 0 -1 0 -2 0 -1 0 -2 0 -1 0 -8 -67 0 -67 -2 0 10zm264 -5l-13 13 0 19 239 0 -1 -21 0 -24 -106 0 -105 0 -14 13z"/>
  <path class="fil1" d="M503 9l0 28 0 3c0,4 0,8 0,10l0 0 -30 -41 -4 0 0 50 5 0 0 -28 0 -3c0,-4 -1,-7 -1,-10l1 0 29 41 5 0 0 -50 -5 0z"/>
  <path id="1" class="fil1" d="M520 59l5 0 0 -36 -5 0 0 36zm6 -47c0,2 -1,3 -3,3 -2,0 -3,-1 -3,-3 0,-1 1,-3 3,-3 2,0 3,2 3,3z"/>
  <path id="2" class="fil1" d="M563 23l-6 16c-1,1 -2,3 -2,4l-2 4c-1,2 -1,4 -2,6l0 0c-1,-3 -3,-9 -5,-14l-7 -16 -6 0 16 36 4 0 16 -36 -6 0z"/>
  <path id="3" class="fil1" d="M592 27c7,0 11,5 11,11l-23 0c0,-7 4,-11 12,-11zm16 12c0,-10 -6,-17 -16,-17 -11,0 -17,9 -17,19 0,10 6,19 17,19 6,0 11,-3 15,-7l-4 -3c-2,3 -7,5 -11,5 -7,0 -12,-5 -13,-12l29 0c0,-1 0,-3 0,-4z"/>
  <polygon id="4" class="fil1" points="618,59 623,59 623,6 618,6 "/>
  <path id="5" class="fil1" d="M667 55c-8,0 -13,-6 -13,-14 0,-9 5,-14 13,-14 8,0 13,5 13,14 0,8 -5,14 -13,14zm13 -49l0 23 0 0c-3,-5 -8,-7 -13,-7 -10,0 -18,8 -18,19 0,11 8,19 18,19 5,0 10,-3 14,-8l0 0 0 7 4 0 0 -53 -5 0z"/>
  <path id="6" class="fil1" d="M712 27c8,0 11,5 12,11l-24 0c1,-7 5,-11 12,-11zm17 12c0,-10 -7,-17 -17,-17 -11,0 -17,9 -17,19 0,10 7,19 18,19 5,0 10,-3 14,-7l-3 -3c-3,3 -7,5 -11,5 -7,0 -12,-5 -13,-12l29 0c0,-1 0,-3 0,-4z"/>
  <path id="7" class="fil1" d="M766 55c-4,0 -9,-2 -9,-7 0,-6 6,-8 11,-8 3,0 6,0 10,1l0 3c0,7 -5,11 -12,11zm2 -33c-5,0 -10,2 -15,4l3 4c3,-2 7,-3 12,-3 6,0 10,2 10,9l0 1c-4,-1 -7,-1 -11,-1 -8,0 -15,3 -15,12 0,7 6,12 13,12 6,0 10,-2 13,-7l0 0 1 6 4 0 0 -23c0,-9 -6,-14 -15,-14z"/>
  <path id="8" class="fil1" d="M809 69c-7,0 -12,-2 -12,-7 0,-4 2,-6 5,-7l7 0c8,1 13,3 13,7 0,5 -5,7 -13,7zm0 -43c7,0 11,4 11,8 0,5 -4,8 -11,8 -6,0 -10,-3 -10,-8 0,-4 4,-8 10,-8zm18 36c0,-7 -6,-10 -18,-11 -3,0 -6,0 -6,0 -3,0 -4,-1 -4,-3 0,-2 1,-3 2,-3 2,1 5,1 8,1 10,0 16,-5 16,-12 0,-3 -1,-5 -3,-7l5 -5 -3 -3 -6 5c-2,-1 -5,-2 -9,-2 -9,0 -15,6 -15,12 0,4 1,6 4,8l0 1c-2,1 -3,3 -3,5 0,3 1,4 2,6l0 0c-4,2 -5,5 -5,8 0,7 6,11 17,11 12,0 18,-4 18,-11z"/>
  <path id="9" class="fil1" d="M862 23l0 19c0,7 -4,13 -12,13 -6,0 -10,-4 -10,-12l0 -20 -4 0 0 21c0,11 6,16 13,16 6,0 11,-3 14,-7l0 0 0 6 4 0 0 -36 -5 0z"/>
  <path id="10" class="fil1" d="M891 55c-4,0 -9,-2 -9,-7 0,-6 6,-8 11,-8 3,0 6,0 10,1l0 3c0,7 -5,11 -12,11zm2 -33c-5,0 -10,2 -15,4l3 4c3,-2 7,-3 12,-3 6,0 10,2 10,9l0 1c-4,-1 -7,-1 -11,-1 -8,0 -15,3 -15,12 0,7 6,12 13,12 5,0 10,-2 13,-7l0 0 1 6 4 0 0 -23c0,-9 -6,-14 -15,-14z"/>
  <path id="11" class="fil1" d="M950 27c7,0 11,5 11,11l-24 0c1,-7 5,-11 13,-11zm16 12c0,-10 -6,-17 -16,-17 -11,0 -18,9 -18,19 0,10 7,19 18,19 6,0 11,-3 15,-7l-4 -3c-2,3 -7,5 -11,5 -7,0 -12,-5 -13,-12l29 0c0,-1 0,-3 0,-4z"/>
  <path id="12" class="fil1" d="M994 22c-5,0 -10,2 -13,7l-1 0 0 -6 -4 0 0 36 5 0 0 -19c0,-7 4,-13 12,-13 6,0 10,3 10,12l0 20 5 0 0 -21c0,-11 -7,-16 -14,-16z"/>
  <polygon id="13" class="fil1" points="1035,59 1040,59 1040,6 1035,6 "/>
  <path id="14" class="fil1" d="M1064 55c-5,0 -10,-2 -10,-7 0,-6 6,-8 11,-8 3,0 7,0 10,1l0 3c0,7 -5,11 -11,11zm1 -33c-5,0 -10,2 -14,4l2 4c4,-2 8,-3 12,-3 6,0 10,2 10,9l0 1c-3,-1 -7,-1 -11,-1 -7,0 -14,3 -14,12 0,7 5,12 13,12 5,0 10,-2 13,-7l0 0 0 6 4 0 0 -23c0,-9 -6,-14 -15,-14z"/>
  <path id="15" class="fil1" d="M1123 55c-8,0 -13,-6 -13,-14 0,-9 5,-14 13,-14 4,0 8,2 10,4l4 -3c-3,-3 -8,-6 -14,-6 -10,0 -18,8 -18,19 0,11 8,19 18,19 6,0 10,-3 14,-7l-4 -3c-2,3 -6,5 -10,5z"/>
  <path id="16" class="fil1" d="M1146 59l5 0 0 -36 -5 0 0 36zm6 -47c0,2 -1,3 -3,3 -2,0 -3,-1 -3,-3 0,-1 1,-3 3,-3 2,0 3,2 3,3z"/>
  <path id="17" class="fil1" d="M1175 55c-4,0 -8,-1 -11,-4l-3 4c3,3 9,5 14,5 6,0 13,-3 13,-11 0,-7 -7,-9 -13,-11 -3,-1 -8,-2 -8,-6 0,-4 5,-5 8,-5 3,0 7,1 10,3l3 -4c-4,-3 -9,-4 -13,-4 -6,0 -13,3 -13,10 0,6 6,9 12,10 3,1 9,3 9,8 0,4 -5,5 -8,5z"/>
  <path id="18" class="fil1" d="M1209 60c2,0 6,-1 8,-2l-1 -4c-2,1 -4,1 -7,1 -3,0 -4,-2 -4,-5l0 -23 11 0 0 -4 -11 0 0 -12 -4 0 0 12 -6 0 0 4 6 0 0 24c0,5 2,9 8,9z"/>
  <path id="19" class="fil1" d="M1241 27c7,0 11,5 12,11l-24 0c1,-7 5,-11 12,-11zm17 12c0,-10 -7,-17 -17,-17 -11,0 -17,9 -17,19 0,10 7,19 18,19 5,0 10,-3 14,-7l-3 -3c-3,3 -7,5 -11,5 -7,0 -12,-5 -13,-12l28 0c1,-1 1,-3 1,-4z"/>
  <path id="20" class="fil1" d="M1282 22c-4,0 -8,2 -10,6l0 0 0 -5 -4 0 0 36 5 0 0 -18c0,-8 2,-14 8,-14 2,0 3,0 5,1l1 -5c-1,-1 -3,-1 -5,-1z"/>
  <path id="21" class="fil1" d="M1313 22c-6,0 -11,2 -14,7l0 0 0 -6 -4 0 0 36 5 0 0 -19c0,-7 4,-13 12,-13 6,0 10,3 10,12l0 20 4 0 0 -21c0,-11 -6,-16 -13,-16z"/>
  <path id="22" class="fil1" d="M1350 55c-5,0 -9,-2 -9,-7 0,-6 5,-8 10,-8 4,0 7,0 10,1l0 3c0,7 -5,11 -11,11zm1 -33c-5,0 -10,2 -14,4l2 4c4,-2 8,-3 12,-3 6,0 10,2 10,9l0 1c-3,-1 -7,-1 -10,-1 -8,0 -15,3 -15,12 0,7 6,12 13,12 5,0 10,-2 13,-7l0 0 0 6 4 0 0 -23c0,-9 -5,-14 -15,-14z"/>
  <path id="23" class="fil1" d="M1409 55c-7,0 -13,-6 -13,-14 0,-9 6,-14 13,-14 8,0 14,5 14,14 0,8 -6,14 -14,14zm14 -49l0 23 -1 0c-3,-5 -8,-7 -13,-7 -10,0 -18,8 -18,19 0,11 8,19 18,19 6,0 11,-3 14,-8l0 0 0 7 4 0 0 -53 -4 0z"/>
  <path id="24" class="fil1" d="M1455 27c7,0 10,5 11,11l-24 0c1,-7 5,-11 13,-11zm16 12c0,-10 -6,-17 -17,-17 -10,0 -17,9 -17,19 0,10 7,19 18,19 5,0 11,-3 14,-7l-3 -3c-3,3 -7,5 -11,5 -7,0 -12,-5 -13,-12l29 0c0,-1 0,-3 0,-4z"/>
  <path id="25" class="fil1" d="M1513 55c-8,0 -14,-6 -14,-14 0,-9 6,-14 14,-14 7,0 13,5 13,14 0,8 -6,14 -13,14zm13 -49l0 23 0 0c-3,-5 -8,-7 -14,-7 -10,0 -17,8 -17,19 0,11 7,19 17,19 6,0 11,-3 14,-8l1 0 0 7 4 0 0 -53 -5 0z"/>
  <path id="26" class="fil1" d="M1558 27c7,0 11,5 12,11l-24 0c1,-7 5,-11 12,-11zm16 12c0,-10 -6,-17 -16,-17 -11,0 -17,9 -17,19 0,10 7,19 17,19 6,0 11,-3 15,-7l-4 -3c-2,3 -6,5 -10,5 -8,0 -13,-5 -13,-12l28 0c0,-1 0,-3 0,-4z"/>
  <path id="27" class="fil1" d="M1596 55c-4,0 -8,-1 -11,-4l-3 4c3,3 9,5 14,5 6,0 13,-3 13,-11 0,-7 -7,-9 -13,-11 -3,-1 -8,-2 -8,-6 0,-4 5,-5 8,-5 3,0 7,1 10,3l3 -4c-4,-3 -9,-4 -13,-4 -6,0 -13,3 -13,10 0,6 6,9 12,10 3,1 9,3 9,8 0,4 -5,5 -8,5z"/>
  <path id="28" class="fil1" d="M1635 55c-7,0 -13,-6 -13,-14 0,-9 6,-14 13,-14 4,0 8,2 10,4l4 -3c-3,-3 -8,-6 -14,-6 -10,0 -18,8 -18,19 0,11 8,19 18,19 6,0 11,-3 14,-7l-3 -3c-3,3 -7,5 -11,5z"/>
  <path id="29" class="fil1" d="M1670 55c-4,0 -9,-2 -9,-7 0,-6 6,-8 11,-8 3,0 7,0 10,1l0 3c0,7 -5,11 -12,11zm2 -33c-5,0 -10,2 -15,4l3 4c3,-2 8,-3 12,-3 6,0 10,2 10,9l0 1c-4,-1 -7,-1 -11,-1 -8,0 -15,3 -15,12 0,7 6,12 13,12 6,0 10,-2 13,-7l1 0 0 6 4 0 0 -23c0,-9 -6,-14 -15,-14z"/>
  <path id="30" class="fil1" d="M1713 22c-5,0 -8,2 -10,6l-1 0 0 -5 -4 0 0 36 5 0 0 -18c0,-8 2,-14 8,-14 2,0 4,0 6,1l1 -5c-2,-1 -4,-1 -5,-1z"/>
  <path id="31" class="fil1" d="M1741 69c-8,0 -13,-2 -13,-7 0,-4 2,-6 5,-7l8 0c7,1 13,3 13,7 0,5 -5,7 -13,7zm0 -43c6,0 10,4 10,8 0,5 -4,8 -10,8 -6,0 -11,-3 -11,-8 0,-4 5,-8 11,-8zm17 36c0,-7 -6,-10 -17,-11 -4,0 -6,0 -7,0 -2,0 -4,-1 -4,-3 0,-2 1,-3 2,-3 3,1 5,1 9,1 9,0 15,-5 15,-12 0,-3 -1,-5 -3,-7l5 -5 -3 -3 -6 5c-2,-1 -5,-2 -8,-2 -10,0 -15,6 -15,12 0,4 1,6 3,8l0 1c-2,1 -3,3 -3,5 0,3 1,4 3,6l0 0c-4,2 -6,5 -6,8 0,7 7,11 18,11 11,0 17,-4 17,-11z"/>
  <path id="32" class="fil1" d="M1779 55c-4,0 -9,-2 -9,-7 0,-6 6,-8 11,-8 3,0 7,0 10,1l0 3c0,7 -5,11 -12,11zm2 -33c-5,0 -10,2 -14,4l2 4c4,-2 8,-3 12,-3 6,0 10,2 10,9l0 1c-4,-1 -7,-1 -11,-1 -8,0 -15,3 -15,12 0,7 6,12 14,12 5,0 10,-2 12,-7l1 0 0 6 4 0 0 -23c0,-9 -6,-14 -15,-14z"/>
  <path class="fil1" d="M1854 886l0 0 0 -23 19 0c8,0 15,3 15,12 0,8 -7,11 -15,11l-19 0zm0 -51l0 0 17 0c7,0 14,2 14,11 0,8 -7,11 -14,11l-17 0 0 -22zm40 40c0,-7 -3,-13 -11,-15l0 -1c6,-2 9,-7 9,-14 0,-12 -10,-16 -21,-16l-24 0 0 63 26 0c11,0 21,-5 21,-17z"/>
  <path id="1" class="fil1" d="M1927 887c-10,0 -17,-8 -17,-18 0,-10 7,-18 17,-18 11,0 18,8 18,18 0,10 -7,18 -18,18zm0 -42c-13,0 -23,11 -23,24 0,14 10,24 23,24 14,0 24,-10 24,-24 0,-13 -10,-24 -24,-24z"/>
  <path id="2" class="fil1" d="M2013 845c-6,0 -12,3 -15,9l-1 0c-2,-6 -7,-9 -13,-9 -6,0 -11,3 -15,7l0 0 0 -6 -5 0 0 46 6 0 0 -24 0 -1c0,-9 4,-16 12,-16 7,0 11,5 11,16l0 25 6 0 0 -25c0,-9 5,-16 13,-16 7,0 11,5 11,16l0 25 6 0 0 -27c0,-13 -7,-20 -16,-20z"/>
  <path id="3" class="fil1" d="M2067 887c-10,0 -17,-7 -17,-18 0,-11 7,-18 17,-18 10,0 17,7 17,18 0,11 -7,18 -17,18zm1 -42c-7,0 -14,3 -18,8l0 0 0 -28 -6 0 0 67 5 0 0 -8 1 0c4,6 10,9 18,9 12,0 23,-10 23,-24 0,-14 -11,-24 -23,-24z"/>
  <path id="4" class="fil1" d="M2119 888c-6,0 -12,-3 -12,-10 0,-8 7,-10 13,-10 5,0 9,1 13,2l0 3c0,9 -6,15 -14,15zm1 -43c-6,0 -12,2 -18,5l3 6c5,-3 10,-5 15,-5 8,0 13,3 13,11l0 2c-4,-1 -9,-1 -13,-1 -10,0 -19,4 -19,15 0,10 7,15 16,15 7,0 13,-2 17,-8l0 0 0 7 5 0 0 -29c0,-12 -7,-18 -19,-18z"/>
  <path class="fil1" d="M1294 1170l0 32 0 4c0,4 0,9 0,12l0 0 -35 -48 -5 0 0 58 6 0 0 -33 0 -3c0,-4 -1,-9 -1,-12l1 0 34 48 6 0 0 -58 -6 0z"/>
  <path id="1" class="fil1" d="M1314 1228l6 0 0 -42 -6 0 0 42zm7 -54c0,2 -2,3 -4,3 -2,0 -3,-1 -3,-3 0,-2 1,-4 3,-4 2,0 4,2 4,4z"/>
  <path id="2" class="fil1" d="M1364 1186l-8 19c0,1 -1,3 -2,5l-1 4c-1,3 -3,5 -3,7l0 0c-1,-3 -4,-10 -6,-16l-9 -19 -6 0 18 42 6 0 18 -42 -7 0z"/>
  <path id="3" class="fil1" d="M1397 1190c9,0 13,6 14,14l-28 0c1,-8 6,-14 14,-14zm20 15c0,-11 -8,-20 -20,-20 -12,0 -20,10 -20,22 0,12 8,22 21,22 6,0 12,-3 17,-8l-4 -3c-3,3 -8,6 -13,6 -8,0 -14,-7 -15,-15l33 0c0,-1 1,-3 1,-4z"/>
  <polygon id="4" class="fil1" points="1428,1228 1434,1228 1434,1166 1428,1166 "/>
  <path id="5" class="fil1" d="M1512 1185c-6,0 -11,3 -15,8l0 0c-2,-5 -7,-8 -12,-8 -6,0 -10,2 -14,6l0 0 0 -5 -5 0 0 42 6 0 0 -23 0 0c0,-8 4,-15 11,-15 7,0 11,5 11,15l0 23 5 0 0 -23c0,-8 4,-15 12,-15 6,0 10,5 10,15l0 23 5 0 0 -25c0,-12 -6,-18 -14,-18z"/>
  <path id="6" class="fil1" d="M1553 1224c-5,0 -10,-3 -10,-9 0,-7 6,-9 12,-9 4,0 8,0 12,1l0 4c0,8 -6,13 -14,13zm2 -39c-6,0 -11,2 -17,4l3 5c4,-2 9,-4 14,-4 7,0 12,3 12,11l0 1c-4,-1 -8,-1 -13,-1 -9,0 -17,4 -17,14 0,9 7,14 15,14 6,0 12,-3 15,-8l1 0 0 7 5 0 0 -26c0,-12 -7,-17 -18,-17zm0 -5l11 -11 -4 -3 -10 12 3 2z"/>
  <polygon id="7" class="fil1" points="1625,1228 1607,1207 1624,1186 1617,1186 1603,1203 1590,1186 1583,1186 1600,1207 1582,1228 1590,1228 1603,1211 1617,1228 "/>
  <path id="8" class="fil1" d="M1635 1228l6 0 0 -42 -6 0 0 42zm6 -54c0,2 -1,3 -3,3 -2,0 -4,-1 -4,-3 0,-2 2,-4 4,-4 2,0 3,2 3,4z"/>
  <path id="9" class="fil1" d="M1700 1185c-5,0 -11,3 -14,8l0 0c-3,-5 -7,-8 -13,-8 -5,0 -10,2 -13,6l0 0 -1 -5 -4 0 0 42 6 0 0 -23 0 0c0,-8 3,-15 11,-15 6,0 10,5 10,15l0 23 6 0 0 -23c0,-8 3,-15 11,-15 6,0 10,5 10,15l0 23 6 0 0 -25c0,-12 -7,-18 -15,-18z"/>
  <path id="10" class="fil1" d="M1747 1223c-10,0 -16,-7 -16,-16 0,-9 6,-17 16,-17 9,0 15,8 15,17 0,9 -6,16 -15,16zm0 -38c-13,0 -21,10 -21,22 0,12 8,22 21,22 12,0 21,-10 21,-22 0,-12 -9,-22 -21,-22z"/>
  <path class="fil1" d="M1294 1551l0 33 0 3c0,4 0,9 0,12l0 0 -35 -48 -5 0 0 58 6 0 0 -33 0 -3c0,-4 -1,-9 -1,-12l1 0 34 48 6 0 0 -58 -6 0z"/>
  <path id="1" class="fil1" d="M1314 1609l6 0 0 -42 -6 0 0 42zm7 -54c0,2 -2,3 -4,3 -2,0 -3,-1 -3,-3 0,-2 1,-4 3,-4 2,0 4,2 4,4z"/>
  <path id="2" class="fil1" d="M1364 1567l-8 19c0,2 -1,3 -2,5l-1 4c-1,3 -3,5 -3,7l0 0c-1,-3 -4,-10 -6,-16l-9 -19 -6 0 18 42 6 0 18 -42 -7 0z"/>
  <path id="3" class="fil1" d="M1397 1571c9,0 13,6 14,14l-28 0c1,-8 6,-14 14,-14zm20 15c0,-11 -8,-20 -20,-20 -12,0 -20,10 -20,22 0,12 8,22 21,22 6,0 12,-3 17,-7l-4 -4c-3,3 -8,6 -13,6 -8,0 -14,-7 -15,-15l33 0c0,-1 1,-2 1,-4z"/>
  <polygon id="4" class="fil1" points="1428,1609 1434,1609 1434,1547 1428,1547 "/>
  <path id="5" class="fil1" d="M1512 1566c-6,0 -11,3 -15,8l0 0c-2,-5 -7,-8 -12,-8 -6,0 -10,2 -14,7l0 0 0 -6 -5 0 0 42 6 0 0 -22 0 -1c0,-8 4,-15 11,-15 7,0 11,5 11,15l0 23 5 0 0 -23c0,-8 4,-15 12,-15 6,0 10,5 10,15l0 23 5 0 0 -25c0,-12 -6,-18 -14,-18z"/>
  <path id="6" class="fil1" d="M1542 1561l12 -11 -5 -3 -10 12 3 2zm-2 48l5 0 0 -42 -5 0 0 42z"/>
  <path id="7" class="fil1" d="M1580 1566c-6,0 -12,3 -15,8l-1 0 0 -7 -4 0 0 42 5 0 0 -22c0,-8 5,-16 14,-16 7,0 12,5 12,15l0 23 5 0 0 -25c0,-12 -7,-18 -16,-18z"/>
  <path id="8" class="fil1" d="M1610 1609l5 0 0 -42 -5 0 0 42zm6 -54c0,2 -1,3 -3,3 -2,0 -4,-1 -4,-3 0,-2 2,-4 4,-4 2,0 3,2 3,4z"/>
  <path id="9" class="fil1" d="M1675 1566c-6,0 -11,3 -14,8l0 0c-3,-5 -8,-8 -13,-8 -5,0 -10,2 -13,7l0 0 -1 -6 -4 0 0 42 5 0 0 -22 0 -1c0,-8 4,-15 12,-15 6,0 10,5 10,15l0 23 5 0 0 -23c0,-8 4,-15 12,-15 6,0 10,5 10,15l0 23 6 0 0 -25c0,-12 -7,-18 -15,-18z"/>
  <path id="10" class="fil1" d="M1722 1605c-10,0 -16,-8 -16,-17 0,-9 6,-16 16,-16 9,0 15,7 15,16 0,9 -6,17 -15,17zm0 -39c-13,0 -22,10 -22,22 0,12 9,22 22,22 12,0 21,-10 21,-22 0,-12 -9,-22 -21,-22z"/>
  <path class="fil1" d="M785 1433l0 32 0 4c0,4 0,9 0,12l0 0 -35 -48 -5 0 0 58 6 0 0 -33 0 -4c0,-4 0,-8 0,-11l0 0 34 48 6 0 0 -58 -6 0z"/>
  <path id="1" class="fil1" d="M805 1491l6 0 0 -42 -6 0 0 42zm7 -55c0,2 -2,4 -4,4 -2,0 -3,-2 -3,-4 0,-1 1,-3 3,-3 2,0 4,2 4,3z"/>
  <path id="2" class="fil1" d="M856 1449l-9 19c0,1 -1,3 -1,4l-2 5c-1,3 -2,5 -3,6l0 0c-1,-2 -4,-9 -6,-15l-9 -19 -6 0 18 42 6 0 18 -42 -6 0z"/>
  <path id="3" class="fil1" d="M889 1453c8,0 12,6 13,14l-28 0c1,-8 6,-14 15,-14zm19 15c0,-12 -8,-20 -20,-20 -12,0 -20,10 -20,22 0,12 8,22 21,22 6,0 13,-3 17,-8l-4 -4c-3,4 -8,6 -13,6 -8,0 -14,-6 -15,-14l34 0c0,-1 0,-3 0,-4z"/>
  <polygon id="4" class="fil1" points="920,1491 925,1491 925,1429 920,1429 "/>
  <path id="5" class="fil1" d="M976 1486c-9,0 -15,-6 -15,-16 0,-10 6,-17 15,-17 9,0 16,7 16,17 0,10 -7,16 -16,16zm16 -57l0 26 0 0c-4,-4 -10,-7 -16,-7 -12,0 -21,9 -21,22 0,12 9,22 21,22 7,0 13,-4 16,-9l0 0 1 8 4 0 0 -62 -5 0z"/>
  <path id="6" class="fil1" d="M1029 1453c9,0 13,6 14,14l-28 0c1,-8 6,-14 14,-14zm19 15c0,-12 -7,-20 -19,-20 -13,0 -20,10 -20,22 0,12 8,22 21,22 6,0 12,-3 16,-8l-4 -4c-2,4 -8,6 -12,6 -9,0 -14,-6 -15,-14l33 0c0,-1 0,-3 0,-4z"/>
  <path id="7" class="fil1" d="M820 1563c-5,0 -11,-3 -11,-9 0,-7 7,-9 13,-9 4,0 8,0 12,1l0 4c0,8 -6,13 -14,13zm2 -39c-6,0 -12,2 -17,4l3 5c4,-2 9,-4 14,-4 7,0 12,3 12,11l0 1c-5,0 -9,-1 -13,-1 -9,0 -17,4 -17,14 0,9 7,14 15,14 6,0 12,-3 15,-8l0 0 1 7 4 0 0 -26c0,-12 -6,-17 -17,-17z"/>
  <path id="8" class="fil1" d="M870 1579c-8,0 -14,-3 -14,-8 0,-5 2,-7 6,-9l8 1c9,0 15,2 15,8 0,5 -5,8 -15,8zm0 -50c8,0 13,4 13,9 0,5 -5,9 -13,9 -7,0 -12,-4 -12,-9 0,-5 5,-9 12,-9zm21 42c0,-8 -7,-12 -21,-13 -3,0 -7,0 -7,-1 -3,0 -5,-1 -5,-3 0,-2 1,-3 3,-4 2,2 6,2 9,2 12,0 18,-6 18,-14 0,-3 -1,-6 -3,-9l6 -5 -4 -4 -6 6c-3,-1 -7,-2 -11,-2 -11,0 -17,6 -17,14 0,4 1,7 4,10l0 0c-3,2 -4,4 -4,6 0,3 1,5 4,7l0 0c-5,2 -7,6 -7,10 0,8 8,13 20,13 14,0 21,-6 21,-13z"/>
  <path id="9" class="fil1" d="M932 1525l0 22c0,8 -5,16 -14,16 -7,0 -11,-5 -11,-15l0 -23 -6 0 0 25c0,12 7,18 16,18 6,0 12,-3 16,-8l0 0 0 7 5 0 0 -42 -6 0z"/>
  <path id="10" class="fil1" d="M966 1563c-6,0 -11,-3 -11,-9 0,-7 7,-9 13,-9 3,0 7,0 11,1l0 4c0,8 -5,13 -13,13zm1 -39c-5,0 -11,2 -16,4l3 5c4,-2 9,-4 14,-4 7,0 11,3 11,11l0 1c-4,0 -8,-1 -12,-1 -9,0 -17,4 -17,14 0,9 6,14 15,14 6,0 11,-3 15,-8l0 0 0 7 5 0 0 -26c0,-12 -6,-17 -18,-17z"/>
  <path class="fil1" d="M323 1787c10,0 19,-5 24,-12l-4 -4c-5,6 -12,10 -20,10 -15,0 -26,-11 -26,-27 0,-16 11,-27 26,-27 8,0 15,3 19,9l5 -4c-6,-7 -14,-11 -24,-11 -18,0 -33,14 -33,33 0,19 15,33 33,33z"/>
  <path id="1" class="fil1" d="M360 1786l6 0 0 -46 -6 0 0 46zm7 -60c0,2 -2,4 -4,4 -2,0 -4,-2 -4,-4 0,-2 2,-4 4,-4 2,0 4,2 4,4z"/>
  <path id="2" class="fil1" d="M396 1781c-5,0 -10,-2 -14,-5l-3 5c4,4 12,6 17,6 8,0 17,-4 17,-13 0,-9 -8,-13 -16,-15 -4,-1 -11,-3 -11,-8 0,-5 6,-7 10,-7 5,0 10,2 14,5l3 -5c-5,-4 -11,-5 -17,-5 -8,0 -16,3 -16,12 0,8 8,12 15,13 5,2 12,4 12,10 0,6 -6,7 -11,7z"/>
  <path id="3" class="fil1" d="M440 1787c3,0 8,-1 11,-2l-1 -6c-3,1 -6,2 -9,2 -4,0 -5,-3 -5,-7l0 -29 14 0 0 -5 -14 0 0 -16 -7 0 0 16 -7 0 0 5 7 0 0 30c0,7 4,12 11,12z"/>
  <path id="4" class="fil1" d="M482 1744c9,0 14,7 14,15l-30 0c1,-8 6,-15 16,-15zm21 17c0,-13 -8,-22 -22,-22 -13,0 -22,11 -22,24 0,13 9,24 23,24 7,0 14,-3 19,-8l-5 -5c-3,4 -9,7 -14,7 -9,0 -15,-7 -16,-16l36 0c0,-1 1,-3 1,-4z"/>
  <path id="5" class="fil1" d="M534 1739c-6,0 -10,2 -13,7l0 0 0 -6 -5 0 0 46 6 0 0 -24c0,-10 3,-17 10,-17 3,0 5,0 7,1l1 -6c-2,-1 -4,-1 -6,-1z"/>
  <path id="6" class="fil1" d="M573 1739c-7,0 -13,3 -17,8l0 0 -1 -7 -5 0 0 46 6 0 0 -25c0,-8 6,-17 16,-17 7,0 13,5 13,17l0 25 6 0 0 -27c0,-14 -8,-20 -18,-20z"/>
  <path id="7" class="fil1" d="M621 1781c-6,0 -12,-3 -12,-10 0,-7 7,-9 13,-9 5,0 9,0 13,1l0 4c0,8 -6,14 -14,14zm1 -42c-6,0 -12,2 -18,4l3 6c5,-3 10,-5 15,-5 8,0 13,4 13,12l0 1c-4,0 -9,-1 -13,-1 -10,0 -19,4 -19,15 0,10 7,16 16,16 7,0 13,-3 17,-9l0 0 1 8 5 0 0 -29c0,-13 -7,-18 -20,-18z"/>
  <path id="8" class="fil1" d="M697 1781c-10,0 -17,-8 -17,-18 0,-11 7,-18 17,-18 10,0 17,7 17,18 0,10 -7,18 -17,18zm17 -63l0 29 0 0c-4,-5 -11,-8 -18,-8 -13,0 -22,10 -22,24 0,14 9,24 22,24 8,0 14,-4 18,-9l1 0 0 8 5 0 0 -68 -6 0z"/>
  <path id="9" class="fil1" d="M755 1744c9,0 14,7 15,15l-31 0c1,-8 7,-15 16,-15zm21 17c0,-13 -8,-22 -21,-22 -14,0 -22,11 -22,24 0,13 9,24 22,24 7,0 14,-3 19,-8l-4 -5c-4,4 -9,7 -14,7 -10,0 -16,-7 -17,-16l37 0c0,-1 0,-3 0,-4z"/>
  <path id="10" class="fil1" d="M823 1781c-5,0 -10,-2 -14,-5l-3 5c4,4 12,6 17,6 9,0 17,-4 17,-13 0,-9 -8,-13 -16,-15 -4,-1 -11,-3 -11,-8 0,-5 6,-7 10,-7 5,0 10,2 14,5l3 -5c-5,-4 -11,-5 -17,-5 -8,0 -16,3 -16,12 0,8 8,12 15,13 5,2 12,4 12,10 0,6 -6,7 -11,7z"/>
  <path id="11" class="fil1" d="M887 1740l0 24c0,9 -6,17 -16,17 -7,0 -12,-5 -12,-16l0 -25 -7 0 0 27c0,13 8,20 18,20 7,0 13,-3 17,-9l0 0 1 8 5 0 0 -46 -6 0z"/>
  <path id="12" class="fil1" d="M929 1781c-10,0 -17,-8 -17,-18 0,-11 7,-18 17,-18 6,0 10,2 13,6l5 -5c-4,-4 -11,-7 -18,-7 -13,0 -23,10 -23,24 0,14 10,24 23,24 7,0 13,-3 18,-8l-5 -4c-3,4 -7,6 -13,6z"/>
  <path id="13" class="fil1" d="M979 1781c-9,0 -17,-8 -17,-18 0,-11 8,-18 17,-18 6,0 10,2 14,6l4 -5c-4,-4 -10,-7 -18,-7 -13,0 -23,10 -23,24 0,14 10,24 23,24 8,0 14,-3 18,-8l-4 -4c-3,4 -8,6 -14,6z"/>
  <path id="14" class="fil1" d="M1010 1786l6 0 0 -46 -6 0 0 46zm6 -60c0,2 -1,4 -3,4 -3,0 -4,-2 -4,-4 0,-2 1,-4 4,-4 2,0 3,2 3,4z"/>
  <path id="15" class="fil1" d="M1052 1781c-11,0 -17,-8 -17,-18 0,-10 6,-18 17,-18 10,0 17,8 17,18 0,10 -7,18 -17,18zm0 -42c-14,0 -23,10 -23,24 0,13 9,24 23,24 14,0 23,-11 23,-24 0,-14 -9,-24 -23,-24zm-4 -8l11 -13 5 3 -13 12 -3 -2z"/>
  <path id="16" class="fil1" d="M1111 1739c-7,0 -13,3 -17,8l-1 0 0 -7 -5 0 0 46 6 0 0 -25c0,-8 6,-17 15,-17 8,0 13,5 13,17l0 25 6 0 0 -27c0,-14 -8,-20 -17,-20z"/>
  <path class="fil1" d="M1784 1327l-8 20c-3,6 -12,27 -13,31l-1 0c-1,-4 -10,-24 -13,-31l-8 -20 -7 0 26 58 5 0 26 -58 -7 0z"/>
  <path id="1" class="fil1" d="M1814 1381c-6,0 -11,-3 -11,-9 0,-7 6,-9 12,-9 4,0 8,1 12,2l0 3c0,8 -6,13 -13,13zm1 -39c-6,0 -11,2 -16,5l2 5c5,-3 9,-4 14,-4 7,0 12,3 12,10l0 2c-4,-1 -8,-2 -12,-2 -10,0 -18,4 -18,14 0,9 7,14 16,14 6,0 11,-2 15,-7l0 0 0 6 5 0 0 -26c0,-11 -7,-17 -18,-17z"/>
  <path id="2" class="fil1" d="M1863 1343c-5,0 -9,2 -12,6l0 0 0 -5 -5 0 0 41 6 0 0 -21c0,-9 3,-16 9,-16 2,0 4,1 6,1l2 -6c-2,0 -4,0 -6,0z"/>
  <path id="3" class="fil1" d="M1878 1385l5 0 0 -41 -5 0 0 41zm6 -54c0,2 -1,4 -3,4 -3,0 -4,-2 -4,-4 0,-2 1,-3 4,-3 2,0 3,1 3,3z"/>
  <path id="4" class="fil1" d="M1911 1381c-5,0 -10,-3 -10,-9 0,-7 6,-9 12,-9 4,0 8,1 12,2l0 3c0,8 -6,13 -14,13zm2 -39c-6,0 -11,2 -17,5l3 5c4,-3 9,-4 14,-4 7,0 12,3 12,10l0 2c-4,-1 -8,-2 -13,-2 -9,0 -17,4 -17,14 0,9 7,14 15,14 6,0 12,-2 15,-7l1 0 0 6 4 0 0 -26c0,-11 -6,-17 -17,-17z"/>
  <path id="5" class="fil1" d="M1962 1381c-8,0 -15,-7 -15,-17 0,-9 7,-16 15,-16 6,0 10,2 13,5l4 -3c-4,-5 -10,-7 -17,-7 -11,0 -21,9 -21,21 0,13 10,22 21,22 7,0 13,-2 17,-7l-4 -4c-3,4 -7,6 -13,6z"/>
  <path id="6" class="fil1" d="M1990 1385l5 0 0 -41 -5 0 0 41zm6 -54c0,2 -1,4 -3,4 -2,0 -4,-2 -4,-4 0,-2 2,-3 4,-3 2,0 3,1 3,3z"/>
  <path id="7" class="fil1" d="M2028 1381c-9,0 -15,-7 -15,-17 0,-9 6,-16 15,-16 10,0 16,7 16,16 0,10 -6,17 -16,17zm0 -38c-12,0 -21,9 -21,21 0,13 9,22 21,22 13,0 22,-9 22,-22 0,-12 -9,-21 -22,-21zm-3 -8l10 -12 4 3 -11 11 -3 -2z"/>
  <path id="8" class="fil1" d="M2082 1343c-6,0 -12,2 -16,7l0 0 0 -6 -5 0 0 41 6 0 0 -22c0,-8 5,-15 14,-15 7,0 12,4 12,14l0 23 5 0 0 -24c0,-13 -7,-18 -16,-18z"/>
  <path id="9" class="fil1" d="M1785 1416c-6,0 -11,3 -15,8l0 0c-2,-5 -7,-8 -12,-8 -6,0 -10,2 -14,6l0 0 0 -5 -5 0 0 42 6 0 0 -23 0 0c0,-8 4,-15 11,-15 7,0 11,4 11,14l0 24 5 0 0 -23c0,-8 4,-15 12,-15 6,0 10,4 10,14l0 24 5 0 0 -25c0,-12 -6,-18 -14,-18z"/>
  <path id="10" class="fil1" d="M1826 1454c-5,0 -10,-2 -10,-8 0,-7 6,-9 12,-9 4,0 8,0 12,1l0 4c0,7 -6,12 -14,12zm2 -38c-6,0 -11,2 -17,4l3 5c4,-2 9,-4 14,-4 7,0 12,3 12,11l0 1c-4,-1 -8,-1 -13,-1 -9,0 -17,4 -17,14 0,9 7,14 15,14 6,0 12,-3 15,-8l1 0 0 7 5 0 0 -27c0,-11 -7,-16 -18,-16zm0 -5l11 -11 -4 -3 -10 12 3 2z"/>
  <polygon id="11" class="fil1" points="1898,1459 1880,1438 1897,1417 1890,1417 1876,1434 1863,1417 1856,1417 1873,1438 1855,1459 1863,1459 1876,1441 1890,1459 "/>
  <path id="12" class="fil1" d="M1908 1459l6 0 0 -42 -6 0 0 42zm6 -55c0,2 -1,4 -3,4 -2,0 -4,-2 -4,-4 0,-1 2,-3 4,-3 2,0 3,2 3,3z"/>
  <path id="13" class="fil1" d="M1973 1416c-5,0 -11,3 -14,8l0 0c-3,-5 -7,-8 -13,-8 -5,0 -10,2 -13,6l0 0 0 -5 -5 0 0 42 6 0 0 -23 0 0c0,-8 3,-15 11,-15 6,0 10,4 10,14l0 24 6 0 0 -23c0,-8 3,-15 11,-15 6,0 10,4 10,14l0 24 6 0 0 -25c0,-12 -7,-18 -15,-18z"/>
  <path id="14" class="fil1" d="M2015 1454c-5,0 -11,-2 -11,-8 0,-7 7,-9 13,-9 4,0 7,0 11,1l0 4c0,7 -5,12 -13,12zm1 -38c-5,0 -11,2 -16,4l3 5c4,-2 9,-4 14,-4 7,0 11,3 11,11l0 1c-4,-1 -8,-1 -12,-1 -9,0 -17,4 -17,14 0,9 6,14 15,14 6,0 12,-3 15,-8l0 0 0 7 5 0 0 -27c0,-11 -6,-16 -18,-16z"/>
  <path class="fil1" d="M73 643c4,11 9,22 13,33l-27 0c4,-11 9,-22 14,-33l0 0zm23 56l7 0 -27 -64 -6 0 -28 64 7 0 7 -17 33 0 7 17z"/>
  <polygon id="1" class="fil1" points="113,699 119,699 119,631 113,631 "/>
  <path id="2" class="fil1" d="M149 700c3,0 7,-1 10,-2l-1 -5c-3,0 -6,1 -9,1 -4,0 -5,-3 -5,-7l0 -28 14 0 0 -6 -14 0 0 -16 -6 0 0 16 -8 0 0 6 8 0 0 29c0,8 3,12 11,12z"/>
  <path id="3" class="fil1" d="M204 653l0 24c0,9 -5,17 -15,17 -8,0 -13,-5 -13,-16l0 -25 -6 0 0 27c0,14 8,20 17,20 8,0 14,-3 18,-9l0 0 0 8 5 0 0 -46 -6 0z"/>
  <path id="4" class="fil1" d="M244 652c-5,0 -10,2 -12,7l-1 0 0 -6 -5 0 0 46 6 0 0 -23c0,-11 3,-18 11,-18 2,0 4,0 7,1l1 -6c-2,-1 -4,-1 -7,-1z"/>
  <path id="5" class="fil1" d="M276 694c-6,0 -12,-3 -12,-9 0,-8 7,-10 14,-10 4,0 8,0 13,1l0 4c0,9 -7,14 -15,14zm2 -42c-7,0 -13,2 -19,5l3 5c5,-3 10,-5 16,-5 8,0 13,4 13,12l0 2c-5,-1 -9,-2 -14,-2 -10,0 -19,4 -19,16 0,9 7,15 17,15 6,0 13,-3 16,-8l0 0 1 7 5 0 0 -29c0,-12 -7,-18 -19,-18z"/>
  <path id="6" class="fil1" d="M27 738c9,0 14,7 15,15l-31 0c1,-9 7,-15 16,-15zm21 17c0,-13 -8,-23 -21,-23 -14,0 -22,11 -22,24 0,14 9,25 23,25 7,0 13,-3 18,-9l-4 -4c-3,4 -9,7 -14,7 -9,0 -16,-7 -17,-16l37 0c0,-2 0,-3 0,-4z"/>
  <path id="7" class="fil1" d="M75 775c-5,0 -10,-2 -14,-5l-3 5c4,3 12,6 17,6 9,0 18,-4 18,-14 0,-9 -9,-12 -17,-14 -4,-1 -11,-3 -11,-8 0,-5 6,-7 10,-7 5,0 10,2 14,4l3 -5c-4,-3 -11,-5 -17,-5 -7,0 -16,4 -16,13 0,8 8,11 15,13 5,2 13,3 13,10 0,6 -7,7 -12,7z"/>
  <path id="8" class="fil1" d="M119 781c4,0 8,-1 11,-2l-1 -6c-3,1 -6,2 -9,2 -4,0 -5,-3 -5,-7l0 -29 14 0 0 -5 -14 0 0 -16 -6 0 0 16 -8 0 0 5 8 0 0 30c0,7 3,12 10,12z"/>
  <path id="9" class="fil1" d="M157 775c-6,0 -12,-3 -12,-10 0,-8 7,-10 13,-10 5,0 9,1 13,2l0 4c0,8 -6,14 -14,14zm1 -43c-6,0 -12,2 -18,5l3 6c5,-3 10,-5 15,-5 8,0 13,3 13,12l0 1c-4,-1 -9,-1 -13,-1 -10,0 -19,4 -19,15 0,10 7,16 16,16 7,0 13,-3 17,-9l0 0 1 7 5 0 0 -28c0,-13 -7,-19 -20,-19zm0 -5l13 -12 -5 -4 -11 13 3 3z"/>
  <path id="10" class="fil1" d="M206 781c3,0 8,-1 11,-2l-1 -6c-3,1 -6,2 -9,2 -4,0 -5,-3 -5,-7l0 -29 14 0 0 -5 -14 0 0 -16 -7 0 0 16 -7 0 0 5 7 0 0 30c0,7 4,12 11,12z"/>
  <path id="11" class="fil1" d="M228 779l6 0 0 -45 -6 0 0 45zm7 -59c0,2 -1,4 -4,4 -2,0 -3,-2 -3,-4 0,-2 1,-4 3,-4 3,0 4,2 4,4z"/>
  <path id="12" class="fil1" d="M271 775c-10,0 -18,-8 -18,-19 0,-10 8,-18 18,-18 5,0 10,3 13,6l4 -4c-4,-4 -10,-8 -17,-8 -13,0 -24,10 -24,24 0,14 10,24 24,24 7,0 13,-2 17,-8l-4 -4c-3,4 -8,7 -13,7z"/>
  <path id="13" class="fil1" d="M316 775c-6,0 -12,-3 -12,-10 0,-8 7,-10 14,-10 4,0 8,1 13,2l0 4c0,8 -7,14 -15,14zm1 -43c-6,0 -12,2 -18,5l3 6c5,-3 10,-5 16,-5 7,0 13,3 13,12l0 1c-5,-1 -10,-1 -14,-1 -10,0 -19,4 -19,15 0,10 7,16 17,16 6,0 12,-3 16,-9l0 0 1 7 5 0 0 -28c0,-13 -7,-19 -20,-19z"/>
  <path id="14" class="fil1" d="M150 813c-7,0 -13,2 -17,8l0 0 0 -28 -6 0 0 67 6 0 0 -24c0,-9 6,-17 15,-17 10,0 13,7 13,16l0 25 6 0 0 -27c0,-11 -6,-20 -17,-20z"/>
  <polygon id="15" class="fil1" points="188,845 196,838 215,860 223,860 200,834 222,814 214,814 188,838 188,838 188,793 182,793 182,860 188,860 "/>
  <g id="_2955432154816">
   <rect class="fil9" width="20.9424" height="20.9424"/>
   <rect class="fil9" x="2232" y="1752" width="42.5225" height="42.5225"/>
  </g>
  <polygon class="fil10" points="1088,1152 1088,1668 1088,1671 1085,1671 339,1671 336,1671 336,1668 336,1152 342,1152 342,1664 1082,1664 1082,1152 "/>
 </g>
</svg>
