<?xml version="1.0" encoding="UTF-8"?>
<!DOCTYPE svg PUBLIC "-//W3C//DTD SVG 1.1//EN" "http://www.w3.org/Graphics/SVG/1.1/DTD/svg11.dtd">
<!-- Creator: CorelDRAW X7 -->
<svg xmlns="http://www.w3.org/2000/svg" xml:space="preserve" width="15.1695mm" height="15.0814mm" version="1.1" style="shape-rendering:geometricPrecision; text-rendering:geometricPrecision; image-rendering:optimizeQuality; fill-rule:evenodd; clip-rule:evenodd"
viewBox="0 0 384 382"
 xmlns:xlink="http://www.w3.org/1999/xlink">
 <defs>
  <style type="text/css">
   <![CDATA[
    .fil0 {fill:none}
    .fil1 {fill:#65727F;fill-rule:nonzero}
   ]]>
  </style>
 </defs>
 <g id="Capa_x0020_1">
  <metadata id="CorelCorpID_0Corel-Layer"/>
  <rect class="fil0" width="384" height="382"/>
  <g id="_2163061730016">
   <path class="fil1" d="M111 109c-14,5 -24,19 -24,33 0,15 12,30 26,34 19,6 40,-7 44,-26 6,-27 -20,-50 -46,-41z"/>
   <path class="fil1" d="M252 109c-30,8 -35,49 -8,64 14,8 30,6 42,-6 14,-14 14,-33 2,-47 -9,-11 -23,-15 -36,-11z"/>
   <path class="fil1" d="M182 146c-20,7 -29,24 -23,45 2,9 15,20 25,22 29,7 52,-23 39,-50 -2,-4 -6,-9 -9,-11 -9,-7 -23,-10 -32,-6z"/>
   <path class="fil1" d="M89 178c-16,9 -27,26 -28,44 -1,9 0,11 2,14l2 3 36 0 35 0 4 -7c5,-7 14,-15 22,-19 2,-2 5,-3 5,-3 1,-1 -1,-3 -4,-7 -5,-5 -9,-17 -9,-23 0,-6 -6,-8 -14,-4 -12,5 -18,5 -28,2 -14,-5 -15,-5 -23,0z"/>
   <path class="fil1" d="M232 175c-1,1 -2,5 -3,9 -1,8 -4,15 -9,21 -5,5 -5,4 4,8 8,5 18,14 22,21l2 5 35 0 35 0 3 -3c2,-3 3,-5 2,-14 -1,-18 -14,-38 -31,-46l-7 -3 -8 3c-10,5 -21,5 -31,1 -9,-4 -10,-4 -14,-2z"/>
   <path class="fil1" d="M165 214c-9,3 -17,10 -23,18 -9,13 -13,35 -7,40l2 2 56 0 55 0 3 -4c2,-3 2,-5 1,-12 -3,-19 -14,-34 -29,-43l-9 -4 -6 3c-7,3 -23,3 -31,0l-6 -3 -6 3z"/>
  </g>
 </g>
</svg>
