<?xml version="1.0" encoding="UTF-8"?>
<!DOCTYPE svg PUBLIC "-//W3C//DTD SVG 1.1//EN" "http://www.w3.org/Graphics/SVG/1.1/DTD/svg11.dtd">
<!-- Creator: CorelDRAW X7 -->
<svg xmlns="http://www.w3.org/2000/svg" xml:space="preserve" width="15.1695mm" height="15.0814mm" version="1.1" style="shape-rendering:geometricPrecision; text-rendering:geometricPrecision; image-rendering:optimizeQuality; fill-rule:evenodd; clip-rule:evenodd"
viewBox="0 0 408 406"
 xmlns:xlink="http://www.w3.org/1999/xlink">
 <defs>
  <style type="text/css">
   <![CDATA[
    .fil1 {fill:none}
    .fil0 {fill:#65727F;fill-rule:nonzero}
   ]]>
  </style>
 </defs>
 <g id="Capa_x0020_1">
  <metadata id="CorelCorpID_0Corel-Layer"/>
  <g id="_2163061674720">
   <path class="fil0" d="M124 82c-9,6 -9,3 -9,121 0,118 0,115 9,121l5 3 75 0 75 0 4 -3c10,-6 10,-3 10,-121 0,-119 0,-116 -10,-121l-4 -3 -75 0 -75 0 -5 3zm156 8l4 3 0 220 -4 3 -3 3 -73 0 -73 0 -3 -3 -4 -3 0 -110 0 -110 4 -3 3 -3 73 0 73 0 3 3z"/>
   <path class="fil0" d="M141 109c-3,3 -3,40 0,43 2,2 123,2 126,0 3,-3 3,-40 0,-43 -3,-2 -124,-2 -126,0zm120 22l0 15 -114 0 0 -31 57 0 57 0 0 16z"/>
   <path class="fil0" d="M145 175c-2,2 -3,6 -3,13 0,15 1,16 16,16 7,0 13,0 14,-2 2,-2 2,-25 0,-27 -3,-3 -24,-3 -27,0zm21 13l0 8 -16 0 0 -15 8 0 8 0 0 7z"/>
   <path class="fil0" d="M191 174c-2,2 -3,4 -3,14 0,8 1,13 2,14 1,2 7,2 14,2 7,0 13,0 14,-2 1,-1 2,-6 2,-14 0,-10 -1,-12 -3,-14 -4,-2 -23,-2 -26,0zm21 14l0 8 -16 0 0 -15 8 0 8 0 0 7z"/>
   <path class="fil0" d="M236 175c-3,2 -3,25 0,27 1,2 7,2 14,2 15,0 16,-1 16,-16 0,-14 -2,-15 -17,-15 -6,0 -12,0 -13,2zm22 13l0 8 -16 0 0 -15 8 0 8 0 0 7z"/>
   <path class="fil0" d="M144 222c-3,5 -2,23 1,26 3,3 24,3 27,0 2,-2 2,-25 0,-27 -1,-2 -7,-2 -14,-2 -11,0 -13,0 -14,3zm22 13l0 7 -16 0 0 -15 8 0 8 0 0 8z"/>
   <path class="fil0" d="M190 221c-3,2 -3,25 0,27 1,2 7,2 14,2 7,0 13,0 14,-2 1,-1 2,-6 2,-13 0,-8 -1,-13 -2,-14 -1,-2 -7,-2 -14,-2 -7,0 -13,0 -14,2zm22 14l0 7 -16 0 0 -15 8 0 8 0 0 8z"/>
   <path class="fil0" d="M236 221c-1,1 -2,11 -2,37l0 35 3 2c2,1 8,1 14,1 15,0 15,1 15,-38 0,-20 -1,-34 -2,-36 -1,-3 -3,-3 -14,-3 -7,0 -13,0 -14,2zm22 36l0 30 -16 0 0 -60 8 0 8 0 0 30z"/>
   <path class="fil0" d="M144 267c-1,1 -2,6 -2,13 0,15 2,16 15,16 16,0 17,-1 17,-15 0,-8 -1,-13 -2,-14 -1,-2 -7,-2 -14,-2 -7,0 -13,0 -14,2zm22 13l0 7 -16 0 0 -14 8 0 8 0 0 7z"/>
   <path class="fil0" d="M190 267c-3,2 -2,24 1,27 3,3 23,3 26,0 3,-3 4,-25 1,-27 -1,-2 -7,-2 -14,-2 -7,0 -13,0 -14,2zm22 13l0 7 -16 0 0 -14 8 0 8 0 0 7z"/>
  </g>
  <rect class="fil1" width="408" height="406"/>
 </g>
</svg>
