<?xml version="1.0" encoding="UTF-8"?>
<!DOCTYPE svg PUBLIC "-//W3C//DTD SVG 1.1//EN" "http://www.w3.org/Graphics/SVG/1.1/DTD/svg11.dtd">
<!-- Creator: CorelDRAW X7 -->
<svg xmlns="http://www.w3.org/2000/svg" xml:space="preserve" width="10.8103mm" height="12.3641mm" version="1.1" style="shape-rendering:geometricPrecision; text-rendering:geometricPrecision; image-rendering:optimizeQuality; fill-rule:evenodd; clip-rule:evenodd"
viewBox="0 0 250 286"
 xmlns:xlink="http://www.w3.org/1999/xlink">
 <defs>
  <style type="text/css">
   <![CDATA[
    .fil0 {fill:#c40606;fill-rule:nonzero}
   ]]>
  </style>
 </defs>
 <g id="Capa_x0020_1">
  <metadata id="CorelCorpID_0Corel-Layer"/>
  <g id="_1761427401072">
   <path class="fil0" d="M16 1c-6,2 -11,6 -14,12l-2 3 0 127 0 127 2 3c2,5 6,9 11,11l3 2 109 0 109 0 3 -2c5,-2 9,-6 11,-11l2 -3 0 -92 0 -92 -2 -5c-2,-7 -4,-12 -7,-17 -2,-3 -6,-8 -25,-27 -13,-13 -25,-24 -26,-26 -5,-3 -14,-7 -21,-9l-5 -2 -73 0c-58,0 -74,0 -75,1zm142 17l3 0 0 71 71 0 0 4c0,2 0,41 0,88l0 84 -1 2 -1 1 -105 0 -105 0 -1 -1 -1 -2 0 -121c0,-97 0,-122 0,-123 1,-1 2,-2 2,-3 2,0 16,0 68,0 37,0 68,0 70,0zm45 31c11,12 21,22 21,22 0,0 -10,0 -23,0l-22 0 0 -22 0 -23 1 1c1,1 11,11 23,22z"/>
   <path class="fil0" d="M109 50c-5,2 -7,5 -8,13 -1,10 0,22 6,46l2 8 -3 6c-3,9 -19,40 -26,53l-6 10 -6 3c-23,12 -38,26 -39,37 0,4 1,6 6,8 12,6 22,1 36,-18 5,-7 10,-15 15,-23l2 -4 6 -2c17,-5 38,-10 56,-13l6 -1 5 2c16,8 33,13 45,13 8,0 11,-1 13,-7 1,-2 2,-7 1,-11 0,-2 -1,-3 -3,-5 -3,-3 -7,-5 -15,-6 -7,-1 -25,0 -34,1l-6 1 -4 -2c-12,-8 -22,-19 -30,-36 -5,-9 -5,-11 -5,-13 1,-4 4,-20 4,-29 2,-15 2,-21 -2,-26 -3,-4 -4,-5 -10,-5 -3,0 -6,0 -6,0zm9 7c2,3 4,12 4,19 0,6 -4,19 -5,17 -1,-3 -2,-12 -2,-24 0,-14 0,-15 3,-12zm1 81c6,8 14,18 22,24l2 2 -6 1c-10,2 -26,7 -35,10 -4,1 -8,2 -8,2 0,0 2,-3 4,-7 6,-11 15,-29 17,-35 0,-2 1,-2 1,-2 0,0 2,2 3,5zm87 33c3,1 5,1 6,2 2,1 2,3 1,4 -1,1 -9,1 -14,0 -3,-1 -15,-5 -17,-6 -1,-1 2,-1 9,-1 9,0 12,0 15,1zm-143 33c-8,11 -15,19 -21,23 -1,0 0,-1 3,-6 4,-7 10,-13 17,-19 3,-2 5,-5 5,-5 0,0 -2,3 -4,7z"/>
  </g>
 </g>
</svg>
