<?xml version="1.0" encoding="UTF-8"?>
<!DOCTYPE svg PUBLIC "-//W3C//DTD SVG 1.1//EN" "http://www.w3.org/Graphics/SVG/1.1/DTD/svg11.dtd">
<!-- Creator: CorelDRAW X7 -->
<svg xmlns="http://www.w3.org/2000/svg" xml:space="preserve" width="16.7691mm" height="10.4443mm" version="1.1" style="shape-rendering:geometricPrecision; text-rendering:geometricPrecision; image-rendering:optimizeQuality; fill-rule:evenodd; clip-rule:evenodd"
viewBox="0 0 274 171"
 xmlns:xlink="http://www.w3.org/1999/xlink">
 <defs>
  <style type="text/css">
   <![CDATA[
    .fil0 {fill:#218eab;fill-rule:nonzero}
   ]]>
  </style>
 </defs>
 <g id="Capa_x0020_1">
  <metadata id="CorelCorpID_0Corel-Layer"/>
  <path class="fil0" d="M13 1c-4,1 -7,3 -9,6 -4,6 -4,3 -4,80l0 70 2 3c2,4 6,8 10,10l3 1 123 0 124 0 2 -2c4,-2 7,-5 9,-9l1 -3 0 -71 0 -72 -1 -3c-2,-4 -6,-8 -11,-10l-4 -1 -121 0c-98,0 -122,0 -124,1zm29 24c3,3 3,5 3,14l0 5 -2 2 -2 2 -12 0c-7,0 -13,0 -14,0 -2,-2 -3,-5 -3,-13l0 -7 2 -2 3 -3 11 0 12 0 2 2zm168 0c2,0 4,1 4,3l2 2 0 56 -1 56 -2 2 -3 3 -73 0 -74 0 -2 -2c-4,-3 -3,-1 -3,-60 0,-57 0,-56 3,-59 1,-1 2,-2 3,-2 1,0 34,0 73,0 63,-1 71,0 73,1zm48 0c3,1 4,4 4,11 0,6 -1,9 -3,11 -1,1 -3,1 -14,1 -10,0 -13,0 -13,-1 0,0 0,-1 -1,0 0,0 -1,-1 -2,-2 -1,-4 -1,-15 0,-18 2,-3 3,-4 16,-4 10,0 11,1 13,2zm-217 49c3,2 4,4 4,12l0 8 -2 1c-2,3 -5,4 -16,3 -14,0 -15,-1 -15,-13l0 -7 2 -3 3 -2 11 0c10,0 12,0 13,1zm217 0c3,1 4,5 4,12 0,7 -1,10 -5,11 -2,1 -4,1 -13,1 -15,0 -16,-1 -16,-12 0,-7 1,-10 4,-12 2,-1 23,-1 26,0zm-215 51l2 2 0 8c0,12 -1,13 -17,13 -15,0 -16,-1 -16,-13l0 -8 2 -2 2 -2 12 0 12 0 3 2zm214 -2c3,1 4,4 5,11 0,7 -1,10 -3,12l-2 2 -10 0c-12,0 -15,0 -17,-3 -1,-2 -2,-4 -2,-10 0,-6 1,-7 2,-9 1,-1 2,-3 3,-3 3,-1 22,0 24,0z"/>
  <path class="fil0" d="M114 53l-2 2 0 62 1 2c3,3 5,2 18,-5 13,-8 21,-13 24,-14 9,-5 15,-9 16,-10 1,-2 1,-4 0,-7 0,-1 -11,-8 -31,-19 -2,-1 -4,-3 -6,-4 -9,-5 -15,-8 -16,-8 -1,0 -3,0 -4,1z"/>
 </g>
</svg>
