<?xml version="1.0" encoding="UTF-8"?>
<!DOCTYPE svg PUBLIC "-//W3C//DTD SVG 1.1//EN" "http://www.w3.org/Graphics/SVG/1.1/DTD/svg11.dtd">
<!-- Creator: CorelDRAW X7 -->
<svg xmlns="http://www.w3.org/2000/svg" xml:space="preserve" width="177.123mm" height="76.46mm" version="1.1" style="shape-rendering:geometricPrecision; text-rendering:geometricPrecision; image-rendering:optimizeQuality; fill-rule:evenodd; clip-rule:evenodd"
viewBox="0 0 20042 8652"
 xmlns:xlink="http://www.w3.org/1999/xlink">
 <defs>
  <style type="text/css">
   <![CDATA[
    .str0 {stroke:#F140CC;stroke-width:39.9211}
    .fil5 {fill:none;fill-rule:nonzero}
    .fil7 {fill:#FEFEFE;fill-rule:nonzero}
    .fil2 {fill:#00D100;fill-rule:nonzero}
    .fil3 {fill:aqua;fill-rule:nonzero}
    .fil4 {fill:#F140CC;fill-rule:nonzero}
    .fil6 {fill:red;fill-rule:nonzero}
    .fil1 {fill:#FFDE24;fill-rule:nonzero}
    .fil0 {fill:white;fill-rule:nonzero}
   ]]>
  </style>
 </defs>
 <g id="Capa_x0020_1">
  <metadata id="CorelCorpID_0Corel-Layer"/>
  <g id="_2386716122752">
   <path class="fil0" d="M475 2833l-201 0 0 -479 -244 0 0 -137 51 0c67,0 118,-10 151,-31 33,-21 57,-53 72,-96l171 0 0 743 0 0zm540 -765c98,0 179,7 240,22 62,15 108,38 138,70 30,32 44,74 44,126 0,40 -11,73 -32,98 -23,26 -54,45 -95,56l0 7c47,9 82,29 105,58 24,28 35,69 35,123 0,54 -14,98 -44,132 -30,32 -76,56 -140,72 -63,15 -147,23 -251,23 -104,0 -188,-8 -251,-23 -63,-16 -110,-40 -140,-73 -30,-33 -44,-77 -44,-131 0,-53 12,-94 36,-123 23,-29 58,-49 105,-58l0 -7c-42,-11 -73,-30 -95,-56 -22,-25 -32,-58 -32,-98 0,-52 15,-94 44,-126 29,-32 75,-55 136,-70 62,-15 142,-22 241,-22l0 0zm0 142c-72,0 -124,7 -158,20 -34,14 -51,37 -51,69 0,31 17,54 51,68 34,13 86,20 158,20 72,0 125,-7 159,-20 34,-14 51,-37 51,-68 0,-32 -17,-55 -52,-69 -34,-13 -87,-20 -158,-20zm0 504c76,0 131,-7 164,-22 33,-15 50,-40 50,-76 0,-37 -17,-63 -50,-77 -33,-15 -88,-22 -164,-22 -77,0 -132,7 -164,22 -33,14 -50,40 -50,77 0,36 17,61 50,76 33,15 88,22 164,22zm1348 -470c85,0 153,18 204,54 51,36 76,90 76,161l0 374 -197 0 0 -310c0,-43 -13,-75 -41,-95 -27,-20 -67,-30 -119,-30 -51,0 -96,13 -133,39 -37,25 -56,64 -56,119l0 277 -196 0 0 -771 196 0 0 270 6 0c61,-58 148,-88 260,-88l0 0zm583 15l0 77 6 0c33,-31 71,-55 115,-69 45,-15 99,-23 163,-23 28,0 52,2 72,6l0 186c-37,-6 -72,-9 -105,-9 -73,0 -132,12 -178,39 -46,26 -70,75 -70,148l0 219 -195 0 0 -574 192 0 0 0zm928 171c-4,-27 -20,-45 -48,-56 -27,-10 -68,-15 -120,-15 -49,0 -84,5 -105,14 -21,8 -33,21 -33,38 0,14 6,25 17,31 11,7 30,11 58,13l261 23c70,6 122,22 156,49 35,27 52,71 52,133 0,51 -14,92 -43,120 -29,29 -71,48 -125,59 -55,10 -127,16 -216,16 -85,0 -155,-6 -209,-17 -55,-11 -98,-32 -129,-61 -31,-31 -48,-74 -50,-131l217 0c6,32 23,54 51,67 28,12 72,18 131,18 57,0 97,-5 121,-15 24,-10 35,-26 35,-47 0,-16 -5,-27 -16,-34 -12,-7 -30,-12 -57,-15l-247 -24c-72,-8 -126,-25 -162,-50 -36,-26 -54,-67 -54,-124 0,-70 29,-119 87,-145 59,-27 148,-40 267,-40 120,0 211,14 275,41 65,28 98,78 100,152l-214 0 0 0z"/>
   <path class="fil0" d="M276 3247l0 -100 48 0 0 279 -47 0 0 -29 -1 0c-10,11 -22,20 -36,26 -14,7 -31,10 -51,10 -37,0 -66,-10 -88,-29 -21,-20 -31,-46 -31,-81 0,-35 10,-61 31,-80 22,-20 51,-30 88,-30 37,0 66,12 85,34l2 0 0 0zm-78 146c25,0 44,-6 58,-19 14,-12 21,-29 21,-51 0,-21 -7,-38 -21,-51 -14,-13 -33,-19 -58,-19 -26,0 -45,5 -58,17 -13,12 -20,29 -20,53 0,23 7,41 20,53 13,11 32,17 58,17l0 0zm423 -71c0,4 -1,8 -1,13l-204 0c4,40 31,60 79,60 23,0 39,-3 50,-10 11,-7 17,-15 19,-24l54 0c-3,21 -14,38 -34,52 -19,13 -48,20 -89,20 -41,0 -73,-10 -96,-29 -23,-20 -34,-46 -34,-82 0,-35 11,-62 34,-81 22,-19 54,-29 94,-29 40,0 72,10 94,29 23,19 34,46 34,81l0 0zm-128 -72c-21,0 -37,4 -50,11 -13,9 -21,21 -25,37l150 0c-8,-33 -33,-48 -75,-48l0 0zm538 72c0,4 -1,8 -2,13l-203 0c4,40 31,60 80,60 21,0 38,-3 49,-10 11,-7 17,-15 19,-24l54 0c-3,21 -14,38 -33,52 -19,13 -49,20 -89,20 -42,0 -75,-10 -97,-29 -23,-20 -34,-46 -34,-82 0,-35 11,-62 33,-81 23,-19 54,-29 95,-29 40,0 72,10 94,29 22,19 34,46 34,81l0 0zm-128 -72c-21,0 -38,4 -51,11 -13,9 -20,21 -24,37l150 0c-8,-33 -33,-48 -75,-48l0 0zm216 -5l2 0c10,-11 23,-18 39,-23 15,-6 31,-9 50,-9 29,0 53,7 71,18 18,13 27,32 27,56l0 139 -49 0 0 -122c0,-18 -5,-31 -16,-39 -11,-8 -27,-12 -49,-12 -20,0 -37,5 -52,15 -15,11 -22,27 -22,48l0 110 -48 0 0 -207 47 0 0 26 0 0zm333 143c5,0 12,0 20,-1 7,0 14,-1 18,-2l0 41c-5,1 -12,2 -19,2 -8,1 -15,2 -22,2 -19,0 -34,-2 -45,-6 -11,-4 -18,-10 -23,-18 -5,-8 -7,-19 -7,-33l0 -120 -43 0 0 -34 43 0 0 -58 48 0 0 58 69 0 0 34 -69 0 0 112c0,9 3,15 7,18 4,4 12,5 23,5zm126 -169l0 27 1 0c11,-11 24,-19 39,-24 14,-6 32,-9 53,-9 12,0 22,1 30,3l0 47c-10,-2 -21,-3 -34,-3 -26,0 -47,4 -63,15 -17,10 -25,29 -25,56l0 95 -49 0 0 -207 48 0 0 0zm396 103c0,4 0,8 -1,13l-203 0c3,40 30,60 79,60 22,0 39,-3 49,-10 11,-7 18,-15 20,-24l54 0c-3,21 -15,38 -34,52 -19,13 -49,20 -89,20 -42,0 -74,-10 -97,-29 -22,-20 -33,-46 -33,-82 0,-35 11,-62 33,-81 23,-19 54,-29 95,-29 40,0 71,10 93,29 23,19 34,46 34,81l0 0zm-127 -72c-21,0 -38,4 -51,11 -13,9 -21,21 -24,37l150 0c-8,-33 -33,-48 -75,-48l0 0zm216 -5l1 0c11,-11 24,-18 39,-23 15,-6 32,-9 50,-9 30,0 54,7 72,18 17,13 26,32 26,56l0 139 -49 0 0 -122c0,-18 -5,-31 -15,-39 -11,-8 -27,-12 -49,-12 -21,0 -38,5 -52,15 -15,11 -22,27 -22,48l0 110 -49 0 0 -207 48 0 0 26 0 0zm462 148c0,7 1,14 2,19 0,5 2,9 4,12l0 2 -47 0c-4,-4 -5,-12 -5,-25l0 -6c-11,13 -24,22 -40,29 -17,6 -37,9 -61,9 -26,0 -48,-6 -64,-17 -16,-11 -24,-27 -24,-49 0,-21 6,-36 17,-46 12,-10 27,-16 44,-18l98 -9c8,-1 16,-3 20,-6 4,-3 5,-8 5,-15 0,-8 -4,-13 -13,-17 -9,-5 -23,-6 -43,-6 -21,0 -37,2 -48,7 -10,4 -16,13 -17,23l-51 0c0,-25 11,-42 31,-53 21,-10 48,-15 83,-15 37,0 64,4 83,13 17,9 26,25 26,48l0 120 0 0zm-48 -71c-3,2 -8,4 -17,5l-87 9c-10,2 -18,5 -24,9 -5,5 -8,12 -8,21 0,11 4,19 12,24 8,4 19,7 35,7 24,0 45,-5 63,-15 18,-10 26,-26 26,-48l0 -12 0 0zm147 -76l1 0c9,-11 21,-19 35,-24 14,-6 29,-9 46,-9 19,0 35,3 48,9 14,5 25,14 32,25 9,-11 22,-20 37,-25 16,-6 34,-9 52,-9 26,0 48,7 64,18 17,12 25,30 25,55l0 140 -49 0 0 -126c0,-31 -18,-47 -57,-47 -10,0 -20,3 -30,6 -9,4 -18,11 -24,19 -7,9 -10,19 -10,33l0 115 -48 0 0 -126c0,-31 -19,-47 -57,-47 -11,0 -20,3 -30,6 -10,4 -19,11 -24,19 -7,9 -10,19 -10,33l0 115 -49 0 0 -207 48 0 0 27 0 0zm391 -27l49 0 0 207 -49 0 0 -207zm-1 -74l50 0 0 39 -50 0 0 -39zm346 177c0,4 -1,8 -1,13l-204 0c4,40 31,60 80,60 22,0 38,-3 49,-10 11,-7 17,-15 19,-24l54 0c-3,21 -14,38 -33,52 -19,13 -49,20 -89,20 -42,0 -75,-10 -97,-29 -23,-20 -34,-46 -34,-82 0,-35 11,-62 34,-81 22,-19 53,-29 94,-29 40,0 72,10 94,29 23,19 34,46 34,81l0 0zm-128 -72c-21,0 -38,4 -51,11 -12,9 -21,21 -24,37l150 0c-8,-33 -33,-48 -75,-48l0 0zm216 -5l2 0c11,-11 23,-18 39,-23 15,-6 31,-9 50,-9 29,0 53,7 71,18 18,13 27,32 27,56l0 139 -49 0 0 -122c0,-18 -5,-31 -16,-39 -11,-8 -27,-12 -49,-12 -20,0 -37,5 -52,15 -15,11 -22,27 -22,48l0 110 -48 0 0 -207 47 0 0 26 0 0zm333 143c5,0 12,0 20,-1 7,0 14,-1 18,-2l0 41c-5,1 -11,2 -19,2 -8,1 -15,2 -22,2 -19,0 -34,-2 -45,-6 -10,-4 -19,-10 -23,-18 -4,-8 -7,-19 -7,-33l0 -120 -43 0 0 -34 43 0 0 -58 48 0 0 58 69 0 0 34 -69 0 0 112c0,9 3,15 7,18 4,4 12,5 23,5l0 0zm185 -176c41,0 74,10 96,29 23,19 34,46 34,81 0,36 -11,62 -34,82 -22,19 -55,29 -96,29 -42,0 -75,-10 -97,-29 -22,-20 -34,-46 -34,-82 0,-35 12,-62 34,-81 22,-19 55,-29 97,-29zm0 181c26,0 46,-6 59,-18 14,-12 20,-29 20,-53 0,-23 -6,-41 -20,-53 -13,-12 -33,-18 -59,-18 -27,0 -46,6 -60,18 -13,12 -20,30 -20,53 0,24 7,41 21,53 13,12 32,18 59,18z"/>
   <path class="fil1" d="M832 1664c0,10 -1,17 0,24 4,24 32,35 52,22 24,-16 28,-64 7,-83 -5,-3 -12,-5 -16,-4 -34,7 -68,15 -103,23 0,1 0,3 0,4 19,5 38,9 60,14l0 0zm-233 -152c1,-2 1,-3 2,-5 -7,-3 -14,-6 -21,-8 -64,-22 -129,-42 -192,-63 -11,-3 -21,-7 -32,-8 -35,-6 -68,17 -73,50 -7,35 14,67 48,76 17,4 34,4 49,10 45,20 76,8 104,-34 22,-34 55,-38 93,-23 7,2 15,3 22,5zm317 -603c-42,53 -42,106 -20,159 27,66 58,131 89,196 4,9 12,18 21,22 65,33 131,64 196,95 26,12 47,7 57,-12 10,-20 3,-39 -21,-53 -64,-38 -127,-74 -190,-112 -9,-5 -17,-14 -21,-23 -27,-75 -54,-150 -82,-225 -6,-15 -18,-28 -29,-47l0 0zm-490 2c-9,14 -20,25 -26,39 -28,77 -55,155 -84,231 -4,9 -11,17 -19,22 -64,38 -129,76 -194,114 -23,13 -29,32 -19,51 10,20 30,25 54,14 66,-32 132,-63 199,-95 8,-5 17,-14 21,-22 29,-62 59,-125 85,-189 11,-28 15,-61 16,-92 1,-26 -9,-52 -33,-73l0 0zm88 753c7,-2 14,-4 21,-5 157,-35 315,-70 473,-105 37,-8 60,-42 53,-77 -9,-36 -43,-57 -81,-49 -7,2 -14,4 -21,7 -113,37 -226,73 -339,110 -20,7 -38,10 -57,-2 -19,-11 -36,-6 -50,11 -19,24 -41,47 -59,72 -8,12 -14,29 -15,43 -1,27 18,46 39,46 22,0 33,-14 34,-45 0,-1 0,-3 2,-6l0 0zm307 -1067c0,-83 -68,-150 -150,-150 -83,1 -150,70 -150,151 1,83 69,150 151,150 84,-2 149,-68 149,-151zm61 822c-43,-93 -45,-189 -37,-285 2,-25 9,-51 5,-75 -9,-61 -13,-119 32,-170 -37,-18 -71,-35 -105,-50 -28,-11 -49,-23 -43,-57 1,-1 -1,-3 1,0l-127 0c0,1 -1,6 -1,8 5,24 -7,34 -27,43 -39,16 -77,35 -115,54 36,70 39,88 32,135 -5,36 -3,70 1,105 3,37 3,75 3,112 -2,62 -13,122 -40,180 70,23 138,45 205,67 3,1 8,0 11,0 68,-23 135,-44 205,-67l0 0zm-4 -272c3,50 3,101 9,151 4,32 16,62 25,93 4,13 11,14 24,11 25,-5 53,-14 79,-11 49,4 83,46 85,94 2,49 -27,91 -74,104 -31,9 -63,15 -91,22 2,25 8,49 5,72 -3,39 -30,65 -62,70 -38,6 -63,-9 -82,-48 -3,-6 -10,-11 -16,-12 -33,-9 -65,-16 -99,-23 -9,-1 -19,0 -27,2 -21,4 -43,9 -64,14 -23,4 -42,8 -52,35 -12,29 -48,39 -79,31 -30,-7 -56,-37 -58,-73 -1,-22 4,-43 7,-69 -25,-5 -54,-11 -83,-18 -52,-13 -86,-57 -82,-109 4,-52 43,-91 98,-95 14,-1 28,3 42,6 13,3 26,8 38,11 35,-51 54,-190 36,-262 -4,9 -7,14 -10,20 -20,44 -39,87 -59,130 -5,9 -13,18 -22,22 -69,35 -140,68 -210,101 -44,21 -86,9 -106,-29 -21,-39 -7,-80 36,-105 59,-34 117,-68 175,-103 11,-7 20,-19 25,-30 28,-73 53,-146 80,-219 15,-38 46,-63 81,-80 34,-17 69,-31 105,-47 22,-11 25,-39 5,-55 -66,-54 -90,-135 -65,-211 27,-77 98,-128 178,-128 80,-1 151,49 179,123 27,76 4,161 -58,212 -7,6 -14,14 -16,22 -5,19 1,32 22,40 33,13 65,28 96,42 45,21 74,55 91,101 24,67 48,134 73,200 5,12 15,24 25,30 61,36 122,71 183,107 30,19 43,50 35,84 -7,31 -33,55 -66,56 -15,1 -30,-2 -43,-8 -72,-33 -143,-67 -213,-102 -10,-4 -18,-14 -23,-23 -23,-49 -45,-98 -67,-147 -3,0 -7,0 -10,1l0 0z"/>
   <path class="fil1" d="M873 121c-26,14 -51,28 -76,40 -14,8 -14,17 -7,30 21,41 36,82 10,127 0,0 0,1 1,2 54,-30 89,-120 72,-199l0 0zm-403 -1c-13,64 10,172 68,196 -3,-22 -9,-46 -6,-70 4,-24 18,-48 28,-76 -28,-16 -58,-32 -90,-50zm201 -41c-44,56 -82,112 -102,179 -2,7 0,15 2,22 15,47 50,73 98,74 47,1 83,-23 101,-67 3,-8 7,-19 4,-27 -19,-68 -57,-124 -103,-181zm-239 -6c32,10 57,16 80,26 24,10 46,24 68,37 29,-38 58,-77 91,-119 33,42 62,80 93,120 42,-31 88,-53 141,-59 56,135 -37,294 -182,311 -37,4 -76,4 -112,-2 -113,-19 -177,-94 -183,-212 -2,-32 2,-64 4,-102l0 0z"/>
   <path class="fil1" d="M77 1232c-8,4 -18,7 -29,12 -120,-286 -18,-695 340,-876 5,11 11,21 15,30 -319,195 -426,472 -326,834l0 0z"/>
   <path class="fil1" d="M1272 1244c-9,-3 -17,-6 -26,-10 -2,0 -4,-2 -3,-2 98,-360 -7,-637 -327,-834 4,-7 8,-17 14,-28 307,137 478,533 342,874l0 0z"/>
   <polygon class="fil1" points="654,142 688,142 688,285 654,285 "/>
   <g id="_2734299051824">
    <path class="fil0" d="M1831 6575l0 761 -200 0 0 -309 -486 0 0 309 -201 0 0 -761 201 0 0 291 486 0 0 -291 200 0zm500 164c134,0 234,27 301,81 67,54 100,130 100,228 0,100 -33,176 -100,230 -67,53 -167,79 -301,79 -134,0 -235,-26 -301,-79 -67,-54 -101,-130 -101,-230 0,-98 34,-174 101,-228 66,-54 167,-81 301,-81zm0 476c131,0 196,-56 196,-167 0,-110 -65,-165 -196,-165 -131,0 -196,55 -196,165 0,111 65,167 196,167zm986 -283c-4,-26 -19,-44 -48,-55 -27,-10 -67,-15 -120,-15 -49,0 -84,5 -105,13 -21,9 -33,22 -33,39 0,14 6,25 17,31 11,7 30,11 59,13l260 22c70,7 122,23 156,50 35,27 52,71 52,133 0,51 -14,92 -43,120 -29,29 -71,48 -125,59 -55,10 -127,15 -215,15 -85,0 -156,-5 -210,-16 -55,-11 -98,-32 -129,-62 -31,-30 -48,-74 -50,-130l217 0c6,32 23,54 51,66 28,13 72,19 131,19 57,0 97,-5 121,-15 24,-10 36,-26 36,-47 0,-16 -6,-27 -17,-34 -12,-7 -30,-12 -57,-15l-247 -24c-72,-8 -126,-25 -162,-51 -36,-25 -54,-66 -54,-123 0,-71 29,-119 88,-146 58,-26 147,-40 266,-40 120,0 211,15 276,42 64,28 97,78 99,151l-214 0 0 0zm522 340l0 261 -197 0 0 -771 193 0 0 78 5 0c57,-62 138,-93 245,-93 111,0 196,26 257,79 61,53 91,129 91,226 0,98 -30,173 -91,226 -61,53 -146,79 -257,79 -102,0 -182,-28 -240,-85l-6 0 0 0zm194 -381c-65,0 -115,14 -149,43 -34,29 -51,68 -51,118 0,50 17,90 51,119 34,29 84,44 149,44 129,0 194,-54 194,-163 0,-52 -16,-93 -47,-120 -32,-28 -80,-41 -147,-41zm1264 157c0,14 0,30 -2,47l-589 0c6,46 24,79 56,102 32,21 78,33 140,33 56,0 97,-8 123,-23 26,-16 41,-32 45,-50l220 0c-15,133 -144,200 -388,200 -135,0 -236,-26 -302,-79 -67,-54 -101,-130 -101,-230 0,-98 33,-174 100,-228 66,-54 166,-81 300,-81 132,0 231,27 298,81 67,54 100,130 100,228l0 0zm-398 -180c-55,0 -98,9 -129,27 -30,17 -51,44 -60,80l375 0c-10,-36 -30,-63 -60,-80 -30,-18 -73,-27 -126,-27zm1059 -36l0 -267 196 0 0 771 -193 0 0 -70 -6 0c-56,61 -137,91 -243,91 -111,0 -197,-26 -258,-79 -60,-53 -91,-128 -91,-226 0,-97 31,-173 91,-226 61,-53 147,-79 258,-79 101,0 181,28 239,85l7 0 0 0zm-194 383c64,0 114,-15 148,-44 34,-29 51,-69 51,-119 0,-50 -17,-89 -51,-118 -34,-29 -84,-43 -148,-43 -67,0 -116,13 -148,41 -31,27 -47,68 -47,120 0,109 65,163 195,163zm1220 29c0,20 1,38 3,52 2,14 7,25 13,34l0 6 -193 0c-5,-5 -9,-13 -11,-24 -3,-11 -5,-23 -5,-38l0 -19c-55,68 -152,102 -290,102 -78,0 -142,-15 -190,-46 -49,-31 -74,-77 -74,-140 0,-60 16,-103 50,-131 33,-29 78,-46 136,-51l290 -26c23,-1 40,-5 50,-13 10,-7 16,-17 16,-32 0,-17 -12,-30 -33,-39 -21,-8 -55,-13 -103,-13 -49,0 -85,5 -111,16 -25,10 -40,27 -45,53l-211 0c2,-74 35,-125 96,-153 62,-28 150,-43 264,-43 77,0 141,5 191,15 50,9 89,27 116,53 27,26 41,63 41,111l0 326 0 0zm-196 -185c-6,3 -14,7 -24,9 -9,3 -19,4 -29,6l-207 25c-28,3 -50,10 -64,21 -14,10 -21,26 -21,48 0,25 9,42 28,53 20,10 49,15 88,15 63,0 117,-12 162,-36 45,-24 67,-63 67,-115l0 -26 0 0zm220 329c31,0 53,-3 67,-11 14,-7 21,-21 21,-42l0 -573 196 0 0 622c0,43 -8,76 -23,99 -16,24 -41,40 -76,50 -35,10 -84,14 -146,14 -53,0 -91,-1 -113,-4l0 -157c17,2 42,2 74,2l0 0zm86 -827l200 0 0 123 -200 0 0 -123zm1084 487c0,14 0,30 -2,47l-589 0c6,46 25,79 56,102 31,21 78,33 140,33 56,0 97,-8 123,-23 26,-16 41,-32 46,-50l219 0c-14,133 -144,200 -388,200 -135,0 -236,-26 -303,-79 -67,-54 -99,-130 -99,-230 0,-98 32,-174 99,-228 67,-54 166,-81 300,-81 132,0 231,27 298,81 67,54 100,130 100,228l0 0zm-398 -180c-55,0 -97,9 -129,27 -31,17 -51,44 -60,80l375 0c-10,-36 -30,-63 -60,-80 -30,-18 -72,-27 -126,-27l0 0z"/>
    <path class="fil0" d="M1184 7697l-125 0 0 232 -49 0 0 -232 -126 0 0 -44 300 0 0 44zm44 24l0 28 1 0c11,-11 24,-19 38,-25 15,-6 33,-8 54,-8 12,0 22,1 30,3l0 47c-10,-2 -22,-4 -34,-4 -26,0 -47,5 -63,16 -17,10 -25,28 -25,56l0 95 -49 0 0 -208 48 0 0 0zm369 174c0,8 0,15 2,19 0,6 2,10 4,13l0 2 -47 0c-4,-4 -6,-12 -6,-25l0 -6c-10,13 -23,22 -39,29 -17,5 -37,8 -61,8 -27,0 -48,-5 -64,-16 -16,-11 -24,-28 -24,-49 0,-21 6,-36 17,-46 12,-11 26,-16 44,-18l98 -10c8,0 15,-3 19,-5 4,-3 6,-9 6,-15 0,-8 -4,-14 -13,-18 -9,-4 -23,-6 -44,-6 -20,0 -36,3 -47,7 -10,5 -16,13 -17,24l-51 0c0,-25 11,-42 31,-53 21,-10 48,-15 83,-15 37,0 64,4 82,13 18,9 27,25 27,48l0 119 0 0zm-48 -70c-3,2 -9,4 -17,5l-87 9c-10,1 -18,4 -24,9 -6,5 -8,12 -8,21 0,11 3,19 12,24 8,4 19,7 35,7 24,0 45,-5 63,-15 17,-10 26,-26 26,-48l0 -12 0 0zm267 -41c0,-12 -6,-20 -18,-26 -11,-4 -28,-7 -49,-7 -20,0 -35,2 -45,6 -9,5 -13,11 -13,19 0,6 2,11 7,15 4,2 13,4 24,5l87 9c21,2 38,7 49,17 12,8 17,24 17,44 0,26 -10,44 -30,54 -20,10 -50,15 -90,15 -39,0 -70,-5 -91,-16 -21,-11 -32,-31 -33,-60l51 0c1,15 8,25 20,31 13,5 31,8 54,8 45,0 67,-9 67,-29 0,-8 -2,-13 -7,-16 -5,-4 -13,-6 -24,-7l-85 -9c-22,-2 -38,-8 -50,-17 -11,-8 -17,-22 -17,-42 0,-23 9,-39 28,-48 19,-10 46,-15 81,-15 37,0 65,5 86,16 21,10 32,28 32,53l-51 0 0 0zm99 -134l49 0 0 279 -49 0 0 -279zm323 245c0,8 0,15 1,19 1,6 3,10 5,13l0 2 -47 0c-4,-4 -6,-12 -6,-25l0 -6c-10,13 -24,22 -40,29 -16,5 -36,8 -60,8 -26,0 -48,-5 -64,-16 -16,-11 -24,-28 -24,-49 0,-21 5,-36 17,-46 11,-11 26,-16 44,-18l97 -10c9,0 16,-3 20,-5 4,-3 6,-9 6,-15 0,-8 -4,-14 -13,-18 -9,-4 -24,-6 -44,-6 -20,0 -36,3 -47,7 -11,5 -17,13 -17,24l-52 0c1,-25 11,-42 32,-53 20,-10 48,-15 83,-15 37,0 64,4 82,13 18,9 27,25 27,48l0 119 0 0zm-48 -70c-3,2 -9,4 -17,5l-87 9c-11,1 -18,4 -24,9 -5,5 -8,12 -8,21 0,11 4,19 11,24 9,4 20,7 35,7 25,0 46,-5 64,-15 17,-10 26,-26 26,-48l0 -12zm295 -75l0 -100 49 0 0 279 -48 0 0 -29 -1 0c-9,11 -21,20 -35,26 -15,6 -32,9 -52,9 -37,0 -66,-9 -87,-28 -21,-20 -32,-47 -32,-81 0,-35 11,-61 32,-81 21,-19 50,-29 87,-29 38,0 67,12 86,34l1 0 0 0zm-77 146c24,0 44,-6 58,-19 14,-13 20,-30 20,-51 0,-21 -6,-38 -20,-51 -14,-13 -34,-20 -58,-20 -26,0 -45,6 -58,18 -13,12 -20,29 -20,53 0,23 7,41 20,52 13,12 32,18 58,18l0 0zm297 -181c42,0 74,9 97,29 22,19 34,46 34,81 0,35 -12,62 -34,82 -23,19 -55,28 -97,28 -42,0 -74,-9 -96,-28 -23,-20 -34,-47 -34,-82 0,-35 11,-62 34,-81 22,-20 54,-29 96,-29zm0 181c26,0 46,-6 59,-18 14,-12 21,-29 21,-53 0,-23 -7,-41 -20,-53 -14,-12 -34,-18 -60,-18 -26,0 -46,6 -59,18 -14,12 -20,30 -20,53 0,24 6,41 20,53 13,12 33,18 59,18zm231 22c0,28 -4,48 -14,61 -8,12 -23,18 -44,19l0 -22c10,-1 17,-4 21,-11 4,-7 6,-19 6,-36l-27 0 0 -54 58 0 0 43zm400 -23c0,8 0,15 1,19 0,6 2,10 5,13l0 2 -48 0c-3,-4 -5,-12 -5,-25l0 -6c-11,13 -24,22 -40,29 -17,5 -36,8 -60,8 -27,0 -49,-5 -65,-16 -16,-11 -24,-28 -24,-49 0,-21 6,-36 18,-46 11,-11 25,-16 44,-18l97 -10c9,0 15,-3 19,-5 5,-3 7,-9 7,-15 0,-8 -5,-14 -14,-18 -9,-4 -23,-6 -43,-6 -21,0 -37,3 -48,7 -10,5 -16,13 -17,24l-51 0c0,-25 11,-42 31,-53 21,-10 48,-15 84,-15 36,0 64,4 81,13 18,9 28,25 28,48l0 119 0 0zm-48 -70c-4,2 -10,4 -18,5l-87 9c-10,1 -18,4 -24,9 -5,5 -8,12 -8,21 0,11 4,19 12,24 8,4 20,7 35,7 25,0 46,-5 63,-15 18,-10 27,-26 27,-48l0 -12zm99 -175l48 0 0 279 -48 0 0 -279zm219 65c42,0 74,9 97,29 22,19 34,46 34,81 0,35 -12,62 -34,82 -23,19 -55,28 -97,28 -42,0 -74,-9 -96,-28 -23,-20 -34,-47 -34,-82 0,-35 11,-62 34,-81 22,-20 54,-29 96,-29zm0 181c26,0 46,-6 60,-18 13,-12 20,-29 20,-53 0,-23 -7,-41 -20,-53 -14,-12 -34,-18 -60,-18 -26,0 -46,6 -59,18 -14,12 -20,30 -20,53 0,24 7,41 20,53 14,12 33,18 59,18zm135 69c13,0 23,-2 28,-4 6,-4 9,-10 9,-19l0 -221 48 0 0 233c0,12 -3,23 -7,31 -5,7 -13,12 -24,16 -11,4 -25,5 -43,5 -8,0 -15,0 -23,0 -8,-1 -13,-1 -17,-2l0 -41c4,0 8,1 15,2 6,0 11,0 14,0zm35 -317l51 0 0 39 -51 0 0 -39zm324 247c0,8 1,15 1,19 1,6 3,10 5,13l0 2 -47 0c-4,-4 -6,-12 -6,-25l0 -6c-10,13 -23,22 -40,29 -16,5 -36,8 -59,8 -27,0 -49,-5 -65,-16 -16,-11 -25,-28 -25,-49 0,-21 6,-36 18,-46 12,-11 26,-16 45,-18l96 -10c10,0 16,-3 20,-5 4,-3 6,-9 6,-15 0,-8 -4,-14 -13,-18 -9,-4 -23,-6 -44,-6 -20,0 -36,3 -47,7 -11,5 -17,13 -17,24l-51 0c0,-25 10,-42 31,-53 20,-10 48,-15 84,-15 36,0 63,4 81,13 18,9 27,25 27,48l0 119 0 0zm-48 -70c-3,2 -9,4 -18,5l-86 9c-10,1 -19,4 -24,9 -6,5 -9,12 -9,21 0,11 5,19 13,24 7,4 19,7 34,7 25,0 46,-5 64,-15 17,-10 26,-26 26,-48l0 -12 0 0zm147 -76l1 0c9,-11 20,-19 34,-25 14,-5 30,-8 47,-8 18,0 34,3 48,9 14,5 24,13 31,25 10,-12 23,-20 38,-26 16,-5 33,-8 52,-8 26,0 48,7 64,18 16,12 25,30 25,55l0 140 -49 0 0 -126c0,-31 -19,-47 -57,-47 -10,0 -20,2 -30,6 -10,4 -18,10 -24,19 -7,8 -10,19 -10,32l0 116 -49 0 0 -126c0,-31 -18,-47 -56,-47 -10,0 -21,2 -31,6 -9,4 -17,10 -24,19 -6,8 -9,19 -9,32l0 116 -49 0 0 -208 48 0 0 28 0 0zm391 -28l48 0 0 208 -48 0 0 -208zm-1 -73l50 0 0 39 -50 0 0 -39zm345 177c0,4 0,8 0,12l-204 0c4,41 30,61 79,61 23,0 39,-4 50,-10 10,-7 17,-15 18,-24l55 0c-3,20 -14,37 -33,51 -20,13 -50,20 -90,20 -42,0 -74,-9 -96,-28 -23,-20 -34,-47 -34,-82 0,-35 11,-62 33,-81 22,-20 54,-29 94,-29 42,0 73,9 95,29 22,19 33,46 33,81l0 0zm-128 -73c-20,0 -37,4 -50,12 -12,8 -20,21 -24,37l150 0c-8,-33 -33,-49 -76,-49l0 0zm217 -4l2 0c10,-11 23,-18 38,-24 15,-5 32,-8 51,-8 29,0 53,7 71,18 18,13 27,31 27,56l0 139 -49 0 0 -122c0,-18 -5,-31 -16,-39 -11,-8 -27,-12 -49,-12 -20,0 -38,5 -52,15 -14,11 -22,27 -22,48l0 110 -49 0 0 -208 48 0 0 27 0 0zm333 143c6,0 12,0 20,-1 7,0 13,-2 17,-2l0 41c-4,1 -11,2 -18,2 -8,1 -15,1 -22,1 -19,0 -34,-1 -45,-5 -11,-4 -18,-10 -23,-18 -5,-8 -7,-19 -7,-33l0 -120 -43 0 0 -35 43 0 0 -57 48 0 0 57 68 0 0 35 -68 0 0 112c0,9 2,15 7,18 4,3 12,5 23,5zm184 -176c42,0 74,9 97,29 22,19 34,46 34,81 0,35 -12,62 -34,82 -23,19 -55,28 -97,28 -42,0 -73,-9 -96,-28 -23,-20 -34,-47 -34,-82 0,-35 11,-62 34,-81 23,-20 54,-29 96,-29zm0 181c26,0 46,-6 60,-18 13,-12 20,-29 20,-53 0,-23 -7,-41 -20,-53 -14,-12 -33,-18 -60,-18 -26,0 -46,6 -59,18 -13,12 -20,30 -20,53 0,24 7,41 20,53 14,12 34,18 59,18zm425 51c-11,22 -24,38 -38,46 -14,9 -32,13 -57,13 -17,0 -30,0 -39,-1l0 -43c5,1 11,1 18,2 7,1 13,1 18,1 10,0 19,-2 25,-5 7,-3 13,-9 17,-18l8 -16 -103 -205 55 0 77 158 1 0 77 -158 55 0 -114 226 0 0zm491 -52c0,8 0,15 1,19 1,6 2,10 4,13l0 2 -46 0c-4,-4 -6,-12 -6,-25l0 -6c-10,13 -24,22 -40,29 -16,5 -36,8 -60,8 -27,0 -48,-5 -64,-16 -17,-11 -25,-28 -25,-49 0,-21 6,-36 17,-46 12,-11 27,-16 45,-18l97 -10c9,0 16,-3 20,-5 4,-3 6,-9 6,-15 0,-8 -5,-14 -13,-18 -9,-4 -24,-6 -44,-6 -21,0 -37,3 -47,7 -11,5 -17,13 -18,24l-51 0c1,-25 11,-42 32,-53 20,-10 48,-15 83,-15 36,0 63,4 82,13 18,9 27,25 27,48l0 119 0 0zm-49 -70c-2,2 -8,4 -17,5l-86 9c-11,1 -18,4 -24,9 -6,5 -9,12 -9,21 0,11 4,19 12,24 8,4 20,7 35,7 25,0 46,-5 64,-15 17,-10 25,-26 25,-48l0 -12 0 0zm100 -175l48 0 0 279 -48 0 0 -279zm99 71l49 0 0 208 -49 0 0 -208zm0 -73l49 0 0 39 -49 0 0 -39zm147 101l2 0c8,-11 20,-19 34,-25 14,-5 29,-8 46,-8 19,0 35,3 48,9 15,5 25,13 32,25 10,-12 22,-20 38,-26 15,-5 32,-8 51,-8 27,0 48,7 65,18 16,12 24,30 24,55l0 140 -48 0 0 -126c0,-31 -19,-47 -57,-47 -11,0 -21,2 -31,6 -9,4 -17,10 -24,19 -6,8 -10,19 -10,32l0 116 -48 0 0 -126c0,-31 -19,-47 -57,-47 -10,0 -20,2 -30,6 -10,4 -18,10 -24,19 -7,8 -9,19 -9,32l0 116 -49 0 0 -208 47 0 0 28 0 0zm636 76c0,4 0,8 0,12l-204 0c4,41 30,61 80,61 22,0 38,-4 49,-10 10,-7 17,-15 19,-24l54 0c-3,20 -14,37 -33,51 -20,13 -50,20 -89,20 -43,0 -75,-9 -97,-28 -22,-20 -34,-47 -34,-82 0,-35 11,-62 33,-81 23,-20 54,-29 95,-29 41,0 72,9 94,29 22,19 33,46 33,81l0 0zm-127 -73c-21,0 -38,4 -51,12 -12,8 -20,21 -24,37l150 0c-8,-33 -33,-49 -75,-49l0 0zm216 -4l2 0c10,-11 23,-18 38,-24 16,-5 33,-8 51,-8 29,0 53,7 71,18 18,13 27,31 27,56l0 139 -49 0 0 -122c0,-18 -5,-31 -16,-39 -11,-8 -27,-12 -49,-12 -20,0 -38,5 -52,15 -14,11 -22,27 -22,48l0 110 -49 0 0 -208 48 0 0 27 0 0zm333 143c6,0 12,0 20,-1 7,0 13,-2 17,-2l0 41c-4,1 -11,2 -18,2 -8,1 -15,1 -22,1 -19,0 -34,-1 -45,-5 -11,-4 -18,-10 -23,-18 -5,-8 -7,-19 -7,-33l0 -120 -43 0 0 -35 43 0 0 -57 48 0 0 57 69 0 0 35 -69 0 0 112c0,9 2,15 7,18 4,3 12,5 23,5zm301 4c0,8 1,15 1,19 2,6 3,10 5,13l0 2 -47 0c-4,-4 -6,-12 -6,-25l0 -6c-10,13 -23,22 -40,29 -15,5 -36,8 -59,8 -27,0 -49,-5 -65,-16 -16,-11 -24,-28 -24,-49 0,-21 5,-36 17,-46 12,-11 27,-16 45,-18l96 -10c10,0 16,-3 20,-5 4,-3 6,-9 6,-15 0,-8 -4,-14 -13,-18 -8,-4 -23,-6 -44,-6 -20,0 -36,3 -47,7 -11,5 -16,13 -17,24l-51 0c0,-25 11,-42 31,-53 20,-10 49,-15 84,-15 36,0 63,4 81,13 18,9 27,25 27,48l0 119 0 0zm-48 -70c-3,2 -9,4 -17,5l-87 9c-10,1 -18,4 -24,9 -6,5 -8,12 -8,21 0,11 4,19 12,24 7,4 19,7 34,7 26,0 46,-5 64,-15 17,-10 26,-26 26,-48l0 -12 0 0zm218 71c24,0 42,-4 53,-12 11,-8 18,-19 20,-32l54 0c-4,25 -15,45 -36,60 -20,16 -50,23 -91,23 -41,0 -73,-9 -95,-28 -23,-20 -34,-47 -34,-81 0,-36 11,-63 34,-82 22,-20 54,-29 95,-29 41,0 71,7 90,22 20,15 33,35 36,61l-54 0c-2,-14 -8,-24 -20,-32 -10,-8 -28,-12 -52,-12 -26,0 -45,6 -58,18 -13,12 -20,30 -20,54 0,23 7,40 20,52 13,12 32,18 58,18l0 0zm168 -175l49 0 0 208 -49 0 0 -208zm-1 -73l51 0 0 39 -51 0 0 -39zm221 67c42,0 74,9 96,29 23,19 34,46 34,81 0,35 -11,62 -34,82 -22,19 -54,28 -96,28 -42,0 -74,-9 -96,-28 -23,-20 -34,-47 -34,-82 0,-35 11,-62 34,-81 22,-20 54,-29 96,-29zm0 181c26,0 45,-6 59,-18 13,-12 20,-29 20,-53 0,-23 -6,-41 -19,-53 -14,-12 -34,-18 -60,-18 -26,0 -46,6 -59,18 -14,12 -20,30 -20,53 0,24 6,41 20,53 13,12 33,18 59,18zm21 -196l-42 0 34 -60 70 0 -62 60zm197 48l2 0c11,-11 24,-18 39,-24 15,-5 32,-8 50,-8 30,0 54,7 71,18 18,13 27,31 27,56l0 139 -49 0 0 -122c0,-18 -5,-31 -16,-39 -10,-8 -27,-12 -48,-12 -21,0 -38,5 -53,15 -14,11 -21,27 -21,48l0 110 -49 0 0 -208 47 0 0 27 0 0z"/>
    <path class="fil0" d="M1093 8119l0 -101 49 0 0 280 -47 0 0 -30 -2 0c-9,11 -21,20 -35,27 -15,6 -32,9 -51,9 -38,0 -67,-10 -88,-29 -21,-19 -32,-46 -32,-81 0,-34 11,-61 32,-80 21,-19 50,-29 88,-29 37,0 65,11 85,34l1 0 0 0zm-77 146c25,0 44,-7 57,-20 14,-12 22,-29 22,-51 0,-21 -8,-38 -22,-51 -13,-12 -32,-19 -57,-19 -26,0 -45,6 -59,18 -13,11 -19,29 -19,52 0,24 6,42 19,53 14,12 33,18 59,18l0 0zm422 -71c0,3 0,7 -1,12l-204 0c5,41 31,61 80,61 22,0 39,-4 49,-10 11,-7 17,-16 19,-25l55 0c-3,21 -14,38 -34,52 -19,13 -49,20 -89,20 -42,0 -74,-10 -97,-29 -22,-19 -33,-47 -33,-81 0,-35 11,-62 33,-82 22,-19 54,-28 94,-28 41,0 72,9 95,28 22,20 33,47 33,82l0 0zm-128 -73c-20,0 -37,4 -50,12 -12,8 -21,20 -24,36l149 0c-7,-32 -32,-48 -75,-48l0 0zm340 -5l1 0c11,-10 24,-18 39,-23 16,-5 32,-8 51,-8 29,0 53,6 71,18 18,12 26,30 26,56l0 139 -48 0 0 -122c0,-18 -5,-31 -16,-40 -11,-7 -27,-11 -49,-11 -20,0 -37,5 -52,15 -15,10 -22,26 -22,47l0 111 -48 0 0 -208 47 0 0 26 0 0zm239 -26l49 0 0 208 -49 0 0 -208zm0 -73l50 0 0 39 -50 0 0 -39zm344 73l-104 208 -57 0 -104 -208 55 0 76 158 2 0 77 -158 55 0 0 0zm258 104c0,3 0,7 0,12l-204 0c4,41 30,61 80,61 22,0 38,-4 49,-10 10,-7 17,-16 19,-25l54 0c-3,21 -14,38 -33,52 -20,13 -50,20 -89,20 -43,0 -75,-10 -97,-29 -22,-19 -34,-47 -34,-81 0,-35 11,-62 33,-82 23,-19 54,-28 95,-28 41,0 72,9 94,28 22,20 33,47 33,82l0 0zm-127 -73c-21,0 -38,4 -51,12 -12,8 -20,20 -24,36l150 0c-8,-32 -33,-48 -75,-48l0 0zm169 -103l48 0 0 280 -48 0 0 -280zm468 176c0,3 -1,7 -1,12l-204 0c4,41 31,61 80,61 22,0 39,-4 49,-10 11,-7 17,-16 19,-25l55 0c-3,21 -14,38 -34,52 -19,13 -49,20 -89,20 -42,0 -74,-10 -97,-29 -22,-19 -34,-47 -34,-81 0,-35 11,-62 34,-82 22,-19 54,-28 94,-28 41,0 72,9 95,28 22,20 33,47 33,82l0 0zm-128 -73c-20,0 -37,4 -50,12 -13,8 -21,20 -24,36l149 0c-7,-32 -32,-48 -75,-48l0 0zm133 212c13,0 22,-1 28,-4 5,-3 8,-9 8,-18l0 -221 49 0 0 232c0,13 -3,24 -7,31 -6,8 -13,13 -24,17 -11,3 -26,5 -44,5 -7,0 -14,-1 -22,-1 -8,0 -14,-1 -17,-1l0 -41c3,0 8,1 14,1 6,0 11,0 15,0l0 0zm35 -316l50 0 0 39 -50 0 0 -39zm346 177c0,3 0,7 -1,12l-203 0c3,41 30,61 79,61 22,0 38,-4 49,-10 11,-7 18,-16 19,-25l54 0c-3,21 -14,38 -33,52 -19,13 -49,20 -89,20 -42,0 -74,-10 -97,-29 -22,-19 -33,-47 -33,-81 0,-35 11,-62 33,-82 22,-19 53,-28 94,-28 41,0 72,9 94,28 23,20 34,47 34,82l0 0zm-128 -73c-21,0 -38,4 -50,12 -13,8 -21,20 -25,36l150 0c-7,-32 -32,-48 -75,-48l0 0zm288 144c24,0 42,-4 52,-13 12,-7 19,-18 21,-32l54 0c-4,25 -16,46 -36,61 -20,15 -50,23 -91,23 -41,0 -73,-10 -95,-29 -23,-19 -34,-46 -34,-81 0,-35 11,-62 33,-82 22,-19 55,-28 96,-28 40,0 71,7 91,22 19,15 31,35 35,60l-54 0c-2,-13 -9,-24 -20,-32 -11,-8 -28,-11 -52,-11 -26,0 -45,6 -58,18 -13,12 -20,29 -20,53 0,23 7,41 20,53 13,12 32,18 58,18l0 0zm357 6l-2 0c-11,10 -23,18 -39,24 -15,5 -32,7 -50,7 -29,0 -54,-6 -71,-18 -18,-12 -27,-30 -27,-55l0 -139 49 0 0 122c0,18 5,31 16,39 11,8 27,11 48,11 21,0 38,-4 53,-15 14,-10 22,-26 22,-47l0 -110 48 0 0 208 -47 0 0 -27zm198 -11c5,0 12,0 20,-1 7,-1 13,-2 17,-2l0 41c-4,0 -11,1 -18,2 -8,1 -15,1 -22,1 -19,0 -34,-2 -45,-6 -11,-3 -18,-9 -23,-17 -5,-9 -7,-20 -7,-34l0 -119 -43 0 0 -35 43 0 0 -57 48 0 0 57 69 0 0 35 -69 0 0 112c0,8 2,14 7,18 4,3 12,5 23,5zm78 -170l48 0 0 208 -48 0 0 -208zm-1 -73l51 0 0 39 -51 0 0 -39zm344 73l-104 208 -56 0 -104 -208 54 0 77 158 1 0 78 -158 54 0 0 0zm134 -6c42,0 74,9 97,28 22,20 33,47 33,82 0,34 -11,62 -33,81 -23,19 -55,29 -97,29 -42,0 -74,-10 -97,-29 -22,-19 -33,-47 -33,-81 0,-35 11,-62 33,-82 23,-19 55,-28 97,-28zm0 181c26,0 46,-6 59,-18 14,-12 21,-30 21,-53 0,-24 -7,-41 -21,-53 -13,-12 -33,-18 -59,-18 -26,0 -46,6 -59,18 -14,12 -20,29 -20,53 0,23 6,41 20,53 13,12 33,18 59,18z"/>
    <path class="fil2" d="M1854 5939l115 0 0 -390 -115 0 0 390zm174 0c11,0 19,1 27,1 88,0 177,0 265,1 26,1 31,-9 31,-32 -1,-170 0,-339 0,-508 0,-19 -7,-29 -21,-39 -132,-85 -264,-171 -395,-257 -16,-11 -27,-12 -44,-1 -129,86 -259,171 -390,255 -18,12 -25,24 -25,47 1,166 0,333 0,500 0,10 1,21 1,33l324 0 0 -442 227 0 0 442 0 0zm762 -1012c7,-3 10,-3 12,-4 71,-52 141,-104 211,-157 22,-16 30,-2 40,11 9,13 11,22 -5,34 -81,58 -161,118 -241,178 -9,7 -16,22 -17,33 -1,75 0,149 0,224l0 40c71,-4 132,-23 192,-55 218,-117 311,-391 190,-620 -117,-220 -376,-308 -601,-206 -216,99 -325,341 -246,569 62,179 195,282 384,311 19,3 28,-2 27,-23 -1,-36 2,-73 -1,-109 -1,-16 -8,-34 -18,-46 -51,-57 -102,-113 -154,-168 -17,-17 -5,-25 7,-37 12,-13 22,-16 34,-2 11,14 23,27 35,39 30,32 59,65 89,96 3,0 5,-1 7,-3l0 -204 55 0 0 99 0 0zm-385 1013c48,0 92,0 137,0 57,0 114,0 170,1 16,0 24,-4 24,-22 -1,-188 -1,-378 -1,-567 0,-1 -1,-3 -3,-8 -174,-17 -314,-97 -410,-247 -74,-117 -95,-246 -66,-380 51,-237 261,-417 522,-409 267,9 466,210 497,452 35,271 -155,559 -484,586l0 594 34 0c188,0 376,1 564,0 22,0 31,5 31,29 0,25 -11,29 -33,29 -823,-1 -1647,-1 -2471,-1 -29,0 -43,-19 -30,-46 3,-6 18,-10 27,-10 159,-1 317,-1 475,-1l32 0 0 -34c0,-173 0,-346 -1,-520 0,-29 10,-45 34,-62 148,-95 295,-191 441,-288 14,-10 24,-10 37,-1 151,99 302,197 453,296 15,10 21,21 21,41 -1,178 0,356 0,533l0 35 0 0z"/>
   </g>
   <g id="_2734299053552">
    <path class="fil0" d="M11311 6603l0 761 -230 0 -460 -523 -6 0 0 523 -190 0 0 -761 236 0 453 516 6 0 0 -516 191 0zm895 473c0,15 0,30 -2,47l-589 0c6,46 25,79 56,101 32,23 78,33 140,33 56,0 97,-8 123,-23 26,-15 41,-31 46,-49l219 0c-14,133 -143,200 -388,200 -135,0 -236,-27 -303,-80 -66,-53 -99,-129 -99,-229 0,-99 32,-175 99,-229 66,-53 166,-80 300,-80 132,0 231,27 298,80 67,54 100,130 100,229l0 0zm-398 -180c-55,0 -98,9 -129,26 -31,17 -51,44 -59,81l374 0c-10,-37 -30,-64 -60,-81 -30,-17 -72,-26 -126,-26zm815 321c39,0 73,-2 101,-7l0 154c-15,2 -36,4 -63,6 -26,3 -50,3 -72,3 -64,0 -114,-5 -149,-16 -35,-11 -59,-29 -74,-54 -15,-25 -22,-61 -22,-105l0 -287 -116 0 0 -122 116 0 0 -156 197 0 0 156 185 0 0 122 -185 0 0 252c0,20 6,34 19,42 12,8 33,12 63,12zm1092 147l-213 0 -142 -372 -5 0 -141 372 -215 0 -252 -575 218 0 145 370 6 0 141 -369 199 0 144 369 6 0 139 -370 217 0 -247 575 0 0zm645 -597c134,0 235,27 302,80 66,54 100,130 100,229 0,100 -34,176 -100,229 -67,53 -168,80 -302,80 -135,0 -235,-27 -302,-80 -67,-53 -100,-129 -100,-229 0,-99 33,-175 100,-229 67,-53 167,-80 302,-80zm0 475c130,0 196,-55 196,-166 0,-110 -66,-165 -196,-165 -131,0 -196,55 -196,165 0,111 65,166 196,166zm683 -453l0 77 5 0c33,-31 71,-54 116,-69 44,-15 98,-22 162,-22 28,0 53,1 73,5l0 186c-37,-6 -72,-9 -106,-9 -72,0 -131,13 -178,39 -46,27 -69,76 -69,149l0 219 -196 0 0 -575 193 0 0 0zm1172 575l-244 0 -206 -240 -95 76 0 164 -195 0 0 -772 195 0 0 414 266 -217 253 0 -282 224 308 351 0 0zm56 -575l197 0 0 575 -197 0 0 -575zm-2 -201l200 0 0 124 -200 0 0 -124zm502 274l6 0c65,-58 153,-87 263,-87 85,0 153,18 204,54 50,35 76,89 76,161l0 374 -196 0 0 -310c0,-44 -14,-75 -41,-95 -27,-20 -68,-30 -120,-30 -51,0 -96,13 -133,38 -37,25 -56,65 -56,119l0 278 -196 0 0 -575 193 0 0 73 0 0zm1418 -73l0 544c0,61 -9,108 -27,142 -19,34 -55,59 -110,75 -54,17 -135,25 -242,25 -103,0 -182,-8 -237,-25 -55,-17 -93,-40 -113,-68 -20,-29 -32,-65 -34,-109l219 0c3,15 9,28 17,38 9,11 26,19 50,26 23,7 57,10 100,10 51,0 90,-4 116,-12 26,-8 43,-19 52,-35 9,-16 13,-38 13,-67l0 -92 -6 0c-56,55 -135,82 -238,82 -108,0 -193,-23 -252,-71 -59,-47 -88,-115 -88,-204 0,-88 29,-156 88,-202 59,-48 144,-71 252,-71 106,0 187,28 242,86l6 0 0 -72 192 0 0 0zm-386 394c63,0 112,-12 145,-36 33,-24 50,-56 50,-99 0,-41 -17,-73 -50,-97 -33,-24 -82,-36 -145,-36 -126,0 -189,45 -189,133 0,90 63,135 189,135l0 0z"/>
    <path class="fil3" d="M10970 5435l0 0c0,-12 1,-24 0,-36 -2,-72 -50,-120 -120,-119 -68,1 -114,48 -116,119 -1,27 -1,55 0,83 4,60 54,108 115,109 62,1 116,-46 120,-108 2,-16 1,-32 1,-48l0 0zm-186 195c-4,69 -43,107 -111,125 -80,21 -120,80 -134,160 -5,25 5,33 29,33 189,-1 379,-1 568,0 26,0 31,-11 27,-35 -15,-81 -56,-139 -139,-160 -62,-16 -99,-52 -104,-118 0,-4 -4,-6 -3,-5l-133 0zm65 361c-94,0 -188,0 -282,0 -60,0 -78,-22 -69,-81 15,-105 71,-174 175,-201 66,-18 88,-83 48,-140 -66,-96 -40,-259 50,-313 103,-61 237,10 242,130 3,70 7,139 -42,200 -34,42 2,107 59,123 108,31 169,106 176,213 3,49 -14,68 -64,69 -97,0 -195,0 -293,0z"/>
    <path class="fil3" d="M11674 4477c0,18 -1,30 0,42 2,67 49,117 113,120 64,3 118,-42 124,-107 3,-33 3,-67 -1,-99 -9,-79 -88,-128 -160,-99 -67,28 -82,83 -76,143l0 0zm-192 515l621 0c3,-87 -43,-162 -121,-184 -70,-20 -120,-53 -122,-130l-135 0c-3,76 -50,109 -120,129 -80,22 -126,96 -123,185l0 0zm478 47c-147,0 -294,0 -440,0 -77,0 -94,-22 -79,-97 20,-96 76,-158 171,-184 69,-19 88,-80 50,-142 -49,-81 -47,-170 -7,-254 29,-64 106,-91 176,-74 69,16 119,73 122,144 3,71 8,141 -42,205 -32,40 3,106 57,120 107,27 162,98 179,203 9,56 -12,79 -68,79 -40,0 -80,0 -119,0l0 0z"/>
    <path class="fil3" d="M10672 5132c31,-321 244,-572 558,-628 41,-8 84,-9 126,-9 11,0 22,14 34,21 -11,7 -22,19 -34,19 -133,0 -257,34 -365,112 -163,116 -257,273 -272,475 -2,15 -16,28 -23,42 -11,-13 -21,-27 -24,-32l0 0z"/>
    <path class="fil3" d="M11375 5837c-15,0 -30,3 -44,-1 -10,-3 -19,-13 -29,-20 10,-7 19,-18 29,-19 56,-9 114,-9 169,-22 257,-64 440,-276 471,-538 2,-14 2,-27 7,-39 4,-11 13,-19 20,-28 6,11 19,22 17,32 -7,58 -13,116 -30,171 -85,268 -329,453 -610,464z"/>
   </g>
   <g id="_2734299056336">
    <path class="fil0" d="M13759 2838l-201 0 0 -479 -244 0 0 -136 51 0c68,0 118,-11 151,-32 33,-21 57,-53 72,-97l171 0 0 744 0 0zm978 -404c-5,-26 -21,-44 -49,-54 -27,-11 -68,-16 -120,-16 -49,0 -84,5 -105,13 -22,9 -32,22 -32,39 0,15 5,25 16,31 11,7 30,11 58,13l261 22c70,7 122,23 156,50 35,26 52,70 52,133 0,51 -14,92 -43,120 -29,28 -71,48 -125,58 -55,11 -127,16 -215,16 -86,0 -156,-5 -210,-16 -55,-11 -98,-32 -129,-62 -32,-30 -48,-74 -51,-130l218 0c6,32 23,54 51,66 29,13 72,19 131,19 57,0 97,-5 121,-15 24,-10 36,-25 36,-47 0,-15 -6,-27 -17,-34 -11,-7 -30,-12 -57,-15l-247 -24c-72,-9 -125,-25 -162,-51 -36,-25 -54,-67 -54,-123 0,-70 29,-119 88,-146 58,-26 147,-40 266,-40 119,0 211,14 275,42 64,28 98,78 101,151l-214 0 0 0zm1100 116c0,15 -1,30 -2,47l-589 0c5,46 24,79 56,102 31,22 78,32 140,32 56,0 97,-7 123,-22 26,-16 41,-32 45,-50l220 0c-15,134 -144,200 -388,200 -135,0 -236,-26 -303,-80 -67,-53 -100,-129 -100,-229 0,-98 33,-174 100,-228 66,-54 166,-81 300,-81 132,0 231,27 298,81 66,54 100,130 100,228l0 0zm-398 -180c-55,0 -98,9 -129,27 -31,17 -51,44 -60,80l375 0c-10,-36 -30,-63 -60,-80 -31,-18 -72,-27 -126,-27l0 0zm983 64c-4,-26 -20,-44 -48,-54 -28,-11 -68,-16 -120,-16 -50,0 -85,5 -106,13 -21,9 -31,22 -31,39 0,15 5,25 16,31 11,7 30,11 58,13l261 22c70,7 122,23 156,50 34,26 52,70 52,133 0,51 -15,92 -43,120 -29,28 -71,48 -126,58 -54,11 -126,16 -215,16 -85,0 -155,-5 -210,-16 -54,-11 -97,-32 -129,-62 -31,-30 -48,-74 -50,-130l218 0c5,32 22,54 51,66 28,13 72,19 131,19 56,0 97,-5 121,-15 23,-10 36,-25 36,-47 0,-15 -6,-27 -17,-34 -12,-7 -31,-12 -57,-15l-248 -24c-71,-9 -125,-25 -161,-51 -37,-25 -54,-67 -54,-123 0,-70 28,-119 87,-146 59,-26 148,-40 266,-40 120,0 212,14 276,42 64,28 98,78 101,151l-215 0 0 0zm325 -170l196 0 0 574 -196 0 0 -574zm-2 -201l200 0 0 123 -200 0 0 -123zm688 178c134,0 235,27 302,81 66,54 100,130 100,228 0,100 -34,176 -100,229 -67,54 -168,80 -302,80 -134,0 -234,-26 -301,-80 -67,-53 -100,-129 -100,-229 0,-98 33,-174 100,-228 67,-54 167,-81 301,-81zm0 476c131,0 197,-56 197,-167 0,-109 -66,-164 -197,-164 -131,0 -196,55 -196,164 0,111 65,167 196,167zm85 -516l-170 0 88 -159 272 0 -190 159 0 0zm598 135l5 0c66,-58 153,-87 264,-87 85,0 153,18 204,54 51,36 76,90 76,161l0 374 -196 0 0 -310c0,-43 -13,-75 -41,-95 -28,-19 -67,-29 -120,-29 -51,0 -95,12 -133,37 -37,25 -55,65 -55,119l0 278 -197 0 0 -574 193 0 0 72 0 0z"/>
    <path class="fil0" d="M13583 3252l0 -100 49 0 0 279 -48 0 0 -30 -2 0c-9,12 -20,20 -35,27 -15,6 -32,9 -51,9 -37,0 -66,-9 -88,-28 -21,-20 -31,-47 -31,-81 0,-34 10,-61 31,-81 22,-19 51,-28 88,-28 38,0 66,11 85,33l2 0 0 0zm-78 146c25,0 44,-6 58,-19 14,-13 21,-30 21,-51 0,-21 -7,-38 -21,-51 -14,-13 -33,-19 -58,-19 -25,0 -45,6 -58,17 -13,12 -19,30 -19,53 0,23 6,41 19,52 13,12 33,18 58,18l0 0zm423 -71c0,4 0,8 -1,12l-204 0c4,41 30,61 80,61 22,0 38,-3 49,-10 11,-7 17,-15 19,-24l54 0c-3,20 -14,38 -33,51 -20,14 -49,20 -89,20 -42,0 -74,-9 -97,-28 -22,-20 -33,-47 -33,-82 0,-35 11,-62 33,-81 22,-20 53,-29 94,-29 41,0 72,9 94,29 22,19 34,46 34,81l0 0zm-128 -73c-21,0 -38,4 -50,12 -13,8 -21,21 -25,37l150 0c-8,-33 -32,-49 -75,-49zm411 144c24,0 42,-4 53,-12 11,-8 18,-19 20,-33l54 0c-4,26 -15,47 -36,61 -20,16 -50,23 -91,23 -41,0 -73,-9 -95,-28 -23,-20 -34,-47 -34,-81 0,-36 11,-63 34,-82 22,-20 54,-29 95,-29 40,0 71,7 91,22 20,15 31,35 35,60l-54 0c-2,-13 -9,-24 -20,-31 -10,-8 -28,-12 -52,-12 -25,0 -45,6 -58,18 -13,12 -20,30 -20,54 0,22 7,40 20,52 13,12 33,18 58,18l0 0zm289 -181c41,0 74,9 96,29 23,19 34,46 34,81 0,35 -11,62 -34,82 -22,19 -55,28 -96,28 -42,0 -75,-9 -97,-28 -23,-20 -34,-47 -34,-82 0,-35 11,-62 34,-81 22,-20 55,-29 97,-29zm0 181c26,0 45,-6 59,-18 13,-12 20,-30 20,-53 0,-23 -7,-41 -20,-53 -14,-12 -33,-18 -59,-18 -27,0 -47,6 -60,18 -14,12 -20,30 -20,53 0,23 7,41 21,53 13,12 32,18 59,18zm218 -148l2 0c10,-10 23,-19 38,-24 15,-5 32,-7 51,-7 30,0 53,5 71,18 18,11 27,30 27,55l0 139 -49 0 0 -122c0,-18 -5,-31 -16,-39 -11,-8 -27,-12 -49,-12 -20,0 -38,5 -52,16 -14,10 -22,25 -22,47l0 110 -48 0 0 -208 47 0 0 27 0 0zm408 36c-1,-12 -7,-21 -18,-25 -12,-5 -28,-8 -50,-8 -20,0 -35,2 -44,7 -10,4 -14,10 -14,18 0,6 2,12 7,14 5,3 13,6 24,6l88 9c20,2 37,7 48,17 12,8 17,24 17,44 0,26 -10,44 -29,54 -20,11 -50,15 -90,15 -40,0 -70,-5 -91,-16 -21,-11 -32,-31 -33,-61l51 0c1,16 7,26 20,32 12,6 30,9 53,9 45,0 68,-10 68,-30 0,-8 -3,-13 -8,-16 -4,-4 -13,-6 -24,-7l-84 -9c-22,-2 -39,-7 -51,-16 -11,-9 -17,-24 -17,-43 0,-23 10,-39 29,-49 19,-9 46,-14 80,-14 37,0 65,5 87,16 20,10 31,28 32,53l-51 0 0 0zm344 41c0,4 0,8 -1,12l-203 0c3,41 30,61 79,61 22,0 39,-3 49,-10 11,-7 17,-15 19,-24l55 0c-3,20 -14,38 -34,51 -19,14 -49,20 -89,20 -42,0 -74,-9 -97,-28 -22,-20 -33,-47 -33,-82 0,-35 11,-62 33,-81 23,-20 54,-29 94,-29 41,0 72,9 95,29 22,19 33,46 33,81l0 0zm-128 -73c-20,0 -37,4 -50,12 -13,8 -21,21 -24,37l150 0c-8,-33 -33,-49 -76,-49zm133 213c13,0 22,-2 28,-5 6,-2 9,-8 9,-17l0 -222 48 0 0 232c0,13 -3,24 -7,31 -5,8 -13,13 -24,17 -11,3 -25,5 -44,5 -7,0 -14,0 -22,0 -8,-1 -13,-2 -17,-2l0 -41c3,0 8,1 15,2 5,0 11,0 14,0zm35 -317l51 0 0 39 -51 0 0 -39zm346 177c0,4 0,8 -1,12l-203 0c4,41 30,61 79,61 22,0 38,-3 50,-10 10,-7 17,-15 18,-24l55 0c-4,20 -15,38 -34,51 -19,14 -49,20 -89,20 -42,0 -74,-9 -96,-28 -23,-20 -34,-47 -34,-82 0,-35 11,-62 33,-81 22,-20 54,-29 94,-29 41,0 73,9 95,29 22,19 33,46 33,81l0 0zm-128 -73c-21,0 -37,4 -50,12 -13,8 -21,21 -25,37l150 0c-7,-33 -32,-49 -75,-49l0 0zm217 -31l0 28 1 0c12,-11 25,-19 39,-25 14,-5 32,-8 53,-8 12,0 22,1 30,3l0 47c-10,-3 -21,-4 -34,-4 -25,0 -46,6 -63,16 -17,10 -25,28 -25,56l0 95 -49 0 0 -208 48 0 0 0zm158 0l48 0 0 208 -48 0 0 -208zm45 -21l-43 0 36 -60 69 0 -62 60zm277 195c0,8 1,14 2,20 0,4 2,9 4,11l0 3 -47 0c-4,-4 -5,-13 -5,-25l0 -6c-11,13 -24,22 -40,28 -17,6 -37,9 -61,9 -26,0 -48,-5 -64,-16 -16,-11 -24,-28 -24,-49 0,-21 6,-36 17,-46 12,-11 27,-17 44,-18l98 -10c9,0 16,-2 20,-6 4,-2 5,-8 5,-14 0,-8 -4,-14 -12,-18 -10,-4 -24,-6 -44,-6 -21,0 -37,3 -47,7 -11,6 -17,13 -18,24l-51 0c0,-25 11,-42 31,-52 21,-11 49,-16 84,-16 36,0 63,4 82,13 18,9 26,25 26,48l0 119 0 0zm-48 -71c-3,3 -8,5 -17,6l-87 9c-10,1 -18,4 -23,9 -6,5 -9,12 -9,21 0,11 4,19 12,24 8,5 19,7 35,7 24,0 45,-5 63,-15 18,-10 26,-26 26,-48l0 -13 0 0zm223 -103l48 0 0 208 -48 0 0 -208zm-1 -73l50 0 0 39 -50 0 0 -39zm148 100l1 0c11,-10 24,-19 39,-24 15,-5 32,-7 51,-7 29,0 52,5 71,18 17,11 26,30 26,55l0 139 -48 0 0 -122c0,-18 -5,-31 -17,-39 -10,-8 -27,-12 -48,-12 -20,0 -38,5 -52,16 -15,10 -22,25 -22,47l0 110 -49 0 0 -208 48 0 0 27 0 0zm435 2l0 -100 49 0 0 279 -48 0 0 -30 -1 0c-9,12 -21,20 -35,27 -15,6 -32,9 -51,9 -37,0 -67,-9 -88,-28 -22,-20 -32,-47 -32,-81 0,-34 10,-61 32,-81 21,-19 51,-28 88,-28 37,0 65,11 85,33l1 0 0 0zm-77 146c25,0 44,-6 58,-19 13,-13 20,-30 20,-51 0,-21 -7,-38 -20,-51 -14,-13 -33,-19 -58,-19 -26,0 -45,6 -58,17 -14,12 -20,30 -20,53 0,23 6,41 20,52 13,12 32,18 58,18l0 0zm177 -175l49 0 0 208 -49 0 0 -208zm-1 -73l50 0 0 39 -50 0 0 -39zm344 73l-104 208 -56 0 -104 -208 55 0 76 158 1 0 78 -158 54 0 0 0zm30 0l49 0 0 208 -49 0 0 -208zm0 -73l50 0 0 39 -50 0 0 -39zm296 102l0 -100 49 0 0 279 -47 0 0 -30 -2 0c-9,12 -21,20 -35,27 -15,6 -32,9 -51,9 -38,0 -67,-9 -88,-28 -21,-20 -32,-47 -32,-81 0,-34 11,-61 32,-81 21,-19 50,-28 88,-28 37,0 65,11 85,33l1 0 0 0zm-77 146c25,0 44,-6 57,-19 15,-13 22,-30 22,-51 0,-21 -7,-38 -22,-51 -13,-13 -32,-19 -57,-19 -26,0 -45,6 -59,17 -12,12 -19,30 -19,53 0,23 7,41 19,52 14,12 33,18 59,18l0 0zm365 6l-1 0c-11,11 -24,19 -39,24 -15,5 -32,8 -50,8 -30,0 -53,-6 -72,-18 -17,-12 -26,-31 -26,-56l0 -139 48 0 0 122c0,18 6,31 17,39 11,8 27,12 48,12 21,0 38,-5 52,-15 15,-11 22,-26 22,-48l0 -110 49 0 0 208 -48 0 0 -27 0 0zm322 -7c0,8 0,14 1,20 1,4 3,9 5,11l0 3 -48 0c-3,-4 -5,-13 -5,-25l0 -6c-10,13 -24,22 -40,28 -16,6 -36,9 -60,9 -26,0 -48,-5 -65,-16 -15,-11 -24,-28 -24,-49 0,-21 6,-36 18,-46 11,-11 26,-17 44,-18l97 -10c9,0 16,-2 20,-6 4,-2 6,-8 6,-14 0,-8 -5,-14 -13,-18 -9,-4 -24,-6 -44,-6 -20,0 -36,3 -47,7 -11,6 -17,13 -17,24l-52 0c1,-25 11,-42 32,-52 20,-11 48,-16 83,-16 36,0 64,4 82,13 18,9 27,25 27,48l0 119 0 0zm-48 -71c-3,3 -9,5 -18,6l-86 9c-11,1 -19,4 -24,9 -6,5 -9,12 -9,21 0,11 5,19 12,24 8,5 20,7 35,7 25,0 46,-5 64,-15 17,-10 26,-26 26,-48l0 -13 0 0zm99 -174l49 0 0 279 -49 0 0 -279z"/>
    <path class="fil4" d="M13982 1244c-1,40 25,75 62,88 25,8 47,-1 57,-25 11,-31 22,-62 32,-93 7,-23 -3,-42 -24,-51 -59,-27 -127,17 -127,81l0 0zm-571 -1l0 86 463 0 0 -50 -29 0c-60,0 -120,0 -181,0 -35,0 -35,0 -32,-36l-221 0zm790 202l0 -483c-23,-7 -32,1 -37,22 -11,46 -24,91 -35,138 -2,8 1,20 7,26 24,23 31,49 20,80 -7,21 -16,43 -23,65 -10,35 -27,64 -66,68 -3,65 51,98 134,84l0 0zm520 3c14,0 25,0 36,0 69,0 100,-31 100,-101 0,-85 0,-171 0,-256 0,-44 0,-88 0,-131l-136 0 0 488 0 0zm-1474 -488c0,53 -2,102 0,152 2,65 44,103 109,104 69,0 139,0 208,0 26,0 59,8 76,-5 17,-13 19,-47 27,-72 6,-21 12,-43 18,-65 -93,0 -183,-1 -273,0 -21,0 -29,-8 -28,-29 1,-28 0,-56 0,-86 -42,0 -80,0 -118,0 -5,0 -11,1 -19,1zm957 -222c-12,-1 -20,-2 -28,-2 -112,0 -224,1 -336,0 -20,0 -28,6 -34,25 -45,156 -92,311 -139,467 -2,8 -4,16 -6,24l294 0c1,-38 12,-71 42,-96 29,-24 64,-29 102,-28 35,-129 70,-258 105,-390l0 0zm-957 194l137 0c0,-11 0,-22 0,-33 0,-19 -2,-39 0,-58 1,-8 8,-16 11,-24 5,9 11,16 13,24 3,7 1,15 1,23 0,52 2,106 2,159 0,14 2,24 19,24 38,-1 75,0 113,-1 43,0 86,-3 130,0 18,1 24,-5 28,-20 28,-97 58,-193 86,-289 6,-20 15,-28 36,-27 39,2 79,1 119,1 4,-78 -63,-148 -142,-149 -137,-1 -273,-1 -410,0 -69,1 -126,51 -141,119 -1,3 -2,6 -2,9 0,81 0,160 0,242l0 0zm1609 1c0,-7 1,-12 1,-17 0,-69 1,-138 0,-206 -1,-82 -65,-148 -147,-148 -166,-1 -332,-1 -498,0 -50,0 -90,23 -119,63 -18,24 -29,52 -26,86 48,0 94,-1 141,0 25,0 29,4 22,29 -7,25 -14,50 -20,76 -10,38 -20,76 -30,114 3,2 4,3 4,3 28,4 15,-18 19,-29 3,-6 9,-12 14,-17 3,5 8,10 11,17 1,4 0,11 0,17 0,126 0,252 0,379l0 30 466 0 0 -30c0,-150 0,-300 0,-450 0,-8 -1,-16 2,-23 1,-4 7,-9 11,-9 4,0 10,6 11,10 2,8 1,16 1,24 0,27 0,53 0,81l137 0 0 0zm-956 346l0 30c0,119 0,237 0,356 0,7 1,14 -1,19 -1,5 -7,12 -10,11 -5,-1 -11,-6 -13,-11 -2,-6 -1,-14 -1,-21 0,-101 0,-201 0,-304l-464 0c-1,7 -2,16 -2,24 0,92 0,184 0,275 0,6 2,12 -1,17 -2,6 -8,12 -12,17 -4,-6 -10,-12 -12,-18 -2,-5 0,-11 0,-17 0,-128 0,-255 0,-383l0 -32c-14,0 -25,0 -36,-1 -75,-3 -127,-57 -127,-131 -1,-132 -1,-263 0,-395 0,-103 74,-178 178,-179 130,-1 260,-1 390,0 97,1 166,61 180,157 1,5 2,9 3,16l65 0c2,-12 4,-24 6,-36 16,-75 83,-135 160,-136 172,-2 344,-2 515,0 93,2 164,80 165,175 1,92 0,185 0,278 0,121 0,242 0,363 0,76 -44,120 -120,121 -14,0 -27,0 -44,0 0,48 0,93 0,137 0,22 1,43 -1,64 0,7 -7,14 -10,21 -5,-7 -13,-15 -13,-22 -1,-81 -1,-163 -1,-245l0 -71 -466 0 0 28c0,87 0,175 0,263 0,6 0,11 0,17 -1,10 4,26 -13,25 -5,0 -11,-15 -12,-24 -1,-49 0,-97 0,-145l0 -48c-17,0 -32,0 -47,0 -65,-1 -106,-37 -117,-100 -2,-8 -10,-17 -16,-23 -17,-17 -40,-31 -52,-51 -11,-18 -22,-23 -40,-21 -9,1 -18,0 -31,0l0 0z"/>
    <path class="fil5 str0" d="M13982 1244c-1,40 25,75 62,88 25,8 47,-1 57,-25 11,-31 22,-62 32,-93 7,-23 -3,-42 -24,-51 -59,-27 -127,17 -127,81l0 0zm-571 -1l0 86 463 0 0 -50 -29 0c-60,0 -120,0 -181,0 -35,0 -35,0 -32,-36l-221 0zm790 202l0 -483c-23,-7 -32,1 -37,22 -11,46 -24,91 -35,138 -2,8 1,20 7,26 24,23 31,49 20,80 -7,21 -16,43 -23,65 -10,35 -27,64 -66,68 -3,65 51,98 134,84l0 0zm520 3c14,0 25,0 36,0 69,0 100,-31 100,-101 0,-85 0,-171 0,-256 0,-44 0,-88 0,-131l-136 0 0 488 0 0zm-1474 -488c0,53 -2,102 0,152 2,65 44,103 109,104 69,0 139,0 208,0 26,0 59,8 76,-5 17,-13 19,-47 27,-72 6,-21 12,-43 18,-65 -93,0 -183,-1 -273,0 -21,0 -29,-8 -28,-29 1,-28 0,-56 0,-86 -42,0 -80,0 -118,0 -5,0 -11,1 -19,1zm957 -222c-12,-1 -20,-2 -28,-2 -112,0 -224,1 -336,0 -20,0 -28,6 -34,25 -45,156 -92,311 -139,467 -2,8 -4,16 -6,24l294 0c1,-38 12,-71 42,-96 29,-24 64,-29 102,-28 35,-129 70,-258 105,-390l0 0zm-957 194l137 0c0,-11 0,-22 0,-33 0,-19 -2,-39 0,-58 1,-8 8,-16 11,-24 5,9 11,16 13,24 3,7 1,15 1,23 0,52 2,106 2,159 0,14 2,24 19,24 38,-1 75,0 113,-1 43,0 86,-3 130,0 18,1 24,-5 28,-20 28,-97 58,-193 86,-289 6,-20 15,-28 36,-27 39,2 79,1 119,1 4,-78 -63,-148 -142,-149 -137,-1 -273,-1 -410,0 -69,1 -126,51 -141,119 -1,3 -2,6 -2,9 0,81 0,160 0,242l0 0zm1609 1c0,-7 1,-12 1,-17 0,-69 1,-138 0,-206 -1,-82 -65,-148 -147,-148 -166,-1 -332,-1 -498,0 -50,0 -90,23 -119,63 -18,24 -29,52 -26,86 48,0 94,-1 141,0 25,0 29,4 22,29 -7,25 -14,50 -20,76 -10,38 -20,76 -30,114 3,2 4,3 4,3 28,4 15,-18 19,-29 3,-6 9,-12 14,-17 3,5 8,10 11,17 1,4 0,11 0,17 0,126 0,252 0,379l0 30 466 0 0 -30c0,-150 0,-300 0,-450 0,-8 -1,-16 2,-23 1,-4 7,-9 11,-9 4,0 10,6 11,10 2,8 1,16 1,24 0,27 0,53 0,81l137 0 0 0zm-956 346l0 30c0,119 0,237 0,356 0,7 1,14 -1,19 -1,5 -7,12 -10,11 -5,-1 -11,-6 -13,-11 -2,-6 -1,-14 -1,-21 0,-101 0,-201 0,-304l-464 0c-1,7 -2,16 -2,24 0,92 0,184 0,275 0,6 2,12 -1,17 -2,6 -8,12 -12,17 -4,-6 -10,-12 -12,-18 -2,-5 0,-11 0,-17 0,-128 0,-255 0,-383l0 -32c-14,0 -25,0 -36,-1 -75,-3 -127,-57 -127,-131 -1,-132 -1,-263 0,-395 0,-103 74,-178 178,-179 130,-1 260,-1 390,0 97,1 166,61 180,157 1,5 2,9 3,16l65 0c2,-12 4,-24 6,-36 16,-75 83,-135 160,-136 172,-2 344,-2 515,0 93,2 164,80 165,175 1,92 0,185 0,278 0,121 0,242 0,363 0,76 -44,120 -120,121 -14,0 -27,0 -44,0 0,48 0,93 0,137 0,22 1,43 -1,64 0,7 -7,14 -10,21 -5,-7 -13,-15 -13,-22 -1,-81 -1,-163 -1,-245l0 -71 -466 0 0 28c0,87 0,175 0,263 0,6 0,11 0,17 -1,10 4,26 -13,25 -5,0 -11,-15 -12,-24 -1,-49 0,-97 0,-145l0 -48c-17,0 -32,0 -47,0 -65,-1 -106,-37 -117,-100 -2,-8 -10,-17 -16,-23 -17,-17 -40,-31 -52,-51 -11,-18 -22,-23 -40,-21 -9,1 -18,0 -31,0l0 0z"/>
    <path class="fil4" d="M14647 234c0,-103 -83,-187 -185,-187 -103,0 -186,83 -187,185 0,103 83,187 185,187 102,0 186,-83 187,-185zm-186 -213c118,0 213,96 212,213 -1,117 -96,211 -212,211 -118,-1 -212,-96 -212,-214 1,-116 95,-209 212,-210z"/>
    <path class="fil5 str0" d="M14647 234c0,-103 -83,-187 -185,-187 -103,0 -186,83 -187,185 0,103 83,187 185,187 102,0 186,-83 187,-185zm-186 -213c118,0 213,96 212,213 -1,117 -96,211 -212,211 -118,-1 -212,-96 -212,-214 1,-116 95,-209 212,-210z"/>
    <path class="fil4" d="M13827 236c3,-103 -80,-188 -182,-189 -101,-2 -186,80 -189,181 -2,103 79,188 183,191 102,2 187,-81 188,-183zm-184 -215c117,1 211,95 211,212 -1,118 -95,212 -213,212 -117,-1 -211,-95 -211,-212 1,-118 95,-212 213,-212z"/>
    <path class="fil5 str0" d="M13827 236c3,-103 -80,-188 -182,-189 -101,-2 -186,80 -189,181 -2,103 79,188 183,191 102,2 187,-81 188,-183zm-184 -215c117,1 211,95 211,212 -1,118 -95,212 -213,212 -117,-1 -211,-95 -211,-212 1,-118 95,-212 213,-212z"/>
    <path class="fil4" d="M13667 1601c0,22 1,44 -1,66 0,7 -8,13 -11,19 -5,-7 -14,-13 -14,-19 -1,-44 -1,-86 0,-130 0,-6 8,-11 12,-18 4,7 13,12 13,19 2,21 1,42 1,63z"/>
    <path class="fil5 str0" d="M13667 1601c0,22 1,44 -1,66 0,7 -8,13 -11,19 -5,-7 -14,-13 -14,-19 -1,-44 -1,-86 0,-130 0,-6 8,-11 12,-18 4,7 13,12 13,19 2,21 1,42 1,63z"/>
    <path class="fil4" d="M14485 1602c0,22 1,44 -1,66 0,6 -7,12 -12,18 -4,-6 -12,-12 -12,-19 -1,-43 -1,-86 0,-129 0,-7 7,-12 12,-19 4,7 12,13 12,19 2,22 2,43 1,64l0 0z"/>
    <path class="fil5 str0" d="M14485 1602c0,22 1,44 -1,66 0,6 -7,12 -12,18 -4,-6 -12,-12 -12,-19 -1,-43 -1,-86 0,-129 0,-7 7,-12 12,-19 4,7 12,13 12,19 2,22 2,43 1,64l0 0z"/>
   </g>
   <g id="_2734299059088">
    <path class="fil0" d="M6822 2430c46,10 81,29 105,58 23,28 35,68 35,118 0,57 -14,102 -42,136 -29,33 -75,58 -137,73 -63,15 -147,23 -253,23 -101,0 -182,-9 -244,-26 -62,-18 -108,-46 -138,-85 -31,-38 -47,-89 -50,-154l224 0c4,42 23,73 57,92 34,19 85,28 153,28 71,0 123,-7 157,-20 34,-14 51,-39 51,-73 0,-36 -12,-61 -38,-76 -25,-15 -65,-22 -120,-22l-158 0 0 -133 165 0c47,0 82,-7 105,-21 22,-14 33,-37 33,-69 0,-31 -17,-52 -51,-65 -33,-13 -82,-20 -146,-20 -59,0 -104,9 -136,26 -32,17 -50,44 -56,81l-215 0c5,-88 41,-152 108,-190 66,-40 166,-59 299,-59 94,0 171,7 230,21 60,14 104,36 134,68 30,32 45,75 45,128 0,43 -10,77 -30,104 -21,27 -50,44 -87,51l0 6 0 0zm1082 -17c-4,-26 -20,-44 -48,-55 -28,-10 -67,-15 -120,-15 -49,0 -85,4 -106,13 -21,9 -31,22 -31,39 0,14 5,25 16,31 11,6 31,11 58,13l261 22c70,7 122,23 156,49 35,27 52,71 52,133 0,52 -15,92 -43,121 -29,28 -71,48 -126,58 -54,11 -126,16 -215,16 -85,0 -155,-5 -210,-16 -54,-11 -97,-32 -129,-62 -31,-30 -48,-74 -50,-131l218 0c5,32 22,54 51,67 28,13 72,18 131,18 57,0 97,-4 121,-14 23,-10 36,-26 36,-47 0,-16 -6,-27 -17,-34 -12,-7 -31,-12 -57,-15l-247 -25c-72,-8 -126,-24 -162,-50 -37,-26 -54,-67 -54,-124 0,-70 29,-118 87,-145 59,-26 148,-40 266,-40 120,0 213,14 276,42 64,27 98,78 101,151l-215 0 0 0zm1044 311c0,21 1,38 4,53 2,14 6,25 13,34l0 6 -193 0c-6,-5 -9,-13 -12,-24 -3,-11 -5,-23 -5,-38l0 -19c-55,68 -152,102 -289,102 -78,0 -142,-15 -191,-46 -49,-31 -74,-78 -74,-140 0,-60 17,-104 50,-132 33,-28 79,-45 137,-51l290 -25c23,-2 39,-6 49,-13 11,-7 16,-17 16,-32 0,-18 -11,-30 -32,-39 -21,-9 -56,-13 -103,-13 -49,0 -86,5 -111,16 -26,10 -41,27 -45,52l-212 0c3,-73 35,-124 97,-152 62,-29 149,-43 263,-43 77,0 141,5 191,14 50,10 89,28 117,54 27,26 40,62 40,110l0 326 0 0zm-196 -184c-5,3 -13,6 -23,9 -10,2 -20,4 -30,6l-206 24c-29,4 -50,11 -65,22 -14,10 -21,26 -21,48 0,24 9,42 29,53 19,10 48,15 87,15 63,0 117,-13 163,-37 44,-24 66,-62 66,-114l0 -26 0 0zm306 -494l196 0 0 771 -196 0 0 -771zm1026 678c0,21 1,38 3,53 3,14 7,25 13,34l0 6 -193 0c-4,-5 -9,-13 -11,-24 -3,-11 -5,-23 -5,-38l0 -19c-55,68 -151,102 -289,102 -79,0 -142,-15 -191,-46 -49,-31 -74,-78 -74,-140 0,-60 17,-104 50,-132 33,-28 79,-45 137,-51l289 -25c23,-2 40,-6 50,-13 10,-7 16,-17 16,-32 0,-18 -11,-30 -32,-39 -22,-9 -56,-13 -104,-13 -48,0 -85,5 -111,16 -25,10 -40,27 -44,52l-212 0c2,-73 35,-124 97,-152 61,-29 149,-43 263,-43 77,0 141,5 191,14 50,10 89,28 116,54 28,26 41,62 41,110l0 326 0 0zm-196 -184c-5,3 -13,6 -23,9 -10,2 -20,4 -30,6l-207 24c-28,4 -50,11 -64,22 -14,10 -21,26 -21,48 0,24 10,42 29,53 19,10 48,15 87,15 64,0 118,-13 162,-37 45,-24 67,-62 67,-114l0 -26 0 0zm802 -127c-4,-26 -20,-44 -48,-55 -27,-10 -67,-15 -120,-15 -49,0 -84,4 -105,13 -21,9 -32,22 -32,39 0,14 5,25 16,31 12,6 31,11 58,13l261 22c70,7 122,23 156,49 35,27 52,71 52,133 0,52 -14,92 -43,121 -29,28 -70,48 -125,58 -55,11 -126,16 -216,16 -85,0 -155,-5 -209,-16 -55,-11 -98,-32 -129,-62 -31,-30 -48,-74 -50,-131l217 0c6,32 23,54 51,67 28,13 72,18 131,18 57,0 97,-4 121,-14 24,-10 36,-26 36,-47 0,-16 -6,-27 -17,-34 -12,-7 -30,-12 -57,-15l-247 -25c-72,-8 -126,-24 -162,-50 -36,-26 -54,-67 -54,-124 0,-70 29,-118 87,-145 59,-26 148,-40 267,-40 120,0 212,14 276,42 64,27 97,78 100,151l-215 0 0 0z"/>
    <path class="fil0" d="M6290 3265c-1,-12 -7,-21 -18,-26 -12,-5 -28,-8 -49,-8 -21,0 -35,3 -45,7 -9,5 -14,10 -14,19 0,6 3,11 7,14 5,3 13,5 24,6l88 8c21,2 37,8 49,17 11,9 17,24 17,45 0,26 -10,44 -30,54 -20,10 -50,15 -90,15 -40,0 -70,-5 -91,-16 -21,-11 -32,-31 -33,-61l51 0c1,15 8,26 20,31 12,6 30,9 54,9 44,0 67,-10 67,-29 0,-8 -3,-14 -7,-17 -6,-3 -13,-5 -25,-7l-84 -8c-22,-2 -39,-8 -50,-17 -12,-9 -18,-23 -18,-43 0,-22 10,-38 29,-48 19,-10 46,-14 81,-14 36,0 65,5 85,16 21,10 32,28 33,53l-51 0 0 0zm99 -63l48 0 0 208 -48 0 0 -208zm-1 -73l51 0 0 39 -51 0 0 -39zm148 101l2 0c8,-11 20,-20 34,-25 14,-5 30,-8 47,-8 18,0 34,3 48,8 13,6 24,14 31,25 10,-11 22,-20 38,-25 16,-5 33,-8 51,-8 27,0 48,6 64,18 17,12 25,30 25,55l0 140 -49 0 0 -126c0,-31 -19,-47 -56,-47 -11,0 -21,2 -31,6 -10,4 -18,10 -24,18 -7,9 -10,20 -10,33l0 116 -48 0 0 -126c0,-31 -19,-47 -56,-47 -11,0 -21,2 -31,6 -10,4 -18,10 -25,18 -6,9 -9,20 -9,33l0 116 -49 0 0 -208 48 0 0 28 0 0zm580 153l-2 0c-11,10 -24,18 -39,24 -15,5 -32,7 -50,7 -30,0 -54,-5 -71,-18 -18,-12 -27,-30 -27,-55l0 -139 49 0 0 122c0,18 5,31 16,39 10,8 27,12 48,12 21,0 38,-5 53,-16 14,-10 21,-26 21,-47l0 -110 49 0 0 208 -47 0 0 -27zm-50 -203l-42 0 34 -59 70 0 -62 59zm148 -50l48 0 0 280 -48 0 0 -280zm199 242c6,0 13,0 20,-1 7,-1 14,-2 18,-2l0 41c-5,0 -11,1 -19,2 -7,1 -15,1 -21,1 -20,0 -35,-2 -46,-6 -10,-3 -18,-9 -23,-17 -4,-8 -7,-20 -7,-34l0 -119 -42 0 0 -35 42 0 0 -57 49 0 0 57 68 0 0 35 -68 0 0 112c0,9 2,14 6,18 5,3 12,5 23,5l0 0zm299 4c0,8 1,14 2,19 0,5 2,9 4,12l0 3 -47 0c-4,-4 -5,-13 -5,-26l0 -5c-11,13 -24,22 -40,28 -17,6 -37,9 -61,9 -26,0 -48,-6 -64,-16 -16,-11 -24,-28 -24,-50 0,-20 6,-35 17,-46 11,-10 27,-16 44,-17l98 -10c8,0 15,-3 20,-6 4,-3 5,-8 5,-14 0,-9 -4,-14 -13,-18 -9,-4 -24,-6 -43,-6 -21,0 -37,3 -47,7 -11,5 -17,13 -18,24l-52 0c1,-25 12,-42 32,-53 21,-11 48,-15 84,-15 36,0 63,4 81,13 19,8 27,25 27,48l0 119 0 0zm-48 -71c-3,3 -8,4 -17,6l-87 9c-10,1 -18,4 -24,9 -5,4 -8,12 -8,21 0,11 4,19 11,23 9,5 20,7 36,7 24,0 45,-4 63,-14 18,-10 26,-26 26,-48l0 -13zm147 -76l1 0c11,-11 24,-19 39,-24 16,-5 32,-8 50,-8 30,0 54,6 72,18 17,12 26,31 26,56l0 139 -48 0 0 -122c0,-18 -6,-31 -16,-40 -12,-7 -27,-11 -49,-11 -21,0 -38,5 -52,15 -15,11 -22,26 -22,47l0 111 -49 0 0 -208 48 0 0 27 0 0zm485 77c0,3 -1,8 -1,12l-204 0c4,41 31,61 79,61 23,0 39,-4 50,-10 11,-7 17,-16 19,-24l54 0c-3,20 -14,37 -34,51 -19,13 -48,20 -89,20 -41,0 -74,-10 -96,-29 -23,-19 -34,-46 -34,-81 0,-35 11,-62 34,-82 22,-19 53,-28 94,-28 40,0 72,9 94,28 23,20 34,47 34,82l0 0zm-128 -73c-21,0 -38,4 -51,12 -12,8 -21,20 -24,36l150 0c-8,-32 -33,-48 -75,-48l0 0zm392 143c0,8 0,14 1,19 1,5 3,9 5,12l0 3 -48 0c-3,-4 -5,-13 -5,-26l0 -5c-10,13 -24,22 -40,28 -16,6 -36,9 -60,9 -26,0 -48,-6 -65,-16 -15,-11 -24,-28 -24,-50 0,-20 6,-35 17,-46 12,-10 27,-16 45,-17l97 -10c9,0 16,-3 20,-6 4,-3 6,-8 6,-14 0,-9 -5,-14 -13,-18 -9,-4 -24,-6 -44,-6 -20,0 -36,3 -47,7 -11,5 -17,13 -17,24l-52 0c1,-25 11,-42 32,-53 20,-11 48,-15 83,-15 36,0 63,4 82,13 18,8 27,25 27,48l0 119 0 0zm-48 -71c-3,3 -9,4 -18,6l-86 9c-11,1 -19,4 -24,9 -6,4 -9,12 -9,21 0,11 4,19 12,23 8,5 20,7 35,7 25,0 46,-4 64,-14 17,-10 26,-26 26,-48l0 -13zm267 -40c-1,-12 -7,-21 -18,-26 -12,-5 -28,-8 -49,-8 -21,0 -36,3 -45,7 -9,5 -14,10 -14,19 0,6 3,11 7,14 5,3 13,5 24,6l88 8c21,2 37,8 48,17 12,9 18,24 18,45 0,26 -10,44 -30,54 -20,10 -50,15 -90,15 -39,0 -70,-5 -91,-16 -21,-11 -32,-31 -33,-61l51 0c1,15 8,26 20,31 12,6 31,9 54,9 45,0 67,-10 67,-29 0,-8 -3,-14 -7,-17 -6,-3 -13,-5 -25,-7l-84 -8c-22,-2 -38,-8 -50,-17 -12,-9 -18,-23 -18,-43 0,-22 10,-38 29,-48 19,-10 46,-14 81,-14 36,0 65,5 86,16 21,10 31,28 32,53l-51 0zm271 117l0 100 -48 0 0 -280 47 0 0 31 1 0c10,-11 21,-20 36,-27 14,-6 31,-9 51,-9 37,0 66,10 87,29 22,19 33,46 33,81 0,34 -11,61 -33,80 -21,19 -50,29 -87,29 -38,0 -66,-11 -86,-34l-1 0 0 0zm78 -146c-25,0 -44,7 -58,20 -14,12 -21,29 -21,51 0,21 7,38 21,51 14,12 33,19 58,19 51,0 77,-24 77,-70 0,-47 -26,-71 -77,-71zm392 140c0,8 1,14 1,19 2,5 3,9 5,12l0 3 -47 0c-4,-4 -6,-13 -6,-26l0 -5c-10,13 -23,22 -39,28 -16,6 -37,9 -60,9 -27,0 -49,-6 -65,-16 -16,-11 -24,-28 -24,-50 0,-20 6,-35 17,-46 12,-10 27,-16 45,-17l97 -10c9,0 15,-3 19,-6 5,-3 6,-8 6,-14 0,-9 -4,-14 -13,-18 -8,-4 -23,-6 -44,-6 -20,0 -36,3 -46,7 -12,5 -17,13 -18,24l-51 0c1,-25 11,-42 31,-53 21,-11 49,-15 84,-15 36,0 63,4 81,13 19,8 27,25 27,48l0 119 0 0zm-48 -71c-3,3 -9,4 -17,6l-87 9c-10,1 -18,4 -24,9 -5,4 -8,12 -8,21 0,11 4,19 12,23 8,5 19,7 35,7 25,0 46,-4 63,-14 17,-10 26,-26 26,-48l0 -13 0 0zm147 -103l0 28 2 0c11,-11 24,-20 38,-25 14,-6 32,-8 53,-8 12,0 22,0 30,3l0 46c-10,-2 -21,-3 -33,-3 -26,0 -47,5 -64,15 -17,10 -25,29 -25,57l0 95 -49 0 0 -208 48 0 0 0zm370 174c0,8 0,14 1,19 0,5 2,9 5,12l0 3 -48 0c-3,-4 -5,-13 -5,-26l0 -5c-11,13 -24,22 -40,28 -16,6 -36,9 -60,9 -27,0 -48,-6 -65,-16 -16,-11 -24,-28 -24,-50 0,-20 6,-35 18,-46 11,-10 25,-16 44,-17l97 -10c9,0 15,-3 19,-6 4,-3 7,-8 7,-14 0,-9 -5,-14 -14,-18 -9,-4 -23,-6 -43,-6 -21,0 -36,3 -48,7 -10,5 -16,13 -17,24l-51 0c0,-25 11,-42 31,-53 21,-11 49,-15 84,-15 36,0 64,4 81,13 18,8 28,25 28,48l0 119 0 0zm-48 -71c-4,3 -10,4 -18,6l-87 9c-10,1 -18,4 -24,9 -5,4 -8,12 -8,21 0,11 4,19 12,23 8,5 20,7 35,7 25,0 46,-4 63,-14 18,-10 27,-26 27,-48l0 -13z"/>
    <path class="fil0" d="M6171 3751l0 100 -49 0 0 -280 47 0 0 30 2 0c9,-11 21,-20 35,-26 14,-6 31,-9 51,-9 37,0 67,10 88,28 21,20 31,47 31,81 0,35 -10,61 -31,81 -21,19 -51,29 -88,29 -37,0 -65,-12 -85,-34l-1 0 0 0zm77 -146c-25,0 -44,6 -58,19 -14,13 -21,30 -21,51 0,21 7,38 21,51 14,13 33,20 58,20 52,0 77,-24 77,-71 0,-47 -25,-70 -77,-70zm415 70c0,3 -1,7 -1,12l-204 0c5,40 31,60 80,60 22,0 38,-3 49,-10 11,-7 17,-15 19,-24l55 0c-4,21 -15,38 -34,51 -20,14 -49,21 -89,21 -42,0 -74,-10 -97,-29 -22,-20 -34,-47 -34,-81 0,-36 12,-62 34,-82 22,-19 54,-29 94,-29 41,0 72,10 95,29 22,20 33,46 33,82l0 0zm-128 -74c-21,0 -37,4 -50,13 -13,8 -21,20 -25,36l150 0c-7,-32 -33,-49 -75,-49l0 0zm217 -30l0 27 1 0c11,-11 24,-19 38,-24 15,-6 33,-9 54,-9 12,0 22,1 30,4l0 46c-10,-2 -22,-4 -34,-4 -26,0 -47,6 -63,16 -17,10 -25,29 -25,56l0 95 -49 0 0 -207 48 0zm326 63c-1,-13 -7,-21 -19,-26 -11,-5 -27,-8 -48,-8 -21,0 -36,3 -45,7 -9,4 -14,10 -14,18 0,7 2,12 7,14 5,4 13,6 24,7l87 8c22,2 38,8 49,17 12,9 18,24 18,45 0,25 -10,43 -30,54 -21,10 -51,15 -90,15 -40,0 -70,-6 -91,-17 -21,-11 -32,-31 -33,-60l50 0c1,15 8,25 21,31 12,6 30,9 54,9 44,0 67,-10 67,-29 0,-9 -3,-14 -7,-17 -6,-3 -13,-6 -25,-7l-85 -9c-21,-2 -38,-7 -49,-16 -12,-9 -18,-23 -18,-43 0,-22 9,-39 29,-48 19,-10 46,-15 81,-15 36,0 64,5 85,16 21,10 32,28 33,54l-51 0 0 0zm219 -70c42,0 74,10 97,29 22,20 34,46 34,82 0,34 -12,61 -34,81 -23,19 -55,29 -97,29 -42,0 -74,-10 -96,-29 -23,-20 -34,-47 -34,-81 0,-36 11,-62 34,-82 22,-19 54,-29 96,-29zm0 182c26,0 46,-7 60,-19 13,-11 19,-29 19,-52 0,-24 -6,-41 -19,-54 -14,-11 -34,-17 -60,-17 -26,0 -46,6 -59,17 -14,13 -20,30 -20,54 0,23 7,41 20,52 14,12 33,19 59,19zm219 -149l1 0c11,-10 24,-18 39,-23 15,-5 32,-8 50,-8 30,0 54,5 71,18 18,12 27,30 27,55l0 139 -48 0 0 -122c0,-18 -6,-31 -16,-39 -11,-7 -27,-12 -49,-12 -20,0 -38,6 -52,16 -15,10 -22,26 -22,47l0 110 -48 0 0 -207 47 0 0 26 0 0zm463 147c0,8 0,14 1,20 0,5 2,9 4,12l0 2 -47 0c-4,-4 -5,-12 -5,-25l0 -6c-11,13 -24,23 -40,28 -17,7 -37,10 -61,10 -26,0 -48,-6 -64,-17 -16,-11 -24,-27 -24,-49 0,-20 6,-36 17,-46 12,-10 26,-16 44,-18l98 -9c9,-1 15,-3 20,-6 4,-3 6,-8 6,-15 0,-8 -5,-14 -14,-18 -9,-3 -23,-6 -43,-6 -21,0 -37,3 -48,8 -10,5 -16,12 -17,23l-51 0c0,-24 11,-42 31,-52 21,-11 48,-16 84,-16 36,0 63,5 81,13 18,9 28,25 28,48l0 119 0 0zm-49 -70c-3,2 -8,4 -17,5l-87 10c-10,1 -18,3 -24,8 -5,5 -8,12 -8,22 0,10 4,18 12,23 8,5 20,7 35,7 24,0 46,-5 63,-15 18,-10 26,-25 26,-48l0 -12zm100 -175l48 0 0 279 -48 0 0 -279zm99 72l48 0 0 207 -48 0 0 -207zm-1 -73l50 0 0 38 -50 0 0 -38zm87 280l0 -39 158 -130 -149 0 0 -38 220 0 0 39 -158 130 158 0 0 38 -229 0zm489 -34c0,8 0,14 1,20 0,5 2,9 5,12l0 2 -47 0c-4,-4 -6,-12 -6,-25l0 -6c-11,13 -24,23 -40,28 -16,7 -36,10 -60,10 -27,0 -48,-6 -64,-17 -17,-11 -25,-27 -25,-49 0,-20 6,-36 18,-46 11,-10 26,-16 44,-18l97 -9c9,-1 16,-3 20,-6 4,-3 6,-8 6,-15 0,-8 -4,-14 -13,-18 -10,-3 -24,-6 -44,-6 -21,0 -36,3 -47,8 -11,5 -17,12 -18,23l-51 0c0,-24 11,-42 31,-52 21,-11 49,-16 84,-16 36,0 64,5 82,13 18,9 27,25 27,48l0 119 0 0zm-48 -70c-3,2 -9,4 -18,5l-87 10c-10,1 -18,3 -23,8 -6,5 -9,12 -9,22 0,10 4,18 12,23 8,5 20,7 35,7 25,0 46,-5 63,-15 18,-10 27,-25 27,-48l0 -12 0 0zm146 -103l0 27 1 0c12,-11 25,-19 39,-24 15,-6 32,-9 53,-9 13,0 23,1 30,4l0 46c-10,-2 -21,-4 -34,-4 -25,0 -46,6 -62,16 -17,10 -26,29 -26,56l0 95 -48 0 0 -207 47 0zm381 169c6,0 13,0 20,-1 8,0 14,-1 18,-2l0 41c-4,1 -11,2 -18,3 -9,0 -16,0 -22,0 -19,0 -35,-1 -45,-5 -11,-3 -19,-10 -24,-18 -4,-8 -6,-19 -6,-33l0 -120 -44 0 0 -34 44 0 0 -58 48 0 0 58 69 0 0 34 -69 0 0 112c0,9 2,15 6,18 5,4 13,5 23,5l0 0zm268 11l-2 0c-11,11 -24,19 -39,24 -15,6 -32,8 -50,8 -30,0 -54,-6 -71,-18 -18,-12 -27,-31 -27,-56l0 -138 48 0 0 121c0,18 6,31 16,40 11,7 27,11 49,11 20,0 38,-4 52,-15 15,-11 22,-26 22,-47l0 -110 48 0 0 207 -46 0 0 -27 0 0zm270 0l0 100 -49 0 0 -280 48 0 0 30 1 0c9,-11 21,-20 35,-26 15,-6 32,-9 52,-9 37,0 66,10 87,28 21,20 32,47 32,81 0,35 -11,61 -32,81 -21,19 -50,29 -87,29 -38,0 -66,-12 -86,-34l-1 0 0 0zm77 -146c-24,0 -44,6 -58,19 -13,13 -20,30 -20,51 0,21 7,38 20,51 14,13 34,20 58,20 52,0 78,-24 78,-71 0,-47 -26,-70 -78,-70zm217 -34l0 27 2 0c11,-11 24,-19 39,-24 14,-6 31,-9 52,-9 13,0 23,1 31,4l0 46c-11,-2 -22,-4 -34,-4 -26,0 -47,6 -64,16 -17,10 -25,29 -25,56l0 95 -48 0 0 -207 47 0zm272 -7c42,0 74,10 96,29 23,20 34,46 34,82 0,34 -11,61 -34,81 -22,19 -54,29 -96,29 -42,0 -74,-10 -97,-29 -22,-20 -34,-47 -34,-81 0,-36 12,-62 34,-82 23,-19 55,-29 97,-29zm0 182c26,0 45,-7 59,-19 13,-11 20,-29 20,-52 0,-24 -7,-41 -20,-54 -13,-11 -33,-17 -59,-17 -26,0 -46,6 -60,17 -13,13 -20,30 -20,54 0,23 7,41 20,52 14,12 34,19 60,19zm412 -175l0 199c0,21 -3,37 -9,49 -7,13 -19,22 -36,27 -17,7 -43,10 -76,10 -32,0 -57,-3 -75,-10 -18,-5 -30,-14 -36,-24 -8,-10 -11,-23 -11,-38l53 0c1,11 7,19 16,25 10,6 27,9 53,9 20,0 35,-2 46,-5 10,-4 17,-9 21,-15 4,-7 6,-16 6,-28l0 -36 -2 0c-10,10 -21,17 -35,23 -14,6 -30,9 -50,9 -35,0 -64,-9 -85,-26 -21,-18 -31,-42 -31,-74 0,-32 10,-56 31,-74 21,-18 50,-26 85,-26 37,0 65,11 87,33l1 0 0 -28 47 0 0 0zm-125 156c24,0 43,-5 57,-17 14,-11 20,-25 20,-44 0,-18 -6,-34 -20,-45 -14,-10 -33,-16 -57,-16 -25,0 -44,5 -56,15 -13,10 -19,25 -19,46 0,20 6,35 19,46 13,10 32,15 56,15l0 0zm224 -156l0 27 1 0c12,-11 25,-19 39,-24 14,-6 32,-9 53,-9 12,0 22,1 30,4l0 46c-10,-2 -22,-4 -34,-4 -25,0 -46,6 -63,16 -17,10 -25,29 -25,56l0 95 -49 0 0 -207 48 0zm370 173c0,8 0,14 1,20 0,5 2,9 4,12l0 2 -47 0c-4,-4 -6,-12 -6,-25l0 -6c-10,13 -23,23 -39,28 -17,7 -36,10 -61,10 -26,0 -48,-6 -64,-17 -16,-11 -24,-27 -24,-49 0,-20 6,-36 17,-46 12,-10 26,-16 45,-18l97 -9c9,-1 15,-3 19,-6 4,-3 7,-8 7,-15 0,-8 -5,-14 -14,-18 -9,-3 -23,-6 -44,-6 -20,0 -36,3 -47,8 -10,5 -16,12 -17,23l-51 0c0,-24 11,-42 31,-52 21,-11 48,-16 84,-16 36,0 63,5 81,13 18,9 28,25 28,48l0 119 0 0zm-49 -70c-3,2 -9,4 -17,5l-87 10c-10,1 -18,3 -24,8 -6,5 -8,12 -8,22 0,10 3,18 12,23 8,5 19,7 35,7 24,0 46,-5 63,-15 17,-10 26,-25 26,-48l0 -12 0 0zm147 -76l1 0c9,-11 20,-19 34,-24 15,-5 30,-8 47,-8 18,0 35,3 48,8 14,6 24,14 32,25 9,-12 22,-20 37,-25 16,-5 33,-8 52,-8 26,0 47,5 64,18 16,12 25,30 25,54l0 140 -49 0 0 -126c0,-31 -19,-47 -56,-47 -11,0 -21,2 -31,6 -10,4 -18,10 -24,19 -6,8 -10,19 -10,32l0 116 -49 0 0 -126c0,-31 -18,-47 -56,-47 -10,0 -20,2 -30,6 -10,4 -18,10 -25,19 -6,8 -9,19 -9,32l0 116 -49 0 0 -207 48 0 0 27 0 0zm614 146c0,8 0,14 1,20 1,5 2,9 5,12l0 2 -47 0c-4,-4 -6,-12 -6,-25l0 -6c-11,13 -23,23 -40,28 -16,7 -36,10 -60,10 -27,0 -48,-6 -64,-17 -17,-11 -25,-27 -25,-49 0,-20 6,-36 18,-46 12,-10 26,-16 44,-18l97 -9c9,-1 16,-3 20,-6 4,-3 6,-8 6,-15 0,-8 -4,-14 -13,-18 -9,-3 -23,-6 -44,-6 -20,0 -36,3 -47,8 -11,5 -17,12 -17,23l-51 0c0,-24 10,-42 31,-52 20,-11 48,-16 83,-16 36,0 64,5 82,13 18,9 27,25 27,48l0 119 0 0zm-48 -70c-3,2 -9,4 -18,5l-87 10c-10,1 -18,3 -23,8 -6,5 -9,12 -9,22 0,10 4,18 12,23 8,5 20,7 35,7 25,0 46,-5 63,-15 18,-10 27,-25 27,-48l0 -12 0 0z"/>
    <path class="fil6" d="M8044 1509c3,0 7,2 8,1 117,-78 234,-156 352,-234 47,-31 48,-61 4,-98 35,-46 24,-96 17,-154 -128,84 -249,164 -370,245 -7,4 -15,13 -15,20 -1,45 0,92 0,139 16,-4 27,-7 41,-10 0,39 -65,47 -37,91l0 0zm-1513 -692c87,24 131,74 134,150 31,-4 60,-8 89,-12 1,4 2,8 3,12 -56,37 -112,75 -169,110 -36,21 -83,11 -116,-19 -31,-27 -39,-65 -24,-103 14,-36 19,-36 39,-5 -4,20 -10,44 -3,61 21,47 94,47 122,3 35,-56 4,-133 -61,-150 -58,-15 -106,1 -139,48 -38,53 -42,124 -10,174 67,103 208,121 302,41 75,-63 80,-152 99,-237 0,-5 -3,-10 -5,-14 -12,-19 -23,-39 -36,-57 -21,-29 -42,-57 -65,-82 -6,-6 -26,-8 -34,-3 -41,25 -80,52 -126,83l0 0zm1003 435c7,0 15,0 22,0 0,24 2,49 -1,73 -3,30 12,42 37,51 57,19 113,41 170,61 78,28 156,56 239,87 0,-65 0,-124 0,-183 0,-69 0,-69 -72,-80 -2,31 -4,62 -6,93 -8,-1 -15,-1 -15,-3 -4,-34 -7,-69 -11,-108 -217,-79 -437,-159 -664,-242 0,77 2,145 0,213 -1,23 9,33 28,40 52,19 104,38 156,56 36,14 73,26 112,40 2,-37 3,-67 5,-98l0 0zm868 -259c-15,-7 -25,-13 -35,-16 -141,-50 -282,-100 -424,-150 -88,-31 -175,-63 -263,-95 -25,-8 -46,-5 -68,10 -87,58 -176,112 -263,169 -28,18 -55,38 -87,60 98,35 188,67 277,100 153,56 305,113 457,168 12,5 31,0 43,-8 52,-31 103,-66 154,-99 68,-46 136,-91 209,-139l0 0zm-1604 72c25,-18 42,-31 60,-44 254,-167 507,-334 760,-502 104,-69 136,-222 70,-328 -99,-157 -302,-199 -459,-95 -222,146 -445,292 -666,438 -38,25 -76,52 -120,82 286,-5 443,228 355,449l0 0zm804 357c-15,-7 -23,-11 -30,-14 -111,-40 -222,-81 -333,-120 -28,-10 -42,-23 -42,-56 2,-79 0,-158 2,-238 1,-15 12,-35 24,-44 131,-87 263,-172 395,-256 14,-9 40,-9 56,-3 218,77 436,155 653,233 9,2 21,5 28,2 40,-25 78,-52 122,-81 -21,-9 -36,-18 -52,-23 -136,-50 -272,-100 -409,-149 -112,-41 -223,-82 -336,-121 -14,-5 -36,-1 -49,6 -66,41 -130,85 -194,128 -232,154 -464,307 -695,462 -68,45 -136,80 -221,63 -97,-18 -195,-99 -183,-227 8,-77 55,-123 114,-162 60,-39 120,-79 179,-118 -2,-6 -1,-10 -3,-11 -103,-51 -207,-53 -308,3 -103,57 -160,149 -189,261 -38,151 36,353 173,422 79,39 160,76 242,107 198,75 397,146 596,217 11,4 29,3 39,-4 76,-47 150,-97 225,-146 63,-42 126,-84 196,-131l0 0zm88 -909c293,107 579,212 874,320 -59,40 -111,75 -168,113 9,4 13,7 16,8 54,15 55,16 55,70 0,51 2,102 0,152 -2,35 -6,69 -12,102 -3,11 -16,22 -27,29 -118,78 -237,153 -353,233 -38,27 -71,29 -112,13 -91,-36 -184,-69 -276,-104 -24,-10 -45,-8 -68,7 -143,95 -288,189 -430,284 -17,11 -28,11 -46,5 -214,-79 -430,-156 -643,-236 -93,-35 -190,-65 -267,-132 -119,-105 -163,-240 -143,-395 20,-153 108,-258 235,-338 190,-121 377,-248 566,-371 113,-74 223,-151 338,-221 182,-111 426,-37 507,152 41,96 30,191 -27,279 -5,8 -10,17 -19,30l0 0z"/>
    <path class="fil6" d="M7741 1079c10,-10 18,-21 29,-28 36,-24 73,-48 111,-71 5,-3 14,-1 20,0 1,1 3,14 0,16 -49,33 -99,65 -149,98 -4,-5 -7,-10 -11,-15z"/>
    <path class="fil6" d="M8154 1060c24,-49 108,-97 141,-82 -47,26 -83,63 -141,82z"/>
    <path class="fil6" d="M7596 960c2,-40 29,-58 64,-44 -24,17 -44,30 -64,44z"/>
    <path class="fil6" d="M7369 1001c-16,-19 -20,-24 -24,-29 13,-10 25,-21 39,-30 2,-1 15,10 14,10 -8,16 -17,31 -29,49z"/>
   </g>
  </g>
  <polygon class="fil7" points="10431,7799 10628,7799 10628,7839 10431,7839 10431,7918 10639,7918 10639,7959 10383,7959 10383,7691 10634,7691 10634,7732 10431,7732 "/>
  <path id="1" class="fil7" d="M10854 7818c0,-12 -6,-20 -17,-25 -11,-5 -27,-7 -48,-7 -20,0 -34,2 -43,6 -9,4 -14,10 -14,18 0,6 2,11 7,14 5,3 13,5 24,6l85 8c20,2 36,7 47,16 11,9 17,24 17,44 0,25 -10,42 -29,52 -20,10 -49,15 -88,15 -38,0 -68,-5 -88,-16 -21,-10 -32,-30 -32,-58l49 0c1,14 7,24 20,30 12,6 29,9 52,9 43,0 65,-10 65,-29 0,-8 -2,-13 -7,-17 -5,-3 -13,-5 -24,-6l-82 -9c-21,-2 -37,-7 -48,-15 -12,-9 -17,-23 -17,-42 0,-22 9,-38 27,-47 19,-10 45,-14 79,-14 35,0 63,5 84,15 20,10 30,28 31,52l-50 0z"/>
  <path id="2" class="fil7" d="M11004 7932l0 97 -47 0 0 -272 46 0 0 30 2 0c8,-11 20,-20 34,-26 14,-6 31,-9 50,-9 36,0 64,9 85,28 21,19 31,45 31,79 0,33 -10,59 -31,78 -21,19 -49,28 -85,28 -37,0 -64,-11 -83,-33l-2 0zm76 -142c-24,0 -43,7 -57,19 -13,12 -20,29 -20,50 0,20 7,37 20,49 14,13 33,19 57,19 50,0 75,-23 75,-68 0,-46 -25,-69 -75,-69z"/>
  <path id="3" class="fil7" d="M11468 7926c0,8 0,14 1,19 1,5 2,9 5,12l0 2 -46 0c-4,-4 -6,-12 -6,-25l0 -5c-10,12 -23,21 -38,27 -16,6 -36,9 -59,9 -26,0 -47,-5 -63,-16 -15,-11 -23,-27 -23,-48 0,-20 5,-35 17,-44 11,-10 25,-16 43,-18l94 -9c9,-1 15,-3 19,-6 4,-3 6,-8 6,-14 0,-8 -4,-13 -13,-17 -8,-4 -22,-6 -42,-6 -20,0 -35,2 -46,7 -10,5 -16,12 -17,23l-50 0c1,-24 11,-41 31,-51 20,-10 47,-15 81,-15 35,0 62,4 79,12 18,9 27,25 27,47l0 116zm-47 -69c-3,3 -9,4 -17,5l-84 10c-10,1 -18,3 -24,8 -5,4 -8,11 -8,21 0,10 4,18 12,23 8,4 19,7 34,7 24,0 45,-5 62,-15 17,-9 25,-25 25,-47l0 -12z"/>
  <path id="4" class="fil7" d="M11639 7927c24,0 41,-4 51,-12 11,-7 18,-18 20,-32l52 0c-3,25 -15,45 -34,60 -20,15 -49,22 -89,22 -40,0 -71,-9 -93,-28 -21,-19 -32,-45 -32,-79 0,-34 11,-61 32,-79 22,-19 53,-28 93,-28 39,0 69,7 88,21 20,15 31,34 35,59l-52 0c-3,-13 -9,-23 -20,-31 -10,-7 -27,-11 -51,-11 -25,0 -44,6 -56,17 -13,12 -20,29 -20,52 0,23 7,40 20,51 12,12 31,18 56,18z"/>
  <path id="5" class="fil7" d="M11809 7757l47 0 0 202 -47 0 0 -202zm-1 -71l49 0 0 38 -49 0 0 -38z"/>
  <path id="6" class="fil7" d="M12029 7751c40,0 72,9 94,28 21,18 32,45 32,79 0,34 -11,60 -32,79 -22,19 -54,28 -94,28 -41,0 -73,-9 -94,-28 -22,-19 -33,-45 -33,-79 0,-34 11,-61 33,-79 21,-19 53,-28 94,-28zm0 176c25,0 44,-6 57,-18 13,-11 20,-28 20,-51 0,-23 -7,-40 -20,-52 -13,-11 -32,-17 -57,-17 -26,0 -45,6 -58,17 -13,12 -20,29 -20,52 0,23 7,40 20,51 13,12 32,18 58,18z"/>
  <path id="7" class="fil7" d="M12365 7818c-1,-12 -7,-20 -18,-25 -11,-5 -27,-7 -48,-7 -20,0 -34,2 -43,6 -9,4 -14,10 -14,18 0,6 3,11 7,14 5,3 13,5 24,6l85 8c20,2 36,7 47,16 12,9 17,24 17,44 0,25 -10,42 -29,52 -20,10 -49,15 -88,15 -38,0 -68,-5 -88,-16 -21,-10 -31,-30 -32,-58l49 0c1,14 8,24 20,30 12,6 29,9 52,9 44,0 65,-10 65,-29 0,-8 -2,-13 -7,-17 -4,-3 -12,-5 -23,-6l-82 -9c-21,-2 -38,-7 -49,-15 -11,-9 -17,-23 -17,-42 0,-22 9,-38 28,-47 18,-10 44,-14 78,-14 36,0 64,5 84,15 20,10 31,28 31,52l-49 0z"/>
  <path id="8" class="fil7" d="M12784 7785l0 -98 48 0 0 272 -47 0 0 -29 -1 0c-9,11 -20,20 -34,26 -15,6 -31,9 -50,9 -36,0 -65,-9 -86,-28 -20,-19 -30,-45 -30,-78 0,-34 10,-60 30,-79 21,-19 50,-28 86,-28 36,0 64,11 83,33l1 0zm-75 142c24,0 43,-6 56,-19 14,-12 20,-29 20,-49 0,-21 -6,-38 -20,-50 -13,-12 -32,-19 -56,-19 -25,0 -44,6 -57,17 -13,12 -19,29 -19,52 0,22 6,39 19,51 13,11 32,17 57,17z"/>
  <path id="9" class="fil7" d="M13126 7858c0,3 -1,7 -1,12l-198 0c4,39 29,59 77,59 22,0 38,-4 48,-10 11,-7 17,-15 19,-24l52 0c-3,21 -13,37 -32,50 -19,14 -48,20 -87,20 -41,0 -72,-9 -94,-28 -22,-19 -33,-45 -33,-79 0,-34 11,-61 33,-79 21,-19 52,-28 92,-28 39,0 70,9 91,28 22,18 33,45 33,79zm-124 -71c-21,0 -37,4 -49,12 -13,8 -21,19 -24,35l146 0c-8,-31 -32,-47 -73,-47z"/>
  <path id="10" class="fil7" d="M13298 7757l47 0 0 202 -47 0 0 -202zm-1 -71l49 0 0 38 -49 0 0 -38z"/>
  <path id="11" class="fil7" d="M13447 7783l1 0c11,-10 23,-18 38,-23 15,-5 31,-8 49,-8 29,0 52,6 69,18 18,11 26,29 26,54l0 135 -47 0 0 -119c0,-17 -5,-30 -16,-38 -10,-7 -26,-11 -47,-11 -20,0 -37,5 -51,15 -14,10 -21,25 -21,45l0 108 -47 0 0 -202 46 0 0 26z"/>
  <path id="12" class="fil7" d="M13777 7922c5,0 12,0 19,-1 7,-1 13,-1 18,-2l0 40c-5,1 -11,2 -19,2 -7,1 -14,1 -21,1 -19,0 -33,-2 -44,-5 -10,-4 -18,-10 -22,-18 -5,-7 -7,-18 -7,-32l0 -116 -42 0 0 -34 42 0 0 -56 47 0 0 56 67 0 0 34 -67 0 0 109c0,8 2,14 6,17 5,3 12,5 23,5z"/>
  <path id="13" class="fil7" d="M14084 7858c0,3 0,7 -1,12l-198 0c4,39 30,59 77,59 22,0 38,-4 49,-10 10,-7 16,-15 18,-24l53 0c-3,21 -14,37 -33,50 -19,14 -47,20 -87,20 -40,0 -72,-9 -94,-28 -21,-19 -32,-45 -32,-79 0,-34 10,-61 32,-79 22,-19 52,-28 92,-28 39,0 70,9 92,28 21,18 32,45 32,79zm-124 -71c-20,0 -37,4 -49,12 -12,8 -20,19 -24,35l146 0c-7,-31 -32,-47 -73,-47z"/>
  <path id="14" class="fil7" d="M14176 7757l0 27 2 0c11,-11 23,-19 37,-24 14,-6 32,-8 52,-8 12,0 22,1 29,3l0 45c-10,-2 -21,-3 -33,-3 -24,0 -45,5 -61,15 -16,9 -25,28 -25,54l0 93 -47 0 0 -202 46 0z"/>
  <path id="15" class="fil7" d="M14542 7926c0,8 1,14 1,19 1,5 3,9 5,12l0 2 -46 0c-4,-4 -6,-12 -6,-25l0 -5c-10,12 -22,21 -38,27 -16,6 -35,9 -59,9 -26,0 -47,-5 -62,-16 -16,-11 -24,-27 -24,-48 0,-20 6,-35 17,-44 11,-10 25,-16 43,-18l95 -9c8,-1 15,-3 19,-6 4,-3 6,-8 6,-14 0,-8 -5,-13 -13,-17 -9,-4 -23,-6 -43,-6 -20,0 -35,2 -46,7 -10,5 -16,12 -17,23l-49 0c0,-24 10,-41 30,-51 20,-10 47,-15 81,-15 36,0 62,4 80,12 17,9 26,25 26,47l0 116zm-47 -69c-3,3 -8,4 -17,5l-84 10c-10,1 -18,3 -23,8 -6,4 -9,11 -9,21 0,10 4,18 12,23 8,4 19,7 34,7 24,0 45,-5 62,-15 17,-9 25,-25 25,-47l0 -12z"/>
  <path id="16" class="fil7" d="M14713 7927c24,0 41,-4 52,-12 10,-7 17,-18 19,-32l53 0c-4,25 -15,45 -35,60 -20,15 -49,22 -89,22 -40,0 -71,-9 -92,-28 -22,-19 -33,-45 -33,-79 0,-34 11,-61 32,-79 22,-19 53,-28 93,-28 40,0 69,7 89,21 19,15 31,34 34,59l-52 0c-3,-13 -9,-23 -20,-31 -10,-7 -27,-11 -51,-11 -24,0 -43,6 -56,17 -13,12 -19,29 -19,52 0,23 6,40 19,51 13,12 32,18 56,18z"/>
  <path id="17" class="fil7" d="M14999 7927c23,0 40,-4 51,-12 11,-7 17,-18 19,-32l53 0c-4,25 -15,45 -35,60 -19,15 -49,22 -88,22 -41,0 -71,-9 -93,-28 -22,-19 -33,-45 -33,-79 0,-34 11,-61 33,-79 21,-19 52,-28 93,-28 39,0 68,7 88,21 19,15 31,34 34,59l-52 0c-2,-13 -9,-23 -19,-31 -11,-7 -28,-11 -51,-11 -25,0 -44,6 -57,17 -13,12 -19,29 -19,52 0,23 6,40 19,51 13,12 32,18 57,18z"/>
  <path id="18" class="fil7" d="M15168 7757l47 0 0 202 -47 0 0 -202zm-1 -71l49 0 0 38 -49 0 0 -38z"/>
  <path id="19" class="fil7" d="M15388 7751c41,0 72,9 94,28 22,18 33,45 33,79 0,34 -11,60 -33,79 -22,19 -53,28 -94,28 -41,0 -72,-9 -94,-28 -22,-19 -33,-45 -33,-79 0,-34 11,-61 33,-79 22,-19 53,-28 94,-28zm0 176c25,0 44,-6 58,-18 13,-11 19,-28 19,-51 0,-23 -6,-40 -19,-52 -13,-11 -32,-17 -58,-17 -26,0 -45,6 -58,17 -13,12 -19,29 -19,52 0,23 6,40 19,51 14,12 33,18 58,18zm20 -191l-41 0 34 -58 68 0 -61 58z"/>
  <path id="20" class="fil7" d="M15607 7783l1 0c11,-10 23,-18 38,-23 15,-5 31,-8 49,-8 29,0 52,6 69,18 18,11 26,29 26,54l0 135 -47 0 0 -119c0,-17 -5,-30 -16,-38 -10,-7 -26,-11 -47,-11 -20,0 -37,5 -51,15 -14,10 -21,25 -21,45l0 108 -47 0 0 -202 46 0 0 26z"/>
  <path id="21" class="fil7" d="M16099 7977c-11,21 -23,36 -37,45 -14,8 -32,12 -56,12 -17,0 -30,0 -38,-2l0 -41c5,1 11,2 17,2 7,1 13,1 18,1 10,0 18,-1 25,-5 7,-3 12,-8 16,-17l8 -16 -100 -199 53 0 74 153 2 0 75 -153 53 0 -110 220z"/>
  <path id="22" class="fil7" d="M16588 7926c0,8 0,14 1,19 1,5 2,9 5,12l0 2 -46 0c-4,-4 -6,-12 -6,-25l0 -5c-10,12 -23,21 -38,27 -16,6 -36,9 -59,9 -26,0 -47,-5 -63,-16 -15,-11 -23,-27 -23,-48 0,-20 5,-35 17,-44 11,-10 25,-16 43,-18l94 -9c9,-1 15,-3 19,-6 4,-3 6,-8 6,-14 0,-8 -4,-13 -12,-17 -9,-4 -23,-6 -43,-6 -20,0 -35,2 -46,7 -10,5 -16,12 -17,23l-50 0c1,-24 11,-41 31,-51 20,-10 47,-15 81,-15 35,0 62,4 80,12 17,9 26,25 26,47l0 116zm-47 -69c-3,3 -9,4 -17,5l-84 10c-10,1 -18,3 -24,8 -5,4 -8,11 -8,21 0,10 4,18 12,23 8,4 19,7 34,7 24,0 45,-5 62,-15 17,-9 25,-25 25,-47l0 -12z"/>
  <path id="23" class="fil7" d="M16759 7927c24,0 41,-4 51,-12 11,-7 18,-18 20,-32l53 0c-4,25 -16,45 -35,60 -20,15 -49,22 -89,22 -40,0 -71,-9 -93,-28 -21,-19 -32,-45 -32,-79 0,-34 11,-61 32,-79 22,-19 53,-28 93,-28 39,0 69,7 88,21 20,15 31,34 35,59l-52 0c-3,-13 -9,-23 -20,-31 -10,-7 -27,-11 -51,-11 -25,0 -44,6 -56,17 -13,12 -20,29 -20,52 0,23 7,40 20,51 12,12 31,18 56,18z"/>
  <path id="24" class="fil7" d="M17044 7927c24,0 41,-4 52,-12 10,-7 17,-18 19,-32l53 0c-4,25 -15,45 -35,60 -20,15 -49,22 -89,22 -40,0 -71,-9 -92,-28 -22,-19 -33,-45 -33,-79 0,-34 11,-61 32,-79 22,-19 53,-28 93,-28 40,0 69,7 88,21 20,15 31,34 35,59l-52 0c-3,-13 -9,-23 -20,-31 -10,-7 -27,-11 -51,-11 -25,0 -43,6 -56,17 -13,12 -20,29 -20,52 0,23 7,40 20,51 13,12 31,18 56,18z"/>
  <path id="25" class="fil7" d="M17452 7858c0,3 0,7 0,12l-198 0c3,39 29,59 77,59 21,0 37,-4 48,-10 10,-7 17,-15 18,-24l53 0c-3,21 -14,37 -32,50 -19,14 -48,20 -87,20 -41,0 -72,-9 -94,-28 -22,-19 -33,-45 -33,-79 0,-34 11,-61 33,-79 21,-19 52,-28 91,-28 40,0 70,9 92,28 22,18 32,45 32,79zm-124 -71c-20,0 -36,4 -49,12 -12,8 -20,19 -23,35l145 0c-7,-31 -31,-47 -73,-47z"/>
  <path id="26" class="fil7" d="M17662 7818c0,-12 -6,-20 -17,-25 -11,-5 -27,-7 -48,-7 -20,0 -35,2 -44,6 -9,4 -13,10 -13,18 0,6 2,11 7,14 4,3 12,5 23,6l86 8c20,2 36,7 47,16 11,9 17,24 17,44 0,25 -10,42 -30,52 -19,10 -48,15 -87,15 -39,0 -68,-5 -89,-16 -20,-10 -31,-30 -31,-58l49 0c1,14 7,24 19,30 13,6 30,9 53,9 43,0 65,-10 65,-29 0,-8 -2,-13 -7,-17 -5,-3 -13,-5 -24,-6l-82 -9c-21,-2 -37,-7 -49,-15 -11,-9 -17,-23 -17,-42 0,-22 10,-38 28,-47 19,-10 45,-14 79,-14 35,0 63,5 83,15 21,10 31,28 32,52l-50 0z"/>
  <path id="27" class="fil7" d="M17882 7751c41,0 72,9 94,28 22,18 33,45 33,79 0,34 -11,60 -33,79 -22,19 -53,28 -94,28 -41,0 -72,-9 -94,-28 -22,-19 -33,-45 -33,-79 0,-34 11,-61 33,-79 22,-19 53,-28 94,-28zm0 176c25,0 44,-6 57,-18 13,-11 20,-28 20,-51 0,-23 -6,-40 -19,-52 -13,-11 -33,-17 -58,-17 -26,0 -45,6 -58,17 -13,12 -20,29 -20,52 0,23 7,40 20,51 13,12 32,18 58,18z"/>
  <path id="28" class="fil7" d="M18398 7926c0,8 0,14 1,19 1,5 2,9 4,12l0 2 -45 0c-4,-4 -6,-12 -6,-25l0 -5c-10,12 -23,21 -39,27 -15,6 -35,9 -58,9 -26,0 -47,-5 -63,-16 -16,-11 -24,-27 -24,-48 0,-20 6,-35 17,-44 12,-10 26,-16 43,-18l95 -9c9,-1 15,-3 19,-6 4,-3 6,-8 6,-14 0,-8 -4,-13 -13,-17 -8,-4 -23,-6 -42,-6 -20,0 -36,2 -46,7 -11,5 -16,12 -17,23l-50 0c1,-24 11,-41 31,-51 20,-10 47,-15 81,-15 35,0 62,4 79,12 18,9 27,25 27,47l0 116zm-47 -69c-3,3 -9,4 -17,5l-85 10c-10,1 -17,3 -23,8 -5,4 -8,11 -8,21 0,10 4,18 12,23 7,4 19,7 34,7 24,0 44,-5 61,-15 17,-9 26,-25 26,-47l0 -12z"/>
  <path id="29" class="fil7" d="M10425 8164l1 0c9,-11 20,-19 34,-24 13,-5 29,-8 45,-8 18,0 33,3 47,9 13,5 23,13 30,24 10,-11 22,-19 37,-25 15,-5 32,-8 50,-8 26,0 47,6 63,18 16,12 24,29 24,53l0 136 -48 0 0 -122c0,-31 -18,-46 -55,-46 -10,0 -20,2 -29,6 -10,4 -18,10 -24,18 -6,8 -9,19 -9,32l0 112 -48 0 0 -122c0,-31 -18,-46 -54,-46 -11,0 -21,2 -30,6 -10,4 -18,10 -24,18 -6,8 -9,19 -9,32l0 112 -47 0 0 -202 46 0 0 27z"/>
  <path id="30" class="fil7" d="M11029 8307c0,7 0,13 1,18 0,5 2,9 4,12l0 2 -46 0c-3,-4 -5,-12 -5,-24l0 -6c-10,13 -23,22 -39,28 -16,6 -35,9 -58,9 -26,0 -47,-6 -63,-17 -16,-10 -24,-26 -24,-47 0,-20 6,-35 17,-45 11,-10 26,-16 43,-17l95 -9c9,-1 15,-3 19,-6 4,-3 6,-8 6,-15 0,-7 -4,-13 -13,-17 -9,-4 -23,-6 -43,-6 -20,0 -35,3 -45,8 -11,4 -16,12 -17,22l-50 0c0,-24 11,-41 30,-51 20,-10 47,-15 82,-15 35,0 61,4 79,13 18,9 27,24 27,46l0 117zm-47 -69c-3,2 -9,4 -17,5l-85 9c-10,1 -17,4 -23,8 -5,5 -8,12 -8,21 0,11 4,19 11,23 8,5 20,7 35,7 24,0 44,-5 61,-14 17,-10 26,-26 26,-47l0 -12z"/>
  <path id="31" class="fil7" d="M11180 8302c5,0 12,0 19,0 7,-1 13,-2 18,-3l0 40c-5,1 -11,2 -19,3 -7,0 -14,1 -21,1 -19,0 -33,-2 -44,-6 -10,-3 -18,-9 -22,-17 -5,-8 -7,-19 -7,-33l0 -116 -42 0 0 -34 42 0 0 -56 47 0 0 56 67 0 0 34 -67 0 0 109c0,8 2,14 6,18 5,3 12,4 23,4z"/>
  <path id="32" class="fil7" d="M11487 8238c0,4 0,8 -1,12l-198 0c4,40 30,59 78,59 21,0 37,-3 48,-10 10,-6 16,-14 18,-23l53 0c-3,20 -14,37 -33,50 -19,13 -47,20 -86,20 -41,0 -73,-10 -94,-29 -22,-18 -33,-45 -33,-79 0,-34 10,-60 32,-79 22,-19 52,-28 92,-28 39,0 70,9 92,28 21,19 32,45 32,79zm-124 -71c-20,0 -37,4 -49,12 -12,8 -20,20 -24,36l146 0c-7,-32 -32,-48 -73,-48z"/>
  <path id="33" class="fil7" d="M11579 8137l0 27 2 0c11,-11 23,-18 37,-24 14,-5 32,-8 52,-8 12,0 22,1 29,3l0 46c-10,-3 -21,-4 -33,-4 -24,0 -45,5 -61,15 -16,10 -24,28 -24,55l0 92 -48 0 0 -202 46 0z"/>
  <path id="34" class="fil7" d="M11739 8137l48 0 0 202 -48 0 0 -202zm-1 -71l49 0 0 38 -49 0 0 -38z"/>
  <path id="35" class="fil7" d="M12059 8307c0,7 1,13 1,18 1,5 3,9 5,12l0 2 -46 0c-4,-4 -5,-12 -5,-24l0 -6c-10,13 -23,22 -39,28 -16,6 -35,9 -59,9 -26,0 -47,-6 -62,-17 -16,-10 -24,-26 -24,-47 0,-20 6,-35 17,-45 11,-10 26,-16 43,-17l95 -9c8,-1 15,-3 19,-6 4,-3 6,-8 6,-15 0,-7 -5,-13 -13,-17 -9,-4 -23,-6 -43,-6 -20,0 -35,3 -46,8 -10,4 -16,12 -16,22l-50 0c0,-24 10,-41 30,-51 20,-10 47,-15 81,-15 36,0 62,4 80,13 17,9 26,24 26,46l0 117zm-47 -69c-3,2 -8,4 -16,5l-85 9c-10,1 -18,4 -23,8 -6,5 -8,12 -8,21 0,11 3,19 11,23 8,5 19,7 34,7 24,0 45,-5 62,-14 17,-10 25,-26 25,-47l0 -12z"/>
  <polygon id="36" class="fil7" points="12115,8068 12162,8068 12162,8339 12115,8339 "/>
  <path id="37" class="fil7" d="M12456 8238c0,4 0,8 0,12l-199 0c4,40 30,59 78,59 21,0 37,-3 48,-10 10,-6 16,-14 18,-23l53 0c-3,20 -14,37 -33,50 -18,13 -47,20 -86,20 -41,0 -72,-10 -94,-29 -22,-18 -33,-45 -33,-79 0,-34 11,-60 32,-79 22,-19 53,-28 92,-28 40,0 70,9 92,28 21,19 32,45 32,79zm-124 -71c-20,0 -36,4 -49,12 -12,8 -20,20 -24,36l146 0c-7,-32 -32,-48 -73,-48z"/>
  <path id="38" class="fil7" d="M12666 8199c-1,-12 -7,-21 -18,-25 -11,-5 -26,-8 -47,-8 -20,0 -35,2 -44,6 -9,5 -13,11 -13,18 0,7 2,12 7,15 4,3 12,5 23,6l85 7c21,2 36,8 48,17 11,9 16,23 16,43 0,25 -9,43 -29,53 -19,10 -48,15 -87,15 -39,0 -68,-6 -89,-16 -20,-11 -31,-31 -32,-59l49 0c1,14 8,25 20,30 12,6 30,9 53,9 43,0 65,-10 65,-29 0,-7 -3,-13 -7,-16 -5,-3 -13,-6 -24,-7l-82 -8c-21,-2 -37,-7 -49,-16 -11,-9 -17,-22 -17,-41 0,-22 9,-38 28,-48 18,-9 45,-14 79,-14 35,0 63,5 83,15 21,11 31,28 32,53l-50 0z"/>
  <path id="39" class="fil7" d="M13086 8165l0 -97 47 0 0 271 -46 0 0 -28 -2 0c-9,11 -20,19 -34,25 -14,7 -31,10 -50,10 -36,0 -65,-10 -85,-29 -21,-18 -31,-44 -31,-78 0,-33 10,-60 31,-78 20,-19 49,-29 85,-29 36,0 64,11 83,33l2 0zm-76 142c24,0 43,-6 56,-18 14,-13 21,-29 21,-50 0,-21 -7,-37 -21,-50 -13,-12 -32,-18 -56,-18 -25,0 -44,5 -57,17 -12,11 -19,28 -19,51 0,23 7,40 19,51 13,12 32,17 57,17z"/>
  <path id="40" class="fil7" d="M13427 8238c0,4 0,8 -1,12l-198 0c4,40 30,59 77,59 22,0 38,-3 48,-10 11,-6 17,-14 19,-23l53 0c-3,20 -14,37 -33,50 -19,13 -48,20 -87,20 -40,0 -72,-10 -94,-29 -21,-18 -32,-45 -32,-79 0,-34 10,-60 32,-79 22,-19 52,-28 92,-28 39,0 70,9 92,28 21,19 32,45 32,79zm-124 -71c-20,0 -37,4 -49,12 -13,8 -20,20 -24,36l146 0c-8,-32 -32,-48 -73,-48z"/>
  <polygon id="41" class="fil7" points="13599,8068 13647,8068 13647,8339 13599,8339 "/>
  <path id="42" class="fil7" d="M13941 8238c0,4 -1,8 -1,12l-198 0c4,40 29,59 77,59 22,0 38,-3 48,-10 11,-6 17,-14 19,-23l52 0c-3,20 -13,37 -32,50 -19,13 -48,20 -87,20 -41,0 -72,-10 -94,-29 -22,-18 -33,-45 -33,-79 0,-34 11,-60 33,-79 21,-19 52,-28 92,-28 39,0 70,9 91,28 22,19 33,45 33,79zm-124 -71c-21,0 -37,4 -49,12 -13,8 -21,20 -24,36l146 0c-8,-32 -32,-48 -73,-48z"/>
  <path id="43" class="fil7" d="M14102 8307c24,0 41,-4 52,-11 11,-8 17,-19 19,-32l53 0c-4,25 -15,45 -35,59 -19,15 -49,23 -89,23 -40,0 -70,-10 -92,-29 -22,-18 -33,-45 -33,-78 0,-35 11,-61 33,-80 21,-19 52,-28 92,-28 40,0 69,7 89,22 19,14 31,34 34,58l-52 0c-3,-13 -9,-23 -20,-30 -10,-8 -27,-12 -51,-12 -24,0 -43,6 -56,18 -13,11 -19,29 -19,52 0,22 6,39 19,51 13,12 32,17 56,17z"/>
  <path id="44" class="fil7" d="M14365 8302c6,0 12,0 19,0 8,-1 14,-2 18,-3l0 40c-5,1 -11,2 -19,3 -7,0 -14,1 -21,1 -18,0 -33,-2 -43,-6 -11,-3 -18,-9 -23,-17 -4,-8 -7,-19 -7,-33l0 -116 -41 0 0 -34 41 0 0 -56 47 0 0 56 67 0 0 34 -67 0 0 109c0,8 2,14 7,18 4,3 12,4 22,4z"/>
  <path id="45" class="fil7" d="M14631 8313l-2 0c-10,11 -23,18 -38,23 -14,6 -31,8 -48,8 -29,0 -52,-6 -70,-18 -17,-11 -26,-29 -26,-54l0 -135 48 0 0 119c0,17 5,30 15,38 11,8 27,11 48,11 19,0 36,-5 50,-15 15,-10 22,-25 22,-45l0 -108 47 0 0 202 -46 0 0 -26z"/>
  <path id="46" class="fil7" d="M14779 8137l0 27 1 0c11,-11 24,-18 38,-24 14,-5 31,-8 51,-8 12,0 22,1 30,3l0 46c-10,-3 -21,-4 -33,-4 -25,0 -46,5 -62,15 -16,10 -24,28 -24,55l0 92 -48 0 0 -202 47 0z"/>
  <path id="47" class="fil7" d="M15144 8307c0,7 1,13 2,18 0,5 2,9 4,12l0 2 -46 0c-3,-4 -5,-12 -5,-24l0 -6c-10,13 -23,22 -39,28 -16,6 -35,9 -58,9 -27,0 -47,-6 -63,-17 -16,-10 -24,-26 -24,-47 0,-20 6,-35 17,-45 11,-10 26,-16 43,-17l95 -9c9,-1 15,-3 19,-6 4,-3 6,-8 6,-15 0,-7 -4,-13 -13,-17 -9,-4 -23,-6 -43,-6 -20,0 -35,3 -45,8 -11,4 -17,12 -17,22l-50 0c0,-24 11,-41 30,-51 20,-10 47,-15 82,-15 35,0 61,4 79,13 18,9 26,24 26,46l0 117zm-46 -69c-3,2 -9,4 -17,5l-85 9c-10,1 -18,4 -23,8 -6,5 -8,12 -8,21 0,11 4,19 11,23 8,5 19,7 35,7 24,0 44,-5 61,-14 17,-10 26,-26 26,-47l0 -12z"/>
  <path id="48" class="fil7" d="M15453 8357c-11,22 -23,37 -37,45 -14,8 -32,13 -55,13 -17,0 -30,-1 -39,-2l0 -41c5,1 11,1 18,2 6,0 12,1 17,1 10,0 18,-2 25,-5 7,-3 12,-9 16,-17l8 -16 -100 -200 53 0 74 154 2 0 75 -154 53 0 -110 220z"/>
  <path id="49" class="fil7" d="M15771 8164l2 0c8,-11 19,-19 33,-24 14,-5 29,-8 45,-8 18,0 34,3 47,9 13,5 24,13 31,24 9,-11 21,-19 36,-25 16,-5 32,-8 51,-8 25,0 46,6 62,18 16,12 24,29 24,53l0 136 -47 0 0 -122c0,-31 -19,-46 -55,-46 -11,0 -21,2 -30,6 -10,4 -17,10 -24,18 -6,8 -9,19 -9,32l0 112 -47 0 0 -122c0,-31 -19,-46 -55,-46 -10,0 -20,2 -30,6 -10,4 -17,10 -24,18 -6,8 -9,19 -9,32l0 112 -47 0 0 -202 46 0 0 27z"/>
  <path id="50" class="fil7" d="M16341 8313l-1 0c-11,11 -24,18 -38,23 -15,6 -31,8 -49,8 -29,0 -52,-6 -69,-18 -18,-11 -26,-29 -26,-54l0 -135 47 0 0 119c0,17 5,30 16,38 10,8 26,11 47,11 20,0 37,-5 51,-15 14,-10 21,-25 21,-45l0 -108 47 0 0 202 -46 0 0 -26z"/>
  <polygon id="51" class="fil7" points="16443,8068 16490,8068 16490,8339 16443,8339 "/>
  <path id="52" class="fil7" d="M16643 8302c5,0 12,0 19,0 7,-1 13,-2 18,-3l0 40c-5,1 -11,2 -19,3 -7,0 -14,1 -21,1 -19,0 -33,-2 -44,-6 -10,-3 -18,-9 -22,-17 -5,-8 -7,-19 -7,-33l0 -116 -42 0 0 -34 42 0 0 -56 47 0 0 56 67 0 0 34 -67 0 0 109c0,8 2,14 6,18 5,3 12,4 23,4z"/>
  <path id="53" class="fil7" d="M16725 8137l47 0 0 202 -47 0 0 -202zm-1 -71l49 0 0 38 -49 0 0 -38z"/>
  <path id="54" class="fil7" d="M16874 8164l1 0c9,-11 20,-19 34,-24 14,-5 29,-8 45,-8 18,0 34,3 47,9 13,5 24,13 31,24 9,-11 21,-19 36,-25 16,-5 32,-8 51,-8 25,0 46,6 62,18 16,12 24,29 24,53l0 136 -47 0 0 -122c0,-31 -19,-46 -56,-46 -10,0 -20,2 -29,6 -10,4 -18,10 -24,18 -6,8 -9,19 -9,32l0 112 -48 0 0 -122c0,-31 -18,-46 -54,-46 -11,0 -20,2 -30,6 -10,4 -18,10 -24,18 -6,8 -9,19 -9,32l0 112 -47 0 0 -202 46 0 0 27z"/>
  <path id="55" class="fil7" d="M17499 8238c0,4 0,8 -1,12l-198 0c4,40 30,59 77,59 22,0 38,-3 49,-10 10,-6 16,-14 18,-23l53 0c-3,20 -14,37 -33,50 -19,13 -47,20 -87,20 -40,0 -72,-10 -94,-29 -21,-18 -32,-45 -32,-79 0,-34 10,-60 32,-79 22,-19 52,-28 92,-28 39,0 70,9 92,28 21,19 32,45 32,79zm-124 -71c-20,0 -37,4 -49,12 -12,8 -20,20 -24,36l146 0c-7,-32 -32,-48 -73,-48z"/>
  <path id="56" class="fil7" d="M17736 8165l0 -97 47 0 0 271 -46 0 0 -28 -1 0c-9,11 -20,19 -35,25 -14,7 -30,10 -49,10 -37,0 -65,-10 -86,-29 -20,-18 -31,-44 -31,-78 0,-33 11,-60 31,-78 21,-19 49,-29 86,-29 36,0 64,11 83,33l1 0zm-75 142c24,0 43,-6 56,-18 14,-13 20,-29 20,-50 0,-21 -6,-37 -20,-50 -13,-12 -32,-18 -56,-18 -25,0 -44,5 -57,17 -13,11 -19,28 -19,51 0,23 6,40 19,51 13,12 32,17 57,17z"/>
  <path id="57" class="fil7" d="M17839 8137l47 0 0 202 -47 0 0 -202zm-1 -71l49 0 0 38 -49 0 0 -38z"/>
  <path id="58" class="fil7" d="M18159 8307c0,7 0,13 1,18 1,5 2,9 5,12l0 2 -46 0c-4,-4 -6,-12 -6,-24l0 -6c-10,13 -23,22 -38,28 -16,6 -36,9 -59,9 -26,0 -47,-6 -63,-17 -15,-10 -23,-26 -23,-47 0,-20 5,-35 17,-45 11,-10 25,-16 43,-17l94 -9c9,-1 16,-3 20,-6 4,-3 6,-8 6,-15 0,-7 -5,-13 -13,-17 -9,-4 -23,-6 -43,-6 -20,0 -35,3 -46,8 -10,4 -16,12 -17,22l-50 0c1,-24 11,-41 31,-51 20,-10 47,-15 81,-15 36,0 62,4 80,13 17,9 26,24 26,46l0 117zm-47 -69c-3,2 -8,4 -17,5l-84 9c-10,1 -18,4 -23,8 -6,5 -9,12 -9,21 0,11 4,19 12,23 8,5 19,7 34,7 24,0 45,-5 62,-14 17,-10 25,-26 25,-47l0 -12z"/>
 </g>
</svg>
