<?xml version="1.0" encoding="UTF-8"?>
<!DOCTYPE svg PUBLIC "-//W3C//DTD SVG 1.1//EN" "http://www.w3.org/Graphics/SVG/1.1/DTD/svg11.dtd">
<!-- Creator: CorelDRAW X7 -->
<svg xmlns="http://www.w3.org/2000/svg" xml:space="preserve" width="110.846mm" height="53.9104mm" version="1.1" style="shape-rendering:geometricPrecision; text-rendering:geometricPrecision; image-rendering:optimizeQuality; fill-rule:evenodd; clip-rule:evenodd"
viewBox="0 0 9857 4794"
 xmlns:xlink="http://www.w3.org/1999/xlink">
 <defs>
  <style type="text/css">
   <![CDATA[
    .fil4 {fill:#FEFEFE}
    .fil1 {fill:#E6E7E8}
    .fil0 {fill:#96989A;fill-rule:nonzero}
    .fil2 {fill:#727376;fill-rule:nonzero}
    .fil3 {fill:#0072C2;fill-rule:nonzero}
   ]]>
  </style>
 </defs>
 <g id="Capa_x0020_1">
  <metadata id="CorelCorpID_0Corel-Layer"/>
  <path class="fil0" d="M8421 4392l871 0 0 -871 -871 0 0 871zm-7906 -4392l871 0 4 0 3 0 872 0 3 0 3 0 872 0 3 0 4 0 872 0 3 0 3 0 872 0 3 0 4 0 871 0 4 0 3 0 872 0 3 0 4 0 871 0 4 0 3 0 872 0 3 0 4 0 875 0 3 0 0 3 0 875 0 4 0 3 0 872 0 3 0 4 0 871 0 4 0 3 0 872 0 3 0 4 0 871 0 4 0 3 0 288 -7 0 0 -288 -871 0 0 288 -7 0 0 -288 -872 0 0 288 -7 0 0 -288 -871 0 0 288 -7 0 0 -288 -872 0 0 288 -7 0 0 -288 -871 0 0 288 -7 0 0 -288 -872 0 0 288 -6 0 0 -288 -872 0 0 288 -7 0 0 -288 -872 0 0 288 -6 0 0 -288 -872 0 0 288 -7 0 0 -288 -871 0 0 288 -7 0 0 -288 -246 0 0 -7 246 0 0 -871 -246 0 0 -7 246 0 0 -872 -246 0 0 -7 246 0 0 -871 -246 0 0 -7 246 0 0 -872 -246 0 0 -7 246 0 0 -871 -246 0 0 -7 246 0 3 0 4 0zm871 7l-871 0 0 871 871 0 0 -871zm879 0l-872 0 0 871 872 0 0 -871zm878 0l-872 0 0 871 872 0 0 -871zm879 0l-872 0 0 871 872 0 0 -871zm878 0l-872 0 0 871 872 0 0 -871zm878 0l-871 0 0 871 871 0 0 -871zm879 0l-872 0 0 871 872 0 0 -871zm878 0l-871 0 0 871 871 0 0 -871zm879 0l-872 0 0 871 872 0 0 -871zm878 0l-871 0 0 871 871 0 0 -871zm-7906 878l-871 0 0 872 871 0 0 -872zm879 0l-872 0 0 872 872 0 0 -872zm878 0l-872 0 0 872 872 0 0 -872zm879 0l-872 0 0 872 872 0 0 -872zm878 0l-872 0 0 872 872 0 0 -872zm878 0l-871 0 0 872 871 0 0 -872zm879 0l-872 0 0 872 872 0 0 -872zm878 0l-871 0 0 872 871 0 0 -872zm879 0l-872 0 0 872 872 0 0 -872zm878 0l-871 0 0 872 871 0 0 -872zm-7906 879l-871 0 0 871 871 0 0 -871zm879 0l-872 0 0 871 872 0 0 -871zm878 0l-872 0 0 871 872 0 0 -871zm879 0l-872 0 0 871 872 0 0 -871zm878 0l-872 0 0 871 872 0 0 -871zm878 0l-871 0 0 871 871 0 0 -871zm879 0l-872 0 0 871 872 0 0 -871zm878 0l-871 0 0 871 871 0 0 -871zm879 0l-872 0 0 871 872 0 0 -871zm878 0l-871 0 0 871 871 0 0 -871zm-7906 878l-871 0 0 872 871 0 0 -872zm879 0l-872 0 0 872 872 0 0 -872zm878 0l-872 0 0 872 872 0 0 -872zm879 0l-872 0 0 872 872 0 0 -872zm878 0l-872 0 0 872 872 0 0 -872zm878 0l-871 0 0 872 871 0 0 -872zm879 0l-872 0 0 872 872 0 0 -872zm878 0l-871 0 0 872 871 0 0 -872zm879 0l-872 0 0 872 872 0 0 -872zm878 0l-871 0 0 872 871 0 0 -872zm-7906 879l-871 0 0 871 871 0 0 -871zm879 0l-872 0 0 871 872 0 0 -871zm878 0l-872 0 0 871 872 0 0 -871zm879 0l-872 0 0 871 872 0 0 -871zm878 0l-872 0 0 871 872 0 0 -871zm878 0l-871 0 0 871 871 0 0 -871zm879 0l-872 0 0 871 872 0 0 -871zm878 0l-871 0 0 871 871 0 0 -871zm879 0l-872 0 0 871 872 0 0 -871z"/>
  <polygon class="fil0" points="298,132 298,443 231,443 231,314 104,314 104,443 36,443 36,132 104,132 104,251 231,251 231,132 "/>
  <path class="fil0" d="M366 4642c11,0 20,-3 27,-8 7,-5 12,-12 16,-20 3,-8 6,-17 7,-27 1,-10 2,-19 2,-27 0,-9 -1,-18 -2,-28 -1,-9 -4,-18 -7,-26 -4,-8 -9,-15 -16,-20 -7,-6 -16,-8 -27,-8 -11,0 -20,2 -27,8 -7,5 -12,12 -16,20 -3,8 -6,17 -7,26 -1,10 -2,19 -2,28 0,8 1,17 2,27 1,10 4,19 7,27 4,8 9,15 16,20 7,5 16,8 27,8zm0 -182c14,0 25,3 34,9 9,6 17,14 22,23 5,10 9,21 11,33 3,12 4,23 4,35 0,11 -1,23 -4,35 -2,12 -6,22 -11,32 -5,9 -13,17 -22,23 -9,7 -20,10 -34,10 -14,0 -25,-3 -34,-10 -9,-6 -17,-14 -22,-23 -5,-10 -9,-20 -11,-32 -2,-12 -4,-24 -4,-35 0,-12 2,-23 4,-35 2,-12 6,-23 11,-33 5,-9 13,-17 22,-23 9,-6 20,-9 34,-9z"/>
  <path class="fil0" d="M9581 4554c0,14 2,27 7,39 4,12 11,22 19,31 9,8 18,15 30,20 11,4 24,7 37,7 14,0 26,-3 37,-7 12,-5 22,-12 30,-20 8,-9 15,-19 20,-31 4,-12 7,-25 7,-39 0,-15 -3,-28 -7,-39 -5,-12 -12,-22 -20,-31 -8,-9 -18,-15 -30,-20 -11,-5 -23,-7 -37,-7 -13,0 -26,2 -37,7 -12,5 -21,11 -30,20 -8,9 -15,19 -19,31 -5,11 -7,24 -7,39zm254 0c0,28 -6,54 -18,77 -12,23 -29,41 -50,56l62 66 -50 41 -71 -83c-12,3 -23,4 -34,4 -23,0 -44,-4 -64,-13 -19,-8 -36,-19 -51,-33 -14,-14 -25,-31 -33,-51 -9,-20 -13,-41 -13,-64 0,-23 4,-45 13,-64 8,-20 19,-37 33,-51 15,-15 32,-26 51,-34 20,-8 41,-12 64,-12 23,0 44,4 64,12 19,8 36,19 51,34 14,14 25,31 34,51 8,19 12,41 12,64z"/>
  <rect class="fil1" x="2666" y="209" width="3819" height="541" rx="165" ry="165"/>
  <path class="fil2" d="M3027 624c-19,0 -37,-3 -54,-10 -16,-7 -31,-17 -43,-29 -12,-12 -22,-27 -29,-44 -7,-17 -10,-36 -10,-56 0,-20 3,-38 10,-56 7,-17 17,-31 29,-44 12,-12 27,-21 43,-28 17,-7 35,-10 54,-10 21,0 40,4 58,12 18,8 33,19 46,34l-21 18c-9,-13 -22,-22 -36,-29 -14,-7 -30,-10 -47,-10 -16,0 -30,2 -43,8 -13,5 -25,13 -35,23 -10,10 -17,22 -23,36 -6,14 -8,30 -8,46 0,17 2,32 8,46 6,14 13,26 23,36 10,10 22,18 35,24 13,5 27,8 43,8 17,0 33,-4 48,-11 14,-7 26,-17 36,-30l21 18c-13,15 -28,27 -46,36 -18,8 -38,12 -59,12z"/>
  <path id="1" class="fil2" d="M3352 426l0 193 -21 0 -2 -31 -1 0c-8,12 -19,21 -31,27 -13,6 -27,9 -42,9 -10,0 -20,-1 -29,-5 -9,-3 -16,-8 -23,-15 -7,-7 -12,-16 -16,-27 -4,-10 -6,-23 -6,-37l0 -114 26 0 0 106c0,23 5,41 15,52 10,11 23,16 39,16 11,0 20,-2 28,-6 8,-4 14,-9 20,-16 5,-7 10,-15 12,-23 3,-9 5,-18 5,-27l0 -102 26 0z"/>
  <path id="2" class="fil2" d="M3496 421c4,0 9,1 13,1 5,1 9,2 13,3l-5 27c-5,-1 -9,-3 -14,-4 -5,-1 -10,-1 -15,-1 -8,0 -15,2 -20,5 -6,4 -10,10 -14,16 -3,7 -6,15 -8,24 -1,9 -2,19 -2,29l0 98 -26 0 0 -193 21 0 2 26 0 0c12,-20 30,-31 55,-31z"/>
  <path id="3" class="fil2" d="M3735 426l-85 193 -24 0 -85 -193 30 0 37 88c3,7 6,14 9,21 3,7 6,14 9,21 2,6 5,12 7,18 2,5 3,9 5,12l1 0c1,-3 2,-7 4,-12 3,-6 5,-12 8,-18l8 -21c3,-7 6,-14 9,-21l37 -88 30 0z"/>
  <path id="4" class="fil2" d="M3841 600c9,0 18,-1 25,-4 8,-3 14,-7 20,-12 6,-5 10,-12 13,-19 3,-7 5,-16 5,-25l0 -16c-9,-2 -19,-3 -28,-5 -9,-1 -18,-1 -27,-1 -7,0 -14,1 -21,2 -6,1 -13,3 -18,7 -6,3 -10,7 -13,12 -4,6 -6,12 -6,21 0,7 2,13 5,18 3,5 6,9 11,13 5,3 10,5 16,7 6,2 12,2 18,2zm7 -179c26,0 46,6 60,19 15,12 22,32 22,58l0 121 -21 0 -2 -30 -1 0c-8,12 -18,21 -30,27 -12,6 -26,8 -40,8 -10,0 -19,-1 -27,-4 -9,-3 -16,-7 -23,-13 -6,-5 -11,-12 -15,-20 -4,-8 -5,-17 -5,-27 0,-12 2,-22 6,-30 4,-8 10,-15 18,-20 7,-5 16,-9 25,-11 10,-3 20,-4 31,-4 9,0 19,1 29,2 9,1 19,2 29,3l0 -6c0,-17 -5,-30 -15,-37 -10,-8 -24,-12 -40,-12 -12,0 -23,2 -34,6 -11,3 -21,8 -31,14l-13 -23c12,-6 25,-11 38,-15 13,-4 26,-6 39,-6z"/>
  <path id="5" class="fil2" d="M4163 599c10,0 20,-2 29,-5 8,-4 16,-9 23,-16 6,-7 11,-15 15,-24 4,-9 5,-20 5,-31 0,-12 -1,-22 -5,-31 -4,-10 -9,-18 -15,-25 -7,-7 -15,-12 -23,-16 -9,-3 -19,-5 -29,-5 -10,0 -20,2 -29,5 -9,4 -16,9 -23,16 -6,7 -11,15 -15,25 -4,9 -6,19 -6,31 0,11 2,22 6,31 4,9 9,17 15,24 7,7 14,12 23,16 9,3 19,5 29,5zm98 -265l0 285 -21 0 -2 -34 -1 0c-8,13 -19,22 -32,29 -14,7 -28,10 -44,10 -14,0 -26,-2 -38,-7 -12,-5 -22,-12 -31,-21 -8,-10 -15,-20 -20,-33 -5,-12 -7,-26 -7,-40 0,-15 2,-29 7,-41 5,-13 12,-23 20,-32 9,-9 19,-16 31,-21 12,-5 24,-8 38,-8 15,0 29,3 41,9 13,6 24,15 32,26l1 0 0 -122 26 0z"/>
  <path id="6" class="fil2" d="M4408 446c-10,0 -18,1 -26,4 -8,3 -15,8 -20,13 -6,6 -10,13 -14,21 -3,7 -5,16 -6,25l129 0c-1,-9 -3,-17 -6,-25 -3,-8 -7,-15 -12,-20 -5,-6 -11,-11 -19,-14 -7,-3 -16,-4 -26,-4zm89 69c0,3 0,6 0,9 0,3 0,6 -1,9l-154 0c1,9 3,18 7,26 3,9 8,16 14,22 7,5 14,10 22,14 8,3 17,5 27,5 10,0 21,-3 32,-8 11,-5 20,-11 26,-19l19 17c-10,11 -22,20 -36,26 -13,6 -28,8 -43,8 -14,0 -27,-2 -39,-8 -12,-5 -22,-12 -30,-22 -8,-9 -15,-20 -19,-32 -5,-12 -7,-26 -7,-39 0,-14 2,-27 7,-39 4,-13 10,-23 18,-33 8,-9 18,-16 29,-22 12,-5 25,-8 39,-8 14,0 26,3 37,7 11,5 21,12 28,20 8,8 14,18 18,29 4,12 6,24 6,38z"/>
  <polygon id="7" class="fil2" points="4637,334 4663,334 4663,619 4637,619 "/>
  <path id="8" class="fil2" d="M4793 600c9,0 17,-1 24,-4 8,-3 15,-7 20,-12 6,-5 10,-12 13,-19 4,-7 5,-16 5,-25l0 -16c-9,-2 -18,-3 -27,-5 -10,-1 -19,-1 -28,-1 -7,0 -13,1 -20,2 -7,1 -13,3 -19,7 -5,3 -10,7 -13,12 -4,6 -5,12 -5,21 0,7 1,13 4,18 3,5 7,9 11,13 5,3 10,5 16,7 6,2 12,2 19,2zm7 -179c25,0 45,6 60,19 14,12 21,32 21,58l0 121 -21 0 -2 -30 0 0c-8,12 -18,21 -31,27 -12,6 -25,8 -39,8 -10,0 -20,-1 -28,-4 -9,-3 -16,-7 -23,-13 -6,-5 -11,-12 -15,-20 -3,-8 -5,-17 -5,-27 0,-12 2,-22 6,-30 5,-8 11,-15 18,-20 7,-5 16,-9 26,-11 9,-3 19,-4 30,-4 10,0 19,1 29,2 10,1 19,2 29,3l0 -6c0,-17 -5,-30 -15,-37 -10,-8 -23,-12 -40,-12 -11,0 -23,2 -33,6 -11,3 -22,8 -31,14l-13 -23c12,-6 24,-11 37,-15 13,-4 26,-6 40,-6z"/>
  <path id="9" class="fil2" d="M5126 599c10,0 20,-2 29,-5 9,-4 16,-9 23,-16 6,-7 11,-15 15,-24 3,-9 5,-20 5,-31 0,-12 -2,-22 -5,-31 -4,-10 -9,-18 -15,-25 -7,-7 -14,-12 -23,-16 -9,-3 -19,-5 -29,-5 -11,0 -20,2 -29,5 -9,4 -17,9 -23,16 -7,7 -12,15 -15,25 -4,9 -6,19 -6,31 0,11 2,22 6,31 3,9 8,17 15,24 6,7 14,12 23,16 9,3 18,5 29,5zm2 -178c14,0 26,3 38,8 11,5 22,12 30,21 9,9 16,19 21,32 5,12 7,26 7,41 0,14 -2,28 -7,40 -5,13 -12,23 -21,33 -8,9 -19,16 -30,21 -12,5 -24,7 -38,7 -16,0 -30,-3 -44,-10 -13,-7 -24,-16 -33,-29l-1 0 -1 34 -21 0 0 -285 26 0 0 122 0 0c9,-11 20,-20 32,-26 13,-6 27,-9 42,-9z"/>
  <path id="10" class="fil2" d="M5365 599c11,0 21,-2 30,-6 9,-4 17,-9 23,-16 6,-7 11,-15 14,-24 4,-10 6,-20 6,-30 0,-11 -2,-21 -6,-30 -3,-10 -8,-18 -14,-25 -6,-7 -14,-12 -23,-16 -9,-4 -19,-6 -30,-6 -11,0 -21,2 -30,6 -9,4 -17,9 -23,16 -6,7 -11,15 -14,25 -4,9 -5,19 -5,30 0,10 1,20 5,30 3,9 8,17 14,24 6,7 14,12 23,16 9,4 19,6 30,6zm0 -178c14,0 27,3 40,8 12,5 22,13 31,22 9,9 15,20 20,32 5,12 7,25 7,40 0,14 -2,27 -7,39 -5,13 -11,23 -20,33 -9,9 -19,16 -31,21 -13,5 -26,8 -40,8 -15,0 -28,-3 -40,-8 -12,-5 -22,-12 -31,-21 -9,-10 -15,-20 -20,-33 -5,-12 -7,-25 -7,-39 0,-15 2,-28 7,-40 5,-12 11,-23 20,-32 9,-9 19,-17 31,-22 12,-5 25,-8 40,-8z"/>
  <path id="11" class="fil2" d="M5729 421c9,0 18,2 26,6 8,3 15,8 21,15 6,7 11,15 14,26 4,10 6,22 6,36l0 115 -26 0 0 -107c0,-23 -5,-40 -13,-51 -8,-10 -20,-15 -35,-15 -8,0 -16,1 -23,5 -6,3 -12,8 -16,15 -5,6 -8,13 -10,22 -3,8 -4,17 -4,27l0 104 -26 0 0 -107c0,-23 -4,-40 -12,-51 -8,-10 -20,-15 -35,-15 -8,0 -16,1 -23,5 -6,3 -12,8 -16,15 -5,6 -8,13 -10,22 -2,8 -3,17 -3,27l0 1 0 103 -26 0 0 -193 21 0 1 25 1 0c7,-10 17,-17 27,-22 11,-5 23,-8 35,-8 13,0 24,3 34,9 10,7 18,16 24,29l1 0c7,-13 17,-22 29,-28 11,-7 24,-10 38,-10z"/>
  <path id="12" class="fil2" d="M5956 599c10,0 20,-2 29,-5 8,-4 16,-9 22,-16 7,-7 12,-15 16,-24 3,-9 5,-20 5,-31 0,-12 -2,-22 -5,-31 -4,-10 -9,-18 -16,-25 -6,-7 -14,-12 -22,-16 -9,-3 -19,-5 -29,-5 -11,0 -20,2 -29,5 -9,4 -17,9 -23,16 -7,7 -12,15 -15,25 -4,9 -6,19 -6,31 0,11 2,22 6,31 3,9 8,17 15,24 6,7 14,12 23,16 9,3 18,5 29,5zm2 -178c14,0 26,3 38,8 11,5 22,12 30,21 9,9 16,19 21,32 5,12 7,26 7,41 0,14 -2,28 -7,40 -5,13 -12,23 -21,33 -8,9 -19,16 -30,21 -12,5 -24,7 -38,7 -16,0 -30,-3 -44,-10 -13,-7 -24,-16 -33,-29l-1 0 -1 34 -21 0 0 -285 26 0 0 122 0 0c9,-11 20,-20 32,-26 13,-6 27,-9 42,-9z"/>
  <path id="13" class="fil2" d="M6172 600c9,0 18,-1 25,-4 8,-3 14,-7 20,-12 6,-5 10,-12 13,-19 3,-7 5,-16 5,-25l0 -16c-9,-2 -19,-3 -28,-5 -9,-1 -18,-1 -27,-1 -7,0 -14,1 -21,2 -6,1 -13,3 -18,7 -6,3 -10,7 -13,12 -4,6 -6,12 -6,21 0,7 2,13 5,18 3,5 6,9 11,13 5,3 10,5 16,7 6,2 12,2 18,2zm7 -179c26,0 46,6 60,19 15,12 22,32 22,58l0 121 -21 0 -2 -30 -1 0c-8,12 -18,21 -30,27 -12,6 -26,8 -40,8 -10,0 -19,-1 -27,-4 -9,-3 -16,-7 -23,-13 -6,-5 -11,-12 -15,-20 -4,-8 -6,-17 -6,-27 0,-12 3,-22 7,-30 4,-8 10,-15 18,-20 7,-5 16,-9 25,-11 10,-3 20,-4 31,-4 9,0 19,1 29,2 9,1 19,2 29,3l0 -6c0,-17 -5,-30 -15,-37 -10,-8 -24,-12 -40,-12 -12,0 -23,2 -34,6 -11,3 -21,8 -31,14l-13 -23c12,-6 25,-11 38,-15 13,-4 26,-6 39,-6z"/>
  <g id="_2269086263376">
   <path class="fil3" d="M516 1299c775,43 1550,85 2306,181 756,97 1493,247 2190,504 763,281 1479,692 2172,1160l-29 34c-689,-465 -1401,-873 -2159,-1153 -693,-256 -1427,-405 -2180,-501 -754,-96 -1528,-138 -2303,-181l3 -44z"/>
   <polygon class="fil4" points="0,0 34,0 34,34 0,34 "/>
   <polygon class="fil4" points="9822,4760 9857,4760 9857,4794 9822,4794 "/>
  </g>
 </g>
</svg>
