<?xml version="1.0" encoding="UTF-8"?>
<!DOCTYPE svg PUBLIC "-//W3C//DTD SVG 1.1//EN" "http://www.w3.org/Graphics/SVG/1.1/DTD/svg11.dtd">
<!-- Creator: CorelDRAW X7 -->
<svg xmlns="http://www.w3.org/2000/svg" xml:space="preserve" width="60.5904mm" height="60.5904mm" version="1.1" style="shape-rendering:geometricPrecision; text-rendering:geometricPrecision; image-rendering:optimizeQuality; fill-rule:evenodd; clip-rule:evenodd"
viewBox="0 0 3171 3171"
 xmlns:xlink="http://www.w3.org/1999/xlink">
 <defs>
  <style type="text/css">
   <![CDATA[
    .fil0 {fill:#0076C6;fill-rule:nonzero}
   ]]>
  </style>
 </defs>
 <g id="Capa_x0020_1">
  <metadata id="CorelCorpID_0Corel-Layer"/>
  <path class="fil0" d="M1586 0c437,0 834,177 1121,464 287,287 464,684 464,1122 0,437 -177,834 -464,1121 -287,287 -684,464 -1121,464 -438,0 -835,-177 -1122,-464 -287,-287 -464,-684 -464,-1121 0,-438 177,-835 464,-1122 287,-287 684,-464 1122,-464zm1065 520c-272,-273 -649,-441 -1065,-441 -417,0 -793,168 -1066,441 -273,273 -441,649 -441,1066 0,416 168,793 441,1065 273,273 649,442 1066,442 416,0 793,-169 1065,-442 273,-272 442,-649 442,-1065 0,-417 -169,-793 -442,-1066z"/>
  <path class="fil0" d="M663 996c-22,24 -44,62 -138,240 -21,39 -59,112 -86,162 -27,51 -49,97 -49,105 1,27 57,75 57,48 0,-4 59,-118 131,-254 104,-194 136,-248 152,-250 29,-4 230,102 230,121 0,8 -58,125 -129,258 -188,354 -204,380 -219,380 -7,0 -56,-21 -109,-48 -52,-26 -100,-45 -105,-42 -15,10 -9,58 9,74 33,29 172,92 204,92 18,0 43,-8 56,-18 28,-22 33,-19 78,39 30,41 35,53 35,102l0 56 38 34c21,20 48,35 61,35 22,0 24,3 24,34 0,44 48,94 98,104 19,3 35,12 35,19 0,34 81,100 123,100 12,0 25,10 33,27 25,47 59,68 115,68 27,0 54,-5 60,-12 9,-9 20,-3 52,27 69,65 123,77 180,39 18,-12 40,-35 51,-52 13,-20 24,-28 33,-24 8,3 32,7 53,10 47,5 95,-25 122,-76 17,-30 23,-34 46,-30 55,11 136,-42 146,-96l5 -30 33 4c44,5 84,-12 119,-52 24,-28 28,-40 28,-83 0,-37 -5,-57 -20,-77l-21 -26 18 -10c10,-5 47,-37 82,-71l64 -62 29 25c39,32 62,31 176,-7l95 -32 0 -37c0,-28 -3,-36 -14,-34 -8,2 -57,17 -108,32 -54,17 -97,25 -102,20 -5,-5 -52,-134 -105,-288 -137,-400 -134,-392 -125,-400 12,-13 214,-76 240,-76l24 0 71 214c43,127 77,214 84,214 6,0 11,-5 11,-13 0,-7 7,-19 15,-25 7,-6 14,-21 14,-33 0,-11 -27,-101 -61,-199 -89,-261 -94,-265 -312,-196 -132,43 -169,70 -169,124 0,51 -81,59 -271,25 -220,-40 -305,-44 -364,-20 -19,8 -57,32 -85,52l-50 38 -111 0 -110 0 -47 -25c-40,-22 -47,-30 -47,-55 0,-49 -23,-70 -153,-134 -142,-72 -180,-78 -220,-35zm1130 245c169,33 265,39 313,19 20,-8 38,-13 40,-11 4,4 150,425 171,495l15 48 -66 62c-36,34 -81,70 -100,80l-33 18 -57 -47c-31,-25 -159,-132 -282,-237 -252,-212 -276,-229 -312,-220 -62,16 -113,85 -113,156 0,41 -46,129 -76,145 -10,5 -29,10 -42,10l-24 0 0 -152 0 -152 73 -66c41,-37 105,-90 144,-120l70 -53 77 0c44,0 132,11 202,25zm-723 56c45,22 70,28 120,28l63 1 -51 54 -51 54 0 181 0 181 25 19c18,15 38,20 75,20l51 0 53 -50c43,-41 58,-62 77,-115 12,-35 23,-76 23,-89 0,-25 23,-60 40,-60 5,0 63,46 129,103 67,56 166,140 221,186 295,246 314,264 314,294 0,37 -25,64 -59,64 -29,0 -51,-16 -266,-199 -101,-86 -126,-98 -149,-75 -28,28 -11,49 141,174 137,112 152,128 152,162 0,35 -27,61 -64,61 -18,0 -81,-49 -263,-207 -61,-53 -94,-61 -114,-29 -12,21 16,53 132,151 142,119 149,131 108,172 -28,28 -64,19 -125,-34 -28,-23 -79,-68 -116,-100 -37,-32 -74,-57 -82,-57 -9,0 -22,8 -32,18l-17 19 25 29c22,27 89,85 140,123 23,16 24,65 2,89 -23,26 -53,20 -101,-19l-43 -35 14 -19c30,-43 3,-122 -53,-156 -21,-12 -26,-21 -19,-31 5,-7 9,-32 9,-55 0,-35 -6,-47 -37,-78 -20,-20 -47,-37 -57,-37 -17,0 -20,-7 -20,-35 0,-28 -8,-43 -42,-76 -35,-35 -47,-42 -79,-42 -21,0 -47,7 -59,16l-22 15 -35 -34c-31,-31 -41,-35 -84,-35 -39,0 -54,5 -79,26l-31 26 -20 -28c-11,-15 -34,-43 -51,-60l-31 -32 17 -35c47,-97 255,-476 259,-474 2,2 30,15 62,30zm-83 635c21,21 11,51 -30,91 -44,44 -58,48 -84,24 -26,-24 -21,-60 13,-95 32,-34 78,-43 101,-20zm184 36c36,20 22,57 -55,145 -72,84 -98,99 -125,72 -25,-25 -13,-65 42,-130 83,-99 97,-108 138,-87zm120 154c26,26 12,60 -50,125 -34,35 -66,63 -73,63 -22,0 -55,-28 -55,-47 0,-10 24,-48 54,-85 46,-57 59,-67 84,-67 16,0 34,5 40,11zm71 185c24,23 22,43 -11,74 -36,35 -77,32 -90,-6 -8,-23 -6,-30 18,-55 31,-32 56,-36 83,-13z"/>
 </g>
</svg>
