<?xml version="1.0" encoding="UTF-8"?>
<!DOCTYPE svg PUBLIC "-//W3C//DTD SVG 1.1//EN" "http://www.w3.org/Graphics/SVG/1.1/DTD/svg11.dtd">
<!-- Creator: CorelDRAW X7 -->
<svg xmlns="http://www.w3.org/2000/svg" xml:space="preserve" width="93.345mm" height="60.898mm" version="1.1" style="shape-rendering:geometricPrecision; text-rendering:geometricPrecision; image-rendering:optimizeQuality; fill-rule:evenodd; clip-rule:evenodd"
viewBox="0 0 14272 9311"
 xmlns:xlink="http://www.w3.org/1999/xlink">
 <defs>
  <style type="text/css">
   <![CDATA[
    .str3 {stroke:#4472C4;stroke-width:64.7214}
    .str4 {stroke:#C00000;stroke-width:64.7214}
    .str1 {stroke:#70AD47;stroke-width:38.8359;stroke-linejoin:round}
    .str2 {stroke:#BCBCBC;stroke-width:38.8359;stroke-linejoin:round}
    .str0 {stroke:#D9D9D9;stroke-width:38.8359;stroke-linejoin:round}
    .str5 {stroke:#727376;stroke-width:18.3477;stroke-dasharray:146.781369 91.738356}
    .fil8 {fill:none}
    .fil0 {fill:none;fill-rule:nonzero}
    .fil9 {fill:#373435;fill-rule:nonzero}
    .fil7 {fill:#373435;fill-rule:nonzero}
    .fil5 {fill:#0070C0;fill-rule:nonzero}
    .fil3 {fill:#2F5597;fill-rule:nonzero}
    .fil2 {fill:#7F6000;fill-rule:nonzero}
    .fil1 {fill:#C00000;fill-rule:nonzero}
    .fil6 {fill:#ED7D31;fill-rule:nonzero}
    .fil4 {fill:white;fill-rule:nonzero}
   ]]>
  </style>
 </defs>
 <g id="Capa_x0020_1">
  <metadata id="CorelCorpID_0Corel-Layer"/>
  <path class="fil0 str0" d="M1985 8379l11247 0m-11247 -2551l11247 0m-11247 -2554l11247 0m-11247 -2548l11247 0"/>
  <path class="fil0 str0" d="M1985 726l0 7653m2811 -7653l0 7653m2811 -7653l0 7653m2811 -7653l0 7653m2814 -7653l0 7653"/>
  <path class="fil1 str1" d="M2031 6191c0,30 -21,51 -49,51 -27,0 -51,-21 -51,-51 0,-27 24,-49 51,-49 28,0 49,22 49,49z"/>
  <path class="fil2" d="M1985 6130l13 0 12 0 18 3 -12 0 15 0 15 0 15 0 15 0 15 0 15 0 15 3 -15 0 15 0 16 0 15 0 15 0 15 0 15 0 15 0 15 0 15 0 15 3 -15 0 15 0 16 0 15 0 15 0 15 0 12 -3 24 3 9 0 15 0 15 0 16 0 -13 0 16 -3 12 0 15 0 15 0 15 0 15 0 15 0 15 0 15 0 16 0 15 0 -12 0 15 -3 12 0 15 0 15 0 18 0 15 0 -12 0 15 -3 12 0 16 0 15 0 15 0 15 0 -12 0 15 -3 12 0 15 0 15 0 15 0 -12 0 15 -3 12 0 16 0 15 0 -12 0 15 -3 12 0 15 0 15 0 -12 0 15 -3 12 0 15 0 15 0 -12 0 15 -3 12 0 16 0 -13 0 16 -3 12 0 15 0 15 0 -12 0 15 -3 12 0 15 0 -12 0 15 -3 12 0 15 0 -12 0 15 -3 12 0 16 0 15 0 -12 0 15 -3 12 0 15 0 -12 0 15 -3 12 0 15 0 -12 0 15 -3 15 -3 12 0 15 0 -12 0 15 -3 13 0 18 0 -12 0 15 -3 12 0 15 0 -12 0 15 -3 15 -3 12 0 15 0 -12 0 15 -3 12 0 16 0 -13 0 16 -3 15 -3 12 0 15 0 -12 0 15 -3 15 -3 12 0 15 0 -12 0 15 -3 15 -3 15 -3 13 0 15 0 -12 0 15 -3 15 -3 12 0 15 0 -12 0 15 -3 15 -3 15 -3 15 -3 12 0 16 0 -13 0 16 -3 15 -3 15 -3 15 -3 15 -3 12 0 15 0 -12 0 15 -4 15 -3 15 -3 16 -3 15 -3 15 -3 15 -3 15 -3 21 -3 12 -3 15 -3 15 -3 13 0 15 0 -12 0 15 -3 15 -3 -9 3 15 -6c3,0 6,-3 9,-3l15 -3 15 -3 15 -3 15 -3 16 -3 15 -3 15 -3 15 -3 15 -3 15 -3 15 -3 15 -3 -9 3 15 -6c3,0 6,-3 9,-3l16 -3 15 -3 15 -3 15 -3 15 -3 -9 3 15 -6c3,0 6,-3 9,-3l15 -3 15 -3 15 -3 16 -3 -10 3 16 -6c3,0 6,-3 9,-3l15 -3 15 -4 -9 4 15 -7c3,0 6,-3 9,-3l15 -3 15 -3 15 -3 -9 3 15 -6c3,0 6,-3 9,-3l16 -3 21 -3 -12 3 15 -6c3,0 6,-3 9,-3l15 -3 15 -3 -9 3 15 -6c3,0 6,-3 9,-3l15 -3 -9 3 15 -6c3,0 6,-3 9,-3l15 -3 16 -3 -9 3 15 -6c3,0 6,-3 9,-3l15 -3 -9 3 15 -6c3,0 6,-3 9,-3l15 -3 -9 3 15 -6c3,0 6,-3 9,-3l15 -3 15 -3 -9 3 15 -6c3,0 6,-3 10,-3l15 -3 -9 3 15 -6c3,0 6,-3 9,-3l15 -3 -9 3 15 -6 15 -6c3,0 6,-3 9,-3l15 -3 -9 3 15 -6c3,0 6,-3 9,-3l15 -4 -9 4 15 -7c3,0 7,-3 10,-3l15 -3 -9 3 15 -6 15 -6c3,0 6,-3 9,-3l15 -3 -9 3 15 -6c3,0 6,-3 9,-3l15 -3 -9 3 15 -6 15 -6c3,0 6,-3 9,-3l16 -3 -10 3 16 -6 15 -6c3,0 6,-3 9,-3l15 -3 -9 3 15 -6 15 -6c3,0 9,-3 12,-3l18 -3 -12 3 15 -6 15 -6 16 -6c3,0 6,-3 9,-3l15 -3 -9 3 15 -6 15 -6 15 -6 15 -6c3,0 6,-3 9,-3l15 -3 -9 3 15 -6 15 -7 16 -6 15 -6c3,0 6,-3 9,-3l15 -3 -9 3 15 -6 15 -6 15 -6 15 -6 15 -6 15 -6 16 -6 15 -6 15 -6c3,0 6,-3 9,-3l15 -3 -9 3 15 -6 15 -6 15 -6 15 -6 15 -6 16 -6 15 -6 15 -6 15 -6 15 -7 -9 7 15 -10c3,-3 6,-3 9,-6l15 -6 15 -6 15 -6 22 -6 12 -6 15 -6 15 -6 15 -6 15 -6 -9 6 15 -9c3,-3 6,-3 9,-6l15 -6 15 -6 16 -6 15 -6 15 -6 -9 6 15 -9c3,-3 6,-3 9,-6l15 -6 15 -6 15 -6 -9 6 15 -10c3,-3 6,-3 9,-6l16 -6 15 -6 15 -6 -9 6 15 -9c3,-3 6,-3 9,-6l15 -6 15 -6 15 -6 -9 6 15 -9c3,-3 6,-3 9,-6l15 -6 16 -6 -10 6 16 -9c3,-3 6,-3 9,-6l15 -6 -9 6 15 -9c3,-3 6,-3 9,-6l15 -6 15 -6 -9 6 15 -9c3,-3 6,-3 9,-6l15 -6 -9 6 15 -9c3,-3 6,-3 9,-7l16 -6 15 -6 -9 6 15 -9c3,-3 6,-3 9,-6l15 -6 -9 6 15 -9c3,-3 6,-6 12,-6l18 -6 -12 6 15 -9c3,-3 6,-3 9,-6l15 -6 -9 6 15 -9c3,-3 6,-3 9,-6l16 -6 -9 6 15 -9c3,-3 6,-3 9,-6l15 -6 -9 6 15 -9c3,-3 6,-3 9,-6l15 -6 -9 6 15 -9c3,-3 6,-3 9,-6l15 -6 -9 6 15 -9 15 -9c3,-3 6,-3 9,-7l16 -6 -9 6 15 -9c3,-3 6,-3 9,-6l15 -6 -9 6 15 -9 15 -9c3,-3 6,-3 9,-6l15 -6 -9 6 15 -9 15 -9c3,-3 6,-3 9,-6l16 -6 -10 6 16 -9 15 -9c3,-3 6,-3 9,-6l15 -6 -9 6 15 -9 15 -9 15 -9c3,-3 6,-3 9,-6l15 -6 -9 6 15 -9 15 -10 16 -9c3,-3 6,-3 9,-6l15 -6 -9 6 15 -9 15 -9 15 -9 15 -9c3,-3 6,-3 9,-6l15 -6 -9 6 15 -9 15 -9 22 -12 12 -6 15 -9 15 -9c3,-3 6,-3 9,-6l15 -6 -9 6 15 -10 15 -9 15 -9 16 -9 15 -9 15 -9 15 -9 15 -9 15 -9 15 -9 15 -9 15 -9 16 -9 15 -9 15 -9 15 -10 15 -9 15 -9 15 -9 15 -9 15 -9 6 -9 25 -12 15 -9 15 -9 15 -9 15 -9 15 -9 6 -9 24 -13 16 -9 15 -9 15 -9 6 -9 24 -12 21 -12 12 -6 6 -9 24 -12 16 -9 15 -9 6 -9 24 -12 15 -10 6 -9 24 -12 15 -9 6 -9 25 -12 15 -9 6 -9 24 -12 6 -9 24 -12 15 -9 6 -9 25 -13 6 -9 24 -12 6 -9 24 -12 6 -9 24 -12 6 -9 24 -12 6 -9 25 -12 6 -9 24 -12 6 -10 24 -12 6 -9 15 -12 24 -12 6 -9c7,-3 10,-6 13,-6l18 -9 -12 6 15 -12 15 -12 24 -12 6 -9 15 -12 24 -13 6 -9 16 -12 15 -12 24 -12 6 -9 15 -12 24 -12 6 -9 15 -12 15 -12 16 -12 24 -13 6 -9 15 -12 15 -12 15 -12 24 -12 6 -9 15 -12 16 -12 15 -12 15 -12 15 -12 15 -13 15 -12 24 -12 6 -9 15 -12 16 -12 15 -12 15 -12 15 -12 15 -12 24 -15 9 -10 15 -12 16 -12 15 -12 15 -12 15 -12 12 -9 18 -18 15 -12 15 -12 15 -12 16 -13 15 -12 15 -12 15 -12 12 -9 18 -18 15 -12 15 -12 15 -12 12 -9 19 -19 15 -12 15 -12 12 -9 18 -18 15 -12 15 -12 12 -9 19 -18 15 -12 12 -9 18 -19 15 -12 12 -9 18 -18 15 -12 12 -9 19 -18 24 -15 -9 9 15 -15 18 -18 12 -10 18 -18 15 -12 12 -9 18 -18 13 -9 18 -18 12 -9 18 -18 12 -9 18 -19 12 -9 18 -18 12 -9 19 -18 12 -9 15 -15 18 -18 12 -9 18 -19 12 -9 15 -15 19 -18 12 -9 15 -15 18 -18 12 -9 15 -15 18 -18 12 -10 15 -15 19 -18 12 -9 15 -15 15 -15 18 -18 12 -9 21 -21 12 -9 18 -19 13 -9 15 -15 15 -15 15 -15 18 -18 12 -9 15 -15 15 -15 15 -16 16 -15 15 -15 15 -15 15 -15 18 -18 12 -9 15 -15 15 -15 15 -16 16 -15 15 -15 15 -15 15 -15 15 -15 15 -15 15 -15 15 -15 15 -16 16 -15 9 -15 21 -18 15 -15 15 -15 15 -15 15 -15 15 -16 15 -15 16 -15 18 -18 15 -15 15 -15 15 -15 15 -15 9 -15 21 -19 16 -15 15 -15 15 -15 9 -15 21 -18 15 -15 9 -15 21 -19 15 -15 16 -15 9 -15 21 -18 15 -15 9 -15 21 -18 15 -15 9 -16 21 -18 10 -15 21 -18 15 -15 9 -15 21 -18 9 -15 21 -19 9 -15 21 -18 16 -18c24,-24 63,-24 87,0 27,24 27,64 3,88l-18 18 -12 12 -18 21 -12 12 -18 21 -12 12 -19 22 -15 15 -12 12 -18 21 -12 12 -18 21 -15 15 -12 12 -18 22 -16 15 -12 12 -18 21 -15 15 -15 15 -12 12 -18 21 -15 16 -12 12 -19 21 -15 15 -15 15 -15 15 -12 12 -18 21 -15 15 -15 16 -15 15 -16 15 -18 18 -15 15 -15 15 -15 15 -15 15 -15 15 -15 16 -16 15 -12 12 -18 21 -15 15 -15 15 -15 15 -15 15 -15 16 -15 15 -16 15 -15 15 -15 15 -15 15 -15 15 -15 15 -15 15 -21 22 -9 6 -16 15 -15 15 -15 15 -15 15 -15 15 -15 15 -15 15 -21 22 -9 6 -16 15 -15 15 -15 15 -21 21 -9 6 -18 18 -15 12 -21 22 -9 6 -16 15 -15 15 -21 21 -9 6 -15 15 -21 21 -9 6 -15 15 -22 22 -9 6 -15 15 -21 21 -9 6 -15 15 -21 21 -9 6 -21 21 -10 6 -15 16 -21 21 -9 6 -21 21 -9 6 -21 21 -9 6 -21 21 -10 6 -21 22 -9 6 -21 21 -9 6 -21 21 -15 12 -9 6 -21 21 -10 6 -15 15 -9 10 -15 9 -9 6 -21 21 -15 12 -9 6 -21 21 -16 12 -9 6 -21 21 -15 12 -9 6 -21 22 -15 12 -15 12 -9 6 -22 21 -15 12 -15 12 -9 6 -21 21 -15 13 -15 12 -15 12 -9 6 -22 21 -15 12 -15 12 -15 12 -15 12 -15 12 -15 12 -15 13 -9 6 -22 21 -15 12 -15 12 -15 12 -15 12 -15 12 -18 15 -15 9 -15 12 -16 13 -15 12 -15 12 -15 12 -15 12 -21 15 -9 6 -15 12 -16 12 -15 12 -15 12 -15 13 -15 12 -15 12 -21 15 -9 6 -15 12 -16 12 -15 12 -21 15 -9 6 -15 12 -15 12 -15 13 -21 15 -9 6 -16 12 -21 15 -9 6 -15 12 -15 12 -21 15 -9 6 -15 12 -21 16 -10 6 -15 12 -15 12c-3,3 -6,3 -9,6l-18 9 9 -6 -21 15 -9 6 -15 12 -21 15 -9 6 -22 15 -9 6 -21 15 -9 7 -21 15 -9 6 -21 15 -9 6 -22 15 -9 6 -21 15 -9 6 -21 15 -9 6 -21 15 -15 9 -9 7 -22 15 -9 6 -21 15 -15 9 -9 6 -21 15 -15 9 -9 6 -21 15 -16 9 -9 6 -21 15 -15 10 -15 9 -9 6 -21 15 -18 12 -16 6 -9 6 -21 15 -15 9 -15 9 -15 9 -9 6 -21 15 -15 10 -16 9 -15 9 -15 9 -15 9 -9 6 -21 15 -15 9 -15 9 -15 9 -16 9 -15 9 -15 9 -15 9 -15 9 -15 10 -15 9 -15 9 -15 9 -16 9 -15 9 -15 9 -15 9 -15 9 -15 9 -15 9 -15 9 -15 9c-3,3 -7,3 -10,6l-15 6 9 -6 -15 9 -15 10 -18 12 -15 6 -15 9 -15 9c-3,3 -6,3 -9,6l-15 6 9 -6 -15 9 -16 9 -15 9 -15 9c-3,3 -6,3 -9,6l-15 6 9 -6 -15 9 -15 9 -15 9c-3,3 -6,3 -9,6l-15 6 9 -6 -16 9 -15 10 -15 9c-3,3 -6,3 -9,6l-15 6 9 -6 -15 9 -15 9c-3,3 -6,3 -9,6l-15 6 9 -6 -15 9 -15 9c-3,3 -6,3 -9,6l-16 6 9 -6 -15 9 -15 9c-3,3 -6,3 -9,6l-15 6 9 -6 -15 9c-3,3 -6,3 -9,6l-15 6 9 -6 -15 9 -15 9c-3,3 -6,3 -9,6l-16 7 10 -7 -16 10c-3,3 -6,3 -9,6l-15 6 9 -6 -15 9c-3,3 -6,3 -9,6l-15 6 9 -6 -15 9c-3,3 -6,3 -9,6l-15 6 9 -6 -15 9c-3,3 -6,3 -9,6l-15 6 9 -6 -15 9c-3,3 -10,6 -13,6l-18 6 12 -6 -15 9c-3,3 -6,3 -9,6l-15 6 9 -6 -15 9c-3,3 -6,3 -9,6l-15 6 -15 6 9 -6 -15 9c-3,3 -6,3 -9,6l-15 6 9 -6 -15 10c-4,3 -7,3 -10,6l-15 6 -15 6 9 -6 -15 9c-3,3 -6,3 -9,6l-15 6 9 -6 -15 9c-3,3 -6,3 -9,6l-15 6 -15 6 9 -6 -15 9c-3,3 -6,3 -9,6l-16 6 -15 6 -15 6 9 -6 -15 9c-3,3 -6,3 -9,6l-15 6 -15 6 -15 6 9 -6 -15 9c-3,3 -6,3 -9,6l-15 6 -16 6 -15 7 9 -7 -15 10c-3,3 -6,3 -9,6l-15 6 -15 6 -15 6 -15 6 -15 6 9 -6 -15 9c-3,3 -6,3 -10,6l-15 6 -15 6 -15 6 -15 6 -18 6 -15 6 -15 6 -15 6 -16 6 10 -6 -16 9c-3,3 -6,3 -9,6l-15 6 -15 6 -15 6 -15 7 -15 6 -15 6 -15 6 -16 6 -15 6 -15 6c-3,0 -6,3 -9,3l-15 3 9 -3 -15 6 -15 6 -15 6 -15 6 -15 6 -16 6 -15 6 -15 6 -15 6c-3,0 -6,3 -9,3l-15 3 9 -3 -15 6 -15 6 -15 6 -15 6c-3,0 -7,3 -10,3l-15 3 9 -3 -15 7 -15 6 -15 6 -15 6c-3,0 -6,3 -9,3l-15 3 9 -3 -15 6 -15 6 -15 6c-4,0 -10,3 -13,3l-18 3 12 -3 -15 6 -15 6c-3,0 -6,3 -9,3l-15 3 9 -3 -15 6 -15 6c-3,0 -6,3 -9,3l-15 3 9 -3 -15 6 -16 6c-3,0 -6,3 -9,3l-15 3 9 -3 -15 6c-3,0 -6,3 -9,3l-15 3 9 -3 -15 6 -15 6c-3,0 -6,3 -9,3l-15 3 9 -3 -15 6c-3,0 -6,3 -9,3l-15 3 9 -3 -16 6c-3,0 -6,3 -9,3l-15 4 9 -4 -15 7 -15 6c-3,0 -6,3 -9,3l-15 3 9 -3 -15 6c-3,0 -6,3 -9,3l-15 3 9 -3 -15 6c-3,0 -6,3 -9,3l-16 3 -15 3 9 -3 -15 6c-3,0 -6,3 -9,3l-15 3 9 -3 -15 6c-3,0 -6,3 -9,3l-15 3 9 -3 -15 6c-3,0 -6,3 -9,3l-15 3 -15 3 9 -3 -15 6c-3,0 -7,3 -10,3l-15 3 9 -3 -15 6c-3,0 -6,3 -9,3l-15 3 -15 3 9 -3 -15 6c-3,0 -9,3 -12,3l-15 3 -15 3 9 -3 -15 6c-3,0 -6,3 -9,3l-16 3 -15 3 -15 3 9 -3 -15 6c-3,0 -6,3 -9,3l-15 3 -15 3 9 -3 -15 6c-3,0 -6,4 -9,4l-15 3 -15 3 -16 3 -15 3 9 -3 -15 6c-3,0 -6,3 -9,3l-15 3 -15 3 -15 3 -15 3 -15 3 9 -3 -15 6c-3,0 -6,3 -9,3l-16 3 -15 3 -15 3 -15 3 -15 3 -15 3 -15 3 -15 3 -15 3 -16 3 -15 3 -15 3 9 -3 -15 6c-3,0 -6,3 -9,3l-15 3 -15 3 -15 0 -15 0 15 0 -15 3 -16 3 -18 3 -15 3 -15 3 -15 3 -15 3 -15 3 -15 3 -15 3 -16 3 -15 3 -15 0 -15 0 15 0 -15 3 -15 3 -15 3 -15 4 -15 3 -15 0 -16 0 16 0 -16 3 -15 3 -15 3 -15 3 -15 0 -15 0 15 0 -15 3 -15 3 -15 0 -15 0 15 0 -15 3 -16 3 -15 3 -15 0 -15 0 15 0 -15 3 -15 3 -15 0 -15 0 15 0 -15 3 -15 3 -15 0 -16 0 16 0 -16 3 -15 0 -15 0 15 0 -15 3 -15 3 -15 0 -15 0 15 0 -15 3 -15 0 -18 0 15 0 -15 3 -16 0 -15 0 15 0 -15 3 -15 3 -15 0 -15 0 15 0 -15 3 -15 0 -15 0 15 0 -15 3 -15 0 -15 0 -16 0 16 0 -16 3 -15 0 -15 0 15 0 -15 3 -15 0 -15 0 15 0 -15 3 -15 0 -15 0 -15 0 15 0 -15 3 -15 0 -16 0 16 0 -16 3 -15 0 -15 0 -15 0 15 0 -15 3 -15 0 -15 0 -15 0 15 0 -15 3 -15 0 -15 0 -16 0 16 0 -16 3 -15 0 -15 0 -15 0 -15 0 15 0 -15 3 -15 0 -15 0 -15 0 -15 0 -16 0 16 0 -16 3 -15 0 -15 0 -18 0 -15 0 -15 0 15 0 -15 3 -15 0 -15 0 -16 0 -15 0 -15 0 -15 0 -15 0 -15 0 -15 0 -15 0 15 0 -15 3 -15 0 -16 0 -15 0 -15 0 -18 0 -6 0 -21 0 -15 0 -15 0 -15 0 -16 0 -15 0 -12 0 -15 -3 12 0 -15 0 -15 0 -15 0 -15 0 -15 0 -15 0 -16 0 -15 0 -12 0 -15 -3 12 0 -15 0 -15 0 -15 0 -15 0 -15 0 -9 0 -19 -3 10 0 -13 0c-1,0 -2,0 -3,0l0 -124c1,0 2,0 3,0z"/>
  <path class="fil3" d="M11609 9066c-27,0 -52,-4 -76,-14 -23,-10 -43,-24 -60,-41 -17,-17 -31,-38 -41,-62 -10,-24 -15,-50 -15,-78 0,-29 5,-55 15,-79 10,-24 24,-45 41,-62 17,-17 37,-31 60,-40 24,-10 49,-15 76,-15 29,0 56,6 81,17 26,11 47,27 65,48l-29 26c-14,-18 -31,-31 -51,-41 -20,-9 -42,-14 -66,-14 -22,0 -42,4 -61,11 -19,8 -35,19 -49,33 -14,14 -24,31 -32,51 -8,19 -12,41 -12,65 0,23 4,45 12,64 8,20 18,37 32,51 14,14 30,25 49,33 19,8 39,11 61,11 24,0 46,-5 67,-14 20,-10 37,-24 51,-43l29 25c-17,22 -39,38 -64,50 -26,12 -54,18 -83,18zm312 -33c13,0 24,-2 35,-6 11,-4 20,-10 28,-18 8,-7 14,-16 18,-26 5,-10 7,-22 7,-35l0 -23c-13,-3 -26,-5 -39,-6 -13,-2 -25,-2 -38,-2 -10,0 -20,0 -29,2 -10,2 -18,5 -26,10 -8,4 -14,10 -19,18 -5,7 -7,17 -7,28 0,10 2,19 6,26 4,7 9,13 16,18 6,5 14,8 22,10 9,3 17,4 26,4zm10 -253c36,0 64,9 84,26 20,18 31,45 31,82l0 171 -30 0 -3 -42 -1 0c-11,17 -25,29 -42,37 -18,8 -36,12 -56,12 -14,0 -27,-2 -39,-6 -12,-4 -23,-10 -32,-17 -9,-8 -16,-18 -21,-29 -5,-11 -8,-24 -8,-39 0,-16 3,-30 9,-42 7,-11 15,-21 25,-28 11,-7 23,-12 36,-16 14,-3 28,-5 43,-5 14,0 27,1 41,3 14,1 27,3 41,5l0 -9c0,-25 -7,-42 -21,-53 -14,-10 -33,-16 -56,-16 -17,0 -32,3 -48,8 -15,5 -29,11 -43,20l-18 -33c17,-8 34,-15 52,-21 18,-5 37,-8 56,-8zm437 7l0 272 -30 0 -2 -44 -1 0c-12,17 -27,29 -45,38 -18,9 -37,13 -59,13 -14,0 -27,-2 -39,-7 -13,-5 -24,-12 -34,-22 -9,-9 -17,-22 -22,-37 -6,-15 -9,-32 -9,-53l0 -160 37 0 0 149c0,33 7,58 21,73 14,15 33,23 56,23 14,0 27,-3 38,-8 11,-6 21,-14 29,-23 7,-10 13,-20 17,-32 4,-13 7,-25 7,-38l0 -144 36 0zm215 244c14,0 28,-3 40,-8 13,-5 23,-12 33,-22 9,-9 16,-21 21,-34 5,-13 8,-28 8,-44 0,-16 -3,-30 -8,-44 -5,-13 -12,-24 -21,-34 -10,-9 -20,-17 -33,-22 -12,-5 -26,-8 -40,-8 -15,0 -28,3 -41,8 -12,5 -23,13 -32,22 -9,10 -16,21 -21,34 -6,14 -8,28 -8,44 0,16 2,31 8,44 5,13 12,25 21,34 9,10 20,17 32,22 13,5 26,8 41,8zm138 -373l0 401 -30 0 -2 -47 -1 0c-12,17 -28,30 -46,40 -19,10 -40,14 -62,14 -19,0 -37,-3 -54,-10 -16,-8 -30,-18 -42,-30 -13,-13 -22,-28 -29,-46 -7,-17 -11,-36 -11,-57 0,-20 4,-40 11,-57 7,-18 16,-33 29,-45 12,-13 26,-23 42,-30 17,-7 35,-11 54,-11 21,0 40,5 58,13 18,9 33,21 45,36l1 0 0 -171 37 0zm183 375c13,0 24,-2 35,-6 11,-4 20,-10 28,-18 8,-7 14,-16 18,-26 5,-10 7,-22 7,-35l0 -23c-13,-3 -26,-5 -39,-6 -13,-2 -26,-2 -38,-2 -10,0 -20,0 -29,2 -10,2 -19,5 -26,10 -8,4 -14,10 -19,18 -5,7 -7,17 -7,28 0,10 2,19 6,26 4,7 9,13 16,18 6,5 14,8 22,10 8,3 17,4 26,4zm10 -253c36,0 64,9 84,26 20,18 30,45 30,82l0 171 -29 0 -3 -42 -1 0c-11,17 -25,29 -42,37 -18,8 -36,12 -56,12 -14,0 -27,-2 -39,-6 -12,-4 -23,-10 -32,-17 -9,-8 -16,-18 -21,-29 -5,-11 -8,-24 -8,-39 0,-16 3,-30 9,-42 6,-11 15,-21 25,-28 11,-7 23,-12 36,-16 14,-3 28,-5 43,-5 14,0 27,1 41,3 14,1 27,3 41,5l0 -9c0,-25 -7,-42 -21,-53 -15,-10 -33,-16 -56,-16 -17,0 -32,3 -48,8 -15,5 -30,11 -43,20l-18 -33c16,-8 34,-15 52,-21 18,-5 37,-8 56,-8zm202 -122l36 0 0 401 -36 0 0 -401z"/>
  <polygon class="fil4 str2" points="6975,246 9597,246 9597,1601 6975,1601 "/>
  <path class="fil0 str3" d="M1852 6188c-48,0 -87,6 -87,15l0 1034c0,6 -40,12 -88,12 48,0 88,9 88,15l0 1034c0,9 39,15 87,15"/>
  <path class="fil0 str4" d="M1852 4021c-48,0 -87,6 -87,15l0 1034c0,6 -40,12 -88,12 48,0 88,9 88,15l0 1034c0,9 39,15 87,15"/>
  <path class="fil5" d="M1714 8801c18,0 33,-5 43,-13 11,-8 20,-19 26,-32 6,-13 10,-27 12,-43 2,-16 3,-30 3,-44 0,-14 -1,-29 -3,-44 -2,-16 -6,-30 -12,-43 -6,-13 -15,-24 -26,-32 -10,-9 -25,-13 -43,-13 -18,0 -32,4 -43,13 -11,8 -19,19 -25,32 -6,13 -10,27 -12,43 -2,15 -3,30 -3,44 0,14 1,28 3,44 2,16 6,30 12,43 6,13 14,24 25,32 11,8 25,13 43,13zm0 -292c22,0 41,5 55,14 15,10 27,22 35,38 9,15 15,32 18,52 4,19 6,37 6,56 0,18 -2,37 -6,56 -3,19 -9,36 -18,52 -8,15 -20,28 -35,38 -14,9 -33,14 -55,14 -22,0 -40,-5 -55,-14 -14,-10 -26,-23 -35,-38 -8,-16 -14,-33 -18,-52 -3,-19 -5,-38 -5,-56 0,-19 2,-37 5,-56 4,-20 10,-37 18,-52 9,-16 21,-28 35,-38 15,-9 33,-14 55,-14z"/>
  <path class="fil3" d="M8033 8992c0,24 4,47 12,68 8,22 20,40 35,56 15,16 32,28 53,37 20,9 43,14 68,14 25,0 47,-5 68,-14 20,-9 38,-21 53,-37 15,-16 26,-34 34,-56 9,-21 13,-44 13,-68 0,-24 -4,-47 -13,-68 -8,-22 -19,-40 -34,-56 -15,-16 -33,-28 -53,-37 -21,-9 -43,-14 -68,-14 -25,0 -48,5 -68,14 -21,9 -38,21 -53,37 -15,16 -27,34 -35,56 -8,21 -12,44 -12,68zm377 0c0,21 -3,42 -8,62 -6,19 -14,38 -24,55 -11,17 -24,32 -39,46 -15,14 -32,25 -52,33l89 97 -31 26 -97 -110c-15,3 -31,5 -47,5 -31,0 -59,-6 -84,-17 -26,-11 -48,-26 -66,-45 -19,-19 -33,-42 -44,-68 -10,-26 -15,-54 -15,-84 0,-30 5,-58 15,-84 11,-26 25,-49 44,-68 18,-19 40,-34 66,-45 25,-11 53,-16 84,-16 30,0 58,5 84,16 25,11 48,26 66,45 19,19 33,42 43,68 11,26 16,54 16,84z"/>
  <path class="fil5" d="M786 7080c19,0 36,3 50,10 14,7 26,16 36,28 9,12 16,25 21,41 4,16 7,33 7,50l0 176 -40 0 0 -163c0,-14 -2,-28 -4,-40 -3,-13 -8,-24 -15,-34 -6,-9 -15,-17 -26,-22 -10,-6 -23,-9 -39,-9 -16,0 -30,3 -42,9 -13,6 -23,15 -31,25 -9,10 -15,21 -20,35 -4,13 -6,27 -6,41l0 158 -40 0 0 -439 40 0 0 183 1 0c13,-17 29,-29 48,-37 19,-8 39,-12 60,-12z"/>
  <path class="fil1" d="M786 4913c19,0 36,4 50,11 14,7 26,16 36,27 9,12 16,26 21,42 4,15 7,32 7,50l0 175 -40 0 0 -163c0,-14 -2,-27 -4,-40 -3,-12 -8,-24 -15,-33 -6,-9 -15,-17 -26,-23 -10,-5 -23,-8 -39,-8 -16,0 -30,3 -42,9 -13,6 -23,14 -31,24 -9,10 -15,22 -20,35 -4,14 -6,27 -6,42l0 157 -40 0 0 -438 40 0 0 182 1 0c13,-16 29,-28 48,-37 19,-8 39,-12 60,-12z"/>
  <polygon class="fil5" points="972,7533 945,7533 945,7259 972,7259 972,7397 973,7397 1122,7259 1160,7259 1026,7382 1164,7533 1127,7533 1007,7400 972,7431 "/>
  <path class="fil6" d="M2726 2668l-1396 1072 87 113 1396 -1071 -87 -114zm-1516 795l-351 729 792 -154 -441 -575z"/>
  <path class="fil6" d="M10608 7431l-1415 1047 86 115 1415 -1046 -86 -116zm-1529 769l-365 722 796 -140 -431 -582z"/>
  <path class="fil7" d="M9714 1352l539 366 30 -44 -539 -366 -30 44zm456 440l298 39 -147 -261 -151 222z"/>
  <path class="fil3" d="M184 694c-14,33 -28,65 -41,97 -13,33 -27,65 -41,97l164 0c-14,-32 -27,-64 -41,-97 -13,-32 -27,-64 -40,-97l-1 0zm98 230l-196 0 -43 101 -43 0 166 -377 36 0 166 377 -43 0 -43 -101zm143 -300l36 0 0 401 -36 0 0 -401zm211 408c-22,0 -38,-6 -48,-18 -10,-12 -15,-29 -15,-50l0 -177 -45 0 0 -34 45 0 0 -92 37 0 0 92 84 0 0 34 -84 0 0 171c0,10 2,20 6,28 4,8 12,12 25,12 8,0 17,-1 27,-3 9,-1 18,-3 26,-6l6 34c-9,3 -20,6 -32,7 -12,2 -22,2 -32,2zm367 -279l0 272 -29 0 -3 -44 -1 0c-12,16 -26,29 -44,38 -18,9 -38,13 -59,13 -14,0 -28,-2 -40,-7 -13,-5 -24,-12 -33,-22 -10,-10 -17,-22 -23,-37 -5,-15 -8,-32 -8,-53l0 -160 36 0 0 149c0,33 7,58 21,73 14,15 33,23 56,23 15,0 27,-3 39,-9 11,-5 20,-13 28,-22 8,-10 14,-20 18,-33 4,-12 6,-24 6,-37l0 -144 36 0zm203 -7c6,0 13,1 19,2 7,1 13,2 18,4l-7 37c-6,-1 -13,-3 -20,-5 -7,-1 -14,-2 -21,-2 -11,0 -20,3 -28,8 -8,6 -15,13 -20,22 -5,10 -8,21 -11,34 -2,13 -3,27 -3,41l0 138 -37 0 0 -272 30 0 2 37 1 0c17,-29 43,-44 77,-44zm187 253c13,0 24,-3 35,-7 11,-4 20,-9 28,-17 8,-7 14,-16 19,-26 4,-11 6,-22 6,-35l0 -23c-13,-3 -26,-5 -38,-6 -13,-2 -26,-3 -39,-3 -10,0 -19,1 -29,3 -10,2 -18,5 -26,10 -8,4 -14,10 -19,18 -5,7 -7,17 -7,28 0,10 2,19 6,26 4,7 9,13 16,18 6,4 14,8 22,10 9,2 17,4 26,4zm10 -253c36,0 65,9 85,26 20,18 30,45 30,82l0 171 -30 0 -2 -43 -1 0c-11,17 -26,30 -43,38 -17,8 -36,12 -56,12 -14,0 -27,-2 -39,-6 -12,-4 -22,-10 -31,-18 -9,-7 -17,-17 -22,-28 -5,-11 -7,-24 -7,-39 0,-17 3,-31 9,-42 6,-11 14,-21 25,-28 10,-7 22,-12 36,-16 13,-3 27,-5 42,-5 14,0 28,1 41,2 14,2 28,4 41,5l0 -8c0,-25 -7,-42 -21,-53 -14,-11 -33,-16 -56,-16 -16,0 -32,3 -47,8 -16,4 -30,11 -44,20l-18 -33c17,-8 34,-15 52,-21 18,-5 37,-8 56,-8z"/>
  <rect class="fil8" width="283" height="297"/>
  <path class="fil1" d="M1012 5148c0,-31 9,-48 33,-48 10,0 21,2 32,5l6 -25c-12,-3 -27,-6 -40,-6 -39,0 -57,28 -57,74l0 26 -30 0 0 24 30 0 0 175 26 0 0 -175 66 0 0 -24 -66 0 0 -26z"/>
  <path class="fil9" d="M7386 840c55,0 103,-24 136,-63l-27 -23c-26,33 -65,53 -109,53 -80,0 -142,-61 -142,-148 0,-87 62,-147 142,-147 44,0 82,18 108,51l26 -24c-33,-38 -80,-60 -134,-60 -99,0 -177,75 -177,180 0,105 78,181 177,181z"/>
  <path id="1" class="fil9" d="M7773 582l0 133c0,47 -30,93 -83,93 -43,0 -71,-27 -71,-89l0 -137 -34 0 0 148c0,75 45,110 96,110 39,0 73,-17 95,-48l1 0 2 41 28 0 0 -251 -34 0z"/>
  <path id="2" class="fil9" d="M7993 576c-31,0 -54,14 -70,41l-1 0 -2 -35 -28 0 0 251 34 0 0 -127c0,-55 17,-97 57,-97 14,0 26,3 38,7l7 -35c-10,-2 -23,-5 -35,-5z"/>
  <path id="3" class="fil9" d="M8265 582l-49 115c-3,8 -7,17 -11,27l-10 27c-7,16 -14,31 -16,39l-1 0c-7,-16 -24,-58 -38,-93l-49 -115 -39 0 110 251 32 0 110 -251 -39 0z"/>
  <path id="4" class="fil9" d="M8442 809c-33,0 -65,-17 -65,-53 0,-43 39,-54 74,-54 24,0 48,3 72,7l0 22c0,47 -35,78 -81,78zm9 -233c-35,0 -69,11 -100,27l17 30c25,-16 53,-26 83,-26 43,0 72,19 72,64l0 8c-25,-4 -51,-7 -76,-7 -55,0 -104,23 -104,84 0,54 41,84 92,84 37,0 70,-15 91,-46l1 0 2 39 27 0 0 -157c0,-68 -38,-100 -105,-100z"/>
  <path id="5" class="fil9" d="M8858 807c-53,0 -93,-40 -93,-99 0,-59 40,-100 93,-100 54,0 95,41 95,100 0,59 -41,99 -95,99zm94 -343l0 157 -1 0c-22,-28 -56,-45 -95,-45 -70,0 -125,55 -125,132 0,76 55,132 125,132 41,0 77,-20 99,-51l1 0 2 44 28 0 0 -369 -34 0z"/>
  <path id="6" class="fil9" d="M9177 608c51,0 77,35 81,82l-167 0c5,-48 34,-82 86,-82zm115 90c0,-71 -44,-122 -116,-122 -75,0 -120,60 -120,132 0,72 48,132 123,132 39,0 76,-16 102,-45l-24 -23c-17,21 -49,36 -76,36 -51,0 -85,-38 -91,-87l201 0c1,-8 1,-16 1,-23z"/>
  <path id="7" class="fil9" d="M7300 1346c-26,0 -56,-10 -75,-28l-20 27c23,21 66,32 96,32 46,0 95,-18 95,-71 0,-50 -49,-69 -89,-79 -23,-5 -61,-16 -61,-46 0,-28 34,-36 55,-36 26,0 53,9 74,24l19 -27c-26,-19 -61,-28 -93,-28 -42,0 -89,19 -89,68 0,46 43,64 81,73 27,7 69,18 69,52 0,32 -36,39 -62,39z"/>
  <path id="8" class="fil9" d="M7466 1371l34 0 0 -251 -34 0 0 251zm38 -326c0,12 -8,21 -21,21 -12,0 -21,-9 -21,-21 0,-11 9,-21 21,-21 13,0 21,10 21,21z"/>
  <path id="9" class="fil9" d="M7663 1346c-26,0 -56,-10 -76,-28l-19 27c22,21 66,32 96,32 46,0 94,-18 94,-71 0,-50 -48,-69 -89,-79 -22,-5 -60,-16 -60,-46 0,-28 33,-36 55,-36 26,0 53,9 74,24l19 -27c-26,-19 -61,-28 -93,-28 -43,0 -89,19 -89,68 0,46 43,64 81,73 27,7 69,18 69,52 0,32 -36,39 -62,39z"/>
  <path id="10" class="fil9" d="M7904 1377c18,0 42,-2 59,-8l-5 -31c-16,4 -33,8 -50,8 -22,0 -28,-17 -28,-37l0 -158 78 0 0 -31 -78 0 0 -84 -34 0 0 84 -42 0 0 31 42 0 0 163c0,40 17,63 58,63z"/>
  <path id="11" class="fil9" d="M8131 1146c51,0 77,35 81,82l-167 0c6,-48 35,-82 86,-82zm116 89c0,-70 -44,-121 -116,-121 -75,0 -120,60 -120,132 0,71 48,131 123,131 39,0 76,-15 102,-44l-24 -23c-18,21 -49,35 -76,35 -51,0 -86,-37 -91,-86l201 0c0,-8 1,-16 1,-24z"/>
  <path id="12" class="fil9" d="M8592 1114c-36,0 -68,16 -88,48l-1 0c-14,-32 -42,-48 -75,-48 -32,0 -60,13 -80,38l-1 0 -2 -32 -27 0 0 251 34 0 0 -134 0 -1c0,-51 22,-90 68,-90 39,0 61,25 61,86l0 139 34 0 0 -135c0,-51 23,-90 68,-90 39,0 62,25 62,86l0 139 33 0 0 -150c0,-71 -39,-107 -86,-107z"/>
  <path id="13" class="fil9" d="M8842 1346c-33,0 -65,-16 -65,-53 0,-42 39,-54 74,-54 24,0 48,3 72,8l0 21c0,47 -35,78 -81,78zm9 -232c-35,0 -69,11 -100,27l17 30c25,-16 53,-26 83,-26 43,0 72,19 72,63l0 8c-25,-3 -51,-6 -76,-6 -55,0 -104,23 -104,83 0,54 41,84 92,84 37,0 70,-14 91,-45l1 0 2 39 27 0 0 -158c0,-67 -38,-99 -105,-99z"/>
  <rect class="fil8" x="13989" y="9014" width="283" height="297"/>
  <line class="fil8 str5" x1="1657" y1="4045" x2="8706" y2= "4045" />
  <line class="fil8 str5" x1="8173" y1="8643" x2="8173" y2= "3469" />
 </g>
</svg>
