<?xml version="1.0" encoding="UTF-8"?>
<!DOCTYPE svg PUBLIC "-//W3C//DTD SVG 1.1//EN" "http://www.w3.org/Graphics/SVG/1.1/DTD/svg11.dtd">
<!-- Creator: CorelDRAW X7 -->
<svg xmlns="http://www.w3.org/2000/svg" xml:space="preserve" width="93.345mm" height="60.8979mm" version="1.1" style="shape-rendering:geometricPrecision; text-rendering:geometricPrecision; image-rendering:optimizeQuality; fill-rule:evenodd; clip-rule:evenodd"
viewBox="0 0 14272 9311"
 xmlns:xlink="http://www.w3.org/1999/xlink">
 <defs>
  <style type="text/css">
   <![CDATA[
    .str4 {stroke:#4472C4;stroke-width:64.7214}
    .str2 {stroke:red;stroke-width:97.0898;stroke-linejoin:round}
    .str1 {stroke:#70AD47;stroke-width:38.8359;stroke-linejoin:round}
    .str3 {stroke:#BCBCBC;stroke-width:38.8359;stroke-linejoin:round}
    .str0 {stroke:#D9D9D9;stroke-width:38.8359;stroke-linejoin:round}
    .str5 {stroke:#727376;stroke-width:18.3477;stroke-dasharray:146.781369 91.738356}
    .fil8 {fill:none}
    .fil1 {fill:none;fill-rule:nonzero}
    .fil10 {fill:#373435;fill-rule:nonzero}
    .fil6 {fill:black;fill-rule:nonzero}
    .fil7 {fill:#0070C0;fill-rule:nonzero}
    .fil4 {fill:#2F5597;fill-rule:nonzero}
    .fil2 {fill:#70AD47;fill-rule:nonzero}
    .fil3 {fill:#7F6000;fill-rule:nonzero}
    .fil9 {fill:#ED7D31;fill-rule:nonzero}
    .fil0 {fill:#FFC9C9;fill-rule:nonzero}
    .fil5 {fill:white;fill-rule:nonzero}
   ]]>
  </style>
 </defs>
 <g id="Capa_x0020_1">
  <metadata id="CorelCorpID_0Corel-Layer"/>
  <path class="fil0" d="M3593 1778l13 0c3,0 6,0 12,3l9 3 -15 -3 12 0c6,0 9,0 15,3l9 3 -15 -3 12 0 9 0 12 0 12 3 -12 0 12 0c6,0 9,0 15,3l9 3 -15 -3 12 0c6,0 9,0 15,3l9 3 -15 -3 12 0c6,0 9,0 15,3l10 3 -16 -3 13 0 12 0 12 3 -12 0 9 0 12 0c6,0 9,0 15,3l9 3 9 0 -12 0 9 0 12 0 12 3 -12 0 12 0c6,0 9,0 15,3l9 3 -15 -3 12 0c6,0 9,0 15,3l10 3 -16 -3 12 0c7,0 10,0 16,3l9 3 -15 -3 12 0 12 0 12 3 -12 0 9 0 12 0 12 3 12 6 -15 -3 12 0c6,0 9,0 15,3l9 3 -15 -3 12 0 12 0 12 3 13 6 -16 -3 12 0c7,0 10,0 16,3l9 3 9 0 -12 0 12 0c6,0 9,0 15,3l9 3 9 0 -12 0 9 0 12 0 12 3 12 6 -15 -3 12 0 12 0 12 3 12 6 -15 -3 12 0c6,0 10,0 16,3l9 3 6 0c21,7 36,28 30,52 -6,21 -27,33 -48,27l-16 -3 -9 -3 12 3 -12 0c-3,0 -6,0 -12,-3l-6 0 -12 -3 9 0 -12 0c-3,0 -6,0 -12,-3l-6 0 -12 -3 9 0 -9 0 -9 0 -15 -6 -9 -3 12 3 -12 0 -9 0 -16 -6 -9 -3 12 3 -12 0c-3,0 -6,0 -12,-3l-6 0 -12 -3 9 0 -12 0c-3,0 -6,0 -12,-3l-9 -3 12 3 -12 0c-3,0 -6,0 -12,-3l-6 0 -12 -3 9 0 -9 0 -9 0 -12 -3 9 0 -12 0c-3,0 -6,0 -13,-3l-9 -3 12 3 -12 0c-3,0 -6,0 -12,-3l-9 -3 12 3 -12 0c-3,0 -6,0 -12,-3l-9 -3 12 3 -12 0 -9 0 -12 -3 9 0 -9 0 -9 0 -15 -6 -9 -3 12 3 -12 0 -9 0 -9 0 -13 -3 10 0 -13 0c-3,0 -6,0 -12,-3l-9 -3 12 3 -12 0c-3,0 -6,0 -12,-3l-9 -4 12 4 -12 0c-3,0 -6,0 -12,-4l-9 -3 12 3 -12 0 -9 0 -12 -3 9 0 -9 0 -12 0c-3,0 -6,0 -12,-3l-9 -3 12 3 -12 0c-3,0 -6,0 -13,-3l-9 -3 13 3 -13 0c-21,0 -39,-18 -39,-42 0,-21 18,-39 42,-39zm6064 3588l3 3 3 3 9 12 -3 -3 12 12 3 3 9 12 -3 -3 12 12 9 9 12 12 12 12 3 3 9 12 -3 -3 12 12 3 3 10 13 -3 -3 12 12 3 3 9 12 -3 -3 12 12 12 12 3 3 9 12 -6 -6 12 9c3,0 6,3 6,6l9 12 -3 -3 12 12 3 3 9 12 -3 -3 12 12 12 12 3 3 10 13 -3 -3 12 12 3 3 9 12 -3 -3 12 12 3 3 9 12 -3 -3 12 12 12 12 3 3 9 12 -3 -3 12 12 3 3 9 12 -3 -3 12 12 3 3 9 13 -3 -3 12 12 16 18c15,18 12,42 -3,57 -19,15 -43,12 -58,-3l-3 -3 -9 -12 -12 -12c-3,0 -3,-3 -3,-3l-9 -12 3 3 -12 -12c-3,0 -3,-3 -3,-3l-9 -12 3 3 -12 -12c-3,0 -3,-3 -3,-3l-9 -12 3 3 -13 -13 -12 -12c-3,0 -3,-3 -3,-3l-9 -12 3 3 -12 -12c-3,0 -3,-3 -3,-3l-9 -12 3 3 -12 -12c-3,0 -3,-3 -3,-3l-9 -12 3 3 -12 -12 -12 -12c-3,0 -3,-3 -3,-3l-9 -12 3 3 -12 -12c-3,0 -3,-3 -3,-3l-9 -13 6 6 -12 -9c-3,0 -7,-3 -7,-6l-9 -12 3 3 -12 -12 -12 -12c-3,0 -3,-3 -3,-3l-9 -12 3 3 -12 -12c-3,0 -3,-3 -3,-3l-9 -12 3 3 -12 -12c-3,0 -3,-3 -3,-3l-9 -12 3 3 -12 -12 -12 -13 -9 -9 -12 -12c-3,0 -3,-3 -3,-3l-10 -12 3 3 -12 -12c-3,0 -3,-3 -3,-3l-9 -12 3 3 -3 -3c-18,-15 -18,-42 0,-57 15,-19 43,-19 58,0zm-623 -638l0 3 -6 -6 12 9c3,0 6,3 6,6l9 12 -6 -6 12 9c0,0 3,0 3,3l12 12 9 9 13 12 9 9 12 12 9 10 12 12 -3 -3 12 9c3,0 6,3 6,6l9 12 -6 -6 12 9c3,0 6,3 6,6l9 12 -3 -3 12 12 9 9 12 12 -3 -3 12 9c4,0 7,3 7,6l9 12 -3 -3 12 12 9 10 12 12 9 9 12 12 12 12 9 9 12 12 3 3 9 12 -6 -6 12 9c3,0 6,3 6,6l9 12 -3 -3 13 12 -3 -3 12 9c3,0 6,3 6,6l9 13 -3 -3 12 12 9 9 12 12 3 3 9 12 -6 -6c18,12 21,39 6,57 -12,18 -39,21 -57,6 -3,0 -6,-3 -6,-6l-9 -12 3 3 -13 -12 -9 -9 -12 -12c-3,0 -3,-3 -3,-3l-9 -12 6 6 -12 -9 -3 -3 -12 -12c-3,0 -3,-3 -3,-3l-9 -12 6 6 -12 -9c-3,0 -6,-3 -6,-6l-9 -13 3 3 -12 -12 -9 -9 -12 -12 -13 -12 -9 -9 -12 -12 -9 -9 -12 -12c-3,0 -3,-3 -3,-3l-9 -12 6 6 -12 -9 -3 -3 -12 -12 -9 -10 -12 -12c-3,0 -3,-3 -3,-3l-9 -12 6 6 -12 -9c-3,0 -6,-3 -6,-6l-9 -12 6 6 -13 -9 -3 -3 -12 -12 -9 -9 -12 -12 -9 -9 -12 -12 -9 -9 -12 -13 3 4 -12 -10c-3,0 -6,-3 -6,-6l-9 -12 6 6 -12 -9c-3,0 -6,-3 -6,-6l-3 -3c-16,-18 -10,-45 9,-57 18,-15 42,-12 57,6zm-662 -614l0 3 -3 -3 12 9c3,0 6,3 6,6l9 12 -6 -6 12 9 12 10c0,0 3,0 3,3l10 9 -3 -3 12 9c0,0 3,0 3,3l9 9 -3 -3 12 9c3,0 6,3 6,6l9 12 -6 -6 12 9 12 9c0,0 3,0 3,3l9 9 -3 -3 12 9c0,0 3,0 3,3l9 9 12 12 9 9 -3 -3 12 9 13 10c3,0 6,3 6,6l9 12 -6 -6 12 9c0,0 3,0 3,3l9 9 -3 -3 12 9c3,0 6,3 6,6l9 12 -6 -6 12 9 12 9c0,0 3,0 3,3l9 9 12 12 9 9 -3 -3 12 9c0,0 3,0 3,3l10 9 12 13 -3 -3 12 9c0,0 3,0 3,3l9 9 12 12 9 9 -3 -3 12 9c0,0 3,0 3,3l12 12 9 9 -3 -3 9 6c18,15 24,39 9,58 -12,18 -39,24 -57,9l-12 -9 -3 -4 -9 -9 -12 -12 3 3 -12 -9 -3 -3 -10 -9 -12 -12 -9 -9 3 3 -12 -9 -3 -3 -12 -12 -9 -9 3 3 -12 -9 -3 -3 -9 -9 -12 -12 -9 -9 3 3 -12 -10 -12 -9c-3,0 -6,-3 -6,-6l-10 -12 6 6 -12 -9 -3 -3 -9 -9 3 3 -12 -9c-3,0 -6,-3 -6,-6l-9 -12 6 6 -12 -9 -12 -9 -3 -3 -9 -9 -12 -12 -9 -9 3 3 -12 -9 -3 -3 -9 -10 3 4 -12 -10 -13 -9c-3,0 -6,-3 -6,-6l-9 -12 6 6 -12 -9 -3 -3 -9 -9 3 3 -12 -9 -3 -3 -9 -9 3 3 -12 -9 -12 -9c-3,0 -6,-3 -6,-6l-9 -12 6 6 -12 -9 -3 -3 -3 0c-15,-18 -15,-43 0,-61 18,-15 42,-15 60,0zm-701 -568l9 6c0,0 3,0 3,3l9 9 -9 -9 12 6c3,3 6,6 9,9l9 9 -3 -3 12 9c0,0 3,0 3,3l9 9 -9 -9 12 6c0,3 3,3 6,6l13 9c0,0 3,0 3,4l9 9 -3 -3 12 9 6 3 15 12c0,0 3,0 3,3l9 9 -3 -3 12 9 12 9 6 3 15 12c0,0 3,0 3,3l9 9 -3 -3 12 9c0,0 3,0 3,3l9 9 -9 -9 13 6c0,3 3,3 6,6l12 9c0,0 3,0 3,3l9 9 -3 -3 12 10c0,0 3,0 3,3l9 9 -3 -3 12 9c0,0 3,0 3,3l9 9 -3 -3 12 9 -6 -6 12 6c3,3 6,6 9,9l9 9 -3 -3 12 9c0,0 3,0 3,3l9 9 -3 -3 13 9 12 9c0,0 3,0 3,3l9 9 -3 -3 12 9c0,0 3,0 3,3l9 9 -3 -3 12 9c0,0 3,0 3,3l9 10 -3 -4 12 10 -6 -6 12 6c3,3 6,6 9,9l6 6c18,18 18,42 0,57 -15,18 -39,18 -57,0l-6 -6 9 9 -12 -6c0,-3 -3,-3 -6,-6l-12 -9 -3 -3 -9 -9 3 3 -13 -9 -3 -3 -9 -9 3 3 -12 -9 -3 -3 -9 -9 3 3 -12 -9 -12 -10 -3 -3 -9 -9 3 3 -12 -9 -3 -3 -9 -9 9 9 -12 -6c0,-3 -3,-3 -6,-6l-12 -9 -3 -3 -9 -9 3 3 -13 -9 -3 -3 -9 -9 3 3 -12 -9 -3 -3 -9 -9 3 3 -12 -9 6 6 -12 -6c-3,-3 -6,-6 -9,-9l-9 -9 3 3 -12 -9 -3 -3 -9 -9 3 3 -9 -7 -12 -9 -12 -9 -12 -9 -4 -3 -9 -9 3 3 -9 -6 -12 -9 -12 -9 -3 -3 -9 -9 3 3 -12 -9 6 6 -12 -6c-3,-3 -6,-6 -9,-9l-9 -9 3 3 -12 -9 -3 -3 -9 -9 9 9 -12 -6c-3,-3 -6,-6 -9,-9l-9 -9 3 3 -6 -7c-19,-12 -22,-36 -10,-54 16,-18 40,-24 58,-9zm-732 -514l6 6 7 3 9 3c3,3 6,6 9,9l9 9 -9 -9 12 6 12 9 15 13 -6 -7 12 7 12 9 15 12 6 3 9 3 9 9 9 9 -9 -9 12 6 13 6c3,3 6,6 9,9l9 9 -9 -9 12 6c3,3 6,6 9,9l9 9 -9 -9 12 6 12 9 15 12 -6 -6 12 6c3,3 6,6 9,9l9 9 -9 -9 12 6 12 9 15 13 -6 -6 13 6c3,3 6,6 9,9l9 9 -9 -9 12 6c3,3 6,6 9,9l9 9 -9 -9 12 6c3,3 6,6 9,9l9 9 -9 -9 12 6c0,3 3,3 6,6l12 9 6 3 15 12 6 3 15 12 6 3 16 12 -6 -6 12 6c3,3 6,6 9,9l9 9 -9 -9 12 6c3,3 6,6 9,10l9 9 -3 -3c18,15 21,39 9,57 -12,18 -39,21 -57,9l-3 -3 -3 -3 -10 -9 10 9 -13 -6c-3,-3 -6,-6 -9,-9l-9 -9 9 9 -12 -6c0,-3 -3,-3 -6,-6l-9 -6 -12 -9 -9 -6 -12 -9 -9 -6 -12 -10 -12 -9 6 6 -12 -6c-3,-3 -6,-6 -9,-9l-10 -9 10 9 -13 -6 -9 -9 -9 -9 9 9 -12 -6c-3,-3 -6,-6 -9,-9l-9 -9 9 9 -12 -6c0,-3 -3,-3 -6,-6l-9 -6 -6 -3 -12 -6 -9 -9 -9 -9 9 9 -12 -6c0,-3 -3,-3 -6,-6l-9 -6 -6 -3 -13 -6c-3,-3 -6,-6 -9,-9l-9 -9 9 9 -12 -6 -9 -10 -9 -9 9 9 -12 -6 -12 -6 -9 -9 -9 -9 9 9 -15 -9 -12 -9 -9 -6 -6 -3 -12 -6c0,-3 -3,-3 -6,-6l-10 -6 -6 -3 -12 -6c-3,-3 -6,-6 -9,-9l-9 -9 9 9 -15 -9 -12 -9 -3 -3c-18,-15 -24,-40 -9,-58 12,-18 39,-21 57,-9zm-788 -456l3 3 6 0 12 6 12 9 9 3 12 6 12 9 9 3 12 9 -12 -6 12 3c3,3 9,3 12,6l9 6 9 3 12 6 13 9 9 3 12 9 9 3 12 10 9 3 12 6 12 9 9 3 12 9 9 3 12 6 13 9 9 3 12 9 9 3 12 9 9 3 12 6 12 9 9 3 12 9 9 3 12 9 10 3 12 6 12 9 9 4 12 9 9 3 9 9 9 9 -9 -9 12 6 12 6 12 9 6 3c21,9 27,36 18,54 -9,21 -33,30 -54,18l-15 -6 -6 -3 -12 -6 -12 -6 -9 -9 -9 -9 9 9 -15 -9 -7 -3 -15 -9 -6 -3 -12 -6 -15 -9 -6 -3 -15 -9 -6 -3 -15 -9 -6 -3 -12 -6 -15 -9 -7 -3 -15 -10 -6 -3 -15 -9 -6 -3 -12 -6 -15 -9 -6 -3 -15 -9 -6 -3 -12 -6 -15 -9 -6 -3 -16 -9 -6 -3 -15 -9 -6 -3 -12 -6 -15 -9 -9 -6 12 6 -12 -3c-3,-3 -9,-3 -12,-6l-6 -3 -15 -9 -6 -3 -12 -7 -16 -9 -6 -3 -12 -6 6 0c-21,-6 -33,-30 -27,-51 6,-21 30,-33 52,-27zm-814 -366l6 3 10 0c3,3 9,3 12,6l9 6 -12 -6 12 3c3,3 6,3 9,3l12 6 -6 0 9 3 6 0 12 6 -6 0 9 3 9 0c3,3 9,3 12,6l9 6 -12 -6 12 3c3,3 6,3 9,3l12 6 -6 0 9 3 7 0 12 6 -6 0 9 4 6 0 12 6 -6 0 9 3 6 0 12 6 -9 -3 12 3c3,3 9,3 12,6l9 6 -12 -6 12 3c3,3 9,3 12,6l9 6 -12 -6 12 3c3,3 6,3 9,3l12 6 -6 0 9 3 6 0 13 6 -6 0 9 3 6 0 12 6 -6 0 9 3 6 0 12 6 -9 -3 12 3c3,3 9,3 12,6l9 6 9 3 -6 0 9 3 6 0 12 6 -6 0 9 3 6 0 12 6 13 6 -7 0 10 3 6 0 12 6 -6 0 9 3 6 0 12 6 12 10 -12 -7 12 3c3,4 6,4 9,4l12 6 12 9 -12 -6 12 3c3,3 9,3 12,6l9 6 3 3c22,9 31,33 19,54 -10,21 -34,27 -55,18l-12 -6 -9 -6 12 6 -12 -3c-3,-3 -9,-3 -12,-6l-6 -3 -12 -6 9 3 -12 -3c-3,-3 -9,-3 -12,-6l-6 -3 -13 -6 7 0 -10 -3 -6 0 -12 -6 6 0 -9 -3 -6 0 -12 -6 -12 -6 6 0 -9 -3 -6 0 -12 -6 6 0 -9 -3 -6 0 -15 -9 -9 -6 12 6 -12 -3c-3,-3 -6,-3 -9,-3l-12 -6 6 0 -10 -3 -6 0 -12 -7 6 0 -9 -3 -6 0 -12 -6 6 0 -9 -3 -6 0 -12 -6 9 3 -12 -3c-3,-3 -9,-3 -12,-6l-9 -6 12 6 -12 -3c-3,-3 -9,-3 -12,-6l-9 -6 12 6 -12 -3c-3,-3 -6,-3 -9,-3l-12 -6 6 0 -9 -3 -7 0 -12 -6 6 0 -9 -3 -6 0 -12 -6 6 0 -9 -3 -6 0 -12 -6 9 3 -12 -3c-3,-3 -9,-3 -12,-6l-9 -6 12 6 -15 -6 -9 -3 -6 0 -12 -6 6 0 -9 -3 -6 0 -13 -6 10 3 -13 -3c-3,-3 -9,-3 -12,-6l-9 -6 12 6 -15 -6 -6 0c-21,-9 -33,-31 -27,-55 9,-21 30,-30 54,-24zm-858 -272l9 0 12 3 12 6 9 0 -12 0 9 0 12 0 13 3 12 6 9 0 12 3 12 6 9 0 12 6 9 0 12 6 9 0 12 3 12 6 9 0 13 6 9 0 12 6 9 0 12 3 12 7 9 0 12 6 9 0 12 3 12 6 9 0c3,3 10,3 13,6l9 6 -12 -6 12 3 12 6 9 0 12 3 12 6 9 0 12 6 9 0c3,3 9,3 12,6l9 6 -12 -6 12 3 12 3 13 6 9 0 12 6 6 0 12 6 -6 0 9 3 9 0 12 3 12 6 9 0c21,6 33,27 27,52 -3,21 -27,33 -48,30l-15 -6 -6 0 -12 -3 -15 -6 -9 -3 -6 0 -13 -6 6 0 -6 0 -15 -6 -6 0 -12 -3 -12 -3c-3,-4 -9,-4 -12,-7l-9 -6 12 6 -15 -6 -6 0 -15 -6 -6 0 -12 -3 -15 -6 -7 0 -12 -3c-3,-3 -9,-3 -12,-6l-9 -6 12 6 -15 -6 -6 0 -12 -3 -15 -6 -6 0 -15 -6 -6 0 -12 -3 -15 -6 -7 0 -15 -6 -6 0 -15 -6 -6 0 -12 -3 -15 -6 -6 0 -15 -6 -6 0 -15 -6 -6 0 -12 -3 -16 -6 -6 0 -12 -3 9 0 -9 0 -9 0 -15 -6 -6 0 -12 -3 -6 -3c-24,-6 -36,-28 -30,-49 6,-24 27,-36 48,-30z"/>
  <path class="fil1 str0" d="M1985 8379l11247 0m-11247 -2551l11247 0m-11247 -2554l11247 0m-11247 -2548l11247 0"/>
  <path class="fil1 str0" d="M1985 726l0 7653m2811 -7653l0 7653m2811 -7653l0 7653m2811 -7653l0 7653m2814 -7653l0 7653"/>
  <path class="fil2 str1" d="M2031 6191c0,30 -21,51 -49,51 -27,0 -51,-21 -51,-51 0,-27 24,-49 51,-49 28,0 49,22 49,49z"/>
  <path class="fil1 str2" d="M8469 4057c0,166 -136,299 -302,299 -164,0 -300,-133 -300,-299 0,-166 136,-302 300,-302 166,0 302,136 302,302z"/>
  <path class="fil3" d="M1985 6130l13 0 12 0 18 3 -12 0 15 0 15 0 15 0 15 0 15 0 15 0 15 3 -15 0 15 0 16 0 15 0 15 0 15 0 15 0 15 0 15 0 15 0 15 3 -15 0 15 0 16 0 15 0 15 0 15 0 12 -3 24 3 9 0 15 0 15 0 16 0 -13 0 16 -3 12 0 15 0 15 0 15 0 15 0 15 0 15 0 15 0 16 0 15 0 -12 0 15 -3 12 0 15 0 15 0 18 0 15 0 -12 0 15 -3 12 0 16 0 15 0 15 0 15 0 -12 0 15 -3 12 0 15 0 15 0 15 0 -12 0 15 -3 12 0 16 0 15 0 -12 0 15 -3 12 0 15 0 15 0 -12 0 15 -3 12 0 15 0 15 0 -12 0 15 -3 12 0 16 0 -13 0 16 -3 12 0 15 0 15 0 -12 0 15 -3 12 0 15 0 -12 0 15 -3 12 0 15 0 -12 0 15 -3 12 0 16 0 15 0 -12 0 15 -3 12 0 15 0 -12 0 15 -3 12 0 15 0 -12 0 15 -3 15 -3 12 0 15 0 -12 0 15 -3 13 0 18 0 -12 0 15 -3 12 0 15 0 -12 0 15 -3 15 -3 12 0 15 0 -12 0 15 -3 12 0 16 0 -13 0 16 -3 15 -3 12 0 15 0 -12 0 15 -3 15 -3 12 0 15 0 -12 0 15 -3 15 -3 15 -3 13 0 15 0 -12 0 15 -3 15 -3 12 0 15 0 -12 0 15 -3 15 -3 15 -3 15 -3 12 0 16 0 -13 0 16 -3 15 -3 15 -3 15 -3 15 -3 12 0 15 0 -12 0 15 -4 15 -3 15 -3 16 -3 15 -3 15 -3 15 -3 15 -3 21 -3 12 -3 15 -3 15 -3 13 0 15 0 -12 0 15 -3 15 -3 -9 3 15 -6c3,0 6,-3 9,-3l15 -3 15 -3 15 -3 15 -3 16 -3 15 -3 15 -3 15 -3 15 -3 15 -3 15 -3 15 -3 -9 3 15 -6c3,0 6,-3 9,-3l16 -3 15 -3 15 -3 15 -3 15 -3 -9 3 15 -6c3,0 6,-3 9,-3l15 -3 15 -3 15 -3 16 -3 -10 3 16 -6c3,0 6,-3 9,-3l15 -3 15 -4 -9 4 15 -7c3,0 6,-3 9,-3l15 -3 15 -3 15 -3 -9 3 15 -6c3,0 6,-3 9,-3l16 -3 21 -3 -12 3 15 -6c3,0 6,-3 9,-3l15 -3 15 -3 -9 3 15 -6c3,0 6,-3 9,-3l15 -3 -9 3 15 -6c3,0 6,-3 9,-3l15 -3 16 -3 -9 3 15 -6c3,0 6,-3 9,-3l15 -3 -9 3 15 -6c3,0 6,-3 9,-3l15 -3 -9 3 15 -6c3,0 6,-3 9,-3l15 -3 15 -3 -9 3 15 -6c3,0 6,-3 10,-3l15 -3 -9 3 15 -6c3,0 6,-3 9,-3l15 -3 -9 3 15 -6 15 -6c3,0 6,-3 9,-3l15 -3 -9 3 15 -6c3,0 6,-3 9,-3l15 -4 -9 4 15 -7c3,0 7,-3 10,-3l15 -3 -9 3 15 -6 15 -6c3,0 6,-3 9,-3l15 -3 -9 3 15 -6c3,0 6,-3 9,-3l15 -3 -9 3 15 -6 15 -6c3,0 6,-3 9,-3l16 -3 -10 3 16 -6 15 -6c3,0 6,-3 9,-3l15 -3 -9 3 15 -6 15 -6c3,0 9,-3 12,-3l18 -3 -12 3 15 -6 15 -6 16 -6c3,0 6,-3 9,-3l15 -3 -9 3 15 -6 15 -6 15 -6 15 -6c3,0 6,-3 9,-3l15 -3 -9 3 15 -6 15 -7 16 -6 15 -6c3,0 6,-3 9,-3l15 -3 -9 3 15 -6 15 -6 15 -6 15 -6 15 -6 15 -6 16 -6 15 -6 15 -6c3,0 6,-3 9,-3l15 -3 -9 3 15 -6 15 -6 15 -6 15 -6 15 -6 16 -6 15 -6 15 -6 15 -6 15 -7 -9 7 15 -10c3,-3 6,-3 9,-6l15 -6 15 -6 15 -6 22 -6 12 -6 15 -6 15 -6 15 -6 15 -6 -9 6 15 -9c3,-3 6,-3 9,-6l15 -6 15 -6 16 -6 15 -6 15 -6 -9 6 15 -9c3,-3 6,-3 9,-6l15 -6 15 -6 15 -6 -9 6 15 -10c3,-3 6,-3 9,-6l16 -6 15 -6 15 -6 -9 6 15 -9c3,-3 6,-3 9,-6l15 -6 15 -6 15 -6 -9 6 15 -9c3,-3 6,-3 9,-6l15 -6 16 -6 -10 6 16 -9c3,-3 6,-3 9,-6l15 -6 -9 6 15 -9c3,-3 6,-3 9,-6l15 -6 15 -6 -9 6 15 -9c3,-3 6,-3 9,-6l15 -6 -9 6 15 -9c3,-3 6,-3 9,-7l16 -6 15 -6 -9 6 15 -9c3,-3 6,-3 9,-6l15 -6 -9 6 15 -9c3,-3 6,-6 12,-6l18 -6 -12 6 15 -9c3,-3 6,-3 9,-6l15 -6 -9 6 15 -9c3,-3 6,-3 9,-6l16 -6 -9 6 15 -9c3,-3 6,-3 9,-6l15 -6 -9 6 15 -9c3,-3 6,-3 9,-6l15 -6 -9 6 15 -9c3,-3 6,-3 9,-6l15 -6 -9 6 15 -9 15 -9c3,-3 6,-3 9,-7l16 -6 -9 6 15 -9c3,-3 6,-3 9,-6l15 -6 -9 6 15 -9 15 -9c3,-3 6,-3 9,-6l15 -6 -9 6 15 -9 15 -9c3,-3 6,-3 9,-6l16 -6 -10 6 16 -9 15 -9c3,-3 6,-3 9,-6l15 -6 -9 6 15 -9 15 -9 15 -9c3,-3 6,-3 9,-6l15 -6 -9 6 15 -9 15 -10 16 -9c3,-3 6,-3 9,-6l15 -6 -9 6 15 -9 15 -9 15 -9 15 -9c3,-3 6,-3 9,-6l15 -6 -9 6 15 -9 15 -9 22 -12 12 -6 15 -9 15 -9c3,-3 6,-3 9,-6l15 -6 -9 6 15 -10 15 -9 15 -9 16 -9 15 -9 15 -9 15 -9 15 -9 15 -9 15 -9 15 -9 15 -9 16 -9 15 -9 15 -9 15 -10 15 -9 15 -9 15 -9 15 -9 15 -9 6 -9 25 -12 15 -9 15 -9 15 -9 15 -9 15 -9 6 -9 24 -13 16 -9 15 -9 15 -9 6 -9 24 -12 21 -12 12 -6 6 -9 24 -12 16 -9 15 -9 6 -9 24 -12 15 -10 6 -9 24 -12 15 -9 6 -9 25 -12 15 -9 6 -9 24 -12 6 -9 24 -12 15 -9 6 -9 25 -13 6 -9 24 -12 6 -9 24 -12 6 -9 24 -12 6 -9 24 -12 6 -9 25 -12 6 -9 24 -12 6 -10 24 -12 6 -9 15 -12 24 -12 6 -9c7,-3 10,-6 13,-6l18 -9 -12 6 15 -12 15 -12 24 -12 6 -9 15 -12 24 -13 6 -9 16 -12 15 -12 24 -12 6 -9 15 -12 24 -12 6 -9 15 -12 15 -12 16 -12 24 -13 6 -9 15 -12 15 -12 15 -12 24 -12 6 -9 15 -12 16 -12 15 -12 15 -12 15 -12 15 -13 15 -12 24 -12 6 -9 15 -12 16 -12 15 -12 15 -12 15 -12 15 -12 24 -15 9 -10 15 -12 16 -12 15 -12 15 -12 15 -12 12 -9 18 -18 15 -12 15 -12 15 -12 16 -13 15 -12 15 -12 15 -12 12 -9 18 -18 15 -12 15 -12 15 -12 12 -9 19 -19 15 -12 15 -12 12 -9 18 -18 15 -12 15 -12 12 -9 19 -18 15 -12 12 -9 18 -19 15 -12 12 -9 18 -18 15 -12 12 -9 19 -18 24 -15 -9 9 15 -15 18 -18 12 -10 18 -18 15 -12 12 -9 18 -18 13 -9 18 -18 12 -9 18 -18 12 -9 18 -19 12 -9 18 -18 12 -9 19 -18 12 -9 15 -15 18 -18 12 -9 18 -19 12 -9 15 -15 19 -18 12 -9 15 -15 18 -18 12 -9 15 -15 18 -18 12 -10 15 -15 19 -18 12 -9 15 -15 15 -15 18 -18 12 -9 21 -21 12 -9 18 -19 13 -9 15 -15 15 -15 15 -15 18 -18 12 -9 15 -15 15 -15 15 -16 16 -15 15 -15 15 -15 15 -15 18 -18 12 -9 15 -15 15 -15 15 -16 16 -15 15 -15 15 -15 15 -15 15 -15 15 -15 15 -15 15 -15 15 -16 16 -15 9 -15 21 -18 15 -15 15 -15 15 -15 15 -15 15 -16 15 -15 16 -15 18 -18 15 -15 15 -15 15 -15 15 -15 9 -15 21 -19 16 -15 15 -15 15 -15 9 -15 21 -18 15 -15 9 -15 21 -19 15 -15 16 -15 9 -15 21 -18 15 -15 9 -15 21 -18 15 -15 9 -16 21 -18 10 -15 21 -18 15 -15 9 -15 21 -18 9 -15 21 -19 9 -15 21 -18 16 -18c24,-24 63,-24 87,0 27,24 27,64 3,88l-18 18 -12 12 -18 21 -12 12 -18 21 -12 12 -19 22 -15 15 -12 12 -18 21 -12 12 -18 21 -15 15 -12 12 -18 22 -16 15 -12 12 -18 21 -15 15 -15 15 -12 12 -18 21 -15 16 -12 12 -19 21 -15 15 -15 15 -15 15 -12 12 -18 21 -15 15 -15 16 -15 15 -16 15 -18 18 -15 15 -15 15 -15 15 -15 15 -15 15 -15 16 -16 15 -12 12 -18 21 -15 15 -15 15 -15 15 -15 15 -15 16 -15 15 -16 15 -15 15 -15 15 -15 15 -15 15 -15 15 -15 15 -21 22 -9 6 -16 15 -15 15 -15 15 -15 15 -15 15 -15 15 -15 15 -21 22 -9 6 -16 15 -15 15 -15 15 -21 21 -9 6 -18 18 -15 12 -21 22 -9 6 -16 15 -15 15 -21 21 -9 6 -15 15 -21 21 -9 6 -15 15 -22 22 -9 6 -15 15 -21 21 -9 6 -15 15 -21 21 -9 6 -21 21 -10 6 -15 16 -21 21 -9 6 -21 21 -9 6 -21 21 -9 6 -21 21 -10 6 -21 22 -9 6 -21 21 -9 6 -21 21 -15 12 -9 6 -21 21 -10 6 -15 15 -9 10 -15 9 -9 6 -21 21 -15 12 -9 6 -21 21 -16 12 -9 6 -21 21 -15 12 -9 6 -21 22 -15 12 -15 12 -9 6 -22 21 -15 12 -15 12 -9 6 -21 21 -15 13 -15 12 -15 12 -9 6 -22 21 -15 12 -15 12 -15 12 -15 12 -15 12 -15 12 -15 13 -9 6 -22 21 -15 12 -15 12 -15 12 -15 12 -15 12 -18 15 -15 9 -15 12 -16 13 -15 12 -15 12 -15 12 -15 12 -21 15 -9 6 -15 12 -16 12 -15 12 -15 12 -15 13 -15 12 -15 12 -21 15 -9 6 -15 12 -16 12 -15 12 -21 15 -9 6 -15 12 -15 12 -15 13 -21 15 -9 6 -16 12 -21 15 -9 6 -15 12 -15 12 -21 15 -9 6 -15 12 -21 16 -10 6 -15 12 -15 12c-3,3 -6,3 -9,6l-18 9 9 -6 -21 15 -9 6 -15 12 -21 15 -9 6 -22 15 -9 6 -21 15 -9 7 -21 15 -9 6 -21 15 -9 6 -22 15 -9 6 -21 15 -9 6 -21 15 -9 6 -21 15 -15 9 -9 7 -22 15 -9 6 -21 15 -15 9 -9 6 -21 15 -15 9 -9 6 -21 15 -16 9 -9 6 -21 15 -15 10 -15 9 -9 6 -21 15 -18 12 -16 6 -9 6 -21 15 -15 9 -15 9 -15 9 -9 6 -21 15 -15 10 -16 9 -15 9 -15 9 -15 9 -9 6 -21 15 -15 9 -15 9 -15 9 -16 9 -15 9 -15 9 -15 9 -15 9 -15 10 -15 9 -15 9 -15 9 -16 9 -15 9 -15 9 -15 9 -15 9 -15 9 -15 9 -15 9 -15 9c-3,3 -7,3 -10,6l-15 6 9 -6 -15 9 -15 10 -18 12 -15 6 -15 9 -15 9c-3,3 -6,3 -9,6l-15 6 9 -6 -15 9 -16 9 -15 9 -15 9c-3,3 -6,3 -9,6l-15 6 9 -6 -15 9 -15 9 -15 9c-3,3 -6,3 -9,6l-15 6 9 -6 -16 9 -15 10 -15 9c-3,3 -6,3 -9,6l-15 6 9 -6 -15 9 -15 9c-3,3 -6,3 -9,6l-15 6 9 -6 -15 9 -15 9c-3,3 -6,3 -9,6l-16 6 9 -6 -15 9 -15 9c-3,3 -6,3 -9,6l-15 6 9 -6 -15 9c-3,3 -6,3 -9,6l-15 6 9 -6 -15 9 -15 9c-3,3 -6,3 -9,6l-16 7 10 -7 -16 10c-3,3 -6,3 -9,6l-15 6 9 -6 -15 9c-3,3 -6,3 -9,6l-15 6 9 -6 -15 9c-3,3 -6,3 -9,6l-15 6 9 -6 -15 9c-3,3 -6,3 -9,6l-15 6 9 -6 -15 9c-3,3 -10,6 -13,6l-18 6 12 -6 -15 9c-3,3 -6,3 -9,6l-15 6 9 -6 -15 9c-3,3 -6,3 -9,6l-15 6 -15 6 9 -6 -15 9c-3,3 -6,3 -9,6l-15 6 9 -6 -15 10c-4,3 -7,3 -10,6l-15 6 -15 6 9 -6 -15 9c-3,3 -6,3 -9,6l-15 6 9 -6 -15 9c-3,3 -6,3 -9,6l-15 6 -15 6 9 -6 -15 9c-3,3 -6,3 -9,6l-16 6 -15 6 -15 6 9 -6 -15 9c-3,3 -6,3 -9,6l-15 6 -15 6 -15 6 9 -6 -15 9c-3,3 -6,3 -9,6l-15 6 -16 6 -15 7 9 -7 -15 10c-3,3 -6,3 -9,6l-15 6 -15 6 -15 6 -15 6 -15 6 9 -6 -15 9c-3,3 -6,3 -10,6l-15 6 -15 6 -15 6 -15 6 -18 6 -15 6 -15 6 -15 6 -16 6 10 -6 -16 9c-3,3 -6,3 -9,6l-15 6 -15 6 -15 6 -15 7 -15 6 -15 6 -15 6 -16 6 -15 6 -15 6c-3,0 -6,3 -9,3l-15 3 9 -3 -15 6 -15 6 -15 6 -15 6 -15 6 -16 6 -15 6 -15 6 -15 6c-3,0 -6,3 -9,3l-15 3 9 -3 -15 6 -15 6 -15 6 -15 6c-3,0 -7,3 -10,3l-15 3 9 -3 -15 7 -15 6 -15 6 -15 6c-3,0 -6,3 -9,3l-15 3 9 -3 -15 6 -15 6 -15 6c-4,0 -10,3 -13,3l-18 3 12 -3 -15 6 -15 6c-3,0 -6,3 -9,3l-15 3 9 -3 -15 6 -15 6c-3,0 -6,3 -9,3l-15 3 9 -3 -15 6 -16 6c-3,0 -6,3 -9,3l-15 3 9 -3 -15 6c-3,0 -6,3 -9,3l-15 3 9 -3 -15 6 -15 6c-3,0 -6,3 -9,3l-15 3 9 -3 -15 6c-3,0 -6,3 -9,3l-15 3 9 -3 -16 6c-3,0 -6,3 -9,3l-15 4 9 -4 -15 7 -15 6c-3,0 -6,3 -9,3l-15 3 9 -3 -15 6c-3,0 -6,3 -9,3l-15 3 9 -3 -15 6c-3,0 -6,3 -9,3l-16 3 -15 3 9 -3 -15 6c-3,0 -6,3 -9,3l-15 3 9 -3 -15 6c-3,0 -6,3 -9,3l-15 3 9 -3 -15 6c-3,0 -6,3 -9,3l-15 3 -15 3 9 -3 -15 6c-3,0 -7,3 -10,3l-15 3 9 -3 -15 6c-3,0 -6,3 -9,3l-15 3 -15 3 9 -3 -15 6c-3,0 -9,3 -12,3l-15 3 -15 3 9 -3 -15 6c-3,0 -6,3 -9,3l-16 3 -15 3 -15 3 9 -3 -15 6c-3,0 -6,3 -9,3l-15 3 -15 3 9 -3 -15 6c-3,0 -6,4 -9,4l-15 3 -15 3 -16 3 -15 3 9 -3 -15 6c-3,0 -6,3 -9,3l-15 3 -15 3 -15 3 -15 3 -15 3 9 -3 -15 6c-3,0 -6,3 -9,3l-16 3 -15 3 -15 3 -15 3 -15 3 -15 3 -15 3 -15 3 -15 3 -16 3 -15 3 -15 3 9 -3 -15 6c-3,0 -6,3 -9,3l-15 3 -15 3 -15 0 -15 0 15 0 -15 3 -16 3 -18 3 -15 3 -15 3 -15 3 -15 3 -15 3 -15 3 -15 3 -16 3 -15 3 -15 0 -15 0 15 0 -15 3 -15 3 -15 3 -15 4 -15 3 -15 0 -16 0 16 0 -16 3 -15 3 -15 3 -15 3 -15 0 -15 0 15 0 -15 3 -15 3 -15 0 -15 0 15 0 -15 3 -16 3 -15 3 -15 0 -15 0 15 0 -15 3 -15 3 -15 0 -15 0 15 0 -15 3 -15 3 -15 0 -16 0 16 0 -16 3 -15 0 -15 0 15 0 -15 3 -15 3 -15 0 -15 0 15 0 -15 3 -15 0 -18 0 15 0 -15 3 -16 0 -15 0 15 0 -15 3 -15 3 -15 0 -15 0 15 0 -15 3 -15 0 -15 0 15 0 -15 3 -15 0 -15 0 -16 0 16 0 -16 3 -15 0 -15 0 15 0 -15 3 -15 0 -15 0 15 0 -15 3 -15 0 -15 0 -15 0 15 0 -15 3 -15 0 -16 0 16 0 -16 3 -15 0 -15 0 -15 0 15 0 -15 3 -15 0 -15 0 -15 0 15 0 -15 3 -15 0 -15 0 -16 0 16 0 -16 3 -15 0 -15 0 -15 0 -15 0 15 0 -15 3 -15 0 -15 0 -15 0 -15 0 -16 0 16 0 -16 3 -15 0 -15 0 -18 0 -15 0 -15 0 15 0 -15 3 -15 0 -15 0 -16 0 -15 0 -15 0 -15 0 -15 0 -15 0 -15 0 -15 0 15 0 -15 3 -15 0 -16 0 -15 0 -15 0 -18 0 -6 0 -21 0 -15 0 -15 0 -15 0 -16 0 -15 0 -12 0 -15 -3 12 0 -15 0 -15 0 -15 0 -15 0 -15 0 -15 0 -16 0 -15 0 -12 0 -15 -3 12 0 -15 0 -15 0 -15 0 -15 0 -15 0 -9 0 -19 -3 10 0 -13 0c-1,0 -2,0 -3,0l0 -124c1,0 2,0 3,0z"/>
  <polygon class="fil4" points="1109,3724 1109,4204 1061,4204 1061,3975 783,3975 783,4204 736,4204 736,3724 783,3724 783,3929 1061,3929 1061,3724 "/>
  <path class="fil4" d="M742 4408c5,0 10,1 15,3 4,2 9,5 12,9 3,4 6,9 8,15 2,6 3,13 3,21l0 66 -15 0 0 -62c0,-13 -2,-23 -7,-29 -5,-6 -11,-9 -20,-9 -5,0 -9,1 -13,3 -4,2 -7,5 -10,9 -2,3 -4,8 -6,12 -1,5 -1,11 -1,16l0 60 -15 0 0 -62c0,-13 -3,-23 -8,-29 -4,-6 -11,-9 -20,-9 -5,0 -9,1 -13,3 -4,2 -7,5 -9,9 -3,3 -5,8 -6,12 -1,5 -2,11 -2,16l0 1 0 59 -15 0 0 -111 12 0 1 14 0 0c5,-6 10,-10 16,-13 7,-3 13,-4 20,-4 8,0 14,2 20,5 6,4 10,9 14,17l0 0c4,-8 10,-13 17,-17 7,-3 14,-5 22,-5zm140 -49l-68 177 -12 -5 68 -177 12 5zm79 152c6,0 11,-1 16,-3 5,-3 10,-6 14,-10 3,-3 6,-8 8,-13 2,-6 4,-12 4,-19 0,-6 -2,-12 -4,-17 -2,-6 -5,-11 -8,-14 -4,-4 -9,-7 -14,-10 -5,-2 -10,-3 -16,-3 -6,0 -12,1 -17,3 -5,3 -10,6 -13,10 -4,3 -7,8 -9,14 -2,5 -3,11 -3,17 0,7 1,13 3,19 2,5 5,10 9,13 3,4 8,7 13,10 5,2 11,3 17,3zm1 -103c8,0 15,1 22,4 7,3 12,7 17,12 5,6 9,12 12,19 3,7 4,15 4,23 0,9 -1,17 -4,24 -3,7 -7,13 -12,19 -5,5 -10,9 -17,12 -7,3 -14,4 -22,4 -9,0 -17,-2 -24,-5 -7,-4 -13,-9 -18,-15l-1 0 0 63 -15 0 0 -157 12 0 1 19 1 0c5,-7 11,-12 19,-16 7,-4 16,-6 25,-6zm87 114l15 0 0 -111 -15 0 0 111zm17 -145c0,3 -1,5 -3,7 -2,2 -4,3 -7,3 -2,0 -5,-1 -6,-3 -2,-2 -3,-4 -3,-7 0,-2 1,-4 3,-6 1,-2 4,-3 6,-3 3,0 5,1 7,3 2,2 3,4 3,6zm83 45c-6,0 -11,1 -15,3 -5,2 -9,4 -12,7 -3,4 -6,7 -8,12 -2,4 -3,9 -3,15l74 0c0,-6 -2,-10 -3,-15 -2,-4 -4,-8 -7,-12 -3,-3 -7,-5 -11,-7 -5,-2 -9,-3 -15,-3zm51 40c0,2 0,3 0,5 0,2 0,4 0,5l-90 0c1,6 2,11 4,16 3,4 5,9 9,12 4,3 8,6 12,8 5,2 10,3 16,3 6,0 12,-2 18,-4 7,-3 12,-7 16,-12l10 10c-5,7 -12,12 -20,15 -8,4 -16,5 -25,5 -8,0 -16,-1 -23,-4 -6,-4 -12,-8 -17,-13 -5,-5 -8,-12 -11,-19 -2,-7 -4,-14 -4,-23 0,-7 1,-15 4,-22 2,-7 6,-13 10,-19 5,-5 11,-9 17,-12 7,-3 14,-5 23,-5 8,0 15,1 21,4 7,3 12,7 16,11 5,5 8,11 11,17 2,7 3,14 3,22zm66 49c3,0 6,0 9,0 4,-1 7,-2 9,-3 3,-1 5,-3 7,-5 2,-3 3,-6 3,-9 0,-4 -1,-7 -3,-10 -2,-2 -5,-5 -8,-6 -3,-2 -6,-3 -10,-4 -4,-2 -7,-2 -10,-3 -4,-1 -8,-3 -13,-4 -4,-2 -8,-4 -11,-7 -4,-2 -6,-5 -9,-9 -2,-3 -3,-8 -3,-13 0,-5 1,-10 4,-14 2,-4 5,-7 9,-9 4,-2 8,-4 13,-5 4,-1 9,-2 14,-2 7,0 14,1 21,3 8,2 14,5 20,9l-9 12c-4,-3 -9,-5 -15,-7 -6,-2 -11,-3 -17,-3 -3,0 -5,0 -8,1 -3,0 -6,1 -8,2 -3,1 -5,3 -6,5 -2,2 -3,5 -3,8 0,3 1,6 3,8 2,3 4,4 7,6 3,1 5,3 9,4 3,1 6,2 8,2 5,1 9,3 14,5 5,1 9,3 13,6 4,3 7,6 9,10 3,4 4,9 4,14 0,6 -1,11 -4,15 -2,4 -6,8 -10,10 -4,3 -8,4 -13,6 -5,1 -10,1 -15,1 -4,0 -7,0 -11,-1 -4,0 -8,-1 -12,-2 -4,-2 -8,-3 -11,-5 -4,-2 -7,-4 -9,-6l9 -12c4,4 9,7 15,9 6,2 12,3 18,3z"/>
  <path class="fil4" d="M11609 9066c-27,0 -52,-4 -76,-14 -23,-10 -43,-24 -60,-41 -17,-17 -31,-38 -41,-62 -10,-24 -15,-50 -15,-78 0,-29 5,-55 15,-79 10,-24 24,-45 41,-62 17,-17 37,-31 60,-40 24,-10 49,-15 76,-15 29,0 56,6 81,17 26,11 47,27 65,48l-29 26c-14,-18 -31,-31 -51,-41 -20,-9 -42,-14 -66,-14 -22,0 -42,4 -61,11 -19,8 -35,19 -49,33 -14,14 -24,31 -32,51 -8,19 -12,41 -12,65 0,23 4,45 12,64 8,20 18,37 32,51 14,14 30,25 49,33 19,8 39,11 61,11 24,0 46,-5 67,-14 20,-10 37,-24 51,-43l29 25c-17,22 -39,38 -64,50 -26,12 -54,18 -83,18zm312 -33c13,0 24,-2 35,-6 11,-4 20,-10 28,-18 8,-7 14,-16 18,-26 5,-10 7,-22 7,-35l0 -23c-13,-3 -26,-5 -39,-6 -13,-2 -25,-2 -38,-2 -10,0 -20,0 -29,2 -10,2 -18,5 -26,10 -8,4 -14,10 -19,18 -5,7 -7,17 -7,28 0,10 2,19 6,26 4,7 9,13 16,18 6,5 14,8 22,10 9,3 17,4 26,4zm10 -253c36,0 64,9 84,26 20,18 31,45 31,82l0 171 -30 0 -3 -42 -1 0c-11,17 -25,29 -42,37 -18,8 -36,12 -56,12 -14,0 -27,-2 -39,-6 -12,-4 -23,-10 -32,-17 -9,-8 -16,-18 -21,-29 -5,-11 -8,-24 -8,-39 0,-16 3,-30 9,-42 7,-11 15,-21 25,-28 11,-7 23,-12 36,-16 14,-3 28,-5 43,-5 14,0 27,1 41,3 14,1 27,3 41,5l0 -9c0,-25 -7,-42 -21,-53 -14,-10 -33,-16 -56,-16 -17,0 -32,3 -48,8 -15,5 -29,11 -43,20l-18 -33c17,-8 34,-15 52,-21 18,-5 37,-8 56,-8zm437 7l0 272 -30 0 -2 -44 -1 0c-12,17 -27,29 -45,38 -18,9 -37,13 -59,13 -14,0 -27,-2 -39,-7 -13,-5 -24,-12 -34,-22 -9,-9 -17,-22 -22,-37 -6,-15 -9,-32 -9,-53l0 -160 37 0 0 149c0,33 7,58 21,73 14,15 33,23 56,23 14,0 27,-3 38,-8 11,-6 21,-14 29,-23 7,-10 13,-20 17,-32 4,-13 7,-25 7,-38l0 -144 36 0zm215 244c14,0 28,-3 40,-8 13,-5 23,-12 33,-22 9,-9 16,-21 21,-34 5,-13 8,-28 8,-44 0,-16 -3,-30 -8,-44 -5,-13 -12,-24 -21,-34 -10,-9 -20,-17 -33,-22 -12,-5 -26,-8 -40,-8 -15,0 -28,3 -41,8 -12,5 -23,13 -32,22 -9,10 -16,21 -21,34 -6,14 -8,28 -8,44 0,16 2,31 8,44 5,13 12,25 21,34 9,10 20,17 32,22 13,5 26,8 41,8zm138 -373l0 401 -30 0 -2 -47 -1 0c-12,17 -28,30 -46,40 -19,10 -40,14 -62,14 -19,0 -37,-3 -54,-10 -16,-8 -30,-18 -42,-30 -13,-13 -22,-28 -29,-46 -7,-17 -11,-36 -11,-57 0,-20 4,-40 11,-57 7,-18 16,-33 29,-45 12,-13 26,-23 42,-30 17,-7 35,-11 54,-11 21,0 40,5 58,13 18,9 33,21 45,36l1 0 0 -171 37 0zm183 375c13,0 24,-2 35,-6 11,-4 20,-10 28,-18 8,-7 14,-16 18,-26 5,-10 7,-22 7,-35l0 -23c-13,-3 -26,-5 -39,-6 -13,-2 -26,-2 -38,-2 -10,0 -20,0 -29,2 -10,2 -19,5 -26,10 -8,4 -14,10 -19,18 -5,7 -7,17 -7,28 0,10 2,19 6,26 4,7 9,13 16,18 6,5 14,8 22,10 8,3 17,4 26,4zm10 -253c36,0 64,9 84,26 20,18 30,45 30,82l0 171 -29 0 -3 -42 -1 0c-11,17 -25,29 -42,37 -18,8 -36,12 -56,12 -14,0 -27,-2 -39,-6 -12,-4 -23,-10 -32,-17 -9,-8 -16,-18 -21,-29 -5,-11 -8,-24 -8,-39 0,-16 3,-30 9,-42 6,-11 15,-21 25,-28 11,-7 23,-12 36,-16 14,-3 28,-5 43,-5 14,0 27,1 41,3 14,1 27,3 41,5l0 -9c0,-25 -7,-42 -21,-53 -15,-10 -33,-16 -56,-16 -17,0 -32,3 -48,8 -15,5 -30,11 -43,20l-18 -33c16,-8 34,-15 52,-21 18,-5 37,-8 56,-8zm202 -122l36 0 0 401 -36 0 0 -401z"/>
  <polygon class="fil5 str3" points="11334,2848 14242,2848 14242,4997 11334,4997 "/>
  <path class="fil6" d="M11809 3180c0,-24 -7,-42 -21,-53 -15,-11 -34,-16 -56,-16l-104 0 0 138 104 0c11,0 21,-1 31,-4 9,-2 17,-7 24,-12 7,-6 13,-13 16,-22 4,-8 6,-19 6,-31zm35 0c0,17 -3,31 -9,44 -6,12 -14,23 -24,32 -10,8 -22,15 -36,19 -13,5 -28,7 -43,7l-104 0 0 140 -34 0 0 -344 138 0c16,0 31,2 45,6 13,5 25,11 35,20 10,8 18,19 24,32 5,13 8,27 8,44z"/>
  <path class="fil6" d="M12127 3174l0 248 -27 0 -2 -40 -1 0c-11,15 -24,26 -41,34 -16,9 -34,13 -53,13 -13,0 -25,-3 -37,-7 -11,-4 -21,-11 -30,-20 -9,-9 -16,-20 -21,-34 -5,-13 -7,-29 -7,-48l0 -146 33 0 0 135c0,31 6,53 19,67 13,14 30,21 51,21 13,0 25,-2 35,-8 10,-5 19,-12 26,-20 7,-9 13,-19 16,-30 4,-11 6,-22 6,-34l0 -131 33 0zm211 -6c13,0 25,2 36,6 12,5 22,11 31,20 8,9 15,20 20,33 6,14 8,30 8,49l0 146 -33 0 0 -136c0,-30 -7,-52 -20,-66 -13,-14 -29,-21 -50,-21 -13,0 -25,2 -35,7 -11,5 -19,12 -26,21 -7,8 -13,18 -17,29 -3,12 -5,23 -5,35l0 131 -33 0 0 -248 27 0 2 40 1 0c11,-15 24,-27 40,-35 17,-7 35,-11 54,-11zm251 261c-20,0 -35,-6 -44,-17 -9,-11 -13,-27 -13,-46l0 -162 -42 0 0 -30 42 0 0 -84 33 0 0 84 77 0 0 30 -77 0 0 156c0,10 2,19 6,26 4,8 11,11 22,11 8,0 16,-1 25,-2 8,-2 16,-3 24,-6l6 31c-9,3 -18,5 -29,7 -11,1 -21,2 -30,2z"/>
  <path class="fil6" d="M12822 3396c14,0 27,-2 39,-7 12,-5 21,-12 29,-21 9,-9 15,-20 19,-32 5,-12 7,-24 7,-38 0,-14 -2,-27 -7,-39 -4,-12 -10,-22 -19,-31 -8,-9 -17,-16 -29,-21 -12,-5 -25,-8 -39,-8 -14,0 -27,3 -38,8 -11,5 -21,12 -29,21 -8,9 -15,19 -19,31 -4,12 -7,25 -7,39 0,14 3,26 7,38 4,12 11,23 19,32 8,9 18,16 29,21 11,5 24,7 38,7zm0 -228c19,0 36,3 51,10 16,6 29,16 40,27 12,12 20,26 27,42 6,16 9,33 9,51 0,18 -3,35 -9,51 -7,16 -15,29 -27,41 -11,12 -24,21 -40,28 -15,7 -32,10 -51,10 -18,0 -35,-3 -51,-10 -15,-7 -28,-16 -40,-28 -11,-12 -19,-25 -26,-41 -6,-16 -9,-33 -9,-51 0,-18 3,-35 9,-51 7,-16 15,-30 26,-42 12,-11 25,-21 40,-27 16,-7 33,-10 51,-10z"/>
  <path class="fil6" d="M13237 3396c13,0 26,-2 37,-7 11,-5 21,-11 29,-20 9,-9 15,-19 20,-31 5,-12 7,-25 7,-40 0,-15 -2,-28 -7,-40 -5,-12 -11,-23 -20,-31 -8,-9 -18,-16 -29,-21 -11,-4 -24,-7 -37,-7 -13,0 -26,3 -37,7 -12,5 -21,12 -30,21 -8,8 -14,19 -19,31 -5,12 -7,25 -7,40 0,15 2,28 7,40 5,12 11,22 19,31 9,9 18,15 30,20 11,5 24,7 37,7zm126 -340l0 366 -27 0 -2 -43 -1 0c-11,15 -26,27 -43,36 -16,9 -35,14 -56,14 -17,0 -34,-4 -48,-10 -15,-7 -29,-16 -40,-28 -11,-11 -19,-25 -26,-41 -6,-16 -9,-33 -9,-52 0,-19 3,-36 9,-52 7,-16 15,-30 26,-42 11,-11 25,-20 40,-27 14,-6 31,-9 48,-9 19,0 37,3 53,11 17,8 31,19 42,33l1 0 0 -156 33 0zm189 143c-13,0 -24,2 -34,6 -10,4 -18,10 -26,17 -7,7 -13,16 -17,26 -4,10 -7,21 -8,33l165 0c-1,-12 -3,-23 -7,-33 -3,-10 -9,-19 -15,-26 -7,-7 -15,-13 -25,-17 -9,-4 -20,-6 -33,-6zm114 89c0,3 0,7 0,11 0,4 0,8 -1,12l-199 0c2,12 5,23 9,34 5,11 12,20 19,27 8,8 18,14 28,18 10,5 22,7 35,7 13,0 27,-3 41,-10 14,-6 25,-15 34,-25l24 23c-13,14 -28,25 -46,32 -18,8 -36,12 -55,12 -19,0 -36,-4 -51,-11 -15,-7 -28,-16 -38,-28 -11,-12 -19,-26 -25,-42 -6,-16 -8,-32 -8,-50 0,-18 2,-34 8,-50 5,-16 13,-30 23,-42 10,-12 23,-21 38,-28 15,-7 31,-10 50,-10 18,0 34,3 48,9 14,6 26,14 36,25 10,10 17,23 22,38 6,14 8,30 8,48z"/>
  <path class="fil6" d="M11752 4010c21,0 40,-4 57,-12 17,-7 32,-18 44,-31 13,-13 22,-28 29,-46 7,-18 10,-37 10,-57 0,-21 -3,-40 -10,-57 -7,-18 -16,-34 -29,-47 -12,-13 -27,-23 -44,-31 -17,-7 -36,-11 -57,-11 -21,0 -40,4 -57,11 -17,8 -32,18 -44,31 -13,13 -22,29 -29,47 -7,17 -10,36 -10,57 0,20 3,39 10,57 7,18 16,33 29,46 12,13 27,24 44,31 17,8 36,12 57,12zm0 -325c25,0 49,5 70,14 21,10 40,22 55,38 16,16 28,35 36,57 9,21 13,45 13,70 0,25 -4,48 -13,70 -8,21 -20,40 -36,56 -15,17 -34,29 -55,38 -21,10 -45,14 -70,14 -25,0 -49,-4 -70,-14 -22,-9 -40,-21 -55,-38 -16,-16 -28,-35 -37,-56 -8,-22 -12,-45 -12,-70 0,-25 4,-49 12,-70 9,-22 21,-41 37,-57 15,-16 33,-28 55,-38 21,-9 45,-14 70,-14zm373 325c13,0 26,-2 37,-7 12,-5 21,-11 30,-20 8,-9 14,-19 19,-31 5,-12 7,-26 7,-40 0,-15 -2,-28 -7,-40 -5,-12 -11,-23 -19,-32 -9,-8 -18,-15 -30,-20 -11,-4 -24,-7 -37,-7 -13,0 -26,3 -37,7 -12,5 -21,12 -30,20 -8,9 -14,20 -19,32 -5,12 -7,25 -7,40 0,14 2,28 7,40 5,12 11,22 19,31 9,9 18,15 30,20 11,5 24,7 37,7zm3 -229c17,0 33,3 48,10 15,6 28,15 40,27 11,12 19,25 26,41 6,16 9,34 9,53 0,18 -3,36 -9,52 -7,16 -15,30 -26,41 -12,12 -25,21 -40,27 -15,7 -31,10 -48,10 -19,0 -37,-4 -53,-12 -17,-8 -31,-18 -42,-33l-1 0 0 140 -33 0 0 -350 27 0 2 44 1 0c11,-16 26,-28 43,-37 17,-9 36,-13 56,-13z"/>
  <path class="fil6" d="M12427 3813c-13,0 -24,2 -34,6 -10,4 -19,9 -26,17 -7,7 -13,15 -17,25 -4,10 -7,21 -8,33l165 0c-1,-11 -3,-22 -7,-32 -3,-10 -9,-19 -15,-26 -7,-8 -15,-13 -25,-17 -9,-4 -20,-6 -33,-6zm114 89c0,3 0,7 0,11 0,4 -1,8 -1,12l-199 0c2,12 5,23 9,34 5,10 11,19 19,27 8,8 17,14 28,18 10,4 22,7 35,7 13,0 27,-4 41,-10 14,-6 25,-15 34,-25l24 22c-13,15 -28,26 -46,33 -18,8 -36,11 -55,11 -19,0 -36,-3 -51,-10 -15,-7 -28,-16 -38,-28 -11,-12 -19,-26 -25,-42 -6,-16 -9,-33 -9,-50 0,-18 3,-35 9,-50 5,-16 13,-30 23,-42 10,-12 23,-21 38,-28 14,-7 31,-11 50,-11 17,0 33,3 48,9 14,7 26,15 36,25 10,11 17,24 22,38 6,15 8,31 8,49z"/>
  <path class="fil6" d="M12710 3781c6,0 12,1 18,2 6,1 12,2 17,3l-7 35c-6,-2 -12,-3 -18,-5 -7,-1 -13,-2 -20,-2 -10,0 -18,3 -25,8 -8,4 -13,11 -18,20 -5,8 -8,18 -10,30 -2,12 -3,25 -3,38l0 126 -34 0 0 -249 28 0 2 34 1 0c15,-26 38,-40 69,-40zm171 231c12,0 22,-2 32,-6 10,-4 18,-9 26,-16 7,-6 13,-14 17,-24 4,-9 6,-20 6,-32l0 -21c-12,-2 -24,-4 -36,-5 -11,-2 -23,-2 -35,-2 -9,0 -18,0 -26,2 -9,2 -17,5 -24,9 -7,4 -13,9 -17,16 -5,7 -7,16 -7,26 0,9 2,17 6,24 4,6 8,12 14,16 6,4 13,8 21,10 7,2 15,3 23,3zm9 -231c33,0 59,8 77,24 19,16 28,41 28,75l0 156 -27 0 -2 -39 -1 0c-10,15 -23,27 -39,34 -16,8 -33,11 -51,11 -13,0 -25,-2 -36,-5 -11,-4 -20,-9 -29,-16 -8,-7 -14,-16 -19,-26 -5,-11 -7,-22 -7,-36 0,-15 3,-28 8,-38 6,-11 13,-19 23,-26 10,-6 21,-11 33,-14 12,-3 25,-5 39,-5 12,0 25,1 37,2 13,2 25,3 38,5l0 -8c0,-22 -7,-38 -20,-48 -13,-10 -30,-15 -51,-15 -15,0 -29,2 -43,7 -14,5 -27,11 -40,18l-16 -29c15,-8 31,-15 47,-20 17,-5 34,-7 51,-7zm296 229c15,0 29,-3 41,-9 12,-6 22,-14 31,-25l24 22c-12,15 -26,25 -42,33 -16,7 -34,11 -54,11 -18,0 -35,-3 -50,-10 -15,-6 -29,-15 -40,-27 -12,-11 -20,-25 -27,-41 -6,-16 -9,-34 -9,-52 0,-19 3,-37 9,-53 7,-16 16,-29 27,-41 11,-12 25,-21 40,-27 15,-6 32,-10 50,-10 20,0 38,4 55,12 16,8 30,18 41,31l-25 22c-8,-10 -19,-18 -31,-24 -12,-6 -25,-9 -40,-9 -13,0 -26,3 -37,7 -12,5 -21,12 -30,20 -8,9 -14,20 -19,32 -5,12 -7,25 -7,40 0,14 2,28 7,40 5,12 11,22 19,31 9,9 18,15 30,20 11,5 24,7 37,7zm163 26l33 0 0 -249 -33 0 0 249zm38 -323c0,6 -2,11 -6,15 -4,4 -9,6 -16,6 -6,0 -11,-2 -14,-6 -4,-4 -6,-9 -6,-15 0,-5 2,-10 6,-15 3,-4 8,-6 14,-6 7,0 12,2 16,6 4,5 6,10 6,15zm191 297c-14,0 -26,-2 -38,-8 -11,-5 -21,-12 -29,-20 -8,-9 -14,-20 -19,-32 -4,-12 -6,-25 -6,-38 0,-14 2,-27 6,-39 5,-12 11,-22 19,-31 8,-9 18,-16 29,-21 12,-5 24,-8 38,-8 15,0 27,3 39,8 12,5 22,12 30,21 8,9 14,19 18,31 5,12 7,25 7,39 0,13 -2,26 -7,38 -4,12 -10,23 -18,32 -8,8 -18,15 -30,20 -12,6 -24,8 -39,8zm0 -229c-18,0 -35,4 -51,10 -15,7 -28,16 -39,28 -11,12 -20,26 -26,42 -7,15 -10,32 -10,51 0,18 3,35 10,51 6,15 15,29 26,41 11,12 24,21 39,28 16,6 33,10 51,10 19,0 36,-4 51,-10 16,-7 29,-16 41,-28 11,-12 20,-26 26,-41 6,-16 9,-33 9,-51 0,-19 -3,-36 -9,-51 -6,-16 -15,-30 -26,-42 -12,-12 -25,-21 -41,-28 -15,-6 -32,-10 -51,-10zm-21 -44l60 -70 26 19 -68 65 -18 -14zm343 44c12,0 24,3 36,7 11,4 21,11 30,20 8,8 15,20 21,33 5,14 7,30 7,48l0 147 -33 0 0 -136c0,-30 -6,-52 -19,-66 -13,-14 -30,-21 -51,-21 -13,0 -25,2 -35,7 -10,5 -19,12 -26,21 -7,8 -13,18 -16,29 -4,11 -6,23 -6,35l0 131 -33 0 0 -249 27 0 2 41 1 0c11,-15 24,-27 41,-35 16,-8 34,-12 54,-12z"/>
  <path class="fil6" d="M11696 4430c-13,0 -24,2 -34,6 -10,4 -19,9 -26,16 -7,8 -13,16 -17,26 -5,10 -7,21 -9,33l166 0c-1,-12 -3,-22 -7,-32 -4,-10 -9,-19 -16,-26 -7,-8 -15,-13 -24,-17 -10,-4 -21,-6 -33,-6zm114 88c0,4 0,8 -1,12 0,4 0,8 0,12l-199 0c1,12 4,23 9,34 5,10 11,19 19,27 8,7 17,13 27,18 11,4 22,6 35,6 14,0 27,-3 41,-9 14,-7 26,-15 34,-25l24 22c-13,15 -28,26 -46,33 -17,7 -36,11 -55,11 -18,0 -35,-3 -50,-10 -15,-7 -28,-16 -39,-28 -10,-12 -19,-26 -24,-42 -6,-16 -9,-33 -9,-51 0,-17 3,-34 8,-50 6,-15 13,-29 24,-41 10,-12 22,-22 37,-28 15,-7 32,-11 50,-11 18,0 34,3 48,9 14,6 26,15 36,25 10,11 18,24 23,38 5,15 8,31 8,48zm147 110c7,0 13,0 20,-1 7,-1 14,-3 20,-6 6,-3 11,-7 15,-12 4,-5 6,-12 6,-20 0,-8 -2,-15 -7,-21 -5,-6 -10,-11 -17,-15 -7,-3 -14,-7 -22,-9 -8,-2 -16,-4 -22,-6 -9,-2 -19,-5 -28,-9 -10,-4 -19,-8 -26,-14 -8,-5 -14,-12 -19,-20 -5,-8 -7,-18 -7,-30 0,-12 2,-22 8,-31 5,-8 12,-15 20,-20 8,-6 18,-9 28,-12 11,-3 21,-4 32,-4 15,0 32,2 48,7 17,5 31,11 44,20l-19 28c-11,-8 -22,-13 -35,-18 -12,-4 -25,-6 -38,-6 -5,0 -11,1 -18,2 -6,1 -12,3 -17,6 -6,2 -11,6 -14,10 -4,5 -6,11 -6,18 0,7 2,13 6,19 5,5 10,9 16,12 6,3 12,6 19,8 7,3 13,4 19,6 10,2 21,6 31,10 10,3 20,8 29,15 8,6 15,13 20,22 6,8 9,19 9,31 0,13 -3,24 -9,33 -5,9 -13,17 -21,22 -9,6 -19,10 -31,12 -11,3 -22,4 -33,4 -8,0 -16,0 -25,-2 -8,-1 -17,-3 -26,-6 -8,-3 -16,-6 -24,-10 -8,-4 -15,-9 -20,-14l19 -27c10,9 21,16 35,21 14,5 27,7 40,7zm290 -1c14,0 26,-2 37,-7 12,-5 22,-12 30,-20 8,-9 14,-19 19,-31 5,-12 7,-26 7,-41 0,-14 -2,-27 -7,-39 -5,-13 -11,-23 -19,-32 -8,-8 -18,-15 -30,-20 -11,-5 -23,-7 -37,-7 -13,0 -26,2 -37,7 -11,5 -21,12 -30,20 -8,9 -14,19 -19,32 -5,12 -7,25 -7,39 0,15 2,29 7,41 5,12 11,22 19,31 9,8 19,15 30,20 11,5 24,7 37,7zm3 -229c18,0 34,3 49,10 15,6 28,15 39,27 11,11 20,25 26,41 6,16 10,34 10,52 0,19 -4,37 -10,53 -6,16 -15,29 -26,41 -11,12 -24,21 -39,27 -15,6 -31,10 -49,10 -19,0 -37,-4 -53,-12 -17,-8 -30,-19 -41,-33l-1 0 0 140 -34 0 0 -350 27 0 2 44 1 0c12,-16 26,-28 43,-37 17,-9 36,-13 56,-13zm298 32c-13,0 -24,2 -34,6 -10,4 -19,9 -26,16 -7,8 -13,16 -17,26 -4,10 -7,21 -9,33l166 0c-1,-12 -3,-22 -7,-32 -4,-10 -9,-19 -16,-26 -6,-8 -15,-13 -24,-17 -10,-4 -21,-6 -33,-6zm114 88c0,4 0,8 0,12 -1,4 -1,8 -1,12l-199 0c1,12 4,23 9,34 5,10 11,19 19,27 8,7 17,13 27,18 11,4 22,6 35,6 14,0 27,-3 41,-9 14,-7 26,-15 34,-25l24 22c-13,15 -28,26 -45,33 -18,7 -37,11 -56,11 -18,0 -35,-3 -50,-10 -15,-7 -28,-16 -39,-28 -10,-12 -19,-26 -24,-42 -6,-16 -9,-33 -9,-51 0,-17 3,-34 8,-50 6,-15 13,-29 24,-41 10,-12 22,-22 37,-28 15,-7 32,-11 50,-11 18,0 34,3 48,9 14,6 26,15 36,25 10,11 18,24 23,38 5,15 8,31 8,48z"/>
  <path class="fil6" d="M12831 4398c6,0 12,1 18,2 6,1 12,2 17,3l-7 35c-6,-2 -12,-4 -18,-5 -6,-1 -13,-2 -20,-2 -9,0 -18,2 -25,7 -7,5 -13,12 -18,21 -4,8 -8,18 -10,30 -2,12 -3,24 -3,38l0 126 -34 0 0 -249 28 0 2 34 1 0c15,-27 38,-40 69,-40zm172 230c11,0 22,-1 32,-5 10,-4 18,-9 25,-16 8,-7 13,-15 17,-24 4,-9 6,-20 6,-32l0 -21c-11,-2 -23,-4 -35,-6 -12,-1 -24,-2 -35,-2 -9,0 -18,1 -27,3 -8,2 -16,4 -23,8 -7,5 -13,10 -18,17 -4,7 -6,15 -6,26 0,9 2,17 5,23 4,7 9,12 15,17 6,4 13,7 20,9 8,2 16,3 24,3zm9 -230c33,0 59,8 77,24 18,16 28,41 28,75l0 156 -28 0 -2 -39 -1 0c-10,15 -23,27 -39,34 -15,7 -32,11 -51,11 -12,0 -24,-2 -35,-5 -11,-4 -21,-9 -29,-17 -8,-7 -15,-15 -19,-26 -5,-10 -7,-22 -7,-35 0,-15 2,-28 8,-38 5,-11 13,-19 23,-26 9,-7 20,-11 32,-14 13,-3 26,-5 40,-5 12,0 24,1 37,2 12,1 25,3 37,5l0 -8c0,-23 -6,-39 -19,-48 -13,-10 -30,-15 -51,-15 -15,0 -30,2 -44,7 -13,4 -27,10 -39,18l-17 -30c16,-7 32,-14 48,-19 17,-5 34,-7 51,-7z"/>
  <path class="fil6" d="M13308 4627c13,0 26,-2 37,-7 11,-5 21,-12 30,-20 8,-9 15,-19 19,-31 5,-12 7,-26 7,-41 0,-14 -2,-27 -7,-39 -4,-13 -11,-23 -19,-32 -9,-8 -19,-15 -30,-20 -11,-5 -24,-7 -37,-7 -13,0 -26,2 -37,7 -11,5 -21,12 -29,20 -9,9 -15,19 -20,32 -5,12 -7,25 -7,39 0,15 2,29 7,41 5,12 11,22 20,31 8,8 18,15 29,20 11,5 24,7 37,7zm126 -340l0 366 -27 0 -2 -44 -1 0c-11,16 -25,28 -42,37 -17,9 -36,13 -57,13 -17,0 -33,-3 -48,-10 -15,-6 -28,-15 -39,-27 -12,-12 -20,-25 -27,-41 -6,-16 -9,-34 -9,-53 0,-18 3,-36 9,-52 7,-16 15,-30 27,-41 11,-12 24,-21 39,-27 15,-7 31,-10 48,-10 20,0 37,4 54,12 16,8 30,19 41,33l1 0 0 -156 33 0z"/>
  <path class="fil6" d="M13627 4627c15,0 27,-3 39,-8 12,-5 22,-12 30,-21 8,-9 14,-19 18,-31 5,-12 7,-25 7,-39 0,-13 -2,-26 -7,-38 -4,-12 -10,-23 -18,-31 -8,-9 -18,-16 -30,-21 -12,-5 -24,-8 -39,-8 -14,0 -26,3 -38,8 -11,5 -21,12 -29,21 -8,8 -15,19 -19,31 -4,12 -6,25 -6,38 0,14 2,27 6,39 4,12 11,22 19,31 8,9 18,16 29,21 12,5 24,8 38,8zm0 -229c19,0 36,4 51,10 16,7 29,16 41,28 11,12 20,26 26,41 6,16 9,33 9,51 0,19 -3,36 -9,51 -6,16 -15,30 -26,42 -12,12 -25,21 -41,28 -15,6 -32,10 -51,10 -18,0 -35,-4 -51,-10 -15,-7 -28,-16 -39,-28 -12,-12 -20,-26 -26,-42 -7,-15 -10,-32 -10,-51 0,-18 3,-35 10,-51 6,-15 14,-29 26,-41 11,-12 24,-21 39,-28 16,-6 33,-10 51,-10z"/>
  <path class="fil1 str4" d="M1852 6188c-48,0 -87,6 -87,15l0 1034c0,6 -40,12 -88,12 48,0 88,9 88,15l0 1034c0,9 39,15 87,15"/>
  <path class="fil7" d="M1714 8801c18,0 33,-5 43,-13 11,-8 20,-19 26,-32 6,-13 10,-27 12,-43 2,-16 3,-30 3,-44 0,-14 -1,-29 -3,-44 -2,-16 -6,-30 -12,-43 -6,-13 -15,-24 -26,-32 -10,-9 -25,-13 -43,-13 -18,0 -32,4 -43,13 -11,8 -19,19 -25,32 -6,13 -10,27 -12,43 -2,15 -3,30 -3,44 0,14 1,28 3,44 2,16 6,30 12,43 6,13 14,24 25,32 11,8 25,13 43,13zm0 -292c22,0 41,5 55,14 15,10 27,22 35,38 9,15 15,32 18,52 4,19 6,37 6,56 0,18 -2,37 -6,56 -3,19 -9,36 -18,52 -8,15 -20,28 -35,38 -14,9 -33,14 -55,14 -22,0 -40,-5 -55,-14 -14,-10 -26,-23 -35,-38 -8,-16 -14,-33 -18,-52 -3,-19 -5,-38 -5,-56 0,-19 2,-37 5,-56 4,-20 10,-37 18,-52 9,-16 21,-28 35,-38 15,-9 33,-14 55,-14z"/>
  <path class="fil4" d="M8022 8992c0,24 4,47 12,68 8,22 20,40 35,56 15,16 32,28 53,37 20,9 43,14 68,14 25,0 48,-5 68,-14 21,-9 38,-21 53,-37 15,-16 27,-34 35,-56 8,-21 12,-44 12,-68 0,-24 -4,-47 -12,-68 -8,-22 -20,-40 -35,-56 -15,-16 -32,-28 -53,-37 -20,-9 -43,-14 -68,-14 -25,0 -48,5 -68,14 -21,9 -38,21 -53,37 -15,16 -27,34 -35,56 -8,21 -12,44 -12,68zm377 0c0,21 -3,42 -8,62 -6,19 -14,38 -24,55 -11,17 -23,32 -38,46 -16,14 -33,25 -53,33l90 97 -32 26 -96 -110c-16,3 -32,5 -48,5 -30,0 -58,-6 -84,-17 -26,-11 -48,-26 -66,-45 -19,-19 -33,-42 -43,-68 -11,-26 -16,-54 -16,-84 0,-30 5,-58 16,-84 10,-26 24,-49 43,-68 18,-19 40,-34 66,-45 26,-11 54,-16 84,-16 30,0 59,5 84,16 26,11 48,26 66,45 19,19 33,42 44,68 10,26 15,54 15,84z"/>
  <path class="fil7" d="M786 7080c19,0 36,3 50,10 14,7 26,16 36,28 9,12 16,25 21,41 4,16 7,33 7,50l0 176 -40 0 0 -163c0,-14 -2,-28 -4,-40 -3,-13 -8,-24 -15,-34 -6,-9 -15,-17 -26,-22 -10,-6 -23,-9 -39,-9 -16,0 -30,3 -42,9 -13,6 -23,15 -31,25 -9,10 -15,21 -20,35 -4,13 -6,27 -6,41l0 158 -40 0 0 -439 40 0 0 183 1 0c13,-17 29,-29 48,-37 19,-8 39,-12 60,-12z"/>
  <polygon class="fil7" points="972,7533 945,7533 945,7259 972,7259 972,7397 973,7397 1122,7259 1160,7259 1026,7382 1164,7533 1127,7533 1007,7400 972,7431 "/>
  <path class="fil4" d="M184 694c-14,33 -28,65 -41,97 -13,33 -27,65 -41,97l164 0c-14,-32 -27,-64 -41,-97 -13,-32 -27,-64 -40,-97l-1 0zm98 230l-196 0 -43 101 -43 0 166 -377 36 0 166 377 -43 0 -43 -101zm143 -300l36 0 0 401 -36 0 0 -401zm211 408c-22,0 -38,-6 -48,-18 -10,-12 -15,-29 -15,-50l0 -177 -45 0 0 -34 45 0 0 -92 37 0 0 92 84 0 0 34 -84 0 0 171c0,10 2,20 6,28 4,8 12,12 25,12 8,0 17,-1 27,-3 9,-1 18,-3 26,-6l6 34c-9,3 -20,6 -32,7 -12,2 -22,2 -32,2zm367 -279l0 272 -29 0 -3 -44 -1 0c-12,16 -26,29 -44,38 -18,9 -38,13 -59,13 -14,0 -28,-2 -40,-7 -13,-5 -24,-12 -33,-22 -10,-10 -17,-22 -23,-37 -5,-15 -8,-32 -8,-53l0 -160 36 0 0 149c0,33 7,58 21,73 14,15 33,23 56,23 15,0 27,-3 39,-9 11,-5 20,-13 28,-22 8,-10 14,-20 18,-33 4,-12 6,-24 6,-37l0 -144 36 0zm203 -7c6,0 13,1 19,2 7,1 13,2 18,4l-7 37c-6,-1 -13,-3 -20,-5 -7,-1 -14,-2 -21,-2 -11,0 -20,3 -28,8 -8,6 -15,13 -20,22 -5,10 -8,21 -11,34 -2,13 -3,27 -3,41l0 138 -37 0 0 -272 30 0 2 37 1 0c17,-29 43,-44 77,-44zm187 253c13,0 24,-3 35,-7 11,-4 20,-9 28,-17 8,-7 14,-16 19,-26 4,-11 6,-22 6,-35l0 -23c-13,-3 -26,-5 -38,-6 -13,-2 -26,-3 -39,-3 -10,0 -19,1 -29,3 -10,2 -18,5 -26,10 -8,4 -14,10 -19,18 -5,7 -7,17 -7,28 0,10 2,19 6,26 4,7 9,13 16,18 6,4 14,8 22,10 9,2 17,4 26,4zm10 -253c36,0 65,9 85,26 20,18 30,45 30,82l0 171 -30 0 -2 -43 -1 0c-11,17 -26,30 -43,38 -17,8 -36,12 -56,12 -14,0 -27,-2 -39,-6 -12,-4 -22,-10 -31,-18 -9,-7 -17,-17 -22,-28 -5,-11 -7,-24 -7,-39 0,-17 3,-31 9,-42 6,-11 14,-21 25,-28 10,-7 22,-12 36,-16 13,-3 27,-5 42,-5 14,0 28,1 41,2 14,2 28,4 41,5l0 -8c0,-25 -7,-42 -21,-53 -14,-11 -33,-16 -56,-16 -16,0 -32,3 -47,8 -16,4 -30,11 -44,20l-18 -33c17,-8 34,-15 52,-21 18,-5 37,-8 56,-8z"/>
  <rect class="fil8" width="283" height="297"/>
  <rect class="fil8" x="13989" y="9014" width="283" height="297"/>
  <line class="fil8 str5" x1="1657" y1="4045" x2="8706" y2= "4045" />
  <line class="fil8 str5" x1="8173" y1="8643" x2="8173" y2= "3469" />
  <path class="fil9" d="M3235 2289l-1395 1072 87 114 1396 -1072 -88 -114zm-1515 796l-351 729 792 -155 -441 -574z"/>
  <path class="fil9" d="M10608 7431l-1415 1047 86 115 1415 -1046 -86 -116zm-1529 769l-365 722 796 -140 -431 -582z"/>
  <path class="fil10" d="M10865 3716l-1466 278 10 52 1466 -278 -10 -52zm-1459 167l-238 182 288 81 -50 -263z"/>
 </g>
</svg>
